<?xml version="1.0" encoding="UTF-8" standalone="no"?>
<!DOCTYPE svg PUBLIC "-//W3C//DTD SVG 1.1//EN"
 "http://www.w3.org/Graphics/SVG/1.1/DTD/svg11.dtd">
<!-- Generated by graphviz version 9.0.0 (20230911.1827)
 -->
<!-- Title: G Pages: 1 -->
<svg width="543pt" height="726pt"
 viewBox="0.00 0.00 543.25 725.50" xmlns="http://www.w3.org/2000/svg" xmlns:xlink="http://www.w3.org/1999/xlink">
<g id="graph0" class="graph" transform="scale(1 1) rotate(0) translate(4 721.5)">
<title>G</title>
<polygon fill="white" stroke="none" points="-4,4 -4,-721.5 539.25,-721.5 539.25,4 -4,4"/>
<!-- t0 -->
<g id="node1" class="node">
<title>t0</title>
<polygon fill="none" stroke="black" points="173.25,-701 17.25,-701 17.25,-615 173.25,-615 173.25,-701"/>
<polygon fill="none" stroke="black" points="25.25,-675 25.25,-697 67.25,-697 67.25,-675 25.25,-675"/>
<text text-anchor="start" x="28.25" y="-681.7" font-family="Times,serif" font-weight="bold" font-size="14.00">dtype</text>
<text text-anchor="start" x="60.5" y="-681.7" font-family="Times,serif" font-size="14.00"> </text>
<polygon fill="none" stroke="black" points="67.25,-675 67.25,-697 165.25,-697 165.25,-675 67.25,-675"/>
<text text-anchor="start" x="102.38" y="-680.7" font-family="Times,serif" font-size="14.00">int32</text>
<polygon fill="none" stroke="black" points="25.25,-619 25.25,-675 67.25,-675 67.25,-619 25.25,-619"/>
<text text-anchor="start" x="27.88" y="-642.95" font-family="Times,serif" font-weight="bold" font-size="14.00">range</text>
<text text-anchor="start" x="60.88" y="-642.95" font-family="Times,serif" font-size="14.00"> </text>
<polygon fill="none" stroke="black" points="67.25,-619 67.25,-675 165.25,-675 165.25,-619 67.25,-619"/>
<polygon fill="none" stroke="black" points="70.25,-622 70.25,-672 162.25,-672 162.25,-622 70.25,-622"/>
<polygon fill="none" stroke="black" points="73.25,-647 73.25,-669 109.25,-669 109.25,-647 73.25,-647"/>
<text text-anchor="start" x="75.88" y="-653.7" font-family="Times,serif" font-weight="bold" font-size="14.00">start</text>
<text text-anchor="start" x="102.88" y="-653.7" font-family="Times,serif" font-size="14.00"> </text>
<polygon fill="none" stroke="black" points="109.25,-647 109.25,-669 159.25,-669 159.25,-647 109.25,-647"/>
<text text-anchor="start" x="115.5" y="-652.7" font-family="Times,serif" font-size="14.00">[ 0, 0 ]</text>
<polygon fill="none" stroke="black" points="73.25,-625 73.25,-647 109.25,-647 109.25,-625 73.25,-625"/>
<text text-anchor="start" x="78.88" y="-631.7" font-family="Times,serif" font-weight="bold" font-size="14.00">end</text>
<text text-anchor="start" x="99.88" y="-631.7" font-family="Times,serif" font-size="14.00"> </text>
<polygon fill="none" stroke="black" points="109.25,-625 109.25,-647 159.25,-647 159.25,-625 109.25,-625"/>
<text text-anchor="start" x="112.12" y="-630.7" font-family="Times,serif" font-size="14.00">[ 10, 5 ]</text>
<text text-anchor="start" x="0" y="-704.2" font-family="Times,serif" font-size="14.00">$t0</text>
</g>
<!-- op -->
<g id="node5" class="node">
<title>op</title>
<polygon fill="none" stroke="black" points="386.25,-562.5 166.25,-562.5 166.25,-138.5 386.25,-138.5 386.25,-562.5"/>
<polygon fill="none" stroke="black" points="174.25,-536.5 174.25,-558.5 245.25,-558.5 245.25,-536.5 174.25,-536.5"/>
<text text-anchor="start" x="189.5" y="-543.2" font-family="Times,serif" font-weight="bold" font-size="14.00">kernel</text>
<text text-anchor="start" x="226.25" y="-543.2" font-family="Times,serif" font-size="14.00"> </text>
<polygon fill="none" stroke="black" points="245.25,-536.5 245.25,-558.5 378.25,-558.5 378.25,-536.5 245.25,-536.5"/>
<text text-anchor="start" x="279.88" y="-542.2" font-family="Times,serif" font-size="14.00">builtins:add</text>
<polygon fill="none" stroke="black" points="174.25,-514.5 174.25,-536.5 378.25,-536.5 378.25,-514.5 174.25,-514.5"/>
<text text-anchor="start" x="252.25" y="-521.2" font-family="Times,serif" font-weight="bold" font-size="14.00">params</text>
<text text-anchor="start" x="296.5" y="-521.2" font-family="Times,serif" font-size="14.00"> </text>
<polygon fill="none" stroke="black" points="174.25,-492.5 174.25,-514.5 245.25,-514.5 245.25,-492.5 174.25,-492.5"/>
<text text-anchor="start" x="177.12" y="-498.2" font-family="Times,serif" font-size="14.00">mask_value</text>
<polygon fill="none" stroke="black" points="245.25,-492.5 245.25,-514.5 378.25,-514.5 378.25,-492.5 245.25,-492.5"/>
<text text-anchor="start" x="305" y="-498.2" font-family="Times,serif" font-size="14.00">12</text>
<polygon fill="none" stroke="black" points="174.25,-470.5 174.25,-492.5 378.25,-492.5 378.25,-470.5 174.25,-470.5"/>
<text text-anchor="start" x="256.38" y="-477.2" font-family="Times,serif" font-weight="bold" font-size="14.00">inputs</text>
<text text-anchor="start" x="292.38" y="-477.2" font-family="Times,serif" font-size="14.00"> </text>
<polygon fill="none" stroke="black" points="174.25,-320.5 174.25,-470.5 245.25,-470.5 245.25,-320.5 174.25,-320.5"/>
<text text-anchor="start" x="190.62" y="-390.45" font-family="Times,serif" font-size="14.00">tensors</text>
<polygon fill="none" stroke="black" points="245.25,-320.5 245.25,-470.5 378.25,-470.5 378.25,-320.5 245.25,-320.5"/>
<polygon fill="none" stroke="black" points="248.25,-395.5 248.25,-467.5 375.25,-467.5 375.25,-395.5 248.25,-395.5"/>
<polygon fill="none" stroke="black" points="251.25,-442.5 251.25,-464.5 315.75,-464.5 315.75,-442.5 251.25,-442.5"/>
<text text-anchor="start" x="257.25" y="-449.2" font-family="Times,serif" font-weight="bold" font-size="14.00">tensorId</text>
<text text-anchor="start" x="306" y="-449.2" font-family="Times,serif" font-size="14.00"> </text>
<polygon fill="none" stroke="black" points="315.75,-442.5 315.75,-464.5 372.25,-464.5 372.25,-442.5 315.75,-442.5"/>
<text text-anchor="start" x="335.38" y="-448.2" font-family="Times,serif" font-size="14.00">$t0</text>
<polygon fill="none" stroke="black" points="251.25,-420.5 251.25,-442.5 315.75,-442.5 315.75,-420.5 251.25,-420.5"/>
<text text-anchor="start" x="268.12" y="-427.2" font-family="Times,serif" font-weight="bold" font-size="14.00">start</text>
<text text-anchor="start" x="295.12" y="-427.2" font-family="Times,serif" font-size="14.00"> </text>
<polygon fill="none" stroke="black" points="315.75,-420.5 315.75,-442.5 372.25,-442.5 372.25,-420.5 315.75,-420.5"/>
<text text-anchor="start" x="325.25" y="-426.2" font-family="Times,serif" font-size="14.00">[ 0, 0 ]</text>
<polygon fill="none" stroke="black" points="251.25,-398.5 251.25,-420.5 315.75,-420.5 315.75,-398.5 251.25,-398.5"/>
<text text-anchor="start" x="271.12" y="-405.2" font-family="Times,serif" font-weight="bold" font-size="14.00">end</text>
<text text-anchor="start" x="292.12" y="-405.2" font-family="Times,serif" font-size="14.00"> </text>
<polygon fill="none" stroke="black" points="315.75,-398.5 315.75,-420.5 372.25,-420.5 372.25,-398.5 315.75,-398.5"/>
<text text-anchor="start" x="321.88" y="-404.2" font-family="Times,serif" font-size="14.00">[ 10, 5 ]</text>
<polygon fill="none" stroke="black" points="248.25,-323.5 248.25,-395.5 375.25,-395.5 375.25,-323.5 248.25,-323.5"/>
<polygon fill="none" stroke="black" points="251.25,-370.5 251.25,-392.5 309.25,-392.5 309.25,-370.5 251.25,-370.5"/>
<text text-anchor="start" x="254" y="-377.2" font-family="Times,serif" font-weight="bold" font-size="14.00">tensorId</text>
<text text-anchor="start" x="302.75" y="-377.2" font-family="Times,serif" font-size="14.00"> </text>
<polygon fill="none" stroke="black" points="309.25,-370.5 309.25,-392.5 372.25,-392.5 372.25,-370.5 309.25,-370.5"/>
<text text-anchor="start" x="332.12" y="-376.2" font-family="Times,serif" font-size="14.00">$t1</text>
<polygon fill="none" stroke="black" points="251.25,-348.5 251.25,-370.5 309.25,-370.5 309.25,-348.5 251.25,-348.5"/>
<text text-anchor="start" x="264.88" y="-355.2" font-family="Times,serif" font-weight="bold" font-size="14.00">start</text>
<text text-anchor="start" x="291.88" y="-355.2" font-family="Times,serif" font-size="14.00"> </text>
<polygon fill="none" stroke="black" points="309.25,-348.5 309.25,-370.5 372.25,-370.5 372.25,-348.5 309.25,-348.5"/>
<text text-anchor="start" x="311.88" y="-354.2" font-family="Times,serif" font-size="14.00">[ 200, 50 ]</text>
<polygon fill="none" stroke="black" points="251.25,-326.5 251.25,-348.5 309.25,-348.5 309.25,-326.5 251.25,-326.5"/>
<text text-anchor="start" x="267.88" y="-333.2" font-family="Times,serif" font-weight="bold" font-size="14.00">end</text>
<text text-anchor="start" x="288.88" y="-333.2" font-family="Times,serif" font-size="14.00"> </text>
<polygon fill="none" stroke="black" points="309.25,-326.5 309.25,-348.5 372.25,-348.5 372.25,-326.5 309.25,-326.5"/>
<text text-anchor="start" x="311.88" y="-332.2" font-family="Times,serif" font-size="14.00">[ 210, 55 ]</text>
<polygon fill="none" stroke="black" points="174.25,-242.5 174.25,-320.5 245.25,-320.5 245.25,-242.5 174.25,-242.5"/>
<text text-anchor="start" x="195.12" y="-276.45" font-family="Times,serif" font-size="14.00">mask</text>
<polygon fill="none" stroke="black" points="245.25,-242.5 245.25,-320.5 378.25,-320.5 378.25,-242.5 245.25,-242.5"/>
<polygon fill="none" stroke="black" points="248.25,-245.5 248.25,-317.5 375.25,-317.5 375.25,-245.5 248.25,-245.5"/>
<polygon fill="none" stroke="black" points="251.25,-292.5 251.25,-314.5 315.75,-314.5 315.75,-292.5 251.25,-292.5"/>
<text text-anchor="start" x="257.25" y="-299.2" font-family="Times,serif" font-weight="bold" font-size="14.00">tensorId</text>
<text text-anchor="start" x="306" y="-299.2" font-family="Times,serif" font-size="14.00"> </text>
<polygon fill="none" stroke="black" points="315.75,-292.5 315.75,-314.5 372.25,-314.5 372.25,-292.5 315.75,-292.5"/>
<text text-anchor="start" x="335" y="-298.2" font-family="Times,serif" font-size="14.00">$m</text>
<polygon fill="none" stroke="black" points="251.25,-270.5 251.25,-292.5 315.75,-292.5 315.75,-270.5 251.25,-270.5"/>
<text text-anchor="start" x="268.12" y="-277.2" font-family="Times,serif" font-weight="bold" font-size="14.00">start</text>
<text text-anchor="start" x="295.12" y="-277.2" font-family="Times,serif" font-size="14.00"> </text>
<polygon fill="none" stroke="black" points="315.75,-270.5 315.75,-292.5 372.25,-292.5 372.25,-270.5 315.75,-270.5"/>
<text text-anchor="start" x="325.25" y="-276.2" font-family="Times,serif" font-size="14.00">[ 0, 0 ]</text>
<polygon fill="none" stroke="black" points="251.25,-248.5 251.25,-270.5 315.75,-270.5 315.75,-248.5 251.25,-248.5"/>
<text text-anchor="start" x="271.12" y="-255.2" font-family="Times,serif" font-weight="bold" font-size="14.00">end</text>
<text text-anchor="start" x="292.12" y="-255.2" font-family="Times,serif" font-size="14.00"> </text>
<polygon fill="none" stroke="black" points="315.75,-248.5 315.75,-270.5 372.25,-270.5 372.25,-248.5 315.75,-248.5"/>
<text text-anchor="start" x="321.88" y="-254.2" font-family="Times,serif" font-size="14.00">[ 10, 5 ]</text>
<polygon fill="none" stroke="black" points="174.25,-220.5 174.25,-242.5 378.25,-242.5 378.25,-220.5 174.25,-220.5"/>
<text text-anchor="start" x="252.62" y="-227.2" font-family="Times,serif" font-weight="bold" font-size="14.00">outputs</text>
<text text-anchor="start" x="296.12" y="-227.2" font-family="Times,serif" font-size="14.00"> </text>
<polygon fill="none" stroke="black" points="174.25,-142.5 174.25,-220.5 245.25,-220.5 245.25,-142.5 174.25,-142.5"/>
<text text-anchor="start" x="194.75" y="-176.45" font-family="Times,serif" font-size="14.00">result</text>
<polygon fill="none" stroke="black" points="245.25,-142.5 245.25,-220.5 378.25,-220.5 378.25,-142.5 245.25,-142.5"/>
<polygon fill="none" stroke="black" points="248.25,-145.5 248.25,-217.5 375.25,-217.5 375.25,-145.5 248.25,-145.5"/>
<polygon fill="none" stroke="black" points="251.25,-192.5 251.25,-214.5 315.75,-214.5 315.75,-192.5 251.25,-192.5"/>
<text text-anchor="start" x="257.25" y="-199.2" font-family="Times,serif" font-weight="bold" font-size="14.00">tensorId</text>
<text text-anchor="start" x="306" y="-199.2" font-family="Times,serif" font-size="14.00"> </text>
<polygon fill="none" stroke="black" points="315.75,-192.5 315.75,-214.5 372.25,-214.5 372.25,-192.5 315.75,-192.5"/>
<text text-anchor="start" x="337.62" y="-198.2" font-family="Times,serif" font-size="14.00">$z</text>
<polygon fill="none" stroke="black" points="251.25,-170.5 251.25,-192.5 315.75,-192.5 315.75,-170.5 251.25,-170.5"/>
<text text-anchor="start" x="268.12" y="-177.2" font-family="Times,serif" font-weight="bold" font-size="14.00">start</text>
<text text-anchor="start" x="295.12" y="-177.2" font-family="Times,serif" font-size="14.00"> </text>
<polygon fill="none" stroke="black" points="315.75,-170.5 315.75,-192.5 372.25,-192.5 372.25,-170.5 315.75,-170.5"/>
<text text-anchor="start" x="325.25" y="-176.2" font-family="Times,serif" font-size="14.00">[ 0, 0 ]</text>
<polygon fill="none" stroke="black" points="251.25,-148.5 251.25,-170.5 315.75,-170.5 315.75,-148.5 251.25,-148.5"/>
<text text-anchor="start" x="271.12" y="-155.2" font-family="Times,serif" font-weight="bold" font-size="14.00">end</text>
<text text-anchor="start" x="292.12" y="-155.2" font-family="Times,serif" font-size="14.00"> </text>
<polygon fill="none" stroke="black" points="315.75,-148.5 315.75,-170.5 372.25,-170.5 372.25,-148.5 315.75,-148.5"/>
<text text-anchor="start" x="321.88" y="-154.2" font-family="Times,serif" font-size="14.00">[ 10, 5 ]</text>
</g>
<!-- t0&#45;&gt;op -->
<g id="edge1" class="edge">
<title>t0&#45;&gt;op</title>
<path fill="none" stroke="black" d="M120.42,-614.52C131.49,-595.84 145.34,-572.45 160.21,-547.37"/>
<polygon fill="black" stroke="black" points="163.09,-549.37 165.17,-538.98 157.07,-545.8 163.09,-549.37"/>
<text text-anchor="middle" x="166.25" y="-583.7" font-family="Times,serif" font-size="14.00">tensors[0]</text>
</g>
<!-- t1 -->
<g id="node2" class="node">
<title>t1</title>
<polygon fill="none" stroke="black" points="360.75,-701 191.75,-701 191.75,-615 360.75,-615 360.75,-701"/>
<polygon fill="none" stroke="black" points="199.75,-675 199.75,-697 241.75,-697 241.75,-675 199.75,-675"/>
<text text-anchor="start" x="202.75" y="-681.7" font-family="Times,serif" font-weight="bold" font-size="14.00">dtype</text>
<text text-anchor="start" x="235" y="-681.7" font-family="Times,serif" font-size="14.00"> </text>
<polygon fill="none" stroke="black" points="241.75,-675 241.75,-697 352.75,-697 352.75,-675 241.75,-675"/>
<text text-anchor="start" x="283.38" y="-680.7" font-family="Times,serif" font-size="14.00">int32</text>
<polygon fill="none" stroke="black" points="199.75,-619 199.75,-675 241.75,-675 241.75,-619 199.75,-619"/>
<text text-anchor="start" x="202.38" y="-642.95" font-family="Times,serif" font-weight="bold" font-size="14.00">range</text>
<text text-anchor="start" x="235.38" y="-642.95" font-family="Times,serif" font-size="14.00"> </text>
<polygon fill="none" stroke="black" points="241.75,-619 241.75,-675 352.75,-675 352.75,-619 241.75,-619"/>
<polygon fill="none" stroke="black" points="244.75,-622 244.75,-672 349.75,-672 349.75,-622 244.75,-622"/>
<polygon fill="none" stroke="black" points="247.75,-647 247.75,-669 283.75,-669 283.75,-647 247.75,-647"/>
<text text-anchor="start" x="250.38" y="-653.7" font-family="Times,serif" font-weight="bold" font-size="14.00">start</text>
<text text-anchor="start" x="277.38" y="-653.7" font-family="Times,serif" font-size="14.00"> </text>
<polygon fill="none" stroke="black" points="283.75,-647 283.75,-669 346.75,-669 346.75,-647 283.75,-647"/>
<text text-anchor="start" x="286.38" y="-652.7" font-family="Times,serif" font-size="14.00">[ 200, 50 ]</text>
<polygon fill="none" stroke="black" points="247.75,-625 247.75,-647 283.75,-647 283.75,-625 247.75,-625"/>
<text text-anchor="start" x="253.38" y="-631.7" font-family="Times,serif" font-weight="bold" font-size="14.00">end</text>
<text text-anchor="start" x="274.38" y="-631.7" font-family="Times,serif" font-size="14.00"> </text>
<polygon fill="none" stroke="black" points="283.75,-625 283.75,-647 346.75,-647 346.75,-625 283.75,-625"/>
<text text-anchor="start" x="286.38" y="-630.7" font-family="Times,serif" font-size="14.00">[ 210, 55 ]</text>
<text text-anchor="start" x="174.5" y="-704.2" font-family="Times,serif" font-size="14.00">$t1</text>
</g>
<!-- t1&#45;&gt;op -->
<g id="edge2" class="edge">
<title>t1&#45;&gt;op</title>
<path fill="none" stroke="black" d="M276.25,-614.52C276.25,-602.76 276.25,-589.14 276.25,-574.4"/>
<polygon fill="black" stroke="black" points="279.75,-574.44 276.25,-564.44 272.75,-574.44 279.75,-574.44"/>
<text text-anchor="middle" x="303.25" y="-583.7" font-family="Times,serif" font-size="14.00">tensors[1]</text>
</g>
<!-- m -->
<g id="node3" class="node">
<title>m</title>
<polygon fill="none" stroke="black" points="535.25,-701 379.25,-701 379.25,-615 535.25,-615 535.25,-701"/>
<polygon fill="none" stroke="black" points="387.25,-675 387.25,-697 429.25,-697 429.25,-675 387.25,-675"/>
<text text-anchor="start" x="390.25" y="-681.7" font-family="Times,serif" font-weight="bold" font-size="14.00">dtype</text>
<text text-anchor="start" x="422.5" y="-681.7" font-family="Times,serif" font-size="14.00"> </text>
<polygon fill="none" stroke="black" points="429.25,-675 429.25,-697 527.25,-697 527.25,-675 429.25,-675"/>
<text text-anchor="start" x="456.88" y="-680.7" font-family="Times,serif" font-size="14.00">boolean</text>
<polygon fill="none" stroke="black" points="387.25,-619 387.25,-675 429.25,-675 429.25,-619 387.25,-619"/>
<text text-anchor="start" x="389.88" y="-642.95" font-family="Times,serif" font-weight="bold" font-size="14.00">range</text>
<text text-anchor="start" x="422.88" y="-642.95" font-family="Times,serif" font-size="14.00"> </text>
<polygon fill="none" stroke="black" points="429.25,-619 429.25,-675 527.25,-675 527.25,-619 429.25,-619"/>
<polygon fill="none" stroke="black" points="432.25,-622 432.25,-672 524.25,-672 524.25,-622 432.25,-622"/>
<polygon fill="none" stroke="black" points="435.25,-647 435.25,-669 471.25,-669 471.25,-647 435.25,-647"/>
<text text-anchor="start" x="437.88" y="-653.7" font-family="Times,serif" font-weight="bold" font-size="14.00">start</text>
<text text-anchor="start" x="464.88" y="-653.7" font-family="Times,serif" font-size="14.00"> </text>
<polygon fill="none" stroke="black" points="471.25,-647 471.25,-669 521.25,-669 521.25,-647 471.25,-647"/>
<text text-anchor="start" x="477.5" y="-652.7" font-family="Times,serif" font-size="14.00">[ 0, 0 ]</text>
<polygon fill="none" stroke="black" points="435.25,-625 435.25,-647 471.25,-647 471.25,-625 435.25,-625"/>
<text text-anchor="start" x="440.88" y="-631.7" font-family="Times,serif" font-weight="bold" font-size="14.00">end</text>
<text text-anchor="start" x="461.88" y="-631.7" font-family="Times,serif" font-size="14.00"> </text>
<polygon fill="none" stroke="black" points="471.25,-625 471.25,-647 521.25,-647 521.25,-625 471.25,-625"/>
<text text-anchor="start" x="474.12" y="-630.7" font-family="Times,serif" font-size="14.00">[ 10, 5 ]</text>
<text text-anchor="start" x="361.25" y="-704.2" font-family="Times,serif" font-size="14.00">$m</text>
</g>
<!-- m&#45;&gt;op -->
<g id="edge3" class="edge">
<title>m&#45;&gt;op</title>
<path fill="none" stroke="black" d="M432.08,-614.52C421.01,-595.84 407.16,-572.45 392.29,-547.37"/>
<polygon fill="black" stroke="black" points="395.43,-545.8 387.33,-538.98 389.41,-549.37 395.43,-545.8"/>
<text text-anchor="middle" x="439.75" y="-583.7" font-family="Times,serif" font-size="14.00">mask[0]</text>
</g>
<!-- z -->
<g id="node4" class="node">
<title>z</title>
<polygon fill="none" stroke="black" points="354.25,-86 198.25,-86 198.25,0 354.25,0 354.25,-86"/>
<polygon fill="none" stroke="black" points="206.25,-60 206.25,-82 248.25,-82 248.25,-60 206.25,-60"/>
<text text-anchor="start" x="209.25" y="-66.7" font-family="Times,serif" font-weight="bold" font-size="14.00">dtype</text>
<text text-anchor="start" x="241.5" y="-66.7" font-family="Times,serif" font-size="14.00"> </text>
<polygon fill="none" stroke="black" points="248.25,-60 248.25,-82 346.25,-82 346.25,-60 248.25,-60"/>
<text text-anchor="start" x="283.38" y="-65.7" font-family="Times,serif" font-size="14.00">int32</text>
<polygon fill="none" stroke="black" points="206.25,-4 206.25,-60 248.25,-60 248.25,-4 206.25,-4"/>
<text text-anchor="start" x="208.88" y="-27.95" font-family="Times,serif" font-weight="bold" font-size="14.00">range</text>
<text text-anchor="start" x="241.88" y="-27.95" font-family="Times,serif" font-size="14.00"> </text>
<polygon fill="none" stroke="black" points="248.25,-4 248.25,-60 346.25,-60 346.25,-4 248.25,-4"/>
<polygon fill="none" stroke="black" points="251.25,-7 251.25,-57 343.25,-57 343.25,-7 251.25,-7"/>
<polygon fill="none" stroke="black" points="254.25,-32 254.25,-54 290.25,-54 290.25,-32 254.25,-32"/>
<text text-anchor="start" x="256.88" y="-38.7" font-family="Times,serif" font-weight="bold" font-size="14.00">start</text>
<text text-anchor="start" x="283.88" y="-38.7" font-family="Times,serif" font-size="14.00"> </text>
<polygon fill="none" stroke="black" points="290.25,-32 290.25,-54 340.25,-54 340.25,-32 290.25,-32"/>
<text text-anchor="start" x="296.5" y="-37.7" font-family="Times,serif" font-size="14.00">[ 0, 0 ]</text>
<polygon fill="none" stroke="black" points="254.25,-10 254.25,-32 290.25,-32 290.25,-10 254.25,-10"/>
<text text-anchor="start" x="259.88" y="-16.7" font-family="Times,serif" font-weight="bold" font-size="14.00">end</text>
<text text-anchor="start" x="280.88" y="-16.7" font-family="Times,serif" font-size="14.00"> </text>
<polygon fill="none" stroke="black" points="290.25,-10 290.25,-32 340.25,-32 340.25,-10 290.25,-10"/>
<text text-anchor="start" x="293.12" y="-15.7" font-family="Times,serif" font-size="14.00">[ 10, 5 ]</text>
<text text-anchor="start" x="185.5" y="-89.2" font-family="Times,serif" font-size="14.00">$z</text>
</g>
<!-- op&#45;&gt;z -->
<g id="edge4" class="edge">
<title>op&#45;&gt;z</title>
<path fill="none" stroke="black" d="M276.25,-138.15C276.25,-123.54 276.25,-109.77 276.25,-97.5"/>
<polygon fill="black" stroke="black" points="279.75,-97.74 276.25,-87.74 272.75,-97.74 279.75,-97.74"/>
<text text-anchor="middle" x="299.12" y="-107.2" font-family="Times,serif" font-size="14.00">result[0]</text>
</g>
</g>
</svg>
