<?xml version="1.0" encoding="UTF-8" standalone="no"?>
<!DOCTYPE svg PUBLIC "-//W3C//DTD SVG 1.1//EN"
 "http://www.w3.org/Graphics/SVG/1.1/DTD/svg11.dtd">
<!-- Generated by graphviz version 9.0.0 (20230911.1827)
 -->
<!-- Title: G Pages: 1 -->
<svg width="429pt" height="676pt"
 viewBox="0.00 0.00 429.25 675.50" xmlns="http://www.w3.org/2000/svg" xmlns:xlink="http://www.w3.org/1999/xlink">
<g id="graph0" class="graph" transform="scale(1 1) rotate(0) translate(4 671.5)">
<title>G</title>
<polygon fill="white" stroke="none" points="-4,4 -4,-671.5 425.25,-671.5 425.25,4 -4,4"/>
<!-- t0 -->
<g id="node1" class="node">
<title>t0</title>
<polygon fill="none" stroke="black" points="71.25,-626 17.25,-626 17.25,-590 71.25,-590 71.25,-626"/>
<text text-anchor="middle" x="44.25" y="-602.95" font-family="Times,serif" font-size="14.00">t0</text>
<text text-anchor="start" x="0" y="-629.2" font-family="Times,serif" font-size="14.00">$t0</text>
</g>
<!-- op -->
<g id="node5" class="node">
<title>op</title>
<polygon fill="none" stroke="black" points="279.25,-512.5 63.25,-512.5 63.25,-88.5 279.25,-88.5 279.25,-512.5"/>
<polygon fill="none" stroke="black" points="71.25,-486.5 71.25,-508.5 142.25,-508.5 142.25,-486.5 71.25,-486.5"/>
<text text-anchor="start" x="88.38" y="-493.2" font-family="Times,serif" font-weight="bold" font-size="14.00">kernel</text>
<polygon fill="none" stroke="black" points="142.25,-486.5 142.25,-508.5 271.25,-508.5 271.25,-486.5 142.25,-486.5"/>
<text text-anchor="start" x="174.88" y="-492.2" font-family="Times,serif" font-size="14.00">builtins:add</text>
<polygon fill="none" stroke="black" points="71.25,-464.5 71.25,-486.5 271.25,-486.5 271.25,-464.5 71.25,-464.5"/>
<text text-anchor="start" x="149.12" y="-471.2" font-family="Times,serif" font-weight="bold" font-size="14.00">params</text>
<polygon fill="none" stroke="black" points="71.25,-442.5 71.25,-464.5 142.25,-464.5 142.25,-442.5 71.25,-442.5"/>
<text text-anchor="start" x="74.12" y="-448.2" font-family="Times,serif" font-size="14.00">mask_value</text>
<polygon fill="none" stroke="black" points="142.25,-442.5 142.25,-464.5 271.25,-464.5 271.25,-442.5 142.25,-442.5"/>
<text text-anchor="start" x="200" y="-448.2" font-family="Times,serif" font-size="14.00">12</text>
<polygon fill="none" stroke="black" points="71.25,-420.5 71.25,-442.5 271.25,-442.5 271.25,-420.5 71.25,-420.5"/>
<text text-anchor="start" x="153.25" y="-427.2" font-family="Times,serif" font-weight="bold" font-size="14.00">inputs</text>
<polygon fill="none" stroke="black" points="71.25,-270.5 71.25,-420.5 142.25,-420.5 142.25,-270.5 71.25,-270.5"/>
<text text-anchor="start" x="87.62" y="-340.45" font-family="Times,serif" font-size="14.00">tensors</text>
<polygon fill="none" stroke="black" points="142.25,-270.5 142.25,-420.5 271.25,-420.5 271.25,-270.5 142.25,-270.5"/>
<polygon fill="none" stroke="black" points="145.25,-345.5 145.25,-417.5 268.25,-417.5 268.25,-345.5 145.25,-345.5"/>
<polygon fill="none" stroke="black" points="148.25,-392.5 148.25,-414.5 208.75,-414.5 208.75,-392.5 148.25,-392.5"/>
<text text-anchor="start" x="154.12" y="-399.2" font-family="Times,serif" font-weight="bold" font-size="14.00">tensorId</text>
<polygon fill="none" stroke="black" points="208.75,-392.5 208.75,-414.5 265.25,-414.5 265.25,-392.5 208.75,-392.5"/>
<text text-anchor="start" x="228.38" y="-398.2" font-family="Times,serif" font-size="14.00">$t0</text>
<polygon fill="none" stroke="black" points="148.25,-370.5 148.25,-392.5 208.75,-392.5 208.75,-370.5 148.25,-370.5"/>
<text text-anchor="start" x="165" y="-377.2" font-family="Times,serif" font-weight="bold" font-size="14.00">start</text>
<polygon fill="none" stroke="black" points="208.75,-370.5 208.75,-392.5 265.25,-392.5 265.25,-370.5 208.75,-370.5"/>
<text text-anchor="start" x="218.25" y="-376.2" font-family="Times,serif" font-size="14.00">[ 0, 0 ]</text>
<polygon fill="none" stroke="black" points="148.25,-348.5 148.25,-370.5 208.75,-370.5 208.75,-348.5 148.25,-348.5"/>
<text text-anchor="start" x="168" y="-355.2" font-family="Times,serif" font-weight="bold" font-size="14.00">end</text>
<polygon fill="none" stroke="black" points="208.75,-348.5 208.75,-370.5 265.25,-370.5 265.25,-348.5 208.75,-348.5"/>
<text text-anchor="start" x="214.88" y="-354.2" font-family="Times,serif" font-size="14.00">[ 10, 5 ]</text>
<polygon fill="none" stroke="black" points="145.25,-273.5 145.25,-345.5 268.25,-345.5 268.25,-273.5 145.25,-273.5"/>
<polygon fill="none" stroke="black" points="148.25,-320.5 148.25,-342.5 202.25,-342.5 202.25,-320.5 148.25,-320.5"/>
<text text-anchor="start" x="150.88" y="-327.2" font-family="Times,serif" font-weight="bold" font-size="14.00">tensorId</text>
<polygon fill="none" stroke="black" points="202.25,-320.5 202.25,-342.5 265.25,-342.5 265.25,-320.5 202.25,-320.5"/>
<text text-anchor="start" x="225.12" y="-326.2" font-family="Times,serif" font-size="14.00">$t1</text>
<polygon fill="none" stroke="black" points="148.25,-298.5 148.25,-320.5 202.25,-320.5 202.25,-298.5 148.25,-298.5"/>
<text text-anchor="start" x="161.75" y="-305.2" font-family="Times,serif" font-weight="bold" font-size="14.00">start</text>
<polygon fill="none" stroke="black" points="202.25,-298.5 202.25,-320.5 265.25,-320.5 265.25,-298.5 202.25,-298.5"/>
<text text-anchor="start" x="204.88" y="-304.2" font-family="Times,serif" font-size="14.00">[ 200, 50 ]</text>
<polygon fill="none" stroke="black" points="148.25,-276.5 148.25,-298.5 202.25,-298.5 202.25,-276.5 148.25,-276.5"/>
<text text-anchor="start" x="164.75" y="-283.2" font-family="Times,serif" font-weight="bold" font-size="14.00">end</text>
<polygon fill="none" stroke="black" points="202.25,-276.5 202.25,-298.5 265.25,-298.5 265.25,-276.5 202.25,-276.5"/>
<text text-anchor="start" x="204.88" y="-282.2" font-family="Times,serif" font-size="14.00">[ 210, 55 ]</text>
<polygon fill="none" stroke="black" points="71.25,-192.5 71.25,-270.5 142.25,-270.5 142.25,-192.5 71.25,-192.5"/>
<text text-anchor="start" x="92.12" y="-226.45" font-family="Times,serif" font-size="14.00">mask</text>
<polygon fill="none" stroke="black" points="142.25,-192.5 142.25,-270.5 271.25,-270.5 271.25,-192.5 142.25,-192.5"/>
<polygon fill="none" stroke="black" points="145.25,-195.5 145.25,-267.5 268.25,-267.5 268.25,-195.5 145.25,-195.5"/>
<polygon fill="none" stroke="black" points="148.25,-242.5 148.25,-264.5 208.75,-264.5 208.75,-242.5 148.25,-242.5"/>
<text text-anchor="start" x="154.12" y="-249.2" font-family="Times,serif" font-weight="bold" font-size="14.00">tensorId</text>
<polygon fill="none" stroke="black" points="208.75,-242.5 208.75,-264.5 265.25,-264.5 265.25,-242.5 208.75,-242.5"/>
<text text-anchor="start" x="219" y="-248.2" font-family="Times,serif" font-size="14.00">$mask</text>
<polygon fill="none" stroke="black" points="148.25,-220.5 148.25,-242.5 208.75,-242.5 208.75,-220.5 148.25,-220.5"/>
<text text-anchor="start" x="165" y="-227.2" font-family="Times,serif" font-weight="bold" font-size="14.00">start</text>
<polygon fill="none" stroke="black" points="208.75,-220.5 208.75,-242.5 265.25,-242.5 265.25,-220.5 208.75,-220.5"/>
<text text-anchor="start" x="218.25" y="-226.2" font-family="Times,serif" font-size="14.00">[ 0, 0 ]</text>
<polygon fill="none" stroke="black" points="148.25,-198.5 148.25,-220.5 208.75,-220.5 208.75,-198.5 148.25,-198.5"/>
<text text-anchor="start" x="168" y="-205.2" font-family="Times,serif" font-weight="bold" font-size="14.00">end</text>
<polygon fill="none" stroke="black" points="208.75,-198.5 208.75,-220.5 265.25,-220.5 265.25,-198.5 208.75,-198.5"/>
<text text-anchor="start" x="214.88" y="-204.2" font-family="Times,serif" font-size="14.00">[ 10, 5 ]</text>
<polygon fill="none" stroke="black" points="71.25,-170.5 71.25,-192.5 271.25,-192.5 271.25,-170.5 71.25,-170.5"/>
<text text-anchor="start" x="149.5" y="-177.2" font-family="Times,serif" font-weight="bold" font-size="14.00">outputs</text>
<polygon fill="none" stroke="black" points="71.25,-92.5 71.25,-170.5 142.25,-170.5 142.25,-92.5 71.25,-92.5"/>
<text text-anchor="start" x="91.75" y="-126.45" font-family="Times,serif" font-size="14.00">result</text>
<polygon fill="none" stroke="black" points="142.25,-92.5 142.25,-170.5 271.25,-170.5 271.25,-92.5 142.25,-92.5"/>
<polygon fill="none" stroke="black" points="145.25,-95.5 145.25,-167.5 268.25,-167.5 268.25,-95.5 145.25,-95.5"/>
<polygon fill="none" stroke="black" points="148.25,-142.5 148.25,-164.5 208.75,-164.5 208.75,-142.5 148.25,-142.5"/>
<text text-anchor="start" x="154.12" y="-149.2" font-family="Times,serif" font-weight="bold" font-size="14.00">tensorId</text>
<polygon fill="none" stroke="black" points="208.75,-142.5 208.75,-164.5 265.25,-164.5 265.25,-142.5 208.75,-142.5"/>
<text text-anchor="start" x="230.62" y="-148.2" font-family="Times,serif" font-size="14.00">$z</text>
<polygon fill="none" stroke="black" points="148.25,-120.5 148.25,-142.5 208.75,-142.5 208.75,-120.5 148.25,-120.5"/>
<text text-anchor="start" x="165" y="-127.2" font-family="Times,serif" font-weight="bold" font-size="14.00">start</text>
<polygon fill="none" stroke="black" points="208.75,-120.5 208.75,-142.5 265.25,-142.5 265.25,-120.5 208.75,-120.5"/>
<text text-anchor="start" x="218.25" y="-126.2" font-family="Times,serif" font-size="14.00">[ 0, 0 ]</text>
<polygon fill="none" stroke="black" points="148.25,-98.5 148.25,-120.5 208.75,-120.5 208.75,-98.5 148.25,-98.5"/>
<text text-anchor="start" x="168" y="-105.2" font-family="Times,serif" font-weight="bold" font-size="14.00">end</text>
<polygon fill="none" stroke="black" points="208.75,-98.5 208.75,-120.5 265.25,-120.5 265.25,-98.5 208.75,-98.5"/>
<text text-anchor="start" x="214.88" y="-104.2" font-family="Times,serif" font-size="14.00">[ 10, 5 ]</text>
</g>
<!-- t0&#45;&gt;op -->
<g id="edge1" class="edge">
<title>t0&#45;&gt;op</title>
<path fill="none" stroke="black" d="M51.44,-589.7C57.73,-574.58 67.63,-550.76 79.11,-523.14"/>
<polygon fill="black" stroke="black" points="82.22,-524.77 82.83,-514.19 75.76,-522.08 82.22,-524.77"/>
<text text-anchor="middle" x="102.25" y="-533.7" font-family="Times,serif" font-size="14.00">tensors[0]</text>
</g>
<!-- t1 -->
<g id="node2" class="node">
<title>t1</title>
<polygon fill="none" stroke="black" points="252.75,-651 89.75,-651 89.75,-565 252.75,-565 252.75,-651"/>
<polygon fill="none" stroke="black" points="97.75,-625 97.75,-647 136.75,-647 136.75,-625 97.75,-625"/>
<text text-anchor="start" x="101.12" y="-631.7" font-family="Times,serif" font-weight="bold" font-size="14.00">dtype</text>
<polygon fill="none" stroke="black" points="136.75,-625 136.75,-647 244.75,-647 244.75,-625 136.75,-625"/>
<text text-anchor="start" x="176.88" y="-630.7" font-family="Times,serif" font-size="14.00">int32</text>
<polygon fill="none" stroke="black" points="97.75,-569 97.75,-625 136.75,-625 136.75,-569 97.75,-569"/>
<text text-anchor="start" x="100.75" y="-592.95" font-family="Times,serif" font-weight="bold" font-size="14.00">range</text>
<polygon fill="none" stroke="black" points="136.75,-569 136.75,-625 244.75,-625 244.75,-569 136.75,-569"/>
<polygon fill="none" stroke="black" points="139.75,-572 139.75,-622 241.75,-622 241.75,-572 139.75,-572"/>
<polygon fill="none" stroke="black" points="142.75,-597 142.75,-619 175.75,-619 175.75,-597 142.75,-597"/>
<text text-anchor="start" x="145.75" y="-603.7" font-family="Times,serif" font-weight="bold" font-size="14.00">start</text>
<polygon fill="none" stroke="black" points="175.75,-597 175.75,-619 238.75,-619 238.75,-597 175.75,-597"/>
<text text-anchor="start" x="178.38" y="-602.7" font-family="Times,serif" font-size="14.00">[ 200, 50 ]</text>
<polygon fill="none" stroke="black" points="142.75,-575 142.75,-597 175.75,-597 175.75,-575 142.75,-575"/>
<text text-anchor="start" x="148.75" y="-581.7" font-family="Times,serif" font-weight="bold" font-size="14.00">end</text>
<polygon fill="none" stroke="black" points="175.75,-575 175.75,-597 238.75,-597 238.75,-575 175.75,-575"/>
<text text-anchor="start" x="178.38" y="-580.7" font-family="Times,serif" font-size="14.00">[ 210, 55 ]</text>
<text text-anchor="start" x="72.5" y="-654.2" font-family="Times,serif" font-size="14.00">$t1</text>
</g>
<!-- t1&#45;&gt;op -->
<g id="edge2" class="edge">
<title>t1&#45;&gt;op</title>
<path fill="none" stroke="black" d="M171.25,-564.52C171.25,-552.76 171.25,-539.14 171.25,-524.4"/>
<polygon fill="black" stroke="black" points="174.75,-524.44 171.25,-514.44 167.75,-524.44 174.75,-524.44"/>
<text text-anchor="middle" x="198.25" y="-533.7" font-family="Times,serif" font-size="14.00">tensors[1]</text>
</g>
<!-- m -->
<g id="node3" class="node">
<title>m</title>
<polygon fill="none" stroke="black" points="421.25,-651 271.25,-651 271.25,-565 421.25,-565 421.25,-651"/>
<polygon fill="none" stroke="black" points="279.25,-625 279.25,-647 318.25,-647 318.25,-625 279.25,-625"/>
<text text-anchor="start" x="282.62" y="-631.7" font-family="Times,serif" font-weight="bold" font-size="14.00">dtype</text>
<polygon fill="none" stroke="black" points="318.25,-625 318.25,-647 413.25,-647 413.25,-625 318.25,-625"/>
<text text-anchor="start" x="344.38" y="-630.7" font-family="Times,serif" font-size="14.00">boolean</text>
<polygon fill="none" stroke="black" points="279.25,-569 279.25,-625 318.25,-625 318.25,-569 279.25,-569"/>
<text text-anchor="start" x="282.25" y="-592.95" font-family="Times,serif" font-weight="bold" font-size="14.00">range</text>
<polygon fill="none" stroke="black" points="318.25,-569 318.25,-625 413.25,-625 413.25,-569 318.25,-569"/>
<polygon fill="none" stroke="black" points="321.25,-572 321.25,-622 410.25,-622 410.25,-572 321.25,-572"/>
<polygon fill="none" stroke="black" points="324.25,-597 324.25,-619 357.25,-619 357.25,-597 324.25,-597"/>
<text text-anchor="start" x="327.25" y="-603.7" font-family="Times,serif" font-weight="bold" font-size="14.00">start</text>
<polygon fill="none" stroke="black" points="357.25,-597 357.25,-619 407.25,-619 407.25,-597 357.25,-597"/>
<text text-anchor="start" x="363.5" y="-602.7" font-family="Times,serif" font-size="14.00">[ 0, 0 ]</text>
<polygon fill="none" stroke="black" points="324.25,-575 324.25,-597 357.25,-597 357.25,-575 324.25,-575"/>
<text text-anchor="start" x="330.25" y="-581.7" font-family="Times,serif" font-weight="bold" font-size="14.00">end</text>
<polygon fill="none" stroke="black" points="357.25,-575 357.25,-597 407.25,-597 407.25,-575 357.25,-575"/>
<text text-anchor="start" x="360.12" y="-580.7" font-family="Times,serif" font-size="14.00">[ 10, 5 ]</text>
<text text-anchor="start" x="235.25" y="-654.2" font-family="Times,serif" font-size="14.00">$mask</text>
</g>
<!-- m&#45;&gt;op -->
<g id="edge3" class="edge">
<title>m&#45;&gt;op</title>
<path fill="none" stroke="black" d="M321.92,-564.52C311.68,-546.65 298.98,-524.47 285.32,-500.63"/>
<polygon fill="black" stroke="black" points="288.38,-498.94 280.37,-492 282.31,-502.42 288.38,-498.94"/>
<text text-anchor="middle" x="330.75" y="-533.7" font-family="Times,serif" font-size="14.00">mask[0]</text>
</g>
<!-- z -->
<g id="node4" class="node">
<title>z</title>
<polygon fill="none" stroke="black" points="198.25,-36 144.25,-36 144.25,0 198.25,0 198.25,-36"/>
<text text-anchor="middle" x="171.25" y="-12.95" font-family="Times,serif" font-size="14.00">z</text>
<text text-anchor="start" x="131.5" y="-39.2" font-family="Times,serif" font-size="14.00">$z</text>
</g>
<!-- op&#45;&gt;z -->
<g id="edge4" class="edge">
<title>op&#45;&gt;z</title>
<path fill="none" stroke="black" d="M171.25,-88.34C171.25,-72.95 171.25,-59.12 171.25,-47.92"/>
<polygon fill="black" stroke="black" points="174.75,-47.98 171.25,-37.98 167.75,-47.98 174.75,-47.98"/>
<text text-anchor="middle" x="194.12" y="-57.2" font-family="Times,serif" font-size="14.00">result[0]</text>
</g>
</g>
</svg>
