<?xml version="1.0" encoding="UTF-8" standalone="no"?>
<!DOCTYPE svg PUBLIC "-//W3C//DTD SVG 1.1//EN"
 "http://www.w3.org/Graphics/SVG/1.1/DTD/svg11.dtd">
<!-- Generated by graphviz version 9.0.0 (20230911.1827)
 -->
<!-- Title: G Pages: 1 -->
<svg width="1222pt" height="744pt"
 viewBox="0.00 0.00 1221.77 744.00" xmlns="http://www.w3.org/2000/svg" xmlns:xlink="http://www.w3.org/1999/xlink">
<g id="graph0" class="graph" transform="scale(1 1) rotate(0) translate(4 740)">
<title>G</title>
<polygon fill="white" stroke="none" points="-4,4 -4,-740 1217.77,-740 1217.77,4 -4,4"/>
<g id="clust1" class="cluster">
<title>cluster_0</title>
<polygon fill="none" stroke="black" points="482.85,-446 482.85,-728 804.35,-728 804.35,-446 482.85,-446"/>
</g>
<g id="clust3" class="cluster">
<title>cluster_1</title>
<polygon fill="none" stroke="black" points="478.35,-8 478.35,-294 804.35,-294 804.35,-8 478.35,-8"/>
</g>
<!-- idx0 -->
<g id="node1" class="node">
<title>idx0</title>
<polygon fill="none" stroke="black" points="685.35,-679.25 685.35,-713.25 717.35,-713.25 717.35,-679.25 685.35,-679.25"/>
<text text-anchor="start" x="694.6" y="-689.7" font-family="Times,serif" font-size="14.00">⋱</text>
<polygon fill="none" stroke="black" points="719.35,-679.25 719.35,-713.25 755.35,-713.25 755.35,-679.25 719.35,-679.25"/>
<text text-anchor="start" x="730.23" y="-690.95" font-family="Times,serif" font-size="14.00">…</text>
<polygon fill="none" stroke="black" points="757.35,-679.25 757.35,-713.25 789.35,-713.25 789.35,-679.25 757.35,-679.25"/>
<text text-anchor="start" x="766.98" y="-689.7" font-family="Times,serif" font-size="14.00">⋰</text>
<polygon fill="none" stroke="black" points="685.35,-643.25 685.35,-677.25 717.35,-677.25 717.35,-643.25 685.35,-643.25"/>
<text text-anchor="start" x="694.23" y="-654.95" font-family="Times,serif" font-size="14.00">…</text>
<polygon fill="#d6eaf8" stroke="none" points="719.35,-643.25 719.35,-677.25 755.35,-677.25 755.35,-643.25 719.35,-643.25"/>
<polygon fill="none" stroke="black" points="719.35,-643.25 719.35,-677.25 755.35,-677.25 755.35,-643.25 719.35,-643.25"/>
<text text-anchor="start" x="727.98" y="-654.95" font-family="Times,serif" font-size="14.00">i,m</text>
<polygon fill="none" stroke="black" points="757.35,-643.25 757.35,-677.25 789.35,-677.25 789.35,-643.25 757.35,-643.25"/>
<text text-anchor="start" x="766.23" y="-654.95" font-family="Times,serif" font-size="14.00">…</text>
<polygon fill="none" stroke="black" points="685.35,-607.25 685.35,-641.25 717.35,-641.25 717.35,-607.25 685.35,-607.25"/>
<text text-anchor="start" x="694.98" y="-617.7" font-family="Times,serif" font-size="14.00">⋰</text>
<polygon fill="none" stroke="black" points="719.35,-607.25 719.35,-641.25 755.35,-641.25 755.35,-607.25 719.35,-607.25"/>
<text text-anchor="start" x="730.23" y="-618.95" font-family="Times,serif" font-size="14.00">…</text>
<polygon fill="none" stroke="black" points="757.35,-607.25 757.35,-641.25 789.35,-641.25 789.35,-607.25 757.35,-607.25"/>
<text text-anchor="start" x="766.6" y="-617.7" font-family="Times,serif" font-size="14.00">⋱</text>
<polygon fill="none" stroke="black" points="682.35,-604.25 682.35,-716.25 792.35,-716.25 792.35,-604.25 682.35,-604.25"/>
<text text-anchor="start" x="722.73" y="-585.95" font-family="Times,serif" font-style="italic" font-size="14.00">index</text>
</g>
<!-- X0 -->
<g id="node2" class="node">
<title>X0</title>
<polygon fill="#d6eaf8" stroke="none" points="493.85,-567 493.85,-601 525.85,-601 525.85,-567 493.85,-567"/>
<polygon fill="none" stroke="black" points="493.85,-567 493.85,-601 525.85,-601 525.85,-567 493.85,-567"/>
<text text-anchor="start" x="503.1" y="-577.45" font-family="Times,serif" font-size="14.00">⋱</text>
<polygon fill="#d6eaf8" stroke="none" points="527.85,-567 527.85,-601 566.85,-601 566.85,-567 527.85,-567"/>
<polygon fill="none" stroke="black" points="527.85,-567 527.85,-601 566.85,-601 566.85,-567 527.85,-567"/>
<text text-anchor="start" x="540.23" y="-578.7" font-family="Times,serif" font-size="14.00">…</text>
<polygon fill="#d6eaf8" stroke="none" points="568.85,-567 568.85,-601 600.85,-601 600.85,-567 568.85,-567"/>
<polygon fill="none" stroke="black" points="568.85,-567 568.85,-601 600.85,-601 600.85,-567 568.85,-567"/>
<text text-anchor="start" x="577.73" y="-578.7" font-family="Times,serif" font-size="14.00">…</text>
<polygon fill="none" stroke="black" points="602.85,-567 602.85,-601 634.85,-601 634.85,-567 602.85,-567"/>
<text text-anchor="start" x="612.48" y="-577.45" font-family="Times,serif" font-size="14.00">⋰</text>
<polygon fill="#d6eaf8" stroke="none" points="493.85,-531 493.85,-565 525.85,-565 525.85,-531 493.85,-531"/>
<polygon fill="none" stroke="black" points="493.85,-531 493.85,-565 525.85,-565 525.85,-531 493.85,-531"/>
<text text-anchor="start" x="502.73" y="-542.7" font-family="Times,serif" font-size="14.00">…</text>
<polygon fill="#d6eaf8" stroke="none" points="527.85,-531 527.85,-565 566.85,-565 566.85,-531 527.85,-531"/>
<polygon fill="none" stroke="black" points="527.85,-531 527.85,-565 566.85,-565 566.85,-531 527.85,-531"/>
<text text-anchor="start" x="536.48" y="-543.7" font-family="Times,serif" font-size="14.00">x</text>
<text text-anchor="start" x="543.23" y="-543.7" font-family="Times,serif" baseline-shift="sub" font-size="14.00">i,m</text>
<polygon fill="#d6eaf8" stroke="none" points="568.85,-531 568.85,-565 600.85,-565 600.85,-531 568.85,-531"/>
<polygon fill="none" stroke="black" points="568.85,-531 568.85,-565 600.85,-565 600.85,-531 568.85,-531"/>
<text text-anchor="start" x="577.73" y="-542.7" font-family="Times,serif" font-size="14.00">…</text>
<polygon fill="none" stroke="black" points="602.85,-531 602.85,-565 634.85,-565 634.85,-531 602.85,-531"/>
<text text-anchor="start" x="611.73" y="-542.7" font-family="Times,serif" font-size="14.00">…</text>
<polygon fill="#d6eaf8" stroke="none" points="493.85,-495 493.85,-529 525.85,-529 525.85,-495 493.85,-495"/>
<polygon fill="none" stroke="black" points="493.85,-495 493.85,-529 525.85,-529 525.85,-495 493.85,-495"/>
<text text-anchor="start" x="502.73" y="-506.7" font-family="Times,serif" font-size="14.00">…</text>
<polygon fill="#d6eaf8" stroke="none" points="527.85,-495 527.85,-529 566.85,-529 566.85,-495 527.85,-495"/>
<polygon fill="none" stroke="black" points="527.85,-495 527.85,-529 566.85,-529 566.85,-495 527.85,-495"/>
<text text-anchor="start" x="540.23" y="-506.7" font-family="Times,serif" font-size="14.00">…</text>
<polygon fill="#d6eaf8" stroke="none" points="568.85,-495 568.85,-529 600.85,-529 600.85,-495 568.85,-495"/>
<polygon fill="none" stroke="black" points="568.85,-495 568.85,-529 600.85,-529 600.85,-495 568.85,-495"/>
<text text-anchor="start" x="577.73" y="-506.7" font-family="Times,serif" font-size="14.00">…</text>
<polygon fill="none" stroke="black" points="602.85,-495 602.85,-529 634.85,-529 634.85,-495 602.85,-495"/>
<text text-anchor="start" x="611.73" y="-506.7" font-family="Times,serif" font-size="14.00">…</text>
<polygon fill="none" stroke="black" points="493.85,-459 493.85,-493 525.85,-493 525.85,-459 493.85,-459"/>
<text text-anchor="start" x="503.48" y="-469.45" font-family="Times,serif" font-size="14.00">⋰</text>
<polygon fill="none" stroke="black" points="527.85,-459 527.85,-493 566.85,-493 566.85,-459 527.85,-459"/>
<text text-anchor="start" x="540.23" y="-470.7" font-family="Times,serif" font-size="14.00">…</text>
<polygon fill="none" stroke="black" points="568.85,-459 568.85,-493 600.85,-493 600.85,-459 568.85,-459"/>
<text text-anchor="start" x="577.73" y="-470.7" font-family="Times,serif" font-size="14.00">…</text>
<polygon fill="none" stroke="black" points="602.85,-459 602.85,-493 634.85,-493 634.85,-459 602.85,-459"/>
<text text-anchor="start" x="612.1" y="-469.45" font-family="Times,serif" font-size="14.00">⋱</text>
<polygon fill="none" stroke="black" points="490.85,-456 490.85,-604 637.85,-604 637.85,-456 490.85,-456"/>
</g>
<!-- S0 -->
<g id="node10" class="node">
<title>S0</title>
<polygon fill="#a0d0d0" stroke="black" points="450.35,-466 361.78,-466 339,-430 427.57,-430 450.35,-466"/>
<text text-anchor="start" x="360.93" y="-442.95" font-family="Times,serif" font-size="14.00">stride[:, 0:2]</text>
</g>
<!-- X0&#45;&gt;S0 -->
<g id="edge3" class="edge">
<title>X0&#45;&gt;S0</title>
<path fill="none" stroke="black" d="M491.27,-494.75C474.97,-486.78 458.07,-478.51 443.09,-471.19"/>
<polygon fill="black" stroke="black" points="444.94,-468.2 434.42,-466.95 441.86,-474.48 444.94,-468.2"/>
</g>
<!-- Conv0 -->
<g id="node3" class="node">
<title>Conv0</title>
<polygon fill="#e5e8e8" stroke="black" points="756.48,-500.25 700.23,-500.25 700.23,-459.75 756.48,-459.75 756.48,-453.75 774.48,-480 756.48,-506.25 756.48,-500.25"/>
<text text-anchor="start" x="718.23" y="-475.95" font-family="Times,serif" font-size="14.00">Conv</text>
<text text-anchor="start" x="747.48" y="-475.95" font-family="Times,serif" baseline-shift="sub" font-size="14.00">m</text>
</g>
<!-- Conv0&#45;&gt;X0 -->
<g id="edge7" class="edge">
<title>Conv0&#45;&gt;X0</title>
<path fill="none" stroke="black" d="M700.09,-490.6C685,-495.02 666.8,-500.34 648.73,-505.62"/>
<polygon fill="black" stroke="black" points="647.9,-502.22 639.29,-508.38 649.87,-508.93 647.9,-502.22"/>
</g>
<!-- strides0 -->
<g id="node4" class="node">
<title>strides0</title>
<polygon fill="none" stroke="black" points="788.85,-560 685.85,-560 685.85,-524 788.85,-524 788.85,-560"/>
<text text-anchor="start" x="693.85" y="-537.95" font-family="Times,serif" font-size="14.00">strides: [1,</text>
<text text-anchor="start" x="751.6" y="-537.95" font-family="Times,serif" font-weight="bold" font-size="14.00">1</text>
<text text-anchor="start" x="758.35" y="-537.95" font-family="Times,serif" font-size="14.00">,…]</text>
</g>
<!-- Conv0&#45;&gt;strides0 -->
<g id="edge1" class="edge">
<title>Conv0&#45;&gt;strides0</title>
<path fill="none" stroke="black" d="M737.35,-506.64C737.35,-508.51 737.35,-510.39 737.35,-512.26"/>
<polygon fill="black" stroke="black" points="733.85,-512.25 737.35,-522.25 740.85,-512.25 733.85,-512.25"/>
</g>
<!-- F -->
<g id="node12" class="node">
<title>F</title>
<polygon fill="none" stroke="black" points="495.85,-305 495.85,-435 632.85,-435 632.85,-305 495.85,-305"/>
<polygon fill="#d5f5e3" stroke="none" points="504.85,-314 504.85,-426 623.85,-426 623.85,-314 504.85,-314"/>
<polygon fill="none" stroke="black" points="507.85,-389 507.85,-423 552.85,-423 552.85,-389 507.85,-389"/>
<text text-anchor="start" x="516.48" y="-401.7" font-family="Times,serif" font-size="14.00">f</text>
<text text-anchor="start" x="520.98" y="-401.7" font-family="Times,serif" baseline-shift="sub" font-size="14.00">a,b,k</text>
<polygon fill="none" stroke="black" points="554.85,-389 554.85,-423 586.85,-423 586.85,-389 554.85,-389"/>
<text text-anchor="start" x="563.73" y="-400.7" font-family="Times,serif" font-size="14.00">…</text>
<polygon fill="none" stroke="black" points="588.85,-389 588.85,-423 620.85,-423 620.85,-389 588.85,-389"/>
<text text-anchor="start" x="598.48" y="-399.45" font-family="Times,serif" font-size="14.00">⋰</text>
<polygon fill="none" stroke="black" points="507.85,-353 507.85,-387 552.85,-387 552.85,-353 507.85,-353"/>
<text text-anchor="start" x="523.23" y="-364.7" font-family="Times,serif" font-size="14.00">…</text>
<polygon fill="none" stroke="black" points="554.85,-353 554.85,-387 586.85,-387 586.85,-353 554.85,-353"/>
<text text-anchor="start" x="563.73" y="-364.7" font-family="Times,serif" font-size="14.00">…</text>
<polygon fill="none" stroke="black" points="588.85,-353 588.85,-387 620.85,-387 620.85,-353 588.85,-353"/>
<text text-anchor="start" x="597.73" y="-364.7" font-family="Times,serif" font-size="14.00">…</text>
<polygon fill="none" stroke="black" points="507.85,-317 507.85,-351 552.85,-351 552.85,-317 507.85,-317"/>
<text text-anchor="start" x="523.98" y="-327.45" font-family="Times,serif" font-size="14.00">⋰</text>
<polygon fill="none" stroke="black" points="554.85,-317 554.85,-351 586.85,-351 586.85,-317 554.85,-317"/>
<text text-anchor="start" x="563.73" y="-328.7" font-family="Times,serif" font-size="14.00">…</text>
<polygon fill="none" stroke="black" points="588.85,-317 588.85,-351 620.85,-351 620.85,-317 588.85,-317"/>
<text text-anchor="start" x="598.1" y="-327.45" font-family="Times,serif" font-size="14.00">⋱</text>
<polygon fill="none" stroke="black" points="504.85,-314 504.85,-426 623.85,-426 623.85,-314 504.85,-314"/>
<polygon fill="none" stroke="black" points="492.85,-302 492.85,-438 635.85,-438 635.85,-302 492.85,-302"/>
</g>
<!-- Conv0&#45;&gt;F -->
<g id="edge8" class="edge">
<title>Conv0&#45;&gt;F</title>
<path fill="none" stroke="black" d="M700.09,-456.67C684.07,-446.37 664.55,-433.81 645.4,-421.49"/>
<polygon fill="black" stroke="black" points="647.32,-418.57 637.02,-416.1 643.53,-424.45 647.32,-418.57"/>
</g>
<!-- X1 -->
<g id="node5" class="node">
<title>X1</title>
<polygon fill="none" stroke="black" stroke-width="3" points="490.85,-190.5 490.85,-225.5 523.85,-225.5 523.85,-190.5 490.85,-190.5"/>
<text text-anchor="start" x="500.6" y="-201.45" font-family="Times,serif" font-size="14.00">⋱</text>
<polygon fill="none" stroke="black" stroke-width="3" points="528.85,-190.5 528.85,-225.5 565.85,-225.5 565.85,-190.5 528.85,-190.5"/>
<text text-anchor="start" x="540.23" y="-202.7" font-family="Times,serif" font-size="14.00">…</text>
<polygon fill="none" stroke="black" stroke-width="3" points="570.85,-190.5 570.85,-225.5 603.85,-225.5 603.85,-190.5 570.85,-190.5"/>
<text text-anchor="start" x="580.23" y="-202.7" font-family="Times,serif" font-size="14.00">…</text>
<polygon fill="none" stroke="black" points="607.35,-189 607.35,-227 639.35,-227 639.35,-189 607.35,-189"/>
<text text-anchor="start" x="616.98" y="-201.45" font-family="Times,serif" font-size="14.00">⋰</text>
<polygon fill="none" stroke="black" stroke-width="3" points="490.85,-150.5 490.85,-185.5 523.85,-185.5 523.85,-150.5 490.85,-150.5"/>
<text text-anchor="start" x="500.23" y="-162.7" font-family="Times,serif" font-size="14.00">…</text>
<polygon fill="none" stroke="black" stroke-width="3" points="528.85,-150.5 528.85,-185.5 565.85,-185.5 565.85,-150.5 528.85,-150.5"/>
<text text-anchor="start" x="537.98" y="-163.7" font-family="Times,serif" font-size="14.00">x</text>
<text text-anchor="start" x="544.73" y="-163.7" font-family="Times,serif" baseline-shift="sub" font-size="14.00">i,n</text>
<polygon fill="none" stroke="black" stroke-width="3" points="570.85,-150.5 570.85,-185.5 603.85,-185.5 603.85,-150.5 570.85,-150.5"/>
<text text-anchor="start" x="580.23" y="-162.7" font-family="Times,serif" font-size="14.00">…</text>
<polygon fill="none" stroke="black" points="607.35,-149 607.35,-187 639.35,-187 639.35,-149 607.35,-149"/>
<text text-anchor="start" x="616.23" y="-162.95" font-family="Times,serif" font-size="14.00">…</text>
<polygon fill="none" stroke="black" stroke-width="3" points="490.85,-110.5 490.85,-145.5 523.85,-145.5 523.85,-110.5 490.85,-110.5"/>
<text text-anchor="start" x="500.23" y="-122.7" font-family="Times,serif" font-size="14.00">…</text>
<polygon fill="none" stroke="black" stroke-width="3" points="528.85,-110.5 528.85,-145.5 565.85,-145.5 565.85,-110.5 528.85,-110.5"/>
<text text-anchor="start" x="540.23" y="-122.7" font-family="Times,serif" font-size="14.00">…</text>
<polygon fill="none" stroke="black" stroke-width="3" points="570.85,-110.5 570.85,-145.5 603.85,-145.5 603.85,-110.5 570.85,-110.5"/>
<text text-anchor="start" x="580.23" y="-122.7" font-family="Times,serif" font-size="14.00">…</text>
<polygon fill="none" stroke="black" points="607.35,-109 607.35,-147 639.35,-147 639.35,-109 607.35,-109"/>
<text text-anchor="start" x="616.23" y="-122.95" font-family="Times,serif" font-size="14.00">…</text>
<polygon fill="none" stroke="black" points="489.35,-73 489.35,-107 525.35,-107 525.35,-73 489.35,-73"/>
<text text-anchor="start" x="500.98" y="-83.45" font-family="Times,serif" font-size="14.00">⋰</text>
<polygon fill="none" stroke="black" points="527.35,-73 527.35,-107 567.35,-107 567.35,-73 527.35,-73"/>
<text text-anchor="start" x="540.23" y="-84.7" font-family="Times,serif" font-size="14.00">…</text>
<polygon fill="none" stroke="black" points="569.35,-73 569.35,-107 605.35,-107 605.35,-73 569.35,-73"/>
<text text-anchor="start" x="580.23" y="-84.7" font-family="Times,serif" font-size="14.00">…</text>
<polygon fill="none" stroke="black" points="607.35,-73 607.35,-107 639.35,-107 639.35,-73 607.35,-73"/>
<text text-anchor="start" x="616.6" y="-83.45" font-family="Times,serif" font-size="14.00">⋱</text>
<polygon fill="none" stroke="black" points="486.35,-70 486.35,-230 642.35,-230 642.35,-70 486.35,-70"/>
</g>
<!-- S1 -->
<g id="node11" class="node">
<title>S1</title>
<polygon fill="#a0d0d0" stroke="black" points="450.35,-331 361.78,-331 339,-295 427.57,-295 450.35,-331"/>
<text text-anchor="start" x="360.93" y="-307.95" font-family="Times,serif" font-size="14.00">stride[:, 1:2]</text>
</g>
<!-- X1&#45;&gt;S1 -->
<g id="edge5" class="edge">
<title>X1&#45;&gt;S1</title>
<path fill="none" stroke="black" d="M486.38,-224.82C463.45,-247.12 439.82,-270.08 422.43,-286.99"/>
<polygon fill="black" stroke="black" points="420.25,-284.23 415.52,-293.71 425.13,-289.25 420.25,-284.23"/>
</g>
<!-- idx1 -->
<g id="node6" class="node">
<title>idx1</title>
<polygon fill="none" stroke="black" points="685.35,-245.25 685.35,-279.25 717.35,-279.25 717.35,-245.25 685.35,-245.25"/>
<text text-anchor="start" x="694.6" y="-255.7" font-family="Times,serif" font-size="14.00">⋱</text>
<polygon fill="none" stroke="black" points="719.35,-245.25 719.35,-279.25 755.35,-279.25 755.35,-245.25 719.35,-245.25"/>
<text text-anchor="start" x="730.23" y="-256.95" font-family="Times,serif" font-size="14.00">…</text>
<polygon fill="none" stroke="black" points="757.35,-245.25 757.35,-279.25 789.35,-279.25 789.35,-245.25 757.35,-245.25"/>
<text text-anchor="start" x="766.98" y="-255.7" font-family="Times,serif" font-size="14.00">⋰</text>
<polygon fill="none" stroke="black" points="685.35,-205.25 685.35,-243.25 717.35,-243.25 717.35,-205.25 685.35,-205.25"/>
<text text-anchor="start" x="694.23" y="-219.2" font-family="Times,serif" font-size="14.00">…</text>
<polygon fill="none" stroke="black" stroke-width="3" points="720.85,-206.75 720.85,-241.75 753.85,-241.75 753.85,-206.75 720.85,-206.75"/>
<text text-anchor="start" x="730.23" y="-218.95" font-family="Times,serif" font-size="14.00">i,n</text>
<polygon fill="none" stroke="black" points="757.35,-205.25 757.35,-243.25 789.35,-243.25 789.35,-205.25 757.35,-205.25"/>
<text text-anchor="start" x="766.23" y="-219.2" font-family="Times,serif" font-size="14.00">…</text>
<polygon fill="none" stroke="black" points="685.35,-169.25 685.35,-203.25 717.35,-203.25 717.35,-169.25 685.35,-169.25"/>
<text text-anchor="start" x="694.98" y="-179.7" font-family="Times,serif" font-size="14.00">⋰</text>
<polygon fill="none" stroke="black" points="719.35,-169.25 719.35,-203.25 755.35,-203.25 755.35,-169.25 719.35,-169.25"/>
<text text-anchor="start" x="730.23" y="-180.95" font-family="Times,serif" font-size="14.00">…</text>
<polygon fill="none" stroke="black" points="757.35,-169.25 757.35,-203.25 789.35,-203.25 789.35,-169.25 757.35,-169.25"/>
<text text-anchor="start" x="766.6" y="-179.7" font-family="Times,serif" font-size="14.00">⋱</text>
<polygon fill="none" stroke="black" points="682.35,-166.25 682.35,-282.25 792.35,-282.25 792.35,-166.25 682.35,-166.25"/>
<text text-anchor="start" x="722.73" y="-147.95" font-family="Times,serif" font-style="italic" font-size="14.00">index</text>
</g>
<!-- Conv1 -->
<g id="node7" class="node">
<title>Conv1</title>
<polygon fill="#e5e8e8" stroke="black" points="754.98,-62.25 701.73,-62.25 701.73,-21.75 754.98,-21.75 754.98,-15.75 772.98,-42 754.98,-68.25 754.98,-62.25"/>
<text text-anchor="start" x="719.73" y="-37.95" font-family="Times,serif" font-size="14.00">Conv</text>
<text text-anchor="start" x="748.98" y="-37.95" font-family="Times,serif" baseline-shift="sub" font-size="14.00">n</text>
</g>
<!-- Conv1&#45;&gt;X1 -->
<g id="edge10" class="edge">
<title>Conv1&#45;&gt;X1</title>
<path fill="none" stroke="black" d="M701.28,-62.93C693.69,-67.52 685.73,-72.39 678.35,-77 669.77,-82.36 660.85,-88 651.97,-93.66"/>
<polygon fill="black" stroke="black" points="650.16,-90.66 643.62,-99 653.93,-96.56 650.16,-90.66"/>
</g>
<!-- strides1 -->
<g id="node8" class="node">
<title>strides1</title>
<polygon fill="none" stroke="black" points="788.85,-122 685.85,-122 685.85,-86 788.85,-86 788.85,-122"/>
<text text-anchor="start" x="693.85" y="-99.95" font-family="Times,serif" font-size="14.00">strides: [1,</text>
<text text-anchor="start" x="751.6" y="-99.95" font-family="Times,serif" font-weight="bold" font-size="14.00">1</text>
<text text-anchor="start" x="758.35" y="-99.95" font-family="Times,serif" font-size="14.00">,…]</text>
</g>
<!-- Conv1&#45;&gt;strides1 -->
<g id="edge2" class="edge">
<title>Conv1&#45;&gt;strides1</title>
<path fill="none" stroke="black" d="M737.35,-68.64C737.35,-70.51 737.35,-72.39 737.35,-74.26"/>
<polygon fill="black" stroke="black" points="733.85,-74.25 737.35,-84.25 740.85,-74.25 733.85,-74.25"/>
</g>
<!-- Conv1&#45;&gt;F -->
<g id="edge11" class="edge">
<title>Conv1&#45;&gt;F</title>
<path fill="none" stroke="black" d="M701.39,-56.54C692.62,-61.77 684.08,-68.52 678.35,-77 622.6,-159.43 689.21,-210.2 642.35,-298 642.1,-298.46 641.85,-298.93 641.6,-299.39"/>
<polygon fill="black" stroke="black" points="638.81,-297.25 636.48,-307.58 644.74,-300.96 638.81,-297.25"/>
</g>
<!-- X -->
<g id="node9" class="node">
<title>X</title>
<polygon fill="#d6eaf8" stroke="none" points="3,-419 3,-457 35,-457 35,-419 3,-419"/>
<polygon fill="none" stroke="black" points="3,-419 3,-457 35,-457 35,-419 3,-419"/>
<text text-anchor="start" x="12.25" y="-431.45" font-family="Times,serif" font-size="14.00">⋱</text>
<polygon fill="none" stroke="black" stroke-width="3" points="38.5,-420.5 38.5,-455.5 71.5,-455.5 71.5,-420.5 38.5,-420.5"/>
<text text-anchor="start" x="47.88" y="-432.7" font-family="Times,serif" font-size="14.00">…</text>
<polygon fill="#d6eaf8" stroke="none" stroke-width="3" points="75,-419 75,-457 108,-457 108,-419 75,-419"/>
<polygon fill="none" stroke="black" points="75,-419 75,-457 108,-457 108,-419 75,-419"/>
<text text-anchor="start" x="84.38" y="-432.95" font-family="Times,serif" font-size="14.00">…</text>
<polygon fill="none" stroke="black" stroke-width="3" points="111.5,-420.5 111.5,-455.5 158.5,-455.5 158.5,-420.5 111.5,-420.5"/>
<text text-anchor="start" x="127.88" y="-432.7" font-family="Times,serif" font-size="14.00">…</text>
<polygon fill="#d6eaf8" stroke="none" stroke-width="3" points="162,-419 162,-457 194,-457 194,-419 162,-419"/>
<polygon fill="none" stroke="black" points="162,-419 162,-457 194,-457 194,-419 162,-419"/>
<text text-anchor="start" x="170.88" y="-432.95" font-family="Times,serif" font-size="14.00">…</text>
<polygon fill="none" stroke="black" stroke-width="3" points="197.5,-420.5 197.5,-455.5 230.5,-455.5 230.5,-420.5 197.5,-420.5"/>
<text text-anchor="start" x="206.88" y="-432.7" font-family="Times,serif" font-size="14.00">…</text>
<polygon fill="none" stroke="black" points="234,-419 234,-457 266,-457 266,-419 234,-419"/>
<text text-anchor="start" x="242.88" y="-432.95" font-family="Times,serif" font-size="14.00">…</text>
<polygon fill="none" stroke="black" points="268,-419 268,-457 300,-457 300,-419 268,-419"/>
<text text-anchor="start" x="277.62" y="-431.45" font-family="Times,serif" font-size="14.00">⋰</text>
<polygon fill="#d6eaf8" stroke="none" points="3,-379 3,-417 35,-417 35,-379 3,-379"/>
<polygon fill="none" stroke="black" points="3,-379 3,-417 35,-417 35,-379 3,-379"/>
<text text-anchor="start" x="11.88" y="-392.95" font-family="Times,serif" font-size="14.00">…</text>
<polygon fill="none" stroke="black" stroke-width="3" points="38.5,-380.5 38.5,-415.5 71.5,-415.5 71.5,-380.5 38.5,-380.5"/>
<text text-anchor="start" x="47.88" y="-392.7" font-family="Times,serif" font-size="14.00">…</text>
<polygon fill="#d6eaf8" stroke="none" stroke-width="3" points="75,-379 75,-417 108,-417 108,-379 75,-379"/>
<polygon fill="none" stroke="black" points="75,-379 75,-417 108,-417 108,-379 75,-379"/>
<text text-anchor="start" x="83.62" y="-393.95" font-family="Times,serif" font-size="14.00">x</text>
<text text-anchor="start" x="90.38" y="-393.95" font-family="Times,serif" baseline-shift="sub" font-size="14.00">i,j</text>
<polygon fill="none" stroke="black" stroke-width="3" points="111.5,-380.5 111.5,-415.5 158.5,-415.5 158.5,-380.5 111.5,-380.5"/>
<text text-anchor="start" x="120.75" y="-393.7" font-family="Times,serif" font-size="14.00">x</text>
<text text-anchor="start" x="127.5" y="-393.7" font-family="Times,serif" baseline-shift="sub" font-size="14.00">i,j+1</text>
<polygon fill="#d6eaf8" stroke="none" stroke-width="3" points="162,-379 162,-417 194,-417 194,-379 162,-379"/>
<polygon fill="none" stroke="black" points="162,-379 162,-417 194,-417 194,-379 162,-379"/>
<text text-anchor="start" x="170.88" y="-392.95" font-family="Times,serif" font-size="14.00">…</text>
<polygon fill="none" stroke="black" stroke-width="3" points="197.5,-380.5 197.5,-415.5 230.5,-415.5 230.5,-380.5 197.5,-380.5"/>
<text text-anchor="start" x="206.88" y="-392.7" font-family="Times,serif" font-size="14.00">…</text>
<polygon fill="none" stroke="black" points="234,-379 234,-417 266,-417 266,-379 234,-379"/>
<text text-anchor="start" x="242.88" y="-392.95" font-family="Times,serif" font-size="14.00">…</text>
<polygon fill="none" stroke="black" points="268,-379 268,-417 300,-417 300,-379 268,-379"/>
<text text-anchor="start" x="276.88" y="-392.95" font-family="Times,serif" font-size="14.00">…</text>
<polygon fill="#d6eaf8" stroke="none" points="3,-339 3,-377 35,-377 35,-339 3,-339"/>
<polygon fill="none" stroke="black" points="3,-339 3,-377 35,-377 35,-339 3,-339"/>
<text text-anchor="start" x="11.88" y="-352.95" font-family="Times,serif" font-size="14.00">…</text>
<polygon fill="none" stroke="black" stroke-width="3" points="38.5,-340.5 38.5,-375.5 71.5,-375.5 71.5,-340.5 38.5,-340.5"/>
<text text-anchor="start" x="47.88" y="-352.7" font-family="Times,serif" font-size="14.00">…</text>
<polygon fill="#d6eaf8" stroke="none" stroke-width="3" points="75,-339 75,-377 108,-377 108,-339 75,-339"/>
<polygon fill="none" stroke="black" points="75,-339 75,-377 108,-377 108,-339 75,-339"/>
<text text-anchor="start" x="84.38" y="-352.95" font-family="Times,serif" font-size="14.00">…</text>
<polygon fill="none" stroke="black" stroke-width="3" points="111.5,-340.5 111.5,-375.5 158.5,-375.5 158.5,-340.5 111.5,-340.5"/>
<text text-anchor="start" x="127.88" y="-352.7" font-family="Times,serif" font-size="14.00">…</text>
<polygon fill="#d6eaf8" stroke="none" stroke-width="3" points="162,-339 162,-377 194,-377 194,-339 162,-339"/>
<polygon fill="none" stroke="black" points="162,-339 162,-377 194,-377 194,-339 162,-339"/>
<text text-anchor="start" x="170.88" y="-352.95" font-family="Times,serif" font-size="14.00">…</text>
<polygon fill="none" stroke="black" stroke-width="3" points="197.5,-340.5 197.5,-375.5 230.5,-375.5 230.5,-340.5 197.5,-340.5"/>
<text text-anchor="start" x="206.88" y="-352.7" font-family="Times,serif" font-size="14.00">…</text>
<polygon fill="none" stroke="black" points="234,-339 234,-377 266,-377 266,-339 234,-339"/>
<text text-anchor="start" x="242.88" y="-352.95" font-family="Times,serif" font-size="14.00">…</text>
<polygon fill="none" stroke="black" points="268,-339 268,-377 300,-377 300,-339 268,-339"/>
<text text-anchor="start" x="276.88" y="-352.95" font-family="Times,serif" font-size="14.00">…</text>
<polygon fill="none" stroke="black" points="3,-303 3,-337 35,-337 35,-303 3,-303"/>
<text text-anchor="start" x="12.62" y="-313.45" font-family="Times,serif" font-size="14.00">⋰</text>
<polygon fill="none" stroke="black" points="37,-303 37,-337 73,-337 73,-303 37,-303"/>
<text text-anchor="start" x="47.88" y="-314.7" font-family="Times,serif" font-size="14.00">…</text>
<polygon fill="none" stroke="black" points="75,-303 75,-337 108,-337 108,-303 75,-303"/>
<text text-anchor="start" x="84.38" y="-314.7" font-family="Times,serif" font-size="14.00">…</text>
<polygon fill="none" stroke="black" points="110,-303 110,-337 160,-337 160,-303 110,-303"/>
<text text-anchor="start" x="127.88" y="-314.7" font-family="Times,serif" font-size="14.00">…</text>
<polygon fill="none" stroke="black" points="162,-303 162,-337 194,-337 194,-303 162,-303"/>
<text text-anchor="start" x="170.88" y="-314.7" font-family="Times,serif" font-size="14.00">…</text>
<polygon fill="none" stroke="black" points="196,-303 196,-337 232,-337 232,-303 196,-303"/>
<text text-anchor="start" x="206.88" y="-314.7" font-family="Times,serif" font-size="14.00">…</text>
<polygon fill="none" stroke="black" points="234,-303 234,-337 266,-337 266,-303 234,-303"/>
<text text-anchor="start" x="242.88" y="-314.7" font-family="Times,serif" font-size="14.00">…</text>
<polygon fill="none" stroke="black" points="268,-303 268,-337 300,-337 300,-303 268,-303"/>
<text text-anchor="start" x="277.25" y="-313.45" font-family="Times,serif" font-size="14.00">⋱</text>
<polygon fill="none" stroke="black" points="0,-300 0,-460 303,-460 303,-300 0,-300"/>
</g>
<!-- S0&#45;&gt;X -->
<g id="edge4" class="edge">
<title>S0&#45;&gt;X</title>
<path fill="none" stroke="black" d="M340.45,-432.99C332.18,-430.66 323.28,-428.15 314.01,-425.54"/>
<polygon fill="black" stroke="black" points="315.02,-422.19 304.44,-422.84 313.12,-428.92 315.02,-422.19"/>
</g>
<!-- S1&#45;&gt;X -->
<g id="edge6" class="edge">
<title>S1&#45;&gt;X</title>
<path fill="none" stroke="black" d="M356.52,-323.32C344.17,-326.75 329.54,-330.82 313.86,-335.17"/>
<polygon fill="black" stroke="black" points="313.02,-331.78 304.32,-337.82 314.89,-338.52 313.02,-331.78"/>
</g>
<!-- Y -->
<g id="node13" class="node">
<title>Y</title>
<polygon fill="none" stroke="black" points="981.77,-176 981.77,-346 1210.77,-346 1210.77,-176 981.77,-176"/>
<polygon fill="none" stroke="black" points="993.77,-300 993.77,-334 1025.77,-334 1025.77,-300 993.77,-300"/>
<text text-anchor="start" x="1003.02" y="-310.45" font-family="Times,serif" font-size="14.00">⋱</text>
<polygon fill="none" stroke="black" points="1027.77,-300 1027.77,-334 1069.77,-334 1069.77,-300 1027.77,-300"/>
<text text-anchor="start" x="1041.64" y="-311.7" font-family="Times,serif" font-size="14.00">…</text>
<polygon fill="none" stroke="black" points="1071.77,-300 1071.77,-334 1130.77,-334 1130.77,-300 1071.77,-300"/>
<text text-anchor="start" x="1094.14" y="-311.7" font-family="Times,serif" font-size="14.00">…</text>
<polygon fill="none" stroke="black" points="1132.77,-300 1132.77,-334 1164.77,-334 1164.77,-300 1132.77,-300"/>
<text text-anchor="start" x="1141.64" y="-311.7" font-family="Times,serif" font-size="14.00">…</text>
<polygon fill="none" stroke="black" points="1166.77,-300 1166.77,-334 1198.77,-334 1198.77,-300 1166.77,-300"/>
<text text-anchor="start" x="1176.39" y="-310.45" font-family="Times,serif" font-size="14.00">⋰</text>
<polygon fill="none" stroke="black" points="993.77,-260 993.77,-298 1025.77,-298 1025.77,-260 993.77,-260"/>
<text text-anchor="start" x="1002.64" y="-273.95" font-family="Times,serif" font-size="14.00">…</text>
<polygon fill="#d6eaf8" stroke="none" points="1027.77,-260 1027.77,-298 1069.77,-298 1069.77,-260 1027.77,-260"/>
<polygon fill="none" stroke="black" points="1027.77,-260 1027.77,-298 1069.77,-298 1069.77,-260 1027.77,-260"/>
<text text-anchor="start" x="1036.39" y="-274.95" font-family="Times,serif" font-size="14.00">y</text>
<text text-anchor="start" x="1043.14" y="-274.95" font-family="Times,serif" baseline-shift="sub" font-size="14.00">i,j,k</text>
<polygon fill="none" stroke="black" stroke-width="3" points="1073.27,-261.5 1073.27,-296.5 1129.27,-296.5 1129.27,-261.5 1073.27,-261.5"/>
<text text-anchor="start" x="1082.52" y="-274.7" font-family="Times,serif" font-size="14.00">y</text>
<text text-anchor="start" x="1089.27" y="-274.7" font-family="Times,serif" baseline-shift="sub" font-size="14.00">i,j+1,k</text>
<polygon fill="none" stroke="black" points="1132.77,-260 1132.77,-298 1164.77,-298 1164.77,-260 1132.77,-260"/>
<text text-anchor="start" x="1141.64" y="-273.95" font-family="Times,serif" font-size="14.00">…</text>
<polygon fill="none" stroke="black" points="1166.77,-260 1166.77,-298 1198.77,-298 1198.77,-260 1166.77,-260"/>
<text text-anchor="start" x="1175.64" y="-273.95" font-family="Times,serif" font-size="14.00">…</text>
<polygon fill="none" stroke="black" points="993.77,-224 993.77,-258 1025.77,-258 1025.77,-224 993.77,-224"/>
<text text-anchor="start" x="1002.64" y="-235.7" font-family="Times,serif" font-size="14.00">…</text>
<polygon fill="none" stroke="black" points="1027.77,-224 1027.77,-258 1069.77,-258 1069.77,-224 1027.77,-224"/>
<text text-anchor="start" x="1041.64" y="-235.7" font-family="Times,serif" font-size="14.00">…</text>
<polygon fill="none" stroke="black" points="1071.77,-224 1071.77,-258 1130.77,-258 1130.77,-224 1071.77,-224"/>
<text text-anchor="start" x="1094.14" y="-235.7" font-family="Times,serif" font-size="14.00">…</text>
<polygon fill="none" stroke="black" points="1132.77,-224 1132.77,-258 1164.77,-258 1164.77,-224 1132.77,-224"/>
<text text-anchor="start" x="1141.64" y="-235.7" font-family="Times,serif" font-size="14.00">…</text>
<polygon fill="none" stroke="black" points="1166.77,-224 1166.77,-258 1198.77,-258 1198.77,-224 1166.77,-224"/>
<text text-anchor="start" x="1175.64" y="-235.7" font-family="Times,serif" font-size="14.00">…</text>
<polygon fill="none" stroke="black" points="993.77,-188 993.77,-222 1025.77,-222 1025.77,-188 993.77,-188"/>
<text text-anchor="start" x="1003.39" y="-198.45" font-family="Times,serif" font-size="14.00">⋰</text>
<polygon fill="none" stroke="black" points="1027.77,-188 1027.77,-222 1069.77,-222 1069.77,-188 1027.77,-188"/>
<text text-anchor="start" x="1041.64" y="-199.7" font-family="Times,serif" font-size="14.00">…</text>
<polygon fill="none" stroke="black" points="1071.77,-188 1071.77,-222 1130.77,-222 1130.77,-188 1071.77,-188"/>
<text text-anchor="start" x="1094.14" y="-199.7" font-family="Times,serif" font-size="14.00">…</text>
<polygon fill="none" stroke="black" points="1132.77,-188 1132.77,-222 1164.77,-222 1164.77,-188 1132.77,-188"/>
<text text-anchor="start" x="1141.64" y="-199.7" font-family="Times,serif" font-size="14.00">…</text>
<polygon fill="none" stroke="black" points="1166.77,-188 1166.77,-222 1198.77,-222 1198.77,-188 1166.77,-188"/>
<text text-anchor="start" x="1176.02" y="-198.45" font-family="Times,serif" font-size="14.00">⋱</text>
<polygon fill="none" stroke="black" points="990.77,-185 990.77,-337 1201.77,-337 1201.77,-185 990.77,-185"/>
<polygon fill="none" stroke="black" points="978.77,-173 978.77,-349 1213.77,-349 1213.77,-173 978.77,-173"/>
</g>
<!-- SI -->
<g id="node14" class="node">
<title>SI</title>
<polygon fill="#a0d0d0" stroke="black" points="942.77,-294 854.94,-294 832.35,-228 920.17,-228 942.77,-294"/>
<text text-anchor="start" x="860.93" y="-264.2" font-family="Times,serif" font-size="14.00">interleave</text>
<text text-anchor="start" x="869.18" y="-247.7" font-family="Times,serif" font-size="14.00">dim=1</text>
</g>
<!-- Y&#45;&gt;SI -->
<g id="edge13" class="edge">
<title>Y&#45;&gt;SI</title>
<path fill="none" stroke="black" d="M978.92,-261C966.52,-261 954.38,-261 943.21,-261"/>
<polygon fill="black" stroke="black" points="943.48,-257.5 933.48,-261 943.48,-264.5 943.48,-257.5"/>
</g>
<!-- SI&#45;&gt;Conv0 -->
<g id="edge9" class="edge">
<title>SI&#45;&gt;Conv0</title>
<path fill="none" stroke="black" d="M864.05,-294.26C836.76,-334.58 790.94,-402.29 762.81,-443.86"/>
<polygon fill="black" stroke="black" points="759.95,-441.83 757.25,-452.08 765.75,-445.76 759.95,-441.83"/>
</g>
<!-- SI&#45;&gt;Conv1 -->
<g id="edge12" class="edge">
<title>SI&#45;&gt;Conv1</title>
<path fill="none" stroke="black" d="M878.81,-227.72C868.03,-187.73 845.09,-120.58 804.35,-77 798.31,-70.54 790.81,-65.03 783.04,-60.44"/>
<polygon fill="black" stroke="black" points="784.96,-57.49 774.5,-55.82 781.63,-63.65 784.96,-57.49"/>
</g>
</g>
</svg>
