<?xml version="1.0" encoding="UTF-8" standalone="no"?>
<!DOCTYPE svg PUBLIC "-//W3C//DTD SVG 1.1//EN"
 "http://www.w3.org/Graphics/SVG/1.1/DTD/svg11.dtd">
<!-- Generated by graphviz version 9.0.0 (20230911.1827)
 -->
<!-- Title: G Pages: 1 -->
<svg width="798pt" height="398pt"
 viewBox="0.00 0.00 798.00 398.25" xmlns="http://www.w3.org/2000/svg" xmlns:xlink="http://www.w3.org/1999/xlink">
<g id="graph0" class="graph" transform="scale(1 1) rotate(0) translate(4 394.25)">
<title>G</title>
<polygon fill="white" stroke="none" points="-4,4 -4,-394.25 794,-394.25 794,4 -4,4"/>
<!-- idx -->
<g id="node1" class="node">
<title>idx</title>
<polygon fill="none" stroke="black" points="346,-141.5 346,-175.5 378,-175.5 378,-141.5 346,-141.5"/>
<text text-anchor="start" x="355.25" y="-151.95" font-family="Times,serif" font-size="14.00">⋱</text>
<polygon fill="none" stroke="black" points="380,-141.5 380,-175.5 412,-175.5 412,-141.5 380,-141.5"/>
<text text-anchor="start" x="388.88" y="-153.2" font-family="Times,serif" font-size="14.00">…</text>
<polygon fill="none" stroke="black" points="414,-141.5 414,-175.5 462,-175.5 462,-141.5 414,-141.5"/>
<text text-anchor="start" x="430.88" y="-153.2" font-family="Times,serif" font-size="14.00">…</text>
<polygon fill="none" stroke="black" points="464,-141.5 464,-175.5 496,-175.5 496,-141.5 464,-141.5"/>
<text text-anchor="start" x="472.88" y="-153.2" font-family="Times,serif" font-size="14.00">…</text>
<polygon fill="none" stroke="black" points="498,-141.5 498,-175.5 530,-175.5 530,-141.5 498,-141.5"/>
<text text-anchor="start" x="507.62" y="-151.95" font-family="Times,serif" font-size="14.00">⋰</text>
<polygon fill="none" stroke="black" points="346,-101.5 346,-139.5 378,-139.5 378,-101.5 346,-101.5"/>
<text text-anchor="start" x="354.88" y="-115.45" font-family="Times,serif" font-size="14.00">…</text>
<polygon fill="#d6eaf8" stroke="none" points="380,-101.5 380,-139.5 412,-139.5 412,-101.5 380,-101.5"/>
<polygon fill="none" stroke="black" points="380,-101.5 380,-139.5 412,-139.5 412,-101.5 380,-101.5"/>
<text text-anchor="start" x="390.38" y="-115.45" font-family="Times,serif" font-size="14.00">i,j</text>
<polygon fill="none" stroke="black" stroke-width="3" points="415.5,-103 415.5,-138 460.5,-138 460.5,-103 415.5,-103"/>
<text text-anchor="start" x="424.88" y="-115.2" font-family="Times,serif" font-size="14.00">i,j+1</text>
<polygon fill="none" stroke="black" points="464,-101.5 464,-139.5 496,-139.5 496,-101.5 464,-101.5"/>
<text text-anchor="start" x="472.88" y="-115.45" font-family="Times,serif" font-size="14.00">…</text>
<polygon fill="none" stroke="black" points="498,-101.5 498,-139.5 530,-139.5 530,-101.5 498,-101.5"/>
<text text-anchor="start" x="506.88" y="-115.45" font-family="Times,serif" font-size="14.00">…</text>
<polygon fill="none" stroke="black" points="346,-65.5 346,-99.5 378,-99.5 378,-65.5 346,-65.5"/>
<text text-anchor="start" x="354.88" y="-77.2" font-family="Times,serif" font-size="14.00">…</text>
<polygon fill="none" stroke="black" points="380,-65.5 380,-99.5 412,-99.5 412,-65.5 380,-65.5"/>
<text text-anchor="start" x="388.88" y="-77.2" font-family="Times,serif" font-size="14.00">…</text>
<polygon fill="none" stroke="black" points="414,-65.5 414,-99.5 462,-99.5 462,-65.5 414,-65.5"/>
<text text-anchor="start" x="430.88" y="-77.2" font-family="Times,serif" font-size="14.00">…</text>
<polygon fill="none" stroke="black" points="464,-65.5 464,-99.5 496,-99.5 496,-65.5 464,-65.5"/>
<text text-anchor="start" x="472.88" y="-77.2" font-family="Times,serif" font-size="14.00">…</text>
<polygon fill="none" stroke="black" points="498,-65.5 498,-99.5 530,-99.5 530,-65.5 498,-65.5"/>
<text text-anchor="start" x="506.88" y="-77.2" font-family="Times,serif" font-size="14.00">…</text>
<polygon fill="none" stroke="black" points="346,-29.5 346,-63.5 378,-63.5 378,-29.5 346,-29.5"/>
<text text-anchor="start" x="355.62" y="-39.95" font-family="Times,serif" font-size="14.00">⋰</text>
<polygon fill="none" stroke="black" points="380,-29.5 380,-63.5 412,-63.5 412,-29.5 380,-29.5"/>
<text text-anchor="start" x="388.88" y="-41.2" font-family="Times,serif" font-size="14.00">…</text>
<polygon fill="none" stroke="black" points="414,-29.5 414,-63.5 462,-63.5 462,-29.5 414,-29.5"/>
<text text-anchor="start" x="430.88" y="-41.2" font-family="Times,serif" font-size="14.00">…</text>
<polygon fill="none" stroke="black" points="464,-29.5 464,-63.5 496,-63.5 496,-29.5 464,-29.5"/>
<text text-anchor="start" x="472.88" y="-41.2" font-family="Times,serif" font-size="14.00">…</text>
<polygon fill="none" stroke="black" points="498,-29.5 498,-63.5 530,-63.5 530,-29.5 498,-29.5"/>
<text text-anchor="start" x="507.25" y="-39.95" font-family="Times,serif" font-size="14.00">⋱</text>
<polygon fill="none" stroke="black" points="343,-26.5 343,-178.5 533,-178.5 533,-26.5 343,-26.5"/>
<text text-anchor="start" x="423.38" y="-8.2" font-family="Times,serif" font-style="italic" font-size="14.00">index</text>
</g>
<!-- X -->
<g id="node2" class="node">
<title>X</title>
<polygon fill="#d6eaf8" stroke="none" points="3,-349.25 3,-387.25 35,-387.25 35,-349.25 3,-349.25"/>
<polygon fill="none" stroke="black" points="3,-349.25 3,-387.25 35,-387.25 35,-349.25 3,-349.25"/>
<text text-anchor="start" x="12.25" y="-361.7" font-family="Times,serif" font-size="14.00">⋱</text>
<polygon fill="none" stroke="black" stroke-width="3" points="38.5,-350.75 38.5,-385.75 71.5,-385.75 71.5,-350.75 38.5,-350.75"/>
<text text-anchor="start" x="47.88" y="-362.95" font-family="Times,serif" font-size="14.00">…</text>
<polygon fill="#d6eaf8" stroke="none" stroke-width="3" points="75,-349.25 75,-387.25 108,-387.25 108,-349.25 75,-349.25"/>
<polygon fill="none" stroke="black" points="75,-349.25 75,-387.25 108,-387.25 108,-349.25 75,-349.25"/>
<text text-anchor="start" x="84.38" y="-363.2" font-family="Times,serif" font-size="14.00">…</text>
<polygon fill="none" stroke="black" stroke-width="3" points="111.5,-350.75 111.5,-385.75 158.5,-385.75 158.5,-350.75 111.5,-350.75"/>
<text text-anchor="start" x="127.88" y="-362.95" font-family="Times,serif" font-size="14.00">…</text>
<polygon fill="#d6eaf8" stroke="none" stroke-width="3" points="162,-349.25 162,-387.25 194,-387.25 194,-349.25 162,-349.25"/>
<polygon fill="none" stroke="black" points="162,-349.25 162,-387.25 194,-387.25 194,-349.25 162,-349.25"/>
<text text-anchor="start" x="170.88" y="-363.2" font-family="Times,serif" font-size="14.00">…</text>
<polygon fill="none" stroke="black" stroke-width="3" points="197.5,-350.75 197.5,-385.75 230.5,-385.75 230.5,-350.75 197.5,-350.75"/>
<text text-anchor="start" x="206.88" y="-362.95" font-family="Times,serif" font-size="14.00">…</text>
<polygon fill="none" stroke="black" points="234,-349.25 234,-387.25 266,-387.25 266,-349.25 234,-349.25"/>
<text text-anchor="start" x="242.88" y="-363.2" font-family="Times,serif" font-size="14.00">…</text>
<polygon fill="none" stroke="black" points="268,-349.25 268,-387.25 300,-387.25 300,-349.25 268,-349.25"/>
<text text-anchor="start" x="277.62" y="-361.7" font-family="Times,serif" font-size="14.00">⋰</text>
<polygon fill="#d6eaf8" stroke="none" points="3,-309.25 3,-347.25 35,-347.25 35,-309.25 3,-309.25"/>
<polygon fill="none" stroke="black" points="3,-309.25 3,-347.25 35,-347.25 35,-309.25 3,-309.25"/>
<text text-anchor="start" x="11.88" y="-323.2" font-family="Times,serif" font-size="14.00">…</text>
<polygon fill="none" stroke="black" stroke-width="3" points="38.5,-310.75 38.5,-345.75 71.5,-345.75 71.5,-310.75 38.5,-310.75"/>
<text text-anchor="start" x="47.88" y="-322.95" font-family="Times,serif" font-size="14.00">…</text>
<polygon fill="#d6eaf8" stroke="none" stroke-width="3" points="75,-309.25 75,-347.25 108,-347.25 108,-309.25 75,-309.25"/>
<polygon fill="none" stroke="black" points="75,-309.25 75,-347.25 108,-347.25 108,-309.25 75,-309.25"/>
<text text-anchor="start" x="83.62" y="-324.2" font-family="Times,serif" font-size="14.00">x</text>
<text text-anchor="start" x="90.38" y="-324.2" font-family="Times,serif" baseline-shift="sub" font-size="14.00">i,j</text>
<polygon fill="none" stroke="black" stroke-width="3" points="111.5,-310.75 111.5,-345.75 158.5,-345.75 158.5,-310.75 111.5,-310.75"/>
<text text-anchor="start" x="120.75" y="-323.95" font-family="Times,serif" font-size="14.00">x</text>
<text text-anchor="start" x="127.5" y="-323.95" font-family="Times,serif" baseline-shift="sub" font-size="14.00">i,j+1</text>
<polygon fill="#d6eaf8" stroke="none" stroke-width="3" points="162,-309.25 162,-347.25 194,-347.25 194,-309.25 162,-309.25"/>
<polygon fill="none" stroke="black" points="162,-309.25 162,-347.25 194,-347.25 194,-309.25 162,-309.25"/>
<text text-anchor="start" x="170.88" y="-323.2" font-family="Times,serif" font-size="14.00">…</text>
<polygon fill="none" stroke="black" stroke-width="3" points="197.5,-310.75 197.5,-345.75 230.5,-345.75 230.5,-310.75 197.5,-310.75"/>
<text text-anchor="start" x="206.88" y="-322.95" font-family="Times,serif" font-size="14.00">…</text>
<polygon fill="none" stroke="black" points="234,-309.25 234,-347.25 266,-347.25 266,-309.25 234,-309.25"/>
<text text-anchor="start" x="242.88" y="-323.2" font-family="Times,serif" font-size="14.00">…</text>
<polygon fill="none" stroke="black" points="268,-309.25 268,-347.25 300,-347.25 300,-309.25 268,-309.25"/>
<text text-anchor="start" x="276.88" y="-323.2" font-family="Times,serif" font-size="14.00">…</text>
<polygon fill="#d6eaf8" stroke="none" points="3,-269.25 3,-307.25 35,-307.25 35,-269.25 3,-269.25"/>
<polygon fill="none" stroke="black" points="3,-269.25 3,-307.25 35,-307.25 35,-269.25 3,-269.25"/>
<text text-anchor="start" x="11.88" y="-283.2" font-family="Times,serif" font-size="14.00">…</text>
<polygon fill="none" stroke="black" stroke-width="3" points="38.5,-270.75 38.5,-305.75 71.5,-305.75 71.5,-270.75 38.5,-270.75"/>
<text text-anchor="start" x="47.88" y="-282.95" font-family="Times,serif" font-size="14.00">…</text>
<polygon fill="#d6eaf8" stroke="none" stroke-width="3" points="75,-269.25 75,-307.25 108,-307.25 108,-269.25 75,-269.25"/>
<polygon fill="none" stroke="black" points="75,-269.25 75,-307.25 108,-307.25 108,-269.25 75,-269.25"/>
<text text-anchor="start" x="84.38" y="-283.2" font-family="Times,serif" font-size="14.00">…</text>
<polygon fill="none" stroke="black" stroke-width="3" points="111.5,-270.75 111.5,-305.75 158.5,-305.75 158.5,-270.75 111.5,-270.75"/>
<text text-anchor="start" x="127.88" y="-282.95" font-family="Times,serif" font-size="14.00">…</text>
<polygon fill="#d6eaf8" stroke="none" stroke-width="3" points="162,-269.25 162,-307.25 194,-307.25 194,-269.25 162,-269.25"/>
<polygon fill="none" stroke="black" points="162,-269.25 162,-307.25 194,-307.25 194,-269.25 162,-269.25"/>
<text text-anchor="start" x="170.88" y="-283.2" font-family="Times,serif" font-size="14.00">…</text>
<polygon fill="none" stroke="black" stroke-width="3" points="197.5,-270.75 197.5,-305.75 230.5,-305.75 230.5,-270.75 197.5,-270.75"/>
<text text-anchor="start" x="206.88" y="-282.95" font-family="Times,serif" font-size="14.00">…</text>
<polygon fill="none" stroke="black" points="234,-269.25 234,-307.25 266,-307.25 266,-269.25 234,-269.25"/>
<text text-anchor="start" x="242.88" y="-283.2" font-family="Times,serif" font-size="14.00">…</text>
<polygon fill="none" stroke="black" points="268,-269.25 268,-307.25 300,-307.25 300,-269.25 268,-269.25"/>
<text text-anchor="start" x="276.88" y="-283.2" font-family="Times,serif" font-size="14.00">…</text>
<polygon fill="none" stroke="black" points="3,-233.25 3,-267.25 35,-267.25 35,-233.25 3,-233.25"/>
<text text-anchor="start" x="12.62" y="-243.7" font-family="Times,serif" font-size="14.00">⋰</text>
<polygon fill="none" stroke="black" points="37,-233.25 37,-267.25 73,-267.25 73,-233.25 37,-233.25"/>
<text text-anchor="start" x="47.88" y="-244.95" font-family="Times,serif" font-size="14.00">…</text>
<polygon fill="none" stroke="black" points="75,-233.25 75,-267.25 108,-267.25 108,-233.25 75,-233.25"/>
<text text-anchor="start" x="84.38" y="-244.95" font-family="Times,serif" font-size="14.00">…</text>
<polygon fill="none" stroke="black" points="110,-233.25 110,-267.25 160,-267.25 160,-233.25 110,-233.25"/>
<text text-anchor="start" x="127.88" y="-244.95" font-family="Times,serif" font-size="14.00">…</text>
<polygon fill="none" stroke="black" points="162,-233.25 162,-267.25 194,-267.25 194,-233.25 162,-233.25"/>
<text text-anchor="start" x="170.88" y="-244.95" font-family="Times,serif" font-size="14.00">…</text>
<polygon fill="none" stroke="black" points="196,-233.25 196,-267.25 232,-267.25 232,-233.25 196,-233.25"/>
<text text-anchor="start" x="206.88" y="-244.95" font-family="Times,serif" font-size="14.00">…</text>
<polygon fill="none" stroke="black" points="234,-233.25 234,-267.25 266,-267.25 266,-233.25 234,-233.25"/>
<text text-anchor="start" x="242.88" y="-244.95" font-family="Times,serif" font-size="14.00">…</text>
<polygon fill="none" stroke="black" points="268,-233.25 268,-267.25 300,-267.25 300,-233.25 268,-233.25"/>
<text text-anchor="start" x="277.25" y="-243.7" font-family="Times,serif" font-size="14.00">⋱</text>
<polygon fill="none" stroke="black" points="0,-230.25 0,-390.25 303,-390.25 303,-230.25 0,-230.25"/>
</g>
<!-- F -->
<g id="node3" class="node">
<title>F</title>
<polygon fill="none" stroke="black" points="83,-79.25 83,-209.25 220,-209.25 220,-79.25 83,-79.25"/>
<polygon fill="#d5f5e3" stroke="none" points="92,-88.25 92,-200.25 211,-200.25 211,-88.25 92,-88.25"/>
<polygon fill="none" stroke="black" points="95,-163.25 95,-197.25 140,-197.25 140,-163.25 95,-163.25"/>
<text text-anchor="start" x="103.62" y="-175.95" font-family="Times,serif" font-size="14.00">f</text>
<text text-anchor="start" x="108.12" y="-175.95" font-family="Times,serif" baseline-shift="sub" font-size="14.00">a,b,k</text>
<polygon fill="none" stroke="black" points="142,-163.25 142,-197.25 174,-197.25 174,-163.25 142,-163.25"/>
<text text-anchor="start" x="150.88" y="-174.95" font-family="Times,serif" font-size="14.00">…</text>
<polygon fill="none" stroke="black" points="176,-163.25 176,-197.25 208,-197.25 208,-163.25 176,-163.25"/>
<text text-anchor="start" x="185.62" y="-173.7" font-family="Times,serif" font-size="14.00">⋰</text>
<polygon fill="none" stroke="black" points="95,-127.25 95,-161.25 140,-161.25 140,-127.25 95,-127.25"/>
<text text-anchor="start" x="110.38" y="-138.95" font-family="Times,serif" font-size="14.00">…</text>
<polygon fill="none" stroke="black" points="142,-127.25 142,-161.25 174,-161.25 174,-127.25 142,-127.25"/>
<text text-anchor="start" x="150.88" y="-138.95" font-family="Times,serif" font-size="14.00">…</text>
<polygon fill="none" stroke="black" points="176,-127.25 176,-161.25 208,-161.25 208,-127.25 176,-127.25"/>
<text text-anchor="start" x="184.88" y="-138.95" font-family="Times,serif" font-size="14.00">…</text>
<polygon fill="none" stroke="black" points="95,-91.25 95,-125.25 140,-125.25 140,-91.25 95,-91.25"/>
<text text-anchor="start" x="111.12" y="-101.7" font-family="Times,serif" font-size="14.00">⋰</text>
<polygon fill="none" stroke="black" points="142,-91.25 142,-125.25 174,-125.25 174,-91.25 142,-91.25"/>
<text text-anchor="start" x="150.88" y="-102.95" font-family="Times,serif" font-size="14.00">…</text>
<polygon fill="none" stroke="black" points="176,-91.25 176,-125.25 208,-125.25 208,-91.25 176,-91.25"/>
<text text-anchor="start" x="185.25" y="-101.7" font-family="Times,serif" font-size="14.00">⋱</text>
<polygon fill="none" stroke="black" points="92,-88.25 92,-200.25 211,-200.25 211,-88.25 92,-88.25"/>
<polygon fill="none" stroke="black" points="80,-76.25 80,-212.25 223,-212.25 223,-76.25 80,-76.25"/>
</g>
<!-- Conv -->
<g id="node4" class="node">
<title>Conv</title>
<polygon fill="#e5e8e8" stroke="black" points="452.62,-247.5 405.38,-247.5 405.38,-207 452.62,-207 452.62,-201 470.62,-227.25 452.62,-253.5 452.62,-247.5"/>
<text text-anchor="middle" x="438" y="-222.2" font-family="Times,serif" font-size="14.00">Conv</text>
</g>
<!-- Conv&#45;&gt;X -->
<g id="edge2" class="edge">
<title>Conv&#45;&gt;X</title>
<path fill="none" stroke="black" d="M404.92,-236.61C381.74,-243.37 348.51,-253.07 313.73,-263.21"/>
<polygon fill="black" stroke="black" points="312.97,-259.79 304.35,-265.95 314.93,-266.51 312.97,-259.79"/>
</g>
<!-- Conv&#45;&gt;F -->
<g id="edge3" class="edge">
<title>Conv&#45;&gt;F</title>
<path fill="none" stroke="black" d="M404.92,-217.89C363.69,-205.86 290.64,-184.55 233.7,-167.94"/>
<polygon fill="black" stroke="black" points="234.94,-164.66 224.36,-165.21 232.98,-171.38 234.94,-164.66"/>
</g>
<!-- strides -->
<g id="node5" class="node">
<title>strides</title>
<polygon fill="none" stroke="black" points="489.5,-307.25 386.5,-307.25 386.5,-271.25 489.5,-271.25 489.5,-307.25"/>
<text text-anchor="start" x="394.5" y="-285.2" font-family="Times,serif" font-size="14.00">strides: [1,</text>
<text text-anchor="start" x="452.25" y="-285.2" font-family="Times,serif" font-weight="bold" font-size="14.00">2</text>
<text text-anchor="start" x="459" y="-285.2" font-family="Times,serif" font-size="14.00">,…]</text>
</g>
<!-- strides&#45;&gt;Conv -->
<g id="edge1" class="edge">
<title>strides&#45;&gt;Conv</title>
<path fill="none" stroke="black" d="M438,-271.02C438,-269.14 438,-267.27 438,-265.4"/>
<polygon fill="black" stroke="black" points="441.5,-265.4 438,-255.4 434.5,-265.4 441.5,-265.4"/>
</g>
<!-- Y -->
<g id="node6" class="node">
<title>Y</title>
<polygon fill="none" stroke="black" points="576,-142.25 576,-312.25 787,-312.25 787,-142.25 576,-142.25"/>
<polygon fill="none" stroke="black" points="588,-266.25 588,-300.25 620,-300.25 620,-266.25 588,-266.25"/>
<text text-anchor="start" x="597.25" y="-276.7" font-family="Times,serif" font-size="14.00">⋱</text>
<polygon fill="none" stroke="black" points="622,-266.25 622,-300.25 655,-300.25 655,-266.25 622,-266.25"/>
<text text-anchor="start" x="631.38" y="-277.95" font-family="Times,serif" font-size="14.00">…</text>
<polygon fill="none" stroke="black" points="657,-266.25 657,-300.25 707,-300.25 707,-266.25 657,-266.25"/>
<text text-anchor="start" x="674.88" y="-277.95" font-family="Times,serif" font-size="14.00">…</text>
<polygon fill="none" stroke="black" points="709,-266.25 709,-300.25 741,-300.25 741,-266.25 709,-266.25"/>
<text text-anchor="start" x="717.88" y="-277.95" font-family="Times,serif" font-size="14.00">…</text>
<polygon fill="none" stroke="black" points="743,-266.25 743,-300.25 775,-300.25 775,-266.25 743,-266.25"/>
<text text-anchor="start" x="752.62" y="-276.7" font-family="Times,serif" font-size="14.00">⋰</text>
<polygon fill="none" stroke="black" points="588,-226.25 588,-264.25 620,-264.25 620,-226.25 588,-226.25"/>
<text text-anchor="start" x="596.88" y="-240.2" font-family="Times,serif" font-size="14.00">…</text>
<polygon fill="#d6eaf8" stroke="none" points="622,-226.25 622,-264.25 655,-264.25 655,-226.25 622,-226.25"/>
<polygon fill="none" stroke="black" points="622,-226.25 622,-264.25 655,-264.25 655,-226.25 622,-226.25"/>
<text text-anchor="start" x="630.62" y="-241.2" font-family="Times,serif" font-size="14.00">y</text>
<text text-anchor="start" x="637.38" y="-241.2" font-family="Times,serif" baseline-shift="sub" font-size="14.00">i,j</text>
<polygon fill="none" stroke="black" stroke-width="3" points="658.5,-227.75 658.5,-262.75 705.5,-262.75 705.5,-227.75 658.5,-227.75"/>
<text text-anchor="start" x="667.75" y="-240.95" font-family="Times,serif" font-size="14.00">y</text>
<text text-anchor="start" x="674.5" y="-240.95" font-family="Times,serif" baseline-shift="sub" font-size="14.00">i,j+1</text>
<polygon fill="none" stroke="black" points="709,-226.25 709,-264.25 741,-264.25 741,-226.25 709,-226.25"/>
<text text-anchor="start" x="717.88" y="-240.2" font-family="Times,serif" font-size="14.00">…</text>
<polygon fill="none" stroke="black" points="743,-226.25 743,-264.25 775,-264.25 775,-226.25 743,-226.25"/>
<text text-anchor="start" x="751.88" y="-240.2" font-family="Times,serif" font-size="14.00">…</text>
<polygon fill="none" stroke="black" points="588,-190.25 588,-224.25 620,-224.25 620,-190.25 588,-190.25"/>
<text text-anchor="start" x="596.88" y="-201.95" font-family="Times,serif" font-size="14.00">…</text>
<polygon fill="none" stroke="black" points="622,-190.25 622,-224.25 655,-224.25 655,-190.25 622,-190.25"/>
<text text-anchor="start" x="631.38" y="-201.95" font-family="Times,serif" font-size="14.00">…</text>
<polygon fill="none" stroke="black" points="657,-190.25 657,-224.25 707,-224.25 707,-190.25 657,-190.25"/>
<text text-anchor="start" x="674.88" y="-201.95" font-family="Times,serif" font-size="14.00">…</text>
<polygon fill="none" stroke="black" points="709,-190.25 709,-224.25 741,-224.25 741,-190.25 709,-190.25"/>
<text text-anchor="start" x="717.88" y="-201.95" font-family="Times,serif" font-size="14.00">…</text>
<polygon fill="none" stroke="black" points="743,-190.25 743,-224.25 775,-224.25 775,-190.25 743,-190.25"/>
<text text-anchor="start" x="751.88" y="-201.95" font-family="Times,serif" font-size="14.00">…</text>
<polygon fill="none" stroke="black" points="588,-154.25 588,-188.25 620,-188.25 620,-154.25 588,-154.25"/>
<text text-anchor="start" x="597.62" y="-164.7" font-family="Times,serif" font-size="14.00">⋰</text>
<polygon fill="none" stroke="black" points="622,-154.25 622,-188.25 655,-188.25 655,-154.25 622,-154.25"/>
<text text-anchor="start" x="631.38" y="-165.95" font-family="Times,serif" font-size="14.00">…</text>
<polygon fill="none" stroke="black" points="657,-154.25 657,-188.25 707,-188.25 707,-154.25 657,-154.25"/>
<text text-anchor="start" x="674.88" y="-165.95" font-family="Times,serif" font-size="14.00">…</text>
<polygon fill="none" stroke="black" points="709,-154.25 709,-188.25 741,-188.25 741,-154.25 709,-154.25"/>
<text text-anchor="start" x="717.88" y="-165.95" font-family="Times,serif" font-size="14.00">…</text>
<polygon fill="none" stroke="black" points="743,-154.25 743,-188.25 775,-188.25 775,-154.25 743,-154.25"/>
<text text-anchor="start" x="752.25" y="-164.7" font-family="Times,serif" font-size="14.00">⋱</text>
<polygon fill="none" stroke="black" points="585,-151.25 585,-303.25 778,-303.25 778,-151.25 585,-151.25"/>
<polygon fill="none" stroke="black" points="573,-139.25 573,-315.25 790,-315.25 790,-139.25 573,-139.25"/>
</g>
<!-- Y&#45;&gt;Conv -->
<g id="edge4" class="edge">
<title>Y&#45;&gt;Conv</title>
<path fill="none" stroke="black" d="M573.17,-227.25C541.2,-227.25 507.95,-227.25 482.55,-227.25"/>
<polygon fill="black" stroke="black" points="482.63,-223.75 472.63,-227.25 482.63,-230.75 482.63,-223.75"/>
</g>
</g>
</svg>
