<?xml version="1.0" encoding="UTF-8" standalone="no"?>
<!DOCTYPE svg PUBLIC "-//W3C//DTD SVG 1.1//EN"
 "http://www.w3.org/Graphics/SVG/1.1/DTD/svg11.dtd">
<!-- Generated by graphviz version 9.0.0 (20230911.1827)
 -->
<!-- Title: G Pages: 1 -->
<svg width="713pt" height="298pt"
 viewBox="0.00 0.00 713.00 298.00" xmlns="http://www.w3.org/2000/svg" xmlns:xlink="http://www.w3.org/1999/xlink">
<g id="graph0" class="graph" transform="scale(1 1) rotate(0) translate(4 294)">
<title>G</title>
<polygon fill="white" stroke="none" points="-4,4 -4,-294 709,-294 709,4 -4,4"/>
<!-- idx -->
<g id="node1" class="node">
<title>idx</title>
<polygon fill="none" stroke="black" points="272.5,-246.25 272.5,-280.25 304.5,-280.25 304.5,-246.25 272.5,-246.25"/>
<text text-anchor="start" x="281.75" y="-256.7" font-family="Times,serif" font-size="14.00">⋱</text>
<polygon fill="none" stroke="black" points="306.5,-246.25 306.5,-280.25 338.5,-280.25 338.5,-246.25 306.5,-246.25"/>
<text text-anchor="start" x="315.38" y="-257.95" font-family="Times,serif" font-size="14.00">…</text>
<polygon fill="none" stroke="black" points="340.5,-246.25 340.5,-280.25 388.5,-280.25 388.5,-246.25 340.5,-246.25"/>
<text text-anchor="start" x="357.38" y="-257.95" font-family="Times,serif" font-size="14.00">…</text>
<polygon fill="none" stroke="black" points="390.5,-246.25 390.5,-280.25 422.5,-280.25 422.5,-246.25 390.5,-246.25"/>
<text text-anchor="start" x="400.12" y="-256.7" font-family="Times,serif" font-size="14.00">⋰</text>
<polygon fill="none" stroke="black" points="272.5,-206.25 272.5,-244.25 304.5,-244.25 304.5,-206.25 272.5,-206.25"/>
<text text-anchor="start" x="281.38" y="-220.2" font-family="Times,serif" font-size="14.00">…</text>
<polygon fill="#d6eaf8" stroke="none" points="306.5,-206.25 306.5,-244.25 338.5,-244.25 338.5,-206.25 306.5,-206.25"/>
<polygon fill="none" stroke="black" points="306.5,-206.25 306.5,-244.25 338.5,-244.25 338.5,-206.25 306.5,-206.25"/>
<text text-anchor="start" x="316.88" y="-220.2" font-family="Times,serif" font-size="14.00">i,j</text>
<polygon fill="none" stroke="black" stroke-width="3" points="342,-207.75 342,-242.75 387,-242.75 387,-207.75 342,-207.75"/>
<text text-anchor="start" x="351.38" y="-219.95" font-family="Times,serif" font-size="14.00">i,j+1</text>
<polygon fill="none" stroke="black" points="390.5,-206.25 390.5,-244.25 422.5,-244.25 422.5,-206.25 390.5,-206.25"/>
<text text-anchor="start" x="399.38" y="-220.2" font-family="Times,serif" font-size="14.00">…</text>
<polygon fill="none" stroke="black" points="272.5,-170.25 272.5,-204.25 304.5,-204.25 304.5,-170.25 272.5,-170.25"/>
<text text-anchor="start" x="282.12" y="-180.7" font-family="Times,serif" font-size="14.00">⋰</text>
<polygon fill="none" stroke="black" points="306.5,-170.25 306.5,-204.25 338.5,-204.25 338.5,-170.25 306.5,-170.25"/>
<text text-anchor="start" x="315.38" y="-181.95" font-family="Times,serif" font-size="14.00">…</text>
<polygon fill="none" stroke="black" points="340.5,-170.25 340.5,-204.25 388.5,-204.25 388.5,-170.25 340.5,-170.25"/>
<text text-anchor="start" x="357.38" y="-181.95" font-family="Times,serif" font-size="14.00">…</text>
<polygon fill="none" stroke="black" points="390.5,-170.25 390.5,-204.25 422.5,-204.25 422.5,-170.25 390.5,-170.25"/>
<text text-anchor="start" x="399.75" y="-180.7" font-family="Times,serif" font-size="14.00">⋱</text>
<polygon fill="none" stroke="black" points="269.5,-167.25 269.5,-283.25 425.5,-283.25 425.5,-167.25 269.5,-167.25"/>
<text text-anchor="start" x="332.88" y="-148.95" font-family="Times,serif" font-style="italic" font-size="14.00">index</text>
</g>
<!-- X -->
<g id="node2" class="node">
<title>X</title>
<polygon fill="#d6eaf8" stroke="none" points="3,-249 3,-287 35,-287 35,-249 3,-249"/>
<polygon fill="none" stroke="black" points="3,-249 3,-287 35,-287 35,-249 3,-249"/>
<text text-anchor="start" x="12.25" y="-261.45" font-family="Times,serif" font-size="14.00">⋱</text>
<polygon fill="#d6eaf8" stroke="none" points="37,-249 37,-287 74,-287 74,-249 37,-249"/>
<polygon fill="none" stroke="black" stroke-width="3" points="38.5,-250.5 38.5,-285.5 72.5,-285.5 72.5,-250.5 38.5,-250.5"/>
<text text-anchor="start" x="48.38" y="-262.7" font-family="Times,serif" font-size="14.00">…</text>
<polygon fill="#d6eaf8" stroke="none" stroke-width="3" points="76,-249 76,-287 126,-287 126,-249 76,-249"/>
<polygon fill="none" stroke="black" stroke-width="3" points="77.5,-250.5 77.5,-285.5 124.5,-285.5 124.5,-250.5 77.5,-250.5"/>
<text text-anchor="start" x="93.88" y="-262.7" font-family="Times,serif" font-size="14.00">…</text>
<polygon fill="none" stroke="black" stroke-width="3" points="129.5,-250.5 129.5,-285.5 162.5,-285.5 162.5,-250.5 129.5,-250.5"/>
<text text-anchor="start" x="138.88" y="-262.7" font-family="Times,serif" font-size="14.00">…</text>
<polygon fill="none" stroke="black" points="166,-249 166,-287 198,-287 198,-249 166,-249"/>
<text text-anchor="start" x="175.62" y="-261.45" font-family="Times,serif" font-size="14.00">⋰</text>
<polygon fill="#d6eaf8" stroke="none" points="3,-209 3,-247 35,-247 35,-209 3,-209"/>
<polygon fill="none" stroke="black" points="3,-209 3,-247 35,-247 35,-209 3,-209"/>
<text text-anchor="start" x="11.88" y="-222.95" font-family="Times,serif" font-size="14.00">…</text>
<polygon fill="#d6eaf8" stroke="none" points="37,-209 37,-247 74,-247 74,-209 37,-209"/>
<polygon fill="none" stroke="black" stroke-width="3" points="38.5,-210.5 38.5,-245.5 72.5,-245.5 72.5,-210.5 38.5,-210.5"/>
<text text-anchor="start" x="47.62" y="-223.7" font-family="Times,serif" font-size="14.00">x</text>
<text text-anchor="start" x="54.38" y="-223.7" font-family="Times,serif" baseline-shift="sub" font-size="14.00">i,j</text>
<polygon fill="#d6eaf8" stroke="none" stroke-width="3" points="76,-209 76,-247 126,-247 126,-209 76,-209"/>
<polygon fill="none" stroke="black" stroke-width="3" points="77.5,-210.5 77.5,-245.5 124.5,-245.5 124.5,-210.5 77.5,-210.5"/>
<text text-anchor="start" x="86.75" y="-223.7" font-family="Times,serif" font-size="14.00">x</text>
<text text-anchor="start" x="93.5" y="-223.7" font-family="Times,serif" baseline-shift="sub" font-size="14.00">i,j+1</text>
<polygon fill="none" stroke="black" stroke-width="3" points="129.5,-210.5 129.5,-245.5 162.5,-245.5 162.5,-210.5 129.5,-210.5"/>
<text text-anchor="start" x="138.88" y="-222.7" font-family="Times,serif" font-size="14.00">…</text>
<polygon fill="none" stroke="black" points="166,-209 166,-247 198,-247 198,-209 166,-209"/>
<text text-anchor="start" x="174.88" y="-222.95" font-family="Times,serif" font-size="14.00">…</text>
<polygon fill="#d6eaf8" stroke="none" points="3,-169 3,-207 35,-207 35,-169 3,-169"/>
<polygon fill="none" stroke="black" points="3,-169 3,-207 35,-207 35,-169 3,-169"/>
<text text-anchor="start" x="11.88" y="-182.95" font-family="Times,serif" font-size="14.00">…</text>
<polygon fill="#d6eaf8" stroke="none" points="37,-169 37,-207 74,-207 74,-169 37,-169"/>
<polygon fill="none" stroke="black" stroke-width="3" points="38.5,-170.5 38.5,-205.5 72.5,-205.5 72.5,-170.5 38.5,-170.5"/>
<text text-anchor="start" x="48.38" y="-182.7" font-family="Times,serif" font-size="14.00">…</text>
<polygon fill="#d6eaf8" stroke="none" stroke-width="3" points="76,-169 76,-207 126,-207 126,-169 76,-169"/>
<polygon fill="none" stroke="black" stroke-width="3" points="77.5,-170.5 77.5,-205.5 124.5,-205.5 124.5,-170.5 77.5,-170.5"/>
<text text-anchor="start" x="93.88" y="-182.7" font-family="Times,serif" font-size="14.00">…</text>
<polygon fill="none" stroke="black" stroke-width="3" points="129.5,-170.5 129.5,-205.5 162.5,-205.5 162.5,-170.5 129.5,-170.5"/>
<text text-anchor="start" x="138.88" y="-182.7" font-family="Times,serif" font-size="14.00">…</text>
<polygon fill="none" stroke="black" points="166,-169 166,-207 198,-207 198,-169 166,-169"/>
<text text-anchor="start" x="174.88" y="-182.95" font-family="Times,serif" font-size="14.00">…</text>
<polygon fill="none" stroke="black" points="3,-133 3,-167 35,-167 35,-133 3,-133"/>
<text text-anchor="start" x="12.62" y="-143.45" font-family="Times,serif" font-size="14.00">⋰</text>
<polygon fill="none" stroke="black" points="37,-133 37,-167 74,-167 74,-133 37,-133"/>
<text text-anchor="start" x="48.38" y="-144.7" font-family="Times,serif" font-size="14.00">…</text>
<polygon fill="none" stroke="black" points="76,-133 76,-167 126,-167 126,-133 76,-133"/>
<text text-anchor="start" x="93.88" y="-144.7" font-family="Times,serif" font-size="14.00">…</text>
<polygon fill="none" stroke="black" points="128,-133 128,-167 164,-167 164,-133 128,-133"/>
<text text-anchor="start" x="138.88" y="-144.7" font-family="Times,serif" font-size="14.00">…</text>
<polygon fill="none" stroke="black" points="166,-133 166,-167 198,-167 198,-133 166,-133"/>
<text text-anchor="start" x="175.25" y="-143.45" font-family="Times,serif" font-size="14.00">⋱</text>
<polygon fill="none" stroke="black" points="0,-130 0,-290 201,-290 201,-130 0,-130"/>
</g>
<!-- idx&#45;&gt;X -->
<g id="edge4" class="edge">
<title>idx&#45;&gt;X</title>
<path fill="none" stroke="black" stroke-dasharray="1,5" d="M265.6,-212.68C248.48,-212.4 230.13,-212.1 212.13,-211.81"/>
<polygon fill="none" stroke="black" points="212.25,-208.31 202.19,-211.64 212.13,-215.31 212.25,-208.31"/>
<text text-anchor="start" x="219" y="-216.2" font-family="Times,serif" font-size="14.00">P</text>
<text text-anchor="start" x="226.5" y="-216.2" font-family="Times,serif" baseline-shift="sub" font-size="14.00">X</text>
<text text-anchor="start" x="234.75" y="-216.2" font-family="Times,serif" font-size="14.00">(i)</text>
</g>
<!-- F -->
<g id="node3" class="node">
<title>F</title>
<polygon fill="#d5f5e3" stroke="none" points="45.5,0 45.5,-112 155.5,-112 155.5,0 45.5,0"/>
<polygon fill="none" stroke="black" points="48.5,-75 48.5,-109 84.5,-109 84.5,-75 48.5,-75"/>
<text text-anchor="start" x="57.12" y="-87.7" font-family="Times,serif" font-size="14.00">f</text>
<text text-anchor="start" x="61.62" y="-87.7" font-family="Times,serif" baseline-shift="sub" font-size="14.00">a,b</text>
<polygon fill="none" stroke="black" points="86.5,-75 86.5,-109 118.5,-109 118.5,-75 86.5,-75"/>
<text text-anchor="start" x="95.38" y="-86.7" font-family="Times,serif" font-size="14.00">…</text>
<polygon fill="none" stroke="black" points="120.5,-75 120.5,-109 152.5,-109 152.5,-75 120.5,-75"/>
<text text-anchor="start" x="130.12" y="-85.45" font-family="Times,serif" font-size="14.00">⋰</text>
<polygon fill="none" stroke="black" points="48.5,-39 48.5,-73 84.5,-73 84.5,-39 48.5,-39"/>
<text text-anchor="start" x="59.38" y="-50.7" font-family="Times,serif" font-size="14.00">…</text>
<polygon fill="none" stroke="black" points="86.5,-39 86.5,-73 118.5,-73 118.5,-39 86.5,-39"/>
<text text-anchor="start" x="95.38" y="-50.7" font-family="Times,serif" font-size="14.00">…</text>
<polygon fill="none" stroke="black" points="120.5,-39 120.5,-73 152.5,-73 152.5,-39 120.5,-39"/>
<text text-anchor="start" x="129.38" y="-50.7" font-family="Times,serif" font-size="14.00">…</text>
<polygon fill="none" stroke="black" points="48.5,-3 48.5,-37 84.5,-37 84.5,-3 48.5,-3"/>
<text text-anchor="start" x="60.12" y="-13.45" font-family="Times,serif" font-size="14.00">⋰</text>
<polygon fill="none" stroke="black" points="86.5,-3 86.5,-37 118.5,-37 118.5,-3 86.5,-3"/>
<text text-anchor="start" x="95.38" y="-14.7" font-family="Times,serif" font-size="14.00">…</text>
<polygon fill="none" stroke="black" points="120.5,-3 120.5,-37 152.5,-37 152.5,-3 120.5,-3"/>
<text text-anchor="start" x="129.75" y="-13.45" font-family="Times,serif" font-size="14.00">⋱</text>
<polygon fill="none" stroke="black" points="45.5,0 45.5,-112 155.5,-112 155.5,0 45.5,0"/>
</g>
<!-- idx&#45;&gt;F -->
<g id="edge5" class="edge">
<title>idx&#45;&gt;F</title>
<path fill="none" stroke="black" stroke-dasharray="1,5" d="M265.6,-161.83C232.76,-140.65 195.39,-116.55 164.62,-96.7"/>
<polygon fill="none" stroke="black" points="166.86,-93.99 156.56,-91.51 163.07,-99.87 166.86,-93.99"/>
<text text-anchor="start" x="219.75" y="-153.2" font-family="Times,serif" font-size="14.00">P</text>
<text text-anchor="start" x="227.25" y="-153.2" font-family="Times,serif" baseline-shift="sub" font-size="14.00">F</text>
<text text-anchor="start" x="234" y="-153.2" font-family="Times,serif" font-size="14.00">(i)</text>
</g>
<!-- Y -->
<g id="node5" class="node">
<title>Y</title>
<polygon fill="none" stroke="black" points="497,-135 497,-169 529,-169 529,-135 497,-135"/>
<text text-anchor="start" x="506.25" y="-145.45" font-family="Times,serif" font-size="14.00">⋱</text>
<polygon fill="none" stroke="black" points="531,-135 531,-169 573,-169 573,-135 531,-135"/>
<text text-anchor="start" x="544.88" y="-146.7" font-family="Times,serif" font-size="14.00">…</text>
<polygon fill="none" stroke="black" points="575,-135 575,-169 634,-169 634,-135 575,-135"/>
<text text-anchor="start" x="597.38" y="-146.7" font-family="Times,serif" font-size="14.00">…</text>
<polygon fill="none" stroke="black" points="636,-135 636,-169 668,-169 668,-135 636,-135"/>
<text text-anchor="start" x="644.88" y="-146.7" font-family="Times,serif" font-size="14.00">…</text>
<polygon fill="none" stroke="black" points="670,-135 670,-169 702,-169 702,-135 670,-135"/>
<text text-anchor="start" x="679.62" y="-145.45" font-family="Times,serif" font-size="14.00">⋰</text>
<polygon fill="none" stroke="black" points="497,-95 497,-133 529,-133 529,-95 497,-95"/>
<text text-anchor="start" x="505.88" y="-108.95" font-family="Times,serif" font-size="14.00">…</text>
<polygon fill="#d6eaf8" stroke="none" points="531,-95 531,-133 573,-133 573,-95 531,-95"/>
<polygon fill="none" stroke="black" points="531,-95 531,-133 573,-133 573,-95 531,-95"/>
<text text-anchor="start" x="539.62" y="-109.95" font-family="Times,serif" font-size="14.00">y</text>
<text text-anchor="start" x="546.38" y="-109.95" font-family="Times,serif" baseline-shift="sub" font-size="14.00">i,j,k</text>
<polygon fill="none" stroke="black" stroke-width="3" points="576.5,-96.5 576.5,-131.5 632.5,-131.5 632.5,-96.5 576.5,-96.5"/>
<text text-anchor="start" x="585.75" y="-109.7" font-family="Times,serif" font-size="14.00">y</text>
<text text-anchor="start" x="592.5" y="-109.7" font-family="Times,serif" baseline-shift="sub" font-size="14.00">i,j+1,k</text>
<polygon fill="none" stroke="black" points="636,-95 636,-133 668,-133 668,-95 636,-95"/>
<text text-anchor="start" x="644.88" y="-108.95" font-family="Times,serif" font-size="14.00">…</text>
<polygon fill="none" stroke="black" points="670,-95 670,-133 702,-133 702,-95 670,-95"/>
<text text-anchor="start" x="678.88" y="-108.95" font-family="Times,serif" font-size="14.00">…</text>
<polygon fill="none" stroke="black" points="497,-59 497,-93 529,-93 529,-59 497,-59"/>
<text text-anchor="start" x="505.88" y="-70.7" font-family="Times,serif" font-size="14.00">…</text>
<polygon fill="none" stroke="black" points="531,-59 531,-93 573,-93 573,-59 531,-59"/>
<text text-anchor="start" x="544.88" y="-70.7" font-family="Times,serif" font-size="14.00">…</text>
<polygon fill="none" stroke="black" points="575,-59 575,-93 634,-93 634,-59 575,-59"/>
<text text-anchor="start" x="597.38" y="-70.7" font-family="Times,serif" font-size="14.00">…</text>
<polygon fill="none" stroke="black" points="636,-59 636,-93 668,-93 668,-59 636,-59"/>
<text text-anchor="start" x="644.88" y="-70.7" font-family="Times,serif" font-size="14.00">…</text>
<polygon fill="none" stroke="black" points="670,-59 670,-93 702,-93 702,-59 670,-59"/>
<text text-anchor="start" x="678.88" y="-70.7" font-family="Times,serif" font-size="14.00">…</text>
<polygon fill="none" stroke="black" points="497,-23 497,-57 529,-57 529,-23 497,-23"/>
<text text-anchor="start" x="506.62" y="-33.45" font-family="Times,serif" font-size="14.00">⋰</text>
<polygon fill="none" stroke="black" points="531,-23 531,-57 573,-57 573,-23 531,-23"/>
<text text-anchor="start" x="544.88" y="-34.7" font-family="Times,serif" font-size="14.00">…</text>
<polygon fill="none" stroke="black" points="575,-23 575,-57 634,-57 634,-23 575,-23"/>
<text text-anchor="start" x="597.38" y="-34.7" font-family="Times,serif" font-size="14.00">…</text>
<polygon fill="none" stroke="black" points="636,-23 636,-57 668,-57 668,-23 636,-23"/>
<text text-anchor="start" x="644.88" y="-34.7" font-family="Times,serif" font-size="14.00">…</text>
<polygon fill="none" stroke="black" points="670,-23 670,-57 702,-57 702,-23 670,-23"/>
<text text-anchor="start" x="679.25" y="-33.45" font-family="Times,serif" font-size="14.00">⋱</text>
<polygon fill="none" stroke="black" points="494,-20 494,-172 705,-172 705,-20 494,-20"/>
</g>
<!-- idx&#45;&gt;Y -->
<g id="edge6" class="edge">
<title>idx&#45;&gt;Y</title>
<path fill="none" stroke="black" stroke-dasharray="1,5" d="M429.31,-175.86C446.78,-167.61 465.58,-158.74 484.06,-150.02"/>
<polygon fill="none" stroke="black" points="485.37,-153.27 492.92,-145.83 482.38,-146.94 485.37,-153.27"/>
<text text-anchor="start" x="447.5" y="-169.2" font-family="Times,serif" font-size="14.00">P</text>
<text text-anchor="start" x="455" y="-169.2" font-family="Times,serif" baseline-shift="sub" font-size="14.00">Y</text>
<text text-anchor="start" x="463.25" y="-169.2" font-family="Times,serif" font-size="14.00">(i)</text>
</g>
<!-- Conv -->
<g id="node4" class="node">
<title>Conv</title>
<polygon fill="#e5e8e8" stroke="black" points="362.12,-116.25 314.88,-116.25 314.88,-75.75 362.12,-75.75 362.12,-69.75 380.12,-96 362.12,-122.25 362.12,-116.25"/>
<text text-anchor="middle" x="347.5" y="-90.95" font-family="Times,serif" font-size="14.00">Conv</text>
</g>
<!-- Conv&#45;&gt;X -->
<g id="edge1" class="edge">
<title>Conv&#45;&gt;X</title>
<path fill="none" stroke="black" d="M314.39,-105.45C288.2,-113.6 250.5,-126.36 219,-141 216.37,-142.22 213.73,-143.48 211.07,-144.78"/>
<polygon fill="black" stroke="black" points="209.52,-141.65 202.15,-149.26 212.66,-147.9 209.52,-141.65"/>
</g>
<!-- Conv&#45;&gt;F -->
<g id="edge2" class="edge">
<title>Conv&#45;&gt;F</title>
<path fill="none" stroke="black" d="M314.47,-90.77C277.01,-84.65 214.03,-74.37 166.25,-66.57"/>
<polygon fill="black" stroke="black" points="167,-63.15 156.57,-64.99 165.88,-70.06 167,-63.15"/>
</g>
<!-- Y&#45;&gt;Conv -->
<g id="edge3" class="edge">
<title>Y&#45;&gt;Conv</title>
<path fill="none" stroke="black" d="M494.29,-96C458.41,-96 420.19,-96 391.89,-96"/>
<polygon fill="black" stroke="black" points="391.91,-92.5 381.91,-96 391.91,-99.5 391.91,-92.5"/>
</g>
</g>
</svg>
