<?xml version="1.0" encoding="UTF-8" standalone="no"?>
<!DOCTYPE svg PUBLIC "-//W3C//DTD SVG 1.1//EN"
 "http://www.w3.org/Graphics/SVG/1.1/DTD/svg11.dtd">
<!-- Generated by graphviz version 9.0.0 (20230911.1827)
 -->
<!-- Title: G Pages: 1 -->
<svg width="384pt" height="302pt"
 viewBox="0.00 0.00 384.25 302.25" xmlns="http://www.w3.org/2000/svg" xmlns:xlink="http://www.w3.org/1999/xlink">
<g id="graph0" class="graph" transform="scale(1 1) rotate(0) translate(4 298.25)">
<title>G</title>
<polygon fill="white" stroke="none" points="-4,4 -4,-298.25 380.25,-298.25 380.25,4 -4,4"/>
<!-- x -->
<g id="node1" class="node">
<title>x</title>
<polygon fill="none" stroke="black" points="23.5,-260.25 23.5,-291.25 65.5,-291.25 65.5,-260.25 23.5,-260.25"/>
<text text-anchor="start" x="37.75" y="-268.95" font-family="Times,serif" font-size="14.00">⋱</text>
<polygon fill="none" stroke="black" points="67.5,-260.25 67.5,-291.25 99.5,-291.25 99.5,-260.25 67.5,-260.25"/>
<text text-anchor="start" x="77.12" y="-268.95" font-family="Times,serif" font-size="14.00">⋰</text>
<polygon fill="#d6eaf8" stroke="none" points="23.5,-224.25 23.5,-258.25 65.5,-258.25 65.5,-224.25 23.5,-224.25"/>
<polygon fill="none" stroke="black" points="23.5,-224.25 23.5,-258.25 65.5,-258.25 65.5,-224.25 23.5,-224.25"/>
<text text-anchor="start" x="32.12" y="-236.95" font-family="Times,serif" font-size="14.00">X</text>
<text text-anchor="start" x="41.88" y="-236.95" font-family="Times,serif" baseline-shift="sub" font-size="14.00">i,m</text>
<polygon fill="#d6eaf8" stroke="none" points="67.5,-224.25 67.5,-258.25 99.5,-258.25 99.5,-224.25 67.5,-224.25"/>
<polygon fill="none" stroke="black" points="67.5,-224.25 67.5,-258.25 99.5,-258.25 99.5,-224.25 67.5,-224.25"/>
<text text-anchor="start" x="76.38" y="-235.95" font-family="Times,serif" font-size="14.00">…</text>
<polygon fill="none" stroke="black" points="23.5,-191.25 23.5,-222.25 65.5,-222.25 65.5,-191.25 23.5,-191.25"/>
<text text-anchor="start" x="38.12" y="-199.95" font-family="Times,serif" font-size="14.00">⋰</text>
<polygon fill="none" stroke="black" points="67.5,-191.25 67.5,-222.25 99.5,-222.25 99.5,-191.25 67.5,-191.25"/>
<text text-anchor="start" x="76.75" y="-199.95" font-family="Times,serif" font-size="14.00">⋱</text>
<polygon fill="none" stroke="black" points="20.5,-188.25 20.5,-294.25 102.5,-294.25 102.5,-188.25 20.5,-188.25"/>
</g>
<!-- w -->
<g id="node2" class="node">
<title>w</title>
<polygon fill="none" stroke="black" points="3,-133.25 3,-167.25 35,-167.25 35,-133.25 3,-133.25"/>
<text text-anchor="start" x="12.25" y="-143.7" font-family="Times,serif" font-size="14.00">⋱</text>
<polygon fill="#d6eaf8" stroke="none" points="37,-133.25 37,-167.25 86,-167.25 86,-133.25 37,-133.25"/>
<polygon fill="none" stroke="black" points="37,-133.25 37,-167.25 86,-167.25 86,-133.25 37,-133.25"/>
<text text-anchor="start" x="54.38" y="-144.95" font-family="Times,serif" font-size="14.00">…</text>
<polygon fill="none" stroke="black" points="88,-133.25 88,-167.25 120,-167.25 120,-133.25 88,-133.25"/>
<text text-anchor="start" x="97.62" y="-143.7" font-family="Times,serif" font-size="14.00">⋰</text>
<polygon fill="none" stroke="black" points="3,-97.25 3,-131.25 35,-131.25 35,-97.25 3,-97.25"/>
<text text-anchor="start" x="11.88" y="-108.95" font-family="Times,serif" font-size="14.00">…</text>
<polygon fill="#d6eaf8" stroke="none" points="37,-97.25 37,-131.25 86,-131.25 86,-97.25 37,-97.25"/>
<polygon fill="none" stroke="black" points="37,-97.25 37,-131.25 86,-131.25 86,-97.25 37,-97.25"/>
<text text-anchor="start" x="45.75" y="-109.95" font-family="Times,serif" font-size="14.00">W</text>
<text text-anchor="start" x="59.25" y="-109.95" font-family="Times,serif" baseline-shift="sub" font-size="14.00">m,n</text>
<polygon fill="none" stroke="black" points="88,-97.25 88,-131.25 120,-131.25 120,-97.25 88,-97.25"/>
<text text-anchor="start" x="96.88" y="-108.95" font-family="Times,serif" font-size="14.00">…</text>
<polygon fill="none" stroke="black" points="3,-61.25 3,-95.25 35,-95.25 35,-61.25 3,-61.25"/>
<text text-anchor="start" x="12.62" y="-71.7" font-family="Times,serif" font-size="14.00">⋰</text>
<polygon fill="#d6eaf8" stroke="none" points="37,-61.25 37,-95.25 86,-95.25 86,-61.25 37,-61.25"/>
<polygon fill="none" stroke="black" points="37,-61.25 37,-95.25 86,-95.25 86,-61.25 37,-61.25"/>
<text text-anchor="start" x="54.38" y="-72.95" font-family="Times,serif" font-size="14.00">…</text>
<polygon fill="none" stroke="black" points="88,-61.25 88,-95.25 120,-95.25 120,-61.25 88,-61.25"/>
<text text-anchor="start" x="97.25" y="-71.7" font-family="Times,serif" font-size="14.00">⋱</text>
<polygon fill="none" stroke="black" points="0,-58.25 0,-170.25 123,-170.25 123,-58.25 0,-58.25"/>
</g>
<!-- op -->
<g id="node3" class="node">
<title>op</title>
<polygon fill="#e5e8e8" stroke="black" points="212.25,-134.5 159,-134.5 159,-94 212.25,-94 212.25,-88 230.25,-114.25 212.25,-140.5 212.25,-134.5"/>
<text text-anchor="middle" x="194.62" y="-109.2" font-family="Times,serif" font-size="14.00">Linear</text>
</g>
<!-- op&#45;&gt;x -->
<g id="edge1" class="edge">
<title>op&#45;&gt;x</title>
<path fill="none" stroke="black" d="M166.14,-140.87C150.04,-156.46 129.27,-176.58 110.55,-194.71"/>
<polygon fill="black" stroke="black" points="108.23,-192.09 103.48,-201.56 113.1,-197.11 108.23,-192.09"/>
</g>
<!-- op&#45;&gt;w -->
<g id="edge3" class="edge">
<title>op&#45;&gt;w</title>
<path fill="none" stroke="black" d="M158.83,-114.25C151.13,-114.25 142.69,-114.25 134.12,-114.25"/>
<polygon fill="black" stroke="black" points="134.33,-110.75 124.33,-114.25 134.33,-117.75 134.33,-110.75"/>
</g>
<!-- b -->
<g id="node4" class="node">
<title>b</title>
<polygon fill="none" stroke="black" points="11.88,-3 11.88,-37.5 44.12,-37.5 44.12,-3 11.88,-3"/>
<text text-anchor="start" x="20.88" y="-15.2" font-family="Times,serif" font-size="14.00">…</text>
<polygon fill="#d6eaf8" stroke="none" points="46.12,-3 46.12,-37.5 76.88,-37.5 76.88,-3 46.12,-3"/>
<polygon fill="none" stroke="black" points="46.12,-3 46.12,-37.5 76.88,-37.5 76.88,-3 46.12,-3"/>
<text text-anchor="start" x="55.12" y="-16.2" font-family="Times,serif" font-size="14.00">b</text>
<text text-anchor="start" x="61.88" y="-16.2" font-family="Times,serif" baseline-shift="sub" font-size="14.00">n</text>
<polygon fill="none" stroke="black" points="78.88,-3 78.88,-37.5 111.12,-37.5 111.12,-3 78.88,-3"/>
<text text-anchor="start" x="87.88" y="-15.2" font-family="Times,serif" font-size="14.00">…</text>
<polygon fill="none" stroke="black" points="8.88,0 8.88,-40.5 114.12,-40.5 114.12,0 8.88,0"/>
</g>
<!-- op&#45;&gt;b -->
<g id="edge4" class="edge">
<title>op&#45;&gt;b</title>
<path fill="none" stroke="black" d="M168.37,-87.56C155.56,-74.95 139.28,-60.28 123,-49.25 121.41,-48.17 119.77,-47.11 118.1,-46.07"/>
<polygon fill="black" stroke="black" points="119.97,-43.11 109.56,-41.12 116.46,-49.17 119.97,-43.11"/>
</g>
<!-- y -->
<g id="node5" class="node">
<title>y</title>
<polygon fill="none" stroke="black" points="269.25,-133.25 269.25,-167.25 301.25,-167.25 301.25,-133.25 269.25,-133.25"/>
<text text-anchor="start" x="278.5" y="-143.7" font-family="Times,serif" font-size="14.00">⋱</text>
<polygon fill="none" stroke="black" points="303.25,-133.25 303.25,-167.25 339.25,-167.25 339.25,-133.25 303.25,-133.25"/>
<text text-anchor="start" x="314.12" y="-144.95" font-family="Times,serif" font-size="14.00">…</text>
<polygon fill="none" stroke="black" points="341.25,-133.25 341.25,-167.25 373.25,-167.25 373.25,-133.25 341.25,-133.25"/>
<text text-anchor="start" x="350.88" y="-143.7" font-family="Times,serif" font-size="14.00">⋰</text>
<polygon fill="none" stroke="black" points="269.25,-97.25 269.25,-131.25 301.25,-131.25 301.25,-97.25 269.25,-97.25"/>
<text text-anchor="start" x="278.12" y="-108.95" font-family="Times,serif" font-size="14.00">…</text>
<polygon fill="#d6eaf8" stroke="none" points="303.25,-97.25 303.25,-131.25 339.25,-131.25 339.25,-97.25 303.25,-97.25"/>
<polygon fill="none" stroke="black" points="303.25,-97.25 303.25,-131.25 339.25,-131.25 339.25,-97.25 303.25,-97.25"/>
<text text-anchor="start" x="311.88" y="-109.95" font-family="Times,serif" font-size="14.00">y</text>
<text text-anchor="start" x="318.62" y="-109.95" font-family="Times,serif" baseline-shift="sub" font-size="14.00">i,n</text>
<polygon fill="none" stroke="black" points="341.25,-97.25 341.25,-131.25 373.25,-131.25 373.25,-97.25 341.25,-97.25"/>
<text text-anchor="start" x="350.12" y="-108.95" font-family="Times,serif" font-size="14.00">…</text>
<polygon fill="none" stroke="black" points="269.25,-61.25 269.25,-95.25 301.25,-95.25 301.25,-61.25 269.25,-61.25"/>
<text text-anchor="start" x="278.88" y="-71.7" font-family="Times,serif" font-size="14.00">⋰</text>
<polygon fill="none" stroke="black" points="303.25,-61.25 303.25,-95.25 339.25,-95.25 339.25,-61.25 303.25,-61.25"/>
<text text-anchor="start" x="314.12" y="-72.95" font-family="Times,serif" font-size="14.00">…</text>
<polygon fill="none" stroke="black" points="341.25,-61.25 341.25,-95.25 373.25,-95.25 373.25,-61.25 341.25,-61.25"/>
<text text-anchor="start" x="350.5" y="-71.7" font-family="Times,serif" font-size="14.00">⋱</text>
<polygon fill="none" stroke="black" points="266.25,-58.25 266.25,-170.25 376.25,-170.25 376.25,-58.25 266.25,-58.25"/>
</g>
<!-- y&#45;&gt;op -->
<g id="edge2" class="edge">
<title>y&#45;&gt;op</title>
<path fill="none" stroke="black" d="M266.31,-114.25C258.18,-114.25 249.85,-114.25 241.9,-114.25"/>
<polygon fill="black" stroke="black" points="242.1,-110.75 232.1,-114.25 242.1,-117.75 242.1,-110.75"/>
</g>
</g>
</svg>
