<?xml version="1.0" encoding="UTF-8" standalone="no"?>
<!DOCTYPE svg PUBLIC "-//W3C//DTD SVG 1.1//EN"
 "http://www.w3.org/Graphics/SVG/1.1/DTD/svg11.dtd">
<!-- Generated by graphviz version 9.0.0 (20230911.1827)
 -->
<!-- Title: G Pages: 1 -->
<svg width="466pt" height="399pt"
 viewBox="0.00 0.00 466.00 399.00" xmlns="http://www.w3.org/2000/svg" xmlns:xlink="http://www.w3.org/1999/xlink">
<g id="graph0" class="graph" transform="scale(1 1) rotate(0) translate(4 395)">
<title>G</title>
<polygon fill="white" stroke="none" points="-4,4 -4,-395 462,-395 462,4 -4,4"/>
<!-- idx -->
<g id="node1" class="node">
<title>idx</title>
<polygon fill="none" stroke="black" points="176.5,-350 176.5,-384 244.5,-384 244.5,-350 176.5,-350"/>
<text text-anchor="start" x="203.38" y="-361.7" font-family="Times,serif" font-size="14.00">…</text>
<polygon fill="none" stroke="black" points="246.5,-350 246.5,-384 278.5,-384 278.5,-350 246.5,-350"/>
<text text-anchor="start" x="255.38" y="-361.7" font-family="Times,serif" font-size="14.00">…</text>
<polygon fill="#d6eaf8" stroke="none" points="176.5,-314 176.5,-348 244.5,-348 244.5,-314 176.5,-314"/>
<polygon fill="none" stroke="black" points="176.5,-314 176.5,-348 244.5,-348 244.5,-314 176.5,-314"/>
<text text-anchor="start" x="185.38" y="-325.7" font-family="Times,serif" font-size="14.00">batch,out</text>
<polygon fill="none" stroke="black" points="246.5,-314 246.5,-348 278.5,-348 278.5,-314 246.5,-314"/>
<text text-anchor="start" x="255.38" y="-325.7" font-family="Times,serif" font-size="14.00">…</text>
<polygon fill="none" stroke="black" points="176.5,-278 176.5,-312 244.5,-312 244.5,-278 176.5,-278"/>
<text text-anchor="start" x="203.38" y="-289.7" font-family="Times,serif" font-size="14.00">…</text>
<polygon fill="none" stroke="black" points="246.5,-278 246.5,-312 278.5,-312 278.5,-278 246.5,-278"/>
<text text-anchor="start" x="255.38" y="-289.7" font-family="Times,serif" font-size="14.00">…</text>
<polygon fill="none" stroke="black" points="173.5,-275 173.5,-387 281.5,-387 281.5,-275 173.5,-275"/>
<text text-anchor="start" x="212.88" y="-256.7" font-family="Times,serif" font-style="italic" font-size="14.00">index</text>
</g>
<!-- x -->
<g id="node2" class="node">
<title>x</title>
<polygon fill="none" stroke="black" points="3,-330.75 3,-361.75 65,-361.75 65,-330.75 3,-330.75"/>
<text text-anchor="start" x="27.25" y="-339.45" font-family="Times,serif" font-size="14.00">⋱</text>
<polygon fill="none" stroke="black" points="67,-330.75 67,-361.75 99,-361.75 99,-330.75 67,-330.75"/>
<text text-anchor="start" x="76.62" y="-339.45" font-family="Times,serif" font-size="14.00">⋰</text>
<polygon fill="#d6eaf8" stroke="none" points="3,-294.75 3,-328.75 65,-328.75 65,-294.75 3,-294.75"/>
<polygon fill="none" stroke="black" points="3,-294.75 3,-328.75 65,-328.75 65,-294.75 3,-294.75"/>
<text text-anchor="start" x="11.88" y="-307.45" font-family="Times,serif" font-size="14.00">x</text>
<text text-anchor="start" x="18.62" y="-307.45" font-family="Times,serif" baseline-shift="sub" font-size="14.00">batch,in</text>
<polygon fill="#d6eaf8" stroke="none" points="67,-294.75 67,-328.75 99,-328.75 99,-294.75 67,-294.75"/>
<polygon fill="none" stroke="black" points="67,-294.75 67,-328.75 99,-328.75 99,-294.75 67,-294.75"/>
<text text-anchor="start" x="75.88" y="-306.45" font-family="Times,serif" font-size="14.00">…</text>
<polygon fill="none" stroke="black" points="3,-261.75 3,-292.75 65,-292.75 65,-261.75 3,-261.75"/>
<text text-anchor="start" x="27.62" y="-270.45" font-family="Times,serif" font-size="14.00">⋰</text>
<polygon fill="none" stroke="black" points="67,-261.75 67,-292.75 99,-292.75 99,-261.75 67,-261.75"/>
<text text-anchor="start" x="76.25" y="-270.45" font-family="Times,serif" font-size="14.00">⋱</text>
<polygon fill="none" stroke="black" points="0,-258.75 0,-364.75 102,-364.75 102,-258.75 0,-258.75"/>
</g>
<!-- idx&#45;&gt;x -->
<g id="edge5" class="edge">
<title>idx&#45;&gt;x</title>
<path fill="none" stroke="black" stroke-dasharray="1,5" d="M169.55,-318.62C153.52,-318.17 136.07,-317.57 120,-316.75 117.69,-316.63 115.34,-316.5 112.96,-316.37"/>
<polygon fill="none" stroke="black" points="113.46,-312.89 103.26,-315.76 113.02,-319.88 113.46,-312.89"/>
<text text-anchor="start" x="121.5" y="-321.95" font-family="Times,serif" font-size="14.00">P</text>
<text text-anchor="start" x="129" y="-321.95" font-family="Times,serif" baseline-shift="sub" font-size="14.00">X</text>
<text text-anchor="start" x="137.25" y="-321.95" font-family="Times,serif" font-size="14.00">(i)</text>
</g>
<!-- w -->
<g id="node3" class="node">
<title>w</title>
<polygon fill="#d6eaf8" stroke="none" points="7,-203.25 7,-237.25 61,-237.25 61,-203.25 7,-203.25"/>
<polygon fill="none" stroke="black" points="7,-203.25 7,-237.25 61,-237.25 61,-203.25 7,-203.25"/>
<text text-anchor="start" x="15.62" y="-215.95" font-family="Times,serif" font-size="14.00">w</text>
<text text-anchor="start" x="25.38" y="-215.95" font-family="Times,serif" baseline-shift="sub" font-size="14.00">in,out</text>
<polygon fill="none" stroke="black" points="63,-203.25 63,-237.25 95,-237.25 95,-203.25 63,-203.25"/>
<text text-anchor="start" x="72.62" y="-213.7" font-family="Times,serif" font-size="14.00">⋰</text>
<polygon fill="#d6eaf8" stroke="none" points="7,-167.25 7,-201.25 61,-201.25 61,-167.25 7,-167.25"/>
<polygon fill="none" stroke="black" points="7,-167.25 7,-201.25 61,-201.25 61,-167.25 7,-167.25"/>
<text text-anchor="start" x="26.88" y="-178.95" font-family="Times,serif" font-size="14.00">…</text>
<polygon fill="none" stroke="black" points="63,-167.25 63,-201.25 95,-201.25 95,-167.25 63,-167.25"/>
<text text-anchor="start" x="71.88" y="-178.95" font-family="Times,serif" font-size="14.00">…</text>
<polygon fill="#d6eaf8" stroke="none" points="7,-134.25 7,-165.25 61,-165.25 61,-134.25 7,-134.25"/>
<polygon fill="none" stroke="black" points="7,-134.25 7,-165.25 61,-165.25 61,-134.25 7,-134.25"/>
<text text-anchor="start" x="27.62" y="-142.95" font-family="Times,serif" font-size="14.00">⋰</text>
<polygon fill="none" stroke="black" points="63,-134.25 63,-165.25 95,-165.25 95,-134.25 63,-134.25"/>
<text text-anchor="start" x="72.25" y="-142.95" font-family="Times,serif" font-size="14.00">⋱</text>
<polygon fill="none" stroke="black" points="4,-131.25 4,-240.25 98,-240.25 98,-131.25 4,-131.25"/>
</g>
<!-- idx&#45;&gt;w -->
<g id="edge7" class="edge">
<title>idx&#45;&gt;w</title>
<path fill="none" stroke="black" stroke-dasharray="1,5" d="M169.72,-304C152.56,-297.43 134.46,-288.52 120,-276.75 108.82,-267.64 110.45,-261.44 102,-249.75 101.86,-249.55 101.71,-249.35 101.57,-249.15"/>
<polygon fill="none" stroke="black" points="104.48,-247.2 95.73,-241.22 98.84,-251.35 104.48,-247.2"/>
<text text-anchor="start" x="120" y="-298.95" font-family="Times,serif" font-size="14.00">P</text>
<text text-anchor="start" x="127.5" y="-298.95" font-family="Times,serif" baseline-shift="sub" font-size="14.00">W</text>
<text text-anchor="start" x="138.75" y="-298.95" font-family="Times,serif" font-size="14.00">(i)</text>
</g>
<!-- b -->
<g id="node4" class="node">
<title>b</title>
<polygon fill="#d6eaf8" stroke="none" points="31.12,-76 31.12,-110.5 70.88,-110.5 70.88,-76 31.12,-76"/>
<polygon fill="none" stroke="black" points="31.12,-76 31.12,-110.5 70.88,-110.5 70.88,-76 31.12,-76"/>
<text text-anchor="start" x="40.12" y="-89.2" font-family="Times,serif" font-size="14.00">b</text>
<text text-anchor="start" x="46.88" y="-89.2" font-family="Times,serif" baseline-shift="sub" font-size="14.00">out</text>
<polygon fill="none" stroke="black" points="31.12,-39.5 31.12,-74 70.88,-74 70.88,-39.5 31.12,-39.5"/>
<text text-anchor="start" x="43.88" y="-51.7" font-family="Times,serif" font-size="14.00">…</text>
<polygon fill="none" stroke="black" points="31.12,-3 31.12,-37.5 70.88,-37.5 70.88,-3 31.12,-3"/>
<text text-anchor="start" x="43.88" y="-15.2" font-family="Times,serif" font-size="14.00">…</text>
<polygon fill="none" stroke="black" points="28.12,0 28.12,-113.5 73.88,-113.5 73.88,0 28.12,0"/>
</g>
<!-- idx&#45;&gt;b -->
<g id="edge6" class="edge">
<title>idx&#45;&gt;b</title>
<path fill="none" stroke="black" stroke-dasharray="1,5" d="M184.01,-248.6C160.65,-210.42 130.67,-162.9 102,-121.75 95.35,-112.2 87.84,-102.12 80.71,-92.82"/>
<polygon fill="none" stroke="black" points="83.57,-90.8 74.68,-85.03 78.03,-95.08 83.57,-90.8"/>
<text text-anchor="start" x="121.88" y="-195.95" font-family="Times,serif" font-size="14.00">P</text>
<text text-anchor="start" x="129.38" y="-195.95" font-family="Times,serif" baseline-shift="sub" font-size="14.00">B</text>
<text text-anchor="start" x="136.88" y="-195.95" font-family="Times,serif" font-size="14.00">(i)</text>
</g>
<!-- y -->
<g id="node6" class="node">
<title>y</title>
<polygon fill="none" stroke="black" points="353,-204.75 353,-238.75 421,-238.75 421,-204.75 353,-204.75"/>
<text text-anchor="start" x="379.88" y="-216.45" font-family="Times,serif" font-size="14.00">…</text>
<polygon fill="none" stroke="black" points="423,-204.75 423,-238.75 455,-238.75 455,-204.75 423,-204.75"/>
<text text-anchor="start" x="431.88" y="-216.45" font-family="Times,serif" font-size="14.00">…</text>
<polygon fill="#d6eaf8" stroke="none" points="353,-168.75 353,-202.75 421,-202.75 421,-168.75 353,-168.75"/>
<polygon fill="none" stroke="black" points="353,-168.75 353,-202.75 421,-202.75 421,-168.75 353,-168.75"/>
<text text-anchor="start" x="361.88" y="-181.45" font-family="Times,serif" font-size="14.00">y</text>
<text text-anchor="start" x="368.62" y="-181.45" font-family="Times,serif" baseline-shift="sub" font-size="14.00">batch,out</text>
<polygon fill="none" stroke="black" points="423,-168.75 423,-202.75 455,-202.75 455,-168.75 423,-168.75"/>
<text text-anchor="start" x="431.88" y="-180.45" font-family="Times,serif" font-size="14.00">…</text>
<polygon fill="none" stroke="black" points="353,-132.75 353,-166.75 421,-166.75 421,-132.75 353,-132.75"/>
<text text-anchor="start" x="379.88" y="-144.45" font-family="Times,serif" font-size="14.00">…</text>
<polygon fill="none" stroke="black" points="423,-132.75 423,-166.75 455,-166.75 455,-132.75 423,-132.75"/>
<text text-anchor="start" x="431.88" y="-144.45" font-family="Times,serif" font-size="14.00">…</text>
<polygon fill="none" stroke="black" points="350,-129.75 350,-241.75 458,-241.75 458,-129.75 350,-129.75"/>
</g>
<!-- idx&#45;&gt;y -->
<g id="edge8" class="edge">
<title>idx&#45;&gt;y</title>
<path fill="none" stroke="black" stroke-dasharray="1,5" d="M285.4,-276.06C303.3,-262.31 323.16,-247.06 341.37,-233.07"/>
<polygon fill="none" stroke="black" points="343.17,-236.11 348.97,-227.24 338.91,-230.55 343.17,-236.11"/>
<text text-anchor="start" x="303.5" y="-264.95" font-family="Times,serif" font-size="14.00">P</text>
<text text-anchor="start" x="311" y="-264.95" font-family="Times,serif" baseline-shift="sub" font-size="14.00">Y</text>
<text text-anchor="start" x="319.25" y="-264.95" font-family="Times,serif" font-size="14.00">(i)</text>
</g>
<!-- Linear -->
<g id="node5" class="node">
<title>Linear</title>
<polygon fill="#e5e8e8" stroke="black" points="261.25,-206 175.75,-206 175.75,-165.5 261.25,-165.5 261.25,-159.5 279.25,-185.75 261.25,-212 261.25,-206"/>
<text text-anchor="middle" x="227.5" y="-180.7" font-family="Times,serif" font-size="14.00">LinearBlock</text>
</g>
<!-- Linear&#45;&gt;x -->
<g id="edge1" class="edge">
<title>Linear&#45;&gt;x</title>
<path fill="none" stroke="black" d="M175.34,-204.17C156.95,-212.07 136.66,-222.36 120,-234.75 113.51,-239.58 107.18,-245.11 101.16,-250.95"/>
<polygon fill="black" stroke="black" points="98.75,-248.41 94.22,-257.99 103.74,-253.33 98.75,-248.41"/>
</g>
<!-- Linear&#45;&gt;w -->
<g id="edge2" class="edge">
<title>Linear&#45;&gt;w</title>
<path fill="none" stroke="black" d="M175.56,-185.75C154.75,-185.75 130.59,-185.75 109.18,-185.75"/>
<polygon fill="black" stroke="black" points="109.46,-182.25 99.46,-185.75 109.46,-189.25 109.46,-182.25"/>
</g>
<!-- Linear&#45;&gt;b -->
<g id="edge3" class="edge">
<title>Linear&#45;&gt;b</title>
<path fill="none" stroke="black" d="M190.34,-159.02C158.64,-135.58 113.03,-101.86 82.97,-79.64"/>
<polygon fill="black" stroke="black" points="85.13,-76.89 75.01,-73.76 80.97,-82.52 85.13,-76.89"/>
</g>
<!-- y&#45;&gt;Linear -->
<g id="edge4" class="edge">
<title>y&#45;&gt;Linear</title>
<path fill="none" stroke="black" d="M350.17,-185.75C331.56,-185.75 310.46,-185.75 291.12,-185.75"/>
<polygon fill="black" stroke="black" points="291.17,-182.25 281.17,-185.75 291.17,-189.25 291.17,-182.25"/>
</g>
</g>
</svg>
