<?xml version="1.0" encoding="UTF-8" standalone="no"?>
<!DOCTYPE svg PUBLIC "-//W3C//DTD SVG 1.1//EN"
 "http://www.w3.org/Graphics/SVG/1.1/DTD/svg11.dtd">
<!-- Generated by graphviz version 9.0.0 (20230911.1827)
 -->
<!-- Title: G Pages: 1 -->
<svg width="578pt" height="328pt"
 viewBox="0.00 0.00 578.00 327.50" xmlns="http://www.w3.org/2000/svg" xmlns:xlink="http://www.w3.org/1999/xlink">
<g id="graph0" class="graph" transform="scale(1 1) rotate(0) translate(4 323.5)">
<title>G</title>
<polygon fill="white" stroke="none" points="-4,4 -4,-323.5 574,-323.5 574,4 -4,4"/>
<!-- idx -->
<g id="node1" class="node">
<title>idx</title>
<polygon fill="none" stroke="black" points="206.5,-278.5 206.5,-312.5 238.5,-312.5 238.5,-278.5 206.5,-278.5"/>
<text text-anchor="start" x="215.75" y="-288.95" font-family="Times,serif" font-size="14.00">⋱</text>
<polygon fill="none" stroke="black" points="240.5,-278.5 240.5,-312.5 322.5,-312.5 322.5,-278.5 240.5,-278.5"/>
<text text-anchor="start" x="274.38" y="-290.2" font-family="Times,serif" font-size="14.00">…</text>
<polygon fill="none" stroke="black" points="324.5,-278.5 324.5,-312.5 356.5,-312.5 356.5,-278.5 324.5,-278.5"/>
<text text-anchor="start" x="334.12" y="-288.95" font-family="Times,serif" font-size="14.00">⋰</text>
<polygon fill="none" stroke="black" points="206.5,-242.5 206.5,-276.5 238.5,-276.5 238.5,-242.5 206.5,-242.5"/>
<text text-anchor="start" x="215.38" y="-254.2" font-family="Times,serif" font-size="14.00">…</text>
<polygon fill="#d6eaf8" stroke="none" points="240.5,-242.5 240.5,-276.5 322.5,-276.5 322.5,-242.5 240.5,-242.5"/>
<polygon fill="none" stroke="black" points="240.5,-242.5 240.5,-276.5 322.5,-276.5 322.5,-242.5 240.5,-242.5"/>
<text text-anchor="start" x="249.25" y="-254.2" font-family="Times,serif" font-size="14.00">batch,in,out</text>
<polygon fill="none" stroke="black" points="324.5,-242.5 324.5,-276.5 356.5,-276.5 356.5,-242.5 324.5,-242.5"/>
<text text-anchor="start" x="333.38" y="-254.2" font-family="Times,serif" font-size="14.00">…</text>
<polygon fill="none" stroke="black" points="206.5,-206.5 206.5,-240.5 238.5,-240.5 238.5,-206.5 206.5,-206.5"/>
<text text-anchor="start" x="216.12" y="-216.95" font-family="Times,serif" font-size="14.00">⋰</text>
<polygon fill="none" stroke="black" points="240.5,-206.5 240.5,-240.5 322.5,-240.5 322.5,-206.5 240.5,-206.5"/>
<text text-anchor="start" x="274.38" y="-218.2" font-family="Times,serif" font-size="14.00">…</text>
<polygon fill="none" stroke="black" points="324.5,-206.5 324.5,-240.5 356.5,-240.5 356.5,-206.5 324.5,-206.5"/>
<text text-anchor="start" x="333.75" y="-216.95" font-family="Times,serif" font-size="14.00">⋱</text>
<polygon fill="none" stroke="black" points="203.5,-203.5 203.5,-315.5 359.5,-315.5 359.5,-203.5 203.5,-203.5"/>
<text text-anchor="start" x="266.88" y="-185.2" font-family="Times,serif" font-style="italic" font-size="14.00">index</text>
</g>
<!-- x -->
<g id="node2" class="node">
<title>x</title>
<polygon fill="none" stroke="black" points="16.5,-260.25 16.5,-291.25 81.5,-291.25 81.5,-260.25 16.5,-260.25"/>
<text text-anchor="start" x="42.25" y="-268.95" font-family="Times,serif" font-size="14.00">⋱</text>
<polygon fill="none" stroke="black" points="83.5,-260.25 83.5,-291.25 115.5,-291.25 115.5,-260.25 83.5,-260.25"/>
<text text-anchor="start" x="93.12" y="-268.95" font-family="Times,serif" font-size="14.00">⋰</text>
<polygon fill="#d6eaf8" stroke="none" points="16.5,-224.25 16.5,-258.25 81.5,-258.25 81.5,-224.25 16.5,-224.25"/>
<polygon fill="none" stroke="black" points="16.5,-224.25 16.5,-258.25 81.5,-258.25 81.5,-224.25 16.5,-224.25"/>
<text text-anchor="start" x="25.38" y="-236.95" font-family="Times,serif" font-size="14.00">X</text>
<text text-anchor="start" x="35.12" y="-236.95" font-family="Times,serif" baseline-shift="sub" font-size="14.00">batch,in</text>
<polygon fill="#d6eaf8" stroke="none" points="83.5,-224.25 83.5,-258.25 115.5,-258.25 115.5,-224.25 83.5,-224.25"/>
<polygon fill="none" stroke="black" points="83.5,-224.25 83.5,-258.25 115.5,-258.25 115.5,-224.25 83.5,-224.25"/>
<text text-anchor="start" x="92.38" y="-235.95" font-family="Times,serif" font-size="14.00">…</text>
<polygon fill="none" stroke="black" points="16.5,-191.25 16.5,-222.25 81.5,-222.25 81.5,-191.25 16.5,-191.25"/>
<text text-anchor="start" x="42.62" y="-199.95" font-family="Times,serif" font-size="14.00">⋰</text>
<polygon fill="none" stroke="black" points="83.5,-191.25 83.5,-222.25 115.5,-222.25 115.5,-191.25 83.5,-191.25"/>
<text text-anchor="start" x="92.75" y="-199.95" font-family="Times,serif" font-size="14.00">⋱</text>
<polygon fill="none" stroke="black" points="13.5,-188.25 13.5,-294.25 118.5,-294.25 118.5,-188.25 13.5,-188.25"/>
</g>
<!-- idx&#45;&gt;x -->
<g id="edge5" class="edge">
<title>idx&#45;&gt;x</title>
<path fill="none" stroke="black" stroke-dasharray="1,5" d="M199.74,-246.71C183.28,-246.31 166.08,-245.82 150,-245.25 143.44,-245.02 136.59,-244.74 129.77,-244.44"/>
<polygon fill="none" stroke="black" points="130.01,-240.95 119.86,-244 129.7,-247.94 130.01,-240.95"/>
<text text-anchor="start" x="151.5" y="-249.45" font-family="Times,serif" font-size="14.00">P</text>
<text text-anchor="start" x="159" y="-249.45" font-family="Times,serif" baseline-shift="sub" font-size="14.00">X</text>
<text text-anchor="start" x="167.25" y="-249.45" font-family="Times,serif" font-size="14.00">(i)</text>
</g>
<!-- w -->
<g id="node3" class="node">
<title>w</title>
<polygon fill="none" stroke="black" points="3,-133.25 3,-167.25 35,-167.25 35,-133.25 3,-133.25"/>
<text text-anchor="start" x="12.25" y="-143.7" font-family="Times,serif" font-size="14.00">⋱</text>
<polygon fill="#d6eaf8" stroke="none" points="37,-133.25 37,-167.25 95,-167.25 95,-133.25 37,-133.25"/>
<polygon fill="none" stroke="black" points="37,-133.25 37,-167.25 95,-167.25 95,-133.25 37,-133.25"/>
<text text-anchor="start" x="58.88" y="-144.95" font-family="Times,serif" font-size="14.00">…</text>
<polygon fill="none" stroke="black" points="97,-133.25 97,-167.25 129,-167.25 129,-133.25 97,-133.25"/>
<text text-anchor="start" x="106.62" y="-143.7" font-family="Times,serif" font-size="14.00">⋰</text>
<polygon fill="none" stroke="black" points="3,-97.25 3,-131.25 35,-131.25 35,-97.25 3,-97.25"/>
<text text-anchor="start" x="11.88" y="-108.95" font-family="Times,serif" font-size="14.00">…</text>
<polygon fill="#d6eaf8" stroke="none" points="37,-97.25 37,-131.25 95,-131.25 95,-97.25 37,-97.25"/>
<polygon fill="none" stroke="black" points="37,-97.25 37,-131.25 95,-131.25 95,-97.25 37,-97.25"/>
<text text-anchor="start" x="45.75" y="-109.95" font-family="Times,serif" font-size="14.00">W</text>
<text text-anchor="start" x="59.25" y="-109.95" font-family="Times,serif" baseline-shift="sub" font-size="14.00">in,out</text>
<polygon fill="none" stroke="black" points="97,-97.25 97,-131.25 129,-131.25 129,-97.25 97,-97.25"/>
<text text-anchor="start" x="105.88" y="-108.95" font-family="Times,serif" font-size="14.00">…</text>
<polygon fill="none" stroke="black" points="3,-61.25 3,-95.25 35,-95.25 35,-61.25 3,-61.25"/>
<text text-anchor="start" x="12.62" y="-71.7" font-family="Times,serif" font-size="14.00">⋰</text>
<polygon fill="#d6eaf8" stroke="none" points="37,-61.25 37,-95.25 95,-95.25 95,-61.25 37,-61.25"/>
<polygon fill="none" stroke="black" points="37,-61.25 37,-95.25 95,-95.25 95,-61.25 37,-61.25"/>
<text text-anchor="start" x="58.88" y="-72.95" font-family="Times,serif" font-size="14.00">…</text>
<polygon fill="none" stroke="black" points="97,-61.25 97,-95.25 129,-95.25 129,-61.25 97,-61.25"/>
<text text-anchor="start" x="106.25" y="-71.7" font-family="Times,serif" font-size="14.00">⋱</text>
<polygon fill="none" stroke="black" points="0,-58.25 0,-170.25 132,-170.25 132,-58.25 0,-58.25"/>
</g>
<!-- idx&#45;&gt;w -->
<g id="edge6" class="edge">
<title>idx&#45;&gt;w</title>
<path fill="none" stroke="black" stroke-dasharray="1,5" d="M199.56,-230.59C182.15,-224.41 164.62,-216.17 150,-205.25 138.74,-196.84 141.01,-190.04 132,-179.25 131.84,-179.06 131.68,-178.87 131.52,-178.68"/>
<polygon fill="none" stroke="black" points="134.21,-176.43 125.01,-171.17 128.92,-181.02 134.21,-176.43"/>
<text text-anchor="start" x="150" y="-225.45" font-family="Times,serif" font-size="14.00">P</text>
<text text-anchor="start" x="157.5" y="-225.45" font-family="Times,serif" baseline-shift="sub" font-size="14.00">W</text>
<text text-anchor="start" x="168.75" y="-225.45" font-family="Times,serif" font-size="14.00">(i)</text>
</g>
<!-- b -->
<g id="node5" class="node">
<title>b</title>
<polygon fill="none" stroke="black" points="11.88,-3 11.88,-37.5 44.12,-37.5 44.12,-3 11.88,-3"/>
<text text-anchor="start" x="20.88" y="-15.2" font-family="Times,serif" font-size="14.00">…</text>
<polygon fill="#d6eaf8" stroke="none" points="46.12,-3 46.12,-37.5 85.88,-37.5 85.88,-3 46.12,-3"/>
<polygon fill="none" stroke="black" points="46.12,-3 46.12,-37.5 85.88,-37.5 85.88,-3 46.12,-3"/>
<text text-anchor="start" x="55.12" y="-16.2" font-family="Times,serif" font-size="14.00">b</text>
<text text-anchor="start" x="61.88" y="-16.2" font-family="Times,serif" baseline-shift="sub" font-size="14.00">out</text>
<polygon fill="none" stroke="black" points="87.88,-3 87.88,-37.5 120.12,-37.5 120.12,-3 87.88,-3"/>
<text text-anchor="start" x="96.88" y="-15.2" font-family="Times,serif" font-size="14.00">…</text>
<polygon fill="none" stroke="black" points="8.88,0 8.88,-40.5 123.12,-40.5 123.12,0 8.88,0"/>
</g>
<!-- idx&#45;&gt;b -->
<g id="edge7" class="edge">
<title>idx&#45;&gt;b</title>
<path fill="none" stroke="black" stroke-dasharray="1,5" d="M221.28,-177.08C213.85,-167.8 206.43,-158.35 199.5,-149.25 176.42,-118.93 170.82,-111.16 150,-79.25 141.51,-66.23 143.64,-59.56 132,-49.25 131.08,-48.43 130.12,-47.63 129.15,-46.85"/>
<polygon fill="none" stroke="black" points="131.28,-44.07 121.07,-41.21 127.27,-49.81 131.28,-44.07"/>
<text text-anchor="start" x="152.62" y="-129.45" font-family="Times,serif" font-size="14.00">P</text>
<text text-anchor="start" x="160.12" y="-129.45" font-family="Times,serif" baseline-shift="sub" font-size="14.00">b</text>
<text text-anchor="start" x="166.12" y="-129.45" font-family="Times,serif" font-size="14.00">(i)</text>
</g>
<!-- y -->
<g id="node6" class="node">
<title>y</title>
<polygon fill="none" stroke="black" points="431,-133.25 431,-167.25 463,-167.25 463,-133.25 431,-133.25"/>
<text text-anchor="start" x="440.25" y="-143.7" font-family="Times,serif" font-size="14.00">⋱</text>
<polygon fill="none" stroke="black" points="465,-133.25 465,-167.25 533,-167.25 533,-133.25 465,-133.25"/>
<text text-anchor="start" x="491.88" y="-144.95" font-family="Times,serif" font-size="14.00">…</text>
<polygon fill="none" stroke="black" points="535,-133.25 535,-167.25 567,-167.25 567,-133.25 535,-133.25"/>
<text text-anchor="start" x="544.62" y="-143.7" font-family="Times,serif" font-size="14.00">⋰</text>
<polygon fill="none" stroke="black" points="431,-97.25 431,-131.25 463,-131.25 463,-97.25 431,-97.25"/>
<text text-anchor="start" x="439.88" y="-108.95" font-family="Times,serif" font-size="14.00">…</text>
<polygon fill="#d6eaf8" stroke="none" points="465,-97.25 465,-131.25 533,-131.25 533,-97.25 465,-97.25"/>
<polygon fill="none" stroke="black" points="465,-97.25 465,-131.25 533,-131.25 533,-97.25 465,-97.25"/>
<text text-anchor="start" x="473.88" y="-109.95" font-family="Times,serif" font-size="14.00">y</text>
<text text-anchor="start" x="480.62" y="-109.95" font-family="Times,serif" baseline-shift="sub" font-size="14.00">batch,out</text>
<polygon fill="none" stroke="black" points="535,-97.25 535,-131.25 567,-131.25 567,-97.25 535,-97.25"/>
<text text-anchor="start" x="543.88" y="-108.95" font-family="Times,serif" font-size="14.00">…</text>
<polygon fill="none" stroke="black" points="431,-61.25 431,-95.25 463,-95.25 463,-61.25 431,-61.25"/>
<text text-anchor="start" x="440.62" y="-71.7" font-family="Times,serif" font-size="14.00">⋰</text>
<polygon fill="none" stroke="black" points="465,-61.25 465,-95.25 533,-95.25 533,-61.25 465,-61.25"/>
<text text-anchor="start" x="491.88" y="-72.95" font-family="Times,serif" font-size="14.00">…</text>
<polygon fill="none" stroke="black" points="535,-61.25 535,-95.25 567,-95.25 567,-61.25 535,-61.25"/>
<text text-anchor="start" x="544.25" y="-71.7" font-family="Times,serif" font-size="14.00">⋱</text>
<polygon fill="none" stroke="black" points="428,-58.25 428,-170.25 570,-170.25 570,-58.25 428,-58.25"/>
</g>
<!-- idx&#45;&gt;y -->
<g id="edge8" class="edge">
<title>idx&#45;&gt;y</title>
<path fill="none" stroke="black" stroke-dasharray="1,5" d="M363.35,-197.98C381.46,-186.71 400.66,-174.78 418.71,-163.55"/>
<polygon fill="none" stroke="black" points="420.1,-166.81 426.75,-158.56 416.41,-160.86 420.1,-166.81"/>
<text text-anchor="start" x="381.5" y="-189.45" font-family="Times,serif" font-size="14.00">P</text>
<text text-anchor="start" x="389" y="-189.45" font-family="Times,serif" baseline-shift="sub" font-size="14.00">Y</text>
<text text-anchor="start" x="397.25" y="-189.45" font-family="Times,serif" font-size="14.00">(i)</text>
</g>
<!-- op -->
<g id="node4" class="node">
<title>op</title>
<polygon fill="#e5e8e8" stroke="black" points="299.12,-134.5 245.88,-134.5 245.88,-94 299.12,-94 299.12,-88 317.12,-114.25 299.12,-140.5 299.12,-134.5"/>
<text text-anchor="middle" x="281.5" y="-109.2" font-family="Times,serif" font-size="14.00">Linear</text>
</g>
<!-- op&#45;&gt;x -->
<g id="edge1" class="edge">
<title>op&#45;&gt;x</title>
<path fill="none" stroke="black" d="M245.54,-123.27C218.22,-131.27 180,-144.58 150,-163.25 148.23,-164.35 138.58,-173.23 126.46,-184.62"/>
<polygon fill="black" stroke="black" points="124.17,-181.97 119.29,-191.37 128.97,-187.06 124.17,-181.97"/>
</g>
<!-- op&#45;&gt;w -->
<g id="edge3" class="edge">
<title>op&#45;&gt;w</title>
<path fill="none" stroke="black" d="M245.72,-114.25C218,-114.25 178.16,-114.25 143.12,-114.25"/>
<polygon fill="black" stroke="black" points="143.45,-110.75 133.45,-114.25 143.45,-117.75 143.45,-110.75"/>
</g>
<!-- op&#45;&gt;b -->
<g id="edge4" class="edge">
<title>op&#45;&gt;b</title>
<path fill="none" stroke="black" d="M245.72,-98.94C212.53,-84.32 161.97,-62.06 123.08,-44.94"/>
<polygon fill="black" stroke="black" points="124.9,-41.92 114.34,-41.09 122.08,-48.33 124.9,-41.92"/>
</g>
<!-- y&#45;&gt;op -->
<g id="edge2" class="edge">
<title>y&#45;&gt;op</title>
<path fill="none" stroke="black" d="M428.03,-114.25C395.52,-114.25 357.75,-114.25 328.84,-114.25"/>
<polygon fill="black" stroke="black" points="328.94,-110.75 318.94,-114.25 328.94,-117.75 328.94,-110.75"/>
</g>
</g>
</svg>
