<?xml version="1.0" encoding="UTF-8" standalone="no"?>
<!DOCTYPE svg PUBLIC "-//W3C//DTD SVG 1.1//EN"
 "http://www.w3.org/Graphics/SVG/1.1/DTD/svg11.dtd">
<!-- Generated by graphviz version 9.0.0 (20230911.1827)
 -->
<!-- Title: D Pages: 1 -->
<svg width="454pt" height="152pt"
 viewBox="0.00 0.00 454.25 152.00" xmlns="http://www.w3.org/2000/svg" xmlns:xlink="http://www.w3.org/1999/xlink">
<g id="graph0" class="graph" transform="scale(1 1) rotate(0) translate(4 148)">
<title>D</title>
<polygon fill="white" stroke="none" points="-4,4 -4,-148 450.25,-148 450.25,4 -4,4"/>
<!-- X -->
<g id="node1" class="node">
<title>X</title>
<polygon fill="#d0d0ff" stroke="black" points="54,-144 4,-144 0,-140 0,-108 50,-108 54,-112 54,-144"/>
<polyline fill="none" stroke="black" points="50,-140 0,-140"/>
<polyline fill="none" stroke="black" points="50,-140 50,-108"/>
<polyline fill="none" stroke="black" points="50,-140 54,-144"/>
<text text-anchor="middle" x="27" y="-120.95" font-family="Times,serif" font-size="14.00">X</text>
</g>
<!-- W -->
<g id="node2" class="node">
<title>W</title>
<polygon fill="#d0d0ff" stroke="black" points="54,-90 4,-90 0,-86 0,-54 50,-54 54,-58 54,-90"/>
<polyline fill="none" stroke="black" points="50,-86 0,-86"/>
<polyline fill="none" stroke="black" points="50,-86 50,-54"/>
<polyline fill="none" stroke="black" points="50,-86 54,-90"/>
<text text-anchor="middle" x="27" y="-66.95" font-family="Times,serif" font-size="14.00">W</text>
</g>
<!-- b -->
<g id="node3" class="node">
<title>b</title>
<polygon fill="#d0d0ff" stroke="black" points="54,-36 4,-36 0,-32 0,0 50,0 54,-4 54,-36"/>
<polyline fill="none" stroke="black" points="50,-32 0,-32"/>
<polyline fill="none" stroke="black" points="50,-32 50,0"/>
<polyline fill="none" stroke="black" points="50,-32 54,-36"/>
<text text-anchor="middle" x="27" y="-12.95" font-family="Times,serif" font-size="14.00">b</text>
</g>
<!-- Z -->
<g id="node4" class="node">
<title>Z</title>
<polygon fill="#d0d0ff" stroke="black" points="251.25,-90 201.25,-90 197.25,-86 197.25,-54 247.25,-54 251.25,-58 251.25,-90"/>
<polyline fill="none" stroke="black" points="247.25,-86 197.25,-86"/>
<polyline fill="none" stroke="black" points="247.25,-86 247.25,-54"/>
<polyline fill="none" stroke="black" points="247.25,-86 251.25,-90"/>
<text text-anchor="middle" x="224.25" y="-66.95" font-family="Times,serif" font-size="14.00">Z</text>
</g>
<!-- Linear -->
<g id="node6" class="node">
<title>Linear</title>
<polygon fill="#e5e8e8" stroke="black" points="143.25,-92.25 90,-92.25 90,-51.75 143.25,-51.75 143.25,-45.75 161.25,-72 143.25,-98.25 143.25,-92.25"/>
<text text-anchor="middle" x="125.62" y="-66.95" font-family="Times,serif" font-size="14.00">Linear</text>
</g>
<!-- Z&#45;&gt;Linear -->
<g id="edge4" class="edge">
<title>Z&#45;&gt;Linear</title>
<path fill="none" stroke="black" d="M196.85,-72C189.48,-72 181.25,-72 173.09,-72"/>
<polygon fill="black" stroke="black" points="173.21,-68.5 163.21,-72 173.21,-75.5 173.21,-68.5"/>
</g>
<!-- Y -->
<g id="node5" class="node">
<title>Y</title>
<polygon fill="#d0d0ff" stroke="black" points="446.25,-90 396.25,-90 392.25,-86 392.25,-54 442.25,-54 446.25,-58 446.25,-90"/>
<polyline fill="none" stroke="black" points="442.25,-86 392.25,-86"/>
<polyline fill="none" stroke="black" points="442.25,-86 442.25,-54"/>
<polyline fill="none" stroke="black" points="442.25,-86 446.25,-90"/>
<text text-anchor="middle" x="419.25" y="-66.95" font-family="Times,serif" font-size="14.00">Y</text>
</g>
<!-- ReLU -->
<g id="node7" class="node">
<title>ReLU</title>
<polygon fill="#e5e8e8" stroke="black" points="338.25,-92.25 287.25,-92.25 287.25,-51.75 338.25,-51.75 338.25,-45.75 356.25,-72 338.25,-98.25 338.25,-92.25"/>
<text text-anchor="middle" x="321.75" y="-66.95" font-family="Times,serif" font-size="14.00">ReLU</text>
</g>
<!-- Y&#45;&gt;ReLU -->
<g id="edge6" class="edge">
<title>Y&#45;&gt;ReLU</title>
<path fill="none" stroke="black" d="M391.9,-72C384.47,-72 376.17,-72 367.97,-72"/>
<polygon fill="black" stroke="black" points="368.05,-68.5 358.05,-72 368.05,-75.5 368.05,-68.5"/>
</g>
<!-- Linear&#45;&gt;X -->
<g id="edge1" class="edge">
<title>Linear&#45;&gt;X</title>
<path fill="none" stroke="black" d="M89.74,-91.5C81.44,-96.13 72.56,-101.09 64.21,-105.77"/>
<polygon fill="black" stroke="black" points="62.68,-102.61 55.66,-110.54 66.1,-108.72 62.68,-102.61"/>
</g>
<!-- Linear&#45;&gt;W -->
<g id="edge2" class="edge">
<title>Linear&#45;&gt;W</title>
<path fill="none" stroke="black" d="M89.74,-72C81.9,-72 73.54,-72 65.59,-72"/>
<polygon fill="black" stroke="black" points="65.85,-68.5 55.85,-72 65.85,-75.5 65.85,-68.5"/>
</g>
<!-- Linear&#45;&gt;b -->
<g id="edge3" class="edge">
<title>Linear&#45;&gt;b</title>
<path fill="none" stroke="black" d="M89.74,-52.5C81.44,-47.87 72.56,-42.91 64.21,-38.23"/>
<polygon fill="black" stroke="black" points="66.1,-35.28 55.66,-33.46 62.68,-41.39 66.1,-35.28"/>
</g>
<!-- ReLU&#45;&gt;Z -->
<g id="edge5" class="edge">
<title>ReLU&#45;&gt;Z</title>
<path fill="none" stroke="black" d="M286.81,-72C279.12,-72 270.91,-72 263.07,-72"/>
<polygon fill="black" stroke="black" points="263.09,-68.5 253.09,-72 263.09,-75.5 263.09,-68.5"/>
</g>
</g>
</svg>
