<?xml version="1.0" encoding="UTF-8" standalone="no"?>
<!DOCTYPE svg PUBLIC "-//W3C//DTD SVG 1.1//EN"
 "http://www.w3.org/Graphics/SVG/1.1/DTD/svg11.dtd">
<!-- Generated by graphviz version 9.0.0 (20230911.1827)
 -->
<!-- Title: D Pages: 1 -->
<svg width="753pt" height="206pt"
 viewBox="0.00 0.00 753.14 206.00" xmlns="http://www.w3.org/2000/svg" xmlns:xlink="http://www.w3.org/1999/xlink">
<g id="graph0" class="graph" transform="scale(1 1) rotate(0) translate(4 202)">
<title>D</title>
<polygon fill="white" stroke="none" points="-4,4 -4,-202 749.14,-202 749.14,4 -4,4"/>
<!-- X -->
<g id="node1" class="node">
<title>X</title>
<polygon fill="#d0d0ff" stroke="black" points="54,-117 4,-117 0,-113 0,-81 50,-81 54,-85 54,-117"/>
<polyline fill="none" stroke="black" points="50,-113 0,-113"/>
<polyline fill="none" stroke="black" points="50,-113 50,-81"/>
<polyline fill="none" stroke="black" points="50,-113 54,-117"/>
<text text-anchor="middle" x="27" y="-93.95" font-family="Times,serif" font-size="14.00">X</text>
</g>
<!-- X_1 -->
<g id="node2" class="node">
<title>X_1</title>
<polygon fill="#d0d0ff" stroke="black" points="282.69,-198 232.69,-198 228.69,-194 228.69,-162 278.69,-162 282.69,-166 282.69,-198"/>
<polyline fill="none" stroke="black" points="278.69,-194 228.69,-194"/>
<polyline fill="none" stroke="black" points="278.69,-194 278.69,-162"/>
<polyline fill="none" stroke="black" points="278.69,-194 282.69,-198"/>
<text text-anchor="start" x="247.82" y="-175.95" font-family="Times,serif" font-size="14.00">X</text>
<text text-anchor="start" x="257.57" y="-175.95" font-family="Times,serif" baseline-shift="sub" font-size="14.00">1</text>
</g>
<!-- SX1 -->
<g id="node11" class="node">
<title>SX1</title>
<polygon fill="#a0d0d0" stroke="black" points="192.69,-171 111.01,-171 90,-135 171.68,-135 192.69,-171"/>
<text text-anchor="start" x="110.22" y="-147.95" font-family="Times,serif" font-size="14.00">slice[:, 0:k]</text>
</g>
<!-- X_1&#45;&gt;SX1 -->
<g id="edge3" class="edge">
<title>X_1&#45;&gt;SX1</title>
<path fill="none" stroke="black" d="M228.35,-173.67C219.87,-171.63 210.11,-169.29 200.28,-166.92"/>
<polygon fill="black" stroke="black" points="201.22,-163.55 190.68,-164.62 199.59,-170.36 201.22,-163.55"/>
</g>
<!-- X_2 -->
<g id="node3" class="node">
<title>X_2</title>
<polygon fill="#d0d0ff" stroke="black" points="282.69,-36 232.69,-36 228.69,-32 228.69,0 278.69,0 282.69,-4 282.69,-36"/>
<polyline fill="none" stroke="black" points="278.69,-32 228.69,-32"/>
<polyline fill="none" stroke="black" points="278.69,-32 278.69,0"/>
<polyline fill="none" stroke="black" points="278.69,-32 282.69,-36"/>
<text text-anchor="start" x="247.82" y="-13.95" font-family="Times,serif" font-size="14.00">X</text>
<text text-anchor="start" x="257.57" y="-13.95" font-family="Times,serif" baseline-shift="sub" font-size="14.00">2</text>
</g>
<!-- SX2 -->
<g id="node12" class="node">
<title>SX2</title>
<polygon fill="#a0d0d0" stroke="black" points="192.69,-90 111.01,-90 90,-54 171.68,-54 192.69,-90"/>
<text text-anchor="start" x="110.22" y="-66.95" font-family="Times,serif" font-size="14.00">slice[:, k:0]</text>
</g>
<!-- X_2&#45;&gt;SX2 -->
<g id="edge4" class="edge">
<title>X_2&#45;&gt;SX2</title>
<path fill="none" stroke="black" d="M228.35,-30.66C215.07,-37.04 198.66,-44.93 183.74,-52.1"/>
<polygon fill="black" stroke="black" points="182.57,-48.78 175.08,-56.27 185.61,-55.09 182.57,-48.78"/>
</g>
<!-- W -->
<g id="node4" class="node">
<title>W</title>
<polygon fill="#d0d0ff" stroke="black" points="282.69,-144 232.69,-144 228.69,-140 228.69,-108 278.69,-108 282.69,-112 282.69,-144"/>
<polyline fill="none" stroke="black" points="278.69,-140 228.69,-140"/>
<polyline fill="none" stroke="black" points="278.69,-140 278.69,-108"/>
<polyline fill="none" stroke="black" points="278.69,-140 282.69,-144"/>
<text text-anchor="middle" x="255.69" y="-120.95" font-family="Times,serif" font-size="14.00">W</text>
</g>
<!-- b -->
<g id="node5" class="node">
<title>b</title>
<polygon fill="#d0d0ff" stroke="black" points="282.69,-90 232.69,-90 228.69,-86 228.69,-54 278.69,-54 282.69,-58 282.69,-90"/>
<polyline fill="none" stroke="black" points="278.69,-86 228.69,-86"/>
<polyline fill="none" stroke="black" points="278.69,-86 278.69,-54"/>
<polyline fill="none" stroke="black" points="278.69,-86 282.69,-90"/>
<text text-anchor="middle" x="255.69" y="-66.95" font-family="Times,serif" font-size="14.00">b</text>
</g>
<!-- Y -->
<g id="node6" class="node">
<title>Y</title>
<polygon fill="#d0d0ff" stroke="black" points="745.14,-116 695.14,-116 691.14,-112 691.14,-80 741.14,-80 745.14,-84 745.14,-116"/>
<polyline fill="none" stroke="black" points="741.14,-112 691.14,-112"/>
<polyline fill="none" stroke="black" points="741.14,-112 741.14,-80"/>
<polyline fill="none" stroke="black" points="741.14,-112 745.14,-116"/>
<text text-anchor="middle" x="718.14" y="-92.95" font-family="Times,serif" font-size="14.00">Y</text>
</g>
<!-- SY -->
<g id="node13" class="node">
<title>SY</title>
<polygon fill="#a0d0d0" stroke="black" points="655.14,-131 594.53,-131 578.94,-65 639.55,-65 655.14,-131"/>
<text text-anchor="start" x="599.42" y="-101.2" font-family="Times,serif" font-size="14.00">concat</text>
<text text-anchor="start" x="598.67" y="-84.7" font-family="Times,serif" font-size="14.00">dim=0</text>
</g>
<!-- Y&#45;&gt;SY -->
<g id="edge15" class="edge">
<title>Y&#45;&gt;SY</title>
<path fill="none" stroke="black" d="M690.85,-98C681.08,-98 669.75,-98 658.98,-98"/>
<polygon fill="black" stroke="black" points="659.13,-94.5 649.13,-98 659.13,-101.5 659.13,-94.5"/>
</g>
<!-- Y_1 -->
<g id="node7" class="node">
<title>Y_1</title>
<polygon fill="#d0d0ff" stroke="black" points="542.94,-147 492.94,-147 488.94,-143 488.94,-111 538.94,-111 542.94,-115 542.94,-147"/>
<polyline fill="none" stroke="black" points="538.94,-143 488.94,-143"/>
<polyline fill="none" stroke="black" points="538.94,-143 538.94,-111"/>
<polyline fill="none" stroke="black" points="538.94,-143 542.94,-147"/>
<text text-anchor="start" x="508.07" y="-124.95" font-family="Times,serif" font-size="14.00">Y</text>
<text text-anchor="start" x="517.82" y="-124.95" font-family="Times,serif" baseline-shift="sub" font-size="14.00">1</text>
</g>
<!-- Op_1 -->
<g id="node9" class="node">
<title>Op_1</title>
<polygon fill="#e5e8e8" stroke="black" points="434.94,-154.25 318.69,-154.25 318.69,-113.75 434.94,-113.75 434.94,-107.75 452.94,-134 434.94,-160.25 434.94,-154.25"/>
<text text-anchor="start" x="336.69" y="-129.95" font-family="Times,serif" font-size="14.00">Linear =&gt; ReLU</text>
<text text-anchor="start" x="428.94" y="-129.95" font-family="Times,serif" baseline-shift="sub" font-size="14.00">1</text>
</g>
<!-- Y_1&#45;&gt;Op_1 -->
<g id="edge8" class="edge">
<title>Y_1&#45;&gt;Op_1</title>
<path fill="none" stroke="black" d="M488.7,-130.02C481.48,-130.31 473.25,-130.63 464.67,-130.96"/>
<polygon fill="black" stroke="black" points="464.62,-127.46 454.76,-131.35 464.89,-134.46 464.62,-127.46"/>
</g>
<!-- Y_2 -->
<g id="node8" class="node">
<title>Y_2</title>
<polygon fill="#d0d0ff" stroke="black" points="542.94,-89 492.94,-89 488.94,-85 488.94,-53 538.94,-53 542.94,-57 542.94,-89"/>
<polyline fill="none" stroke="black" points="538.94,-85 488.94,-85"/>
<polyline fill="none" stroke="black" points="538.94,-85 538.94,-53"/>
<polyline fill="none" stroke="black" points="538.94,-85 542.94,-89"/>
<text text-anchor="start" x="508.07" y="-66.95" font-family="Times,serif" font-size="14.00">Y</text>
<text text-anchor="start" x="517.82" y="-66.95" font-family="Times,serif" baseline-shift="sub" font-size="14.00">2</text>
</g>
<!-- Op_2 -->
<g id="node10" class="node">
<title>Op_2</title>
<polygon fill="#e5e8e8" stroke="black" points="434.94,-83.25 318.69,-83.25 318.69,-42.75 434.94,-42.75 434.94,-36.75 452.94,-63 434.94,-89.25 434.94,-83.25"/>
<text text-anchor="start" x="336.69" y="-58.95" font-family="Times,serif" font-size="14.00">Linear =&gt; ReLU</text>
<text text-anchor="start" x="428.94" y="-58.95" font-family="Times,serif" baseline-shift="sub" font-size="14.00">2</text>
</g>
<!-- Y_2&#45;&gt;Op_2 -->
<g id="edge12" class="edge">
<title>Y_2&#45;&gt;Op_2</title>
<path fill="none" stroke="black" d="M488.7,-69.36C481.48,-68.91 473.25,-68.4 464.67,-67.86"/>
<polygon fill="black" stroke="black" points="464.96,-64.37 454.76,-67.24 464.53,-71.36 464.96,-64.37"/>
</g>
<!-- Op_1&#45;&gt;X_1 -->
<g id="edge5" class="edge">
<title>Op_1&#45;&gt;X_1</title>
<path fill="none" stroke="black" d="M318.5,-157.81C309.95,-160.88 301.46,-163.93 293.62,-166.74"/>
<polygon fill="black" stroke="black" points="292.71,-163.35 284.48,-170.02 295.08,-169.94 292.71,-163.35"/>
</g>
<!-- Op_1&#45;&gt;W -->
<g id="edge6" class="edge">
<title>Op_1&#45;&gt;W</title>
<path fill="none" stroke="black" d="M318.5,-129.86C310.25,-129.34 302.04,-128.83 294.44,-128.36"/>
<polygon fill="black" stroke="black" points="294.77,-124.87 284.57,-127.74 294.33,-131.86 294.77,-124.87"/>
</g>
<!-- Op_1&#45;&gt;b -->
<g id="edge7" class="edge">
<title>Op_1&#45;&gt;b</title>
<path fill="none" stroke="black" d="M329.74,-107.35C317.5,-101.43 304.83,-95.29 293.53,-89.83"/>
<polygon fill="black" stroke="black" points="295.08,-86.69 284.55,-85.48 292.03,-92.99 295.08,-86.69"/>
</g>
<!-- Op_2&#45;&gt;X_2 -->
<g id="edge9" class="edge">
<title>Op_2&#45;&gt;X_2</title>
<path fill="none" stroke="black" d="M318.5,-39.71C310.05,-36.74 301.65,-33.79 293.89,-31.07"/>
<polygon fill="black" stroke="black" points="295.08,-27.77 284.49,-27.76 292.76,-34.38 295.08,-27.77"/>
</g>
<!-- Op_2&#45;&gt;W -->
<g id="edge10" class="edge">
<title>Op_2&#45;&gt;W</title>
<path fill="none" stroke="black" d="M330.48,-89.72C317.95,-95.88 304.91,-102.29 293.34,-107.98"/>
<polygon fill="black" stroke="black" points="291.97,-104.75 284.54,-112.31 295.06,-111.04 291.97,-104.75"/>
</g>
<!-- Op_2&#45;&gt;b -->
<g id="edge11" class="edge">
<title>Op_2&#45;&gt;b</title>
<path fill="none" stroke="black" d="M318.5,-67.66C310.25,-68.24 302.04,-68.81 294.44,-69.35"/>
<polygon fill="black" stroke="black" points="294.3,-65.85 284.57,-70.04 294.79,-72.83 294.3,-65.85"/>
</g>
<!-- SX1&#45;&gt;X -->
<g id="edge1" class="edge">
<title>SX1&#45;&gt;X</title>
<path fill="none" stroke="black" d="M102,-134.57C89.8,-128.71 76.36,-122.25 64.32,-116.46"/>
<polygon fill="black" stroke="black" points="66.05,-113.41 55.52,-112.23 63.02,-119.72 66.05,-113.41"/>
</g>
<!-- SX2&#45;&gt;X -->
<g id="edge2" class="edge">
<title>SX2&#45;&gt;X</title>
<path fill="none" stroke="black" d="M105.11,-80.47C92.37,-83.53 77.95,-87 65.05,-90.09"/>
<polygon fill="black" stroke="black" points="64.58,-86.61 55.67,-92.35 66.21,-93.42 64.58,-86.61"/>
</g>
<!-- SY&#45;&gt;Y_1 -->
<g id="edge13" class="edge">
<title>SY&#45;&gt;Y_1</title>
<path fill="none" stroke="black" d="M588.44,-106.64C577.87,-109.94 565.64,-113.77 554.31,-117.31"/>
<polygon fill="black" stroke="black" points="553.32,-113.95 544.82,-120.28 555.41,-120.63 553.32,-113.95"/>
</g>
<!-- SY&#45;&gt;Y_2 -->
<g id="edge14" class="edge">
<title>SY&#45;&gt;Y_2</title>
<path fill="none" stroke="black" d="M584.41,-89.38C574.78,-86.76 564.11,-83.85 554.15,-81.14"/>
<polygon fill="black" stroke="black" points="555.32,-77.83 544.75,-78.58 553.48,-84.58 555.32,-77.83"/>
</g>
</g>
</svg>
