<?xml version="1.0" encoding="UTF-8" standalone="no"?>
<!DOCTYPE svg PUBLIC "-//W3C//DTD SVG 1.1//EN"
 "http://www.w3.org/Graphics/SVG/1.1/DTD/svg11.dtd">
<!-- Generated by graphviz version 9.0.0 (20230911.1827)
 -->
<!-- Title: G Pages: 1 -->
<svg width="474pt" height="420pt"
 viewBox="0.00 0.00 474.00 420.25" xmlns="http://www.w3.org/2000/svg" xmlns:xlink="http://www.w3.org/1999/xlink">
<g id="graph0" class="graph" transform="scale(1 1) rotate(0) translate(4 416.25)">
<title>G</title>
<polygon fill="white" stroke="none" points="-4,4 -4,-416.25 470,-416.25 470,4 -4,4"/>
<!-- idx -->
<g id="node1" class="node">
<title>idx</title>
<polygon fill="none" stroke="black" points="180.5,-367.25 180.5,-401.25 248.5,-401.25 248.5,-367.25 180.5,-367.25"/>
<text text-anchor="start" x="207.38" y="-378.95" font-family="Times,serif" font-size="14.00">…</text>
<polygon fill="none" stroke="black" points="250.5,-367.25 250.5,-401.25 282.5,-401.25 282.5,-367.25 250.5,-367.25"/>
<text text-anchor="start" x="259.38" y="-378.95" font-family="Times,serif" font-size="14.00">…</text>
<polygon fill="#d6eaf8" stroke="none" points="180.5,-331.25 180.5,-365.25 248.5,-365.25 248.5,-331.25 180.5,-331.25"/>
<polygon fill="none" stroke="black" points="180.5,-331.25 180.5,-365.25 248.5,-365.25 248.5,-331.25 180.5,-331.25"/>
<text text-anchor="start" x="189.38" y="-342.95" font-family="Times,serif" font-size="14.00">batch,out</text>
<polygon fill="none" stroke="black" points="250.5,-331.25 250.5,-365.25 282.5,-365.25 282.5,-331.25 250.5,-331.25"/>
<text text-anchor="start" x="259.38" y="-342.95" font-family="Times,serif" font-size="14.00">…</text>
<polygon fill="none" stroke="black" points="180.5,-295.25 180.5,-329.25 248.5,-329.25 248.5,-295.25 180.5,-295.25"/>
<text text-anchor="start" x="207.38" y="-306.95" font-family="Times,serif" font-size="14.00">…</text>
<polygon fill="none" stroke="black" points="250.5,-295.25 250.5,-329.25 282.5,-329.25 282.5,-295.25 250.5,-295.25"/>
<text text-anchor="start" x="259.38" y="-306.95" font-family="Times,serif" font-size="14.00">…</text>
<polygon fill="none" stroke="black" points="177.5,-292.25 177.5,-404.25 285.5,-404.25 285.5,-292.25 177.5,-292.25"/>
<text text-anchor="start" x="219.5" y="-272.95" font-family="Times,serif" font-size="14.00">⟪in⟫</text>
<text text-anchor="start" x="216.88" y="-247.45" font-family="Times,serif" font-style="italic" font-size="14.00">index</text>
</g>
<!-- x -->
<g id="node2" class="node">
<title>x</title>
<polygon fill="none" stroke="black" points="3,-330.75 3,-361.75 65,-361.75 65,-330.75 3,-330.75"/>
<text text-anchor="start" x="27.25" y="-339.45" font-family="Times,serif" font-size="14.00">⋱</text>
<polygon fill="none" stroke="black" points="67,-330.75 67,-361.75 99,-361.75 99,-330.75 67,-330.75"/>
<text text-anchor="start" x="76.62" y="-339.45" font-family="Times,serif" font-size="14.00">⋰</text>
<polygon fill="#d6eaf8" stroke="none" points="3,-294.75 3,-328.75 65,-328.75 65,-294.75 3,-294.75"/>
<polygon fill="none" stroke="black" points="3,-294.75 3,-328.75 65,-328.75 65,-294.75 3,-294.75"/>
<text text-anchor="start" x="11.88" y="-307.45" font-family="Times,serif" font-size="14.00">x</text>
<text text-anchor="start" x="18.62" y="-307.45" font-family="Times,serif" baseline-shift="sub" font-size="14.00">batch,in</text>
<polygon fill="none" stroke="black" points="67,-294.75 67,-328.75 99,-328.75 99,-294.75 67,-294.75"/>
<text text-anchor="start" x="75.88" y="-306.45" font-family="Times,serif" font-size="14.00">…</text>
<polygon fill="none" stroke="black" points="3,-261.75 3,-292.75 65,-292.75 65,-261.75 3,-261.75"/>
<text text-anchor="start" x="27.62" y="-270.45" font-family="Times,serif" font-size="14.00">⋰</text>
<polygon fill="none" stroke="black" points="67,-261.75 67,-292.75 99,-292.75 99,-261.75 67,-261.75"/>
<text text-anchor="start" x="76.25" y="-270.45" font-family="Times,serif" font-size="14.00">⋱</text>
<polygon fill="none" stroke="black" points="0,-258.75 0,-364.75 102,-364.75 102,-258.75 0,-258.75"/>
</g>
<!-- idx&#45;&gt;x -->
<g id="edge5" class="edge">
<title>idx&#45;&gt;x</title>
<path fill="none" stroke="black" stroke-dasharray="1,5" d="M169.57,-320.97C151.42,-319.55 131.53,-317.99 113.36,-316.56"/>
<polygon fill="none" stroke="black" points="113.75,-313.08 103.51,-315.79 113.2,-320.06 113.75,-313.08"/>
<text text-anchor="start" x="121.5" y="-322.95" font-family="Times,serif" font-size="14.00">P</text>
<text text-anchor="start" x="129" y="-322.95" font-family="Times,serif" baseline-shift="sub" font-size="14.00">X</text>
<text text-anchor="start" x="137.25" y="-322.95" font-family="Times,serif" font-size="14.00">(i)</text>
</g>
<!-- w -->
<g id="node3" class="node">
<title>w</title>
<polygon fill="#d6eaf8" stroke="none" points="7,-203.25 7,-237.25 61,-237.25 61,-203.25 7,-203.25"/>
<polygon fill="none" stroke="black" points="7,-203.25 7,-237.25 61,-237.25 61,-203.25 7,-203.25"/>
<text text-anchor="start" x="15.62" y="-215.95" font-family="Times,serif" font-size="14.00">w</text>
<text text-anchor="start" x="25.38" y="-215.95" font-family="Times,serif" baseline-shift="sub" font-size="14.00">in,out</text>
<polygon fill="none" stroke="black" points="63,-203.25 63,-237.25 95,-237.25 95,-203.25 63,-203.25"/>
<text text-anchor="start" x="72.62" y="-213.7" font-family="Times,serif" font-size="14.00">⋰</text>
<polygon fill="none" stroke="black" points="7,-167.25 7,-201.25 61,-201.25 61,-167.25 7,-167.25"/>
<text text-anchor="start" x="26.88" y="-178.95" font-family="Times,serif" font-size="14.00">…</text>
<polygon fill="none" stroke="black" points="63,-167.25 63,-201.25 95,-201.25 95,-167.25 63,-167.25"/>
<text text-anchor="start" x="71.88" y="-178.95" font-family="Times,serif" font-size="14.00">…</text>
<polygon fill="none" stroke="black" points="7,-134.25 7,-165.25 61,-165.25 61,-134.25 7,-134.25"/>
<text text-anchor="start" x="27.62" y="-142.95" font-family="Times,serif" font-size="14.00">⋰</text>
<polygon fill="none" stroke="black" points="63,-134.25 63,-165.25 95,-165.25 95,-134.25 63,-134.25"/>
<text text-anchor="start" x="72.25" y="-142.95" font-family="Times,serif" font-size="14.00">⋱</text>
<polygon fill="none" stroke="black" points="4,-131.25 4,-240.25 98,-240.25 98,-131.25 4,-131.25"/>
</g>
<!-- idx&#45;&gt;w -->
<g id="edge7" class="edge">
<title>idx&#45;&gt;w</title>
<path fill="none" stroke="black" stroke-dasharray="1,5" d="M169.67,-295.81C152.85,-286.29 135.08,-275.01 120,-262.75 114.55,-258.32 109.17,-253.43 103.97,-248.33"/>
<polygon fill="none" stroke="black" points="106.51,-245.93 97.01,-241.25 101.52,-250.83 106.51,-245.93"/>
<text text-anchor="start" x="120" y="-288.95" font-family="Times,serif" font-size="14.00">P</text>
<text text-anchor="start" x="127.5" y="-288.95" font-family="Times,serif" baseline-shift="sub" font-size="14.00">W</text>
<text text-anchor="start" x="138.75" y="-288.95" font-family="Times,serif" font-size="14.00">(i)</text>
</g>
<!-- b -->
<g id="node4" class="node">
<title>b</title>
<polygon fill="#d6eaf8" stroke="none" points="31.12,-76 31.12,-110.5 70.88,-110.5 70.88,-76 31.12,-76"/>
<polygon fill="none" stroke="black" points="31.12,-76 31.12,-110.5 70.88,-110.5 70.88,-76 31.12,-76"/>
<text text-anchor="start" x="40.12" y="-89.2" font-family="Times,serif" font-size="14.00">b</text>
<text text-anchor="start" x="46.88" y="-89.2" font-family="Times,serif" baseline-shift="sub" font-size="14.00">out</text>
<polygon fill="none" stroke="black" points="31.12,-39.5 31.12,-74 70.88,-74 70.88,-39.5 31.12,-39.5"/>
<text text-anchor="start" x="43.88" y="-51.7" font-family="Times,serif" font-size="14.00">…</text>
<polygon fill="none" stroke="black" points="31.12,-3 31.12,-37.5 70.88,-37.5 70.88,-3 31.12,-3"/>
<text text-anchor="start" x="43.88" y="-15.2" font-family="Times,serif" font-size="14.00">…</text>
<polygon fill="none" stroke="black" points="28.12,0 28.12,-113.5 73.88,-113.5 73.88,0 28.12,0"/>
</g>
<!-- idx&#45;&gt;b -->
<g id="edge6" class="edge">
<title>idx&#45;&gt;b</title>
<path fill="none" stroke="black" stroke-dasharray="1,5" d="M174.92,-239.32C173.09,-236.43 171.28,-233.57 169.5,-230.75 139.11,-182.55 134.41,-168.61 102,-121.75 95.38,-112.18 87.89,-102.09 80.76,-92.79"/>
<polygon fill="none" stroke="black" points="83.61,-90.76 74.72,-85 78.08,-95.05 83.61,-90.76"/>
<text text-anchor="start" x="121.88" y="-205.95" font-family="Times,serif" font-size="14.00">P</text>
<text text-anchor="start" x="129.38" y="-205.95" font-family="Times,serif" baseline-shift="sub" font-size="14.00">B</text>
<text text-anchor="start" x="136.88" y="-205.95" font-family="Times,serif" font-size="14.00">(i)</text>
</g>
<!-- y -->
<g id="node6" class="node">
<title>y</title>
<polygon fill="none" stroke="black" points="361,-204.75 361,-238.75 429,-238.75 429,-204.75 361,-204.75"/>
<text text-anchor="start" x="387.88" y="-216.45" font-family="Times,serif" font-size="14.00">…</text>
<polygon fill="none" stroke="black" points="431,-204.75 431,-238.75 463,-238.75 463,-204.75 431,-204.75"/>
<text text-anchor="start" x="439.88" y="-216.45" font-family="Times,serif" font-size="14.00">…</text>
<polygon fill="#d6eaf8" stroke="none" points="361,-168.75 361,-202.75 429,-202.75 429,-168.75 361,-168.75"/>
<polygon fill="none" stroke="black" points="361,-168.75 361,-202.75 429,-202.75 429,-168.75 361,-168.75"/>
<text text-anchor="start" x="369.88" y="-181.45" font-family="Times,serif" font-size="14.00">y</text>
<text text-anchor="start" x="376.62" y="-181.45" font-family="Times,serif" baseline-shift="sub" font-size="14.00">batch,out</text>
<polygon fill="none" stroke="black" points="431,-168.75 431,-202.75 463,-202.75 463,-168.75 431,-168.75"/>
<text text-anchor="start" x="439.88" y="-180.45" font-family="Times,serif" font-size="14.00">…</text>
<polygon fill="none" stroke="black" points="361,-132.75 361,-166.75 429,-166.75 429,-132.75 361,-132.75"/>
<text text-anchor="start" x="387.88" y="-144.45" font-family="Times,serif" font-size="14.00">…</text>
<polygon fill="none" stroke="black" points="431,-132.75 431,-166.75 463,-166.75 463,-132.75 431,-132.75"/>
<text text-anchor="start" x="439.88" y="-144.45" font-family="Times,serif" font-size="14.00">…</text>
<polygon fill="none" stroke="black" points="358,-129.75 358,-241.75 466,-241.75 466,-129.75 358,-129.75"/>
</g>
<!-- idx&#45;&gt;y -->
<g id="edge8" class="edge">
<title>idx&#45;&gt;y</title>
<path fill="none" stroke="black" stroke-dasharray="1,5" d="M293.19,-278.15C311.39,-263.88 331.36,-248.21 349.61,-233.9"/>
<polygon fill="none" stroke="black" points="351.51,-236.86 357.22,-227.93 347.19,-231.35 351.51,-236.86"/>
<text text-anchor="start" x="311.5" y="-263.95" font-family="Times,serif" font-size="14.00">P</text>
<text text-anchor="start" x="319" y="-263.95" font-family="Times,serif" baseline-shift="sub" font-size="14.00">Y</text>
<text text-anchor="start" x="327.25" y="-263.95" font-family="Times,serif" font-size="14.00">(i)</text>
</g>
<!-- Linear -->
<g id="node5" class="node">
<title>Linear</title>
<polygon fill="#e5e8e8" stroke="black" points="267.12,-221.38 195.88,-221.38 195.88,-150.12 267.12,-150.12 267.12,-221.38"/>
<polyline fill="none" stroke="black" points="207.88,-221.38 195.88,-209.38"/>
<polyline fill="none" stroke="black" points="195.88,-162.12 207.88,-150.12"/>
<polyline fill="none" stroke="black" points="255.12,-150.12 267.12,-162.12"/>
<polyline fill="none" stroke="black" points="267.12,-209.38 255.12,-221.38"/>
<text text-anchor="middle" x="231.5" y="-180.7" font-family="Times,serif" font-size="14.00">Linear</text>
</g>
<!-- Linear&#45;&gt;x -->
<g id="edge1" class="edge">
<title>Linear&#45;&gt;x</title>
<path fill="none" stroke="black" d="M195.38,-192.93C172.31,-198.91 142.38,-209.18 120,-225.75 109.28,-233.68 110.19,-239.23 102,-249.75 101.93,-249.85 101.85,-249.94 101.78,-250.04"/>
<polygon fill="black" stroke="black" points="99.03,-247.87 95.61,-257.89 104.54,-252.19 99.03,-247.87"/>
</g>
<!-- Linear&#45;&gt;w -->
<g id="edge2" class="edge">
<title>Linear&#45;&gt;w</title>
<path fill="none" stroke="black" d="M195.66,-185.75C171.14,-185.75 137.75,-185.75 109.34,-185.75"/>
<polygon fill="black" stroke="black" points="109.43,-182.25 99.43,-185.75 109.43,-189.25 109.43,-182.25"/>
</g>
<!-- Linear&#45;&gt;b -->
<g id="edge3" class="edge">
<title>Linear&#45;&gt;b</title>
<path fill="none" stroke="black" d="M195.66,-160.57C162.93,-136.92 114.4,-101.85 82.99,-79.14"/>
<polygon fill="black" stroke="black" points="85.21,-76.43 75.05,-73.41 81.11,-82.1 85.21,-76.43"/>
</g>
<!-- y&#45;&gt;Linear -->
<g id="edge4" class="edge">
<title>y&#45;&gt;Linear</title>
<path fill="none" stroke="black" d="M358.41,-185.75C333.22,-185.75 303.32,-185.75 278.98,-185.75"/>
<polygon fill="black" stroke="black" points="279.03,-182.25 269.03,-185.75 279.03,-189.25 279.03,-182.25"/>
</g>
</g>
</svg>
