<?xml version="1.0" encoding="UTF-8" standalone="no"?>
<!DOCTYPE svg PUBLIC "-//W3C//DTD SVG 1.1//EN"
 "http://www.w3.org/Graphics/SVG/1.1/DTD/svg11.dtd">
<!-- Generated by graphviz version 9.0.0 (20230911.1827)
 -->
<!-- Title: G Pages: 1 -->
<svg width="1018pt" height="492pt"
 viewBox="0.00 0.00 1018.14 492.00" xmlns="http://www.w3.org/2000/svg" xmlns:xlink="http://www.w3.org/1999/xlink">
<g id="graph0" class="graph" transform="scale(1 1) rotate(0) translate(4 488)">
<title>G</title>
<polygon fill="white" stroke="none" points="-4,4 -4,-488 1014.14,-488 1014.14,4 -4,4"/>
<g id="clust1" class="cluster">
<title>cluster_0</title>
<polygon fill="none" stroke="black" points="122,-290 122,-476 750.94,-476 750.94,-290 122,-290"/>
</g>
<g id="clust2" class="cluster">
<title>cluster_1</title>
<polygon fill="none" stroke="black" points="127.57,-8 127.57,-194 761.94,-194 761.94,-8 127.57,-8"/>
</g>
<!-- x -->
<g id="node1" class="node">
<title>x</title>
<polygon fill="#d5f5e3" stroke="none" points="294.69,-204 294.69,-280 396.69,-280 396.69,-204 294.69,-204"/>
<polygon fill="none" stroke="black" points="297.69,-243 297.69,-277 359.69,-277 359.69,-243 297.69,-243"/>
<text text-anchor="start" x="306.57" y="-255.7" font-family="Times,serif" font-size="14.00">x</text>
<text text-anchor="start" x="313.32" y="-255.7" font-family="Times,serif" baseline-shift="sub" font-size="14.00">batch,in</text>
<polygon fill="none" stroke="black" points="361.69,-243 361.69,-277 393.69,-277 393.69,-243 361.69,-243"/>
<text text-anchor="start" x="370.57" y="-254.7" font-family="Times,serif" font-size="14.00">…</text>
<polygon fill="none" stroke="black" points="297.69,-207 297.69,-241 359.69,-241 359.69,-207 297.69,-207"/>
<text text-anchor="start" x="321.57" y="-218.7" font-family="Times,serif" font-size="14.00">…</text>
<polygon fill="none" stroke="black" points="361.69,-207 361.69,-241 393.69,-241 393.69,-207 361.69,-207"/>
<text text-anchor="start" x="370.94" y="-217.45" font-family="Times,serif" font-size="14.00">⋱</text>
<polygon fill="none" stroke="black" points="294.69,-204 294.69,-280 396.69,-280 396.69,-204 294.69,-204"/>
</g>
<!-- w -->
<g id="node2" class="node">
<title>w</title>
<polygon fill="#d5f5e3" stroke="none" points="0,-241 0,-317 94,-317 94,-241 0,-241"/>
<polygon fill="#d6eaf8" stroke="none" points="3,-280 3,-314 57,-314 57,-280 3,-280"/>
<polygon fill="none" stroke="black" points="3,-280 3,-314 57,-314 57,-280 3,-280"/>
<text text-anchor="start" x="11.62" y="-292.7" font-family="Times,serif" font-size="14.00">w</text>
<text text-anchor="start" x="21.38" y="-292.7" font-family="Times,serif" baseline-shift="sub" font-size="14.00">in,out</text>
<polygon fill="#ebdef0" stroke="none" points="59,-280 59,-314 91,-314 91,-280 59,-280"/>
<polygon fill="none" stroke="black" points="59,-280 59,-314 91,-314 91,-280 59,-280"/>
<text text-anchor="start" x="67.88" y="-291.7" font-family="Times,serif" font-size="14.00">…</text>
<polygon fill="#d6eaf8" stroke="none" points="3,-244 3,-278 57,-278 57,-244 3,-244"/>
<polygon fill="none" stroke="black" points="3,-244 3,-278 57,-278 57,-244 3,-244"/>
<text text-anchor="start" x="22.88" y="-255.7" font-family="Times,serif" font-size="14.00">…</text>
<polygon fill="#ebdef0" stroke="none" points="59,-244 59,-278 91,-278 91,-244 59,-244"/>
<polygon fill="none" stroke="black" points="59,-244 59,-278 91,-278 91,-244 59,-244"/>
<text text-anchor="start" x="68.25" y="-254.45" font-family="Times,serif" font-size="14.00">⋱</text>
<polygon fill="none" stroke="black" points="0,-241 0,-317 94,-317 94,-241 0,-241"/>
</g>
<!-- b -->
<g id="node3" class="node">
<title>b</title>
<polygon fill="#d5f5e3" stroke="none" points="7,-173.75 7,-214.25 87,-214.25 87,-173.75 7,-173.75"/>
<polygon fill="#d6eaf8" stroke="none" points="10,-176.75 10,-211.25 49.75,-211.25 49.75,-176.75 10,-176.75"/>
<polygon fill="none" stroke="black" points="10,-176.75 10,-211.25 49.75,-211.25 49.75,-176.75 10,-176.75"/>
<text text-anchor="start" x="19" y="-189.95" font-family="Times,serif" font-size="14.00">b</text>
<text text-anchor="start" x="25.75" y="-189.95" font-family="Times,serif" baseline-shift="sub" font-size="14.00">out</text>
<polygon fill="#ebdef0" stroke="none" points="51.75,-176.75 51.75,-211.25 84,-211.25 84,-176.75 51.75,-176.75"/>
<polygon fill="none" stroke="black" points="51.75,-176.75 51.75,-211.25 84,-211.25 84,-176.75 51.75,-176.75"/>
<text text-anchor="start" x="60.75" y="-188.95" font-family="Times,serif" font-size="14.00">…</text>
<polygon fill="none" stroke="black" points="7,-173.75 7,-214.25 87,-214.25 87,-173.75 7,-173.75"/>
</g>
<!-- w0 -->
<g id="node4" class="node">
<title>w0</title>
<polygon fill="#d6eaf8" stroke="none" points="279.69,-356 279.69,-468 411.69,-468 411.69,-356 279.69,-356"/>
<polygon fill="none" stroke="black" points="282.69,-431 282.69,-465 327.69,-465 327.69,-431 282.69,-431"/>
<text text-anchor="start" x="292.82" y="-443.7" font-family="Times,serif" font-size="14.00">w</text>
<text text-anchor="start" x="302.57" y="-443.7" font-family="Times,serif" baseline-shift="sub" font-size="14.00">0,0</text>
<polygon fill="none" stroke="black" points="329.69,-431 329.69,-465 361.69,-465 361.69,-431 329.69,-431"/>
<text text-anchor="start" x="338.57" y="-442.7" font-family="Times,serif" font-size="14.00">…</text>
<polygon fill="none" stroke="black" points="363.69,-431 363.69,-465 408.69,-465 408.69,-431 363.69,-431"/>
<text text-anchor="start" x="373.82" y="-443.7" font-family="Times,serif" font-size="14.00">w</text>
<text text-anchor="start" x="383.57" y="-443.7" font-family="Times,serif" baseline-shift="sub" font-size="14.00">0,k</text>
<polygon fill="none" stroke="black" points="282.69,-395 282.69,-429 327.69,-429 327.69,-395 282.69,-395"/>
<text text-anchor="start" x="298.07" y="-406.7" font-family="Times,serif" font-size="14.00">…</text>
<polygon fill="none" stroke="black" points="329.69,-395 329.69,-429 361.69,-429 361.69,-395 329.69,-395"/>
<text text-anchor="start" x="338.57" y="-406.7" font-family="Times,serif" font-size="14.00">…</text>
<polygon fill="none" stroke="black" points="363.69,-395 363.69,-429 408.69,-429 408.69,-395 363.69,-395"/>
<text text-anchor="start" x="379.07" y="-406.7" font-family="Times,serif" font-size="14.00">…</text>
<polygon fill="none" stroke="black" points="282.69,-359 282.69,-393 327.69,-393 327.69,-359 282.69,-359"/>
<text text-anchor="start" x="291.32" y="-371.7" font-family="Times,serif" font-size="14.00">w</text>
<text text-anchor="start" x="301.07" y="-371.7" font-family="Times,serif" baseline-shift="sub" font-size="14.00">in,0</text>
<polygon fill="none" stroke="black" points="329.69,-359 329.69,-393 361.69,-393 361.69,-359 329.69,-359"/>
<text text-anchor="start" x="338.57" y="-370.7" font-family="Times,serif" font-size="14.00">…</text>
<polygon fill="none" stroke="black" points="363.69,-359 363.69,-393 408.69,-393 408.69,-359 363.69,-359"/>
<text text-anchor="start" x="372.32" y="-371.7" font-family="Times,serif" font-size="14.00">w</text>
<text text-anchor="start" x="382.07" y="-371.7" font-family="Times,serif" baseline-shift="sub" font-size="14.00">in,k</text>
<polygon fill="none" stroke="black" points="279.69,-356 279.69,-468 411.69,-468 411.69,-356 279.69,-356"/>
</g>
<!-- SW0 -->
<g id="node5" class="node">
<title>SW0</title>
<polygon fill="#a0d0d0" stroke="black" points="232.69,-409 151.01,-409 130,-373 211.68,-373 232.69,-409"/>
<text text-anchor="start" x="150.22" y="-385.95" font-family="Times,serif" font-size="14.00">slice[:, 0:k]</text>
</g>
<!-- w0&#45;&gt;SW0 -->
<g id="edge7" class="edge">
<title>w0&#45;&gt;SW0</title>
<path fill="none" stroke="black" d="M280.06,-403.64C265.83,-401.8 250.89,-399.87 237.1,-398.08"/>
<polygon fill="black" stroke="black" points="237.68,-394.63 227.32,-396.82 236.79,-401.57 237.68,-394.63"/>
</g>
<!-- SW0&#45;&gt;w -->
<g id="edge8" class="edge">
<title>SW0&#45;&gt;w</title>
<path fill="none" stroke="black" d="M157.16,-372.7C146.38,-364.09 133.45,-353.63 122,-344 114.41,-337.61 106.46,-330.78 98.7,-324.04"/>
<polygon fill="black" stroke="black" points="101.36,-321.71 91.52,-317.77 96.76,-326.99 101.36,-321.71"/>
</g>
<!-- b0 -->
<g id="node6" class="node">
<title>b0</title>
<polygon fill="#d6eaf8" stroke="none" points="293.82,-297.75 293.82,-338.25 397.57,-338.25 397.57,-297.75 293.82,-297.75"/>
<polygon fill="none" stroke="black" points="296.82,-300.75 296.82,-335.25 327.57,-335.25 327.57,-300.75 296.82,-300.75"/>
<text text-anchor="start" x="305.82" y="-313.95" font-family="Times,serif" font-size="14.00">b</text>
<text text-anchor="start" x="312.57" y="-313.95" font-family="Times,serif" baseline-shift="sub" font-size="14.00">0</text>
<polygon fill="none" stroke="black" points="329.57,-300.75 329.57,-335.25 361.82,-335.25 361.82,-300.75 329.57,-300.75"/>
<text text-anchor="start" x="338.57" y="-312.95" font-family="Times,serif" font-size="14.00">…</text>
<polygon fill="none" stroke="black" points="363.82,-300.75 363.82,-335.25 394.57,-335.25 394.57,-300.75 363.82,-300.75"/>
<text text-anchor="start" x="372.82" y="-313.95" font-family="Times,serif" font-size="14.00">b</text>
<text text-anchor="start" x="379.57" y="-313.95" font-family="Times,serif" baseline-shift="sub" font-size="14.00">k</text>
<polygon fill="none" stroke="black" points="293.82,-297.75 293.82,-338.25 397.57,-338.25 397.57,-297.75 293.82,-297.75"/>
</g>
<!-- Sb0 -->
<g id="node7" class="node">
<title>Sb0</title>
<polygon fill="#a0d0d0" stroke="black" points="232.69,-335 151.01,-335 130,-299 211.68,-299 232.69,-335"/>
<text text-anchor="start" x="150.22" y="-311.95" font-family="Times,serif" font-size="14.00">slice[:, 0:k]</text>
</g>
<!-- b0&#45;&gt;Sb0 -->
<g id="edge11" class="edge">
<title>b0&#45;&gt;Sb0</title>
<path fill="none" stroke="black" d="M294.21,-317.69C275.09,-317.57 253.29,-317.44 234.05,-317.32"/>
<polygon fill="black" stroke="black" points="234.29,-313.82 224.27,-317.26 234.24,-320.82 234.29,-313.82"/>
</g>
<!-- Sb0&#45;&gt;b -->
<g id="edge12" class="edge">
<title>Sb0&#45;&gt;b</title>
<path fill="none" stroke="black" d="M162.6,-298.62C145.44,-281.08 118.52,-254.12 94,-232 90.07,-228.46 85.88,-224.82 81.69,-221.26"/>
<polygon fill="black" stroke="black" points="84.24,-218.83 74.32,-215.09 79.75,-224.19 84.24,-218.83"/>
</g>
<!-- op0 -->
<g id="node8" class="node">
<title>op0</title>
<polygon fill="#e5e8e8" stroke="black" points="517.94,-374.25 458.69,-374.25 458.69,-333.75 517.94,-333.75 517.94,-327.75 535.94,-354 517.94,-380.25 517.94,-374.25"/>
<text text-anchor="start" x="476.69" y="-349.95" font-family="Times,serif" font-size="14.00">Linear</text>
<text text-anchor="start" x="511.94" y="-349.95" font-family="Times,serif" baseline-shift="sub" font-size="14.00">0</text>
</g>
<!-- op0&#45;&gt;x -->
<g id="edge5" class="edge">
<title>op0&#45;&gt;x</title>
<path fill="none" stroke="black" d="M470.29,-327.31C456.73,-314.11 439.5,-298.39 422.69,-286 417.42,-282.12 411.79,-278.3 406.05,-274.63"/>
<polygon fill="black" stroke="black" points="407.98,-271.71 397.64,-269.42 404.3,-277.66 407.98,-271.71"/>
</g>
<!-- op0&#45;&gt;w0 -->
<g id="edge15" class="edge">
<title>op0&#45;&gt;w0</title>
<path fill="none" stroke="black" d="M458.56,-368.64C447.4,-372.96 434.77,-377.86 422.11,-382.76"/>
<polygon fill="black" stroke="black" points="420.98,-379.45 412.92,-386.33 423.51,-385.98 420.98,-379.45"/>
</g>
<!-- op0&#45;&gt;b0 -->
<g id="edge1" class="edge">
<title>op0&#45;&gt;b0</title>
<path fill="none" stroke="black" d="M458.56,-344.92C443.36,-341.26 425.44,-336.95 408.44,-332.86"/>
<polygon fill="black" stroke="black" points="409.45,-329.5 398.91,-330.56 407.81,-336.31 409.45,-329.5"/>
</g>
<!-- y0 -->
<g id="node9" class="node">
<title>y0</title>
<polygon fill="#d6eaf8" stroke="none" points="582.94,-298 582.94,-410 742.94,-410 742.94,-298 582.94,-298"/>
<polygon fill="none" stroke="black" points="585.94,-373 585.94,-407 644.94,-407 644.94,-373 585.94,-373"/>
<text text-anchor="start" x="604.57" y="-385.7" font-family="Times,serif" font-size="14.00">y</text>
<text text-anchor="start" x="611.32" y="-385.7" font-family="Times,serif" baseline-shift="sub" font-size="14.00">0,0</text>
<polygon fill="none" stroke="black" points="646.94,-373 646.94,-407 678.94,-407 678.94,-373 646.94,-373"/>
<text text-anchor="start" x="655.82" y="-384.7" font-family="Times,serif" font-size="14.00">…</text>
<polygon fill="none" stroke="black" points="680.94,-373 680.94,-407 739.94,-407 739.94,-373 680.94,-373"/>
<text text-anchor="start" x="699.57" y="-385.7" font-family="Times,serif" font-size="14.00">y</text>
<text text-anchor="start" x="706.32" y="-385.7" font-family="Times,serif" baseline-shift="sub" font-size="14.00">0,k</text>
<polygon fill="none" stroke="black" points="585.94,-337 585.94,-371 644.94,-371 644.94,-337 585.94,-337"/>
<text text-anchor="start" x="608.32" y="-348.7" font-family="Times,serif" font-size="14.00">…</text>
<polygon fill="none" stroke="black" points="646.94,-337 646.94,-371 678.94,-371 678.94,-337 646.94,-337"/>
<text text-anchor="start" x="655.82" y="-348.7" font-family="Times,serif" font-size="14.00">…</text>
<polygon fill="none" stroke="black" points="680.94,-337 680.94,-371 739.94,-371 739.94,-337 680.94,-337"/>
<text text-anchor="start" x="703.32" y="-348.7" font-family="Times,serif" font-size="14.00">…</text>
<polygon fill="none" stroke="black" points="585.94,-301 585.94,-335 644.94,-335 644.94,-301 585.94,-301"/>
<text text-anchor="start" x="594.82" y="-313.7" font-family="Times,serif" font-size="14.00">y</text>
<text text-anchor="start" x="601.57" y="-313.7" font-family="Times,serif" baseline-shift="sub" font-size="14.00">batch,0</text>
<polygon fill="none" stroke="black" points="646.94,-301 646.94,-335 678.94,-335 678.94,-301 646.94,-301"/>
<text text-anchor="start" x="655.82" y="-312.7" font-family="Times,serif" font-size="14.00">…</text>
<polygon fill="none" stroke="black" points="680.94,-301 680.94,-335 739.94,-335 739.94,-301 680.94,-301"/>
<text text-anchor="start" x="689.82" y="-313.7" font-family="Times,serif" font-size="14.00">y</text>
<text text-anchor="start" x="696.57" y="-313.7" font-family="Times,serif" baseline-shift="sub" font-size="14.00">batch,k</text>
<polygon fill="none" stroke="black" points="582.94,-298 582.94,-410 742.94,-410 742.94,-298 582.94,-298"/>
</g>
<!-- y0&#45;&gt;op0 -->
<g id="edge2" class="edge">
<title>y0&#45;&gt;op0</title>
<path fill="none" stroke="black" d="M583,-354C570.87,-354 558.66,-354 547.43,-354"/>
<polygon fill="black" stroke="black" points="547.64,-350.5 537.64,-354 547.64,-357.5 547.64,-350.5"/>
</g>
<!-- wk -->
<g id="node10" class="node">
<title>wk</title>
<polygon fill="#ebdef0" stroke="none" points="268.69,-74 268.69,-186 422.69,-186 422.69,-74 268.69,-74"/>
<polygon fill="none" stroke="black" points="271.69,-149 271.69,-183 329.69,-183 329.69,-149 271.69,-149"/>
<text text-anchor="start" x="281.94" y="-161.7" font-family="Times,serif" font-size="14.00">w</text>
<text text-anchor="start" x="291.69" y="-161.7" font-family="Times,serif" baseline-shift="sub" font-size="14.00">0,k+1</text>
<polygon fill="none" stroke="black" points="331.69,-149 331.69,-183 363.69,-183 363.69,-149 331.69,-149"/>
<text text-anchor="start" x="340.57" y="-160.7" font-family="Times,serif" font-size="14.00">…</text>
<polygon fill="none" stroke="black" points="365.69,-149 365.69,-183 419.69,-183 419.69,-149 365.69,-149"/>
<text text-anchor="start" x="375.82" y="-161.7" font-family="Times,serif" font-size="14.00">w</text>
<text text-anchor="start" x="385.57" y="-161.7" font-family="Times,serif" baseline-shift="sub" font-size="14.00">0,out</text>
<polygon fill="none" stroke="black" points="271.69,-113 271.69,-147 329.69,-147 329.69,-113 271.69,-113"/>
<text text-anchor="start" x="293.57" y="-124.7" font-family="Times,serif" font-size="14.00">…</text>
<polygon fill="none" stroke="black" points="331.69,-113 331.69,-147 363.69,-147 363.69,-113 331.69,-113"/>
<text text-anchor="start" x="340.57" y="-124.7" font-family="Times,serif" font-size="14.00">…</text>
<polygon fill="none" stroke="black" points="365.69,-113 365.69,-147 419.69,-147 419.69,-113 365.69,-113"/>
<text text-anchor="start" x="385.57" y="-124.7" font-family="Times,serif" font-size="14.00">…</text>
<polygon fill="none" stroke="black" points="271.69,-77 271.69,-111 329.69,-111 329.69,-77 271.69,-77"/>
<text text-anchor="start" x="280.44" y="-89.7" font-family="Times,serif" font-size="14.00">w</text>
<text text-anchor="start" x="290.19" y="-89.7" font-family="Times,serif" baseline-shift="sub" font-size="14.00">in,k+1</text>
<polygon fill="none" stroke="black" points="331.69,-77 331.69,-111 363.69,-111 363.69,-77 331.69,-77"/>
<text text-anchor="start" x="340.57" y="-88.7" font-family="Times,serif" font-size="14.00">…</text>
<polygon fill="none" stroke="black" points="365.69,-77 365.69,-111 419.69,-111 419.69,-77 365.69,-77"/>
<text text-anchor="start" x="374.32" y="-89.7" font-family="Times,serif" font-size="14.00">w</text>
<text text-anchor="start" x="384.07" y="-89.7" font-family="Times,serif" baseline-shift="sub" font-size="14.00">in,out</text>
<polygon fill="none" stroke="black" points="268.69,-74 268.69,-186 422.69,-186 422.69,-74 268.69,-74"/>
</g>
<!-- SWk -->
<g id="node11" class="node">
<title>SWk</title>
<polygon fill="#a0d0d0" stroke="black" points="227.12,-167 154.3,-167 135.57,-131 208.39,-131 227.12,-167"/>
<text text-anchor="start" x="153.6" y="-143.95" font-family="Times,serif" font-size="14.00">slice[:, k:]</text>
</g>
<!-- wk&#45;&gt;SWk -->
<g id="edge9" class="edge">
<title>wk&#45;&gt;SWk</title>
<path fill="none" stroke="black" d="M268.75,-138.89C254.59,-140.54 240.23,-142.23 227.38,-143.73"/>
<polygon fill="black" stroke="black" points="227.09,-140.24 217.56,-144.88 227.9,-147.19 227.09,-140.24"/>
</g>
<!-- SWk&#45;&gt;w -->
<g id="edge10" class="edge">
<title>SWk&#45;&gt;w</title>
<path fill="none" stroke="black" d="M161.66,-167.35C144.26,-184.44 117.6,-210.63 94.48,-233.35"/>
<polygon fill="black" stroke="black" points="92.23,-230.65 87.54,-240.16 97.13,-235.65 92.23,-230.65"/>
</g>
<!-- bk -->
<g id="node12" class="node">
<title>bk</title>
<polygon fill="#ebdef0" stroke="none" points="282.94,-15.75 282.94,-56.25 408.44,-56.25 408.44,-15.75 282.94,-15.75"/>
<polygon fill="none" stroke="black" points="285.94,-18.75 285.94,-53.25 329.44,-53.25 329.44,-18.75 285.94,-18.75"/>
<text text-anchor="start" x="294.94" y="-31.95" font-family="Times,serif" font-size="14.00">b</text>
<text text-anchor="start" x="301.69" y="-31.95" font-family="Times,serif" baseline-shift="sub" font-size="14.00">k+1</text>
<polygon fill="none" stroke="black" points="331.44,-18.75 331.44,-53.25 363.69,-53.25 363.69,-18.75 331.44,-18.75"/>
<text text-anchor="start" x="340.44" y="-30.95" font-family="Times,serif" font-size="14.00">…</text>
<polygon fill="none" stroke="black" points="365.69,-18.75 365.69,-53.25 405.44,-53.25 405.44,-18.75 365.69,-18.75"/>
<text text-anchor="start" x="374.69" y="-31.95" font-family="Times,serif" font-size="14.00">b</text>
<text text-anchor="start" x="381.44" y="-31.95" font-family="Times,serif" baseline-shift="sub" font-size="14.00">out</text>
<polygon fill="none" stroke="black" points="282.94,-15.75 282.94,-56.25 408.44,-56.25 408.44,-15.75 282.94,-15.75"/>
</g>
<!-- Sbk -->
<g id="node13" class="node">
<title>Sbk</title>
<polygon fill="#a0d0d0" stroke="black" points="227.12,-74 154.3,-74 135.57,-38 208.39,-38 227.12,-74"/>
<text text-anchor="start" x="153.6" y="-50.95" font-family="Times,serif" font-size="14.00">slice[:, k:]</text>
</g>
<!-- bk&#45;&gt;Sbk -->
<g id="edge13" class="edge">
<title>bk&#45;&gt;Sbk</title>
<path fill="none" stroke="black" d="M283.32,-43.56C264.61,-45.87 244.4,-48.35 227.02,-50.5"/>
<polygon fill="black" stroke="black" points="227.05,-46.97 217.55,-51.66 227.9,-53.91 227.05,-46.97"/>
</g>
<!-- Sbk&#45;&gt;b -->
<g id="edge14" class="edge">
<title>Sbk&#45;&gt;b</title>
<path fill="none" stroke="black" d="M162.77,-74.33C140.34,-97.71 101.31,-138.41 75.07,-165.78"/>
<polygon fill="black" stroke="black" points="72.81,-163.07 68.42,-172.71 77.86,-167.92 72.81,-163.07"/>
</g>
<!-- yk -->
<g id="node14" class="node">
<title>yk</title>
<polygon fill="#ebdef0" stroke="none" points="571.94,-74 571.94,-186 753.94,-186 753.94,-74 571.94,-74"/>
<polygon fill="none" stroke="black" points="574.94,-149 574.94,-183 646.94,-183 646.94,-149 574.94,-149"/>
<text text-anchor="start" x="593.69" y="-161.7" font-family="Times,serif" font-size="14.00">y</text>
<text text-anchor="start" x="600.44" y="-161.7" font-family="Times,serif" baseline-shift="sub" font-size="14.00">0,k+1</text>
<polygon fill="none" stroke="black" points="648.94,-149 648.94,-183 680.94,-183 680.94,-149 648.94,-149"/>
<text text-anchor="start" x="657.82" y="-160.7" font-family="Times,serif" font-size="14.00">…</text>
<polygon fill="none" stroke="black" points="682.94,-149 682.94,-183 750.94,-183 750.94,-149 682.94,-149"/>
<text text-anchor="start" x="701.57" y="-161.7" font-family="Times,serif" font-size="14.00">y</text>
<text text-anchor="start" x="708.32" y="-161.7" font-family="Times,serif" baseline-shift="sub" font-size="14.00">0,out</text>
<polygon fill="none" stroke="black" points="574.94,-113 574.94,-147 646.94,-147 646.94,-113 574.94,-113"/>
<text text-anchor="start" x="603.82" y="-124.7" font-family="Times,serif" font-size="14.00">…</text>
<polygon fill="none" stroke="black" points="648.94,-113 648.94,-147 680.94,-147 680.94,-113 648.94,-113"/>
<text text-anchor="start" x="657.82" y="-124.7" font-family="Times,serif" font-size="14.00">…</text>
<polygon fill="none" stroke="black" points="682.94,-113 682.94,-147 750.94,-147 750.94,-113 682.94,-113"/>
<text text-anchor="start" x="709.82" y="-124.7" font-family="Times,serif" font-size="14.00">…</text>
<polygon fill="none" stroke="black" points="574.94,-77 574.94,-111 646.94,-111 646.94,-77 574.94,-77"/>
<text text-anchor="start" x="583.94" y="-89.7" font-family="Times,serif" font-size="14.00">y</text>
<text text-anchor="start" x="590.69" y="-89.7" font-family="Times,serif" baseline-shift="sub" font-size="14.00">batch,k+1</text>
<polygon fill="none" stroke="black" points="648.94,-77 648.94,-111 680.94,-111 680.94,-77 648.94,-77"/>
<text text-anchor="start" x="657.82" y="-88.7" font-family="Times,serif" font-size="14.00">…</text>
<polygon fill="none" stroke="black" points="682.94,-77 682.94,-111 750.94,-111 750.94,-77 682.94,-77"/>
<text text-anchor="start" x="691.82" y="-89.7" font-family="Times,serif" font-size="14.00">y</text>
<text text-anchor="start" x="698.57" y="-89.7" font-family="Times,serif" baseline-shift="sub" font-size="14.00">batch,out</text>
<polygon fill="none" stroke="black" points="571.94,-74 571.94,-186 753.94,-186 753.94,-74 571.94,-74"/>
</g>
<!-- opk -->
<g id="node15" class="node">
<title>opk</title>
<polygon fill="#e5e8e8" stroke="black" points="517.94,-150.25 458.69,-150.25 458.69,-109.75 517.94,-109.75 517.94,-103.75 535.94,-130 517.94,-156.25 517.94,-150.25"/>
<text text-anchor="start" x="476.69" y="-125.95" font-family="Times,serif" font-size="14.00">Linear</text>
<text text-anchor="start" x="511.94" y="-125.95" font-family="Times,serif" baseline-shift="sub" font-size="14.00">1</text>
</g>
<!-- yk&#45;&gt;opk -->
<g id="edge4" class="edge">
<title>yk&#45;&gt;opk</title>
<path fill="none" stroke="black" d="M571.99,-130C563.61,-130 555.34,-130 547.54,-130"/>
<polygon fill="black" stroke="black" points="547.63,-126.5 537.63,-130 547.63,-133.5 547.63,-126.5"/>
</g>
<!-- opk&#45;&gt;x -->
<g id="edge6" class="edge">
<title>opk&#45;&gt;x</title>
<path fill="none" stroke="black" d="M470.29,-156.69C456.73,-169.89 439.5,-185.61 422.69,-198 417.42,-201.88 411.79,-205.7 406.05,-209.37"/>
<polygon fill="black" stroke="black" points="404.3,-206.34 397.64,-214.58 407.98,-212.29 404.3,-206.34"/>
</g>
<!-- opk&#45;&gt;wk -->
<g id="edge16" class="edge">
<title>opk&#45;&gt;wk</title>
<path fill="none" stroke="black" d="M458.56,-130C450.92,-130 442.58,-130 434.02,-130"/>
<polygon fill="black" stroke="black" points="434.19,-126.5 424.19,-130 434.19,-133.5 434.19,-126.5"/>
</g>
<!-- opk&#45;&gt;bk -->
<g id="edge3" class="edge">
<title>opk&#45;&gt;bk</title>
<path fill="none" stroke="black" d="M470.88,-103.42C457.47,-90.53 440.2,-75.59 422.69,-65 420.53,-63.69 418.3,-62.43 416.02,-61.2"/>
<polygon fill="black" stroke="black" points="417.66,-58.11 407.14,-56.78 414.54,-64.37 417.66,-58.11"/>
</g>
<!-- y -->
<g id="node16" class="node">
<title>y</title>
<polygon fill="#d6eaf8" stroke="none" points="905.14,-243 905.14,-277 973.14,-277 973.14,-243 905.14,-243"/>
<polygon fill="none" stroke="black" points="905.14,-243 905.14,-277 973.14,-277 973.14,-243 905.14,-243"/>
<text text-anchor="start" x="914.02" y="-255.7" font-family="Times,serif" font-size="14.00">y</text>
<text text-anchor="start" x="920.77" y="-255.7" font-family="Times,serif" baseline-shift="sub" font-size="14.00">batch,out</text>
<polygon fill="#ebdef0" stroke="none" points="975.14,-243 975.14,-277 1007.14,-277 1007.14,-243 975.14,-243"/>
<polygon fill="none" stroke="black" points="975.14,-243 975.14,-277 1007.14,-277 1007.14,-243 975.14,-243"/>
<text text-anchor="start" x="984.02" y="-254.7" font-family="Times,serif" font-size="14.00">…</text>
<polygon fill="#d6eaf8" stroke="none" points="905.14,-207 905.14,-241 973.14,-241 973.14,-207 905.14,-207"/>
<polygon fill="none" stroke="black" points="905.14,-207 905.14,-241 973.14,-241 973.14,-207 905.14,-207"/>
<text text-anchor="start" x="932.02" y="-218.7" font-family="Times,serif" font-size="14.00">…</text>
<polygon fill="#ebdef0" stroke="none" points="975.14,-207 975.14,-241 1007.14,-241 1007.14,-207 975.14,-207"/>
<polygon fill="none" stroke="black" points="975.14,-207 975.14,-241 1007.14,-241 1007.14,-207 975.14,-207"/>
<text text-anchor="start" x="984.39" y="-217.45" font-family="Times,serif" font-size="14.00">⋱</text>
<polygon fill="none" stroke="black" points="902.14,-204 902.14,-280 1010.14,-280 1010.14,-204 902.14,-204"/>
</g>
<!-- SC -->
<g id="node17" class="node">
<title>SC</title>
<polygon fill="#a0d0d0" stroke="black" points="866.14,-275 805.53,-275 789.94,-209 850.55,-209 866.14,-275"/>
<text text-anchor="start" x="810.42" y="-245.2" font-family="Times,serif" font-size="14.00">concat</text>
<text text-anchor="start" x="809.67" y="-228.7" font-family="Times,serif" font-size="14.00">dim=1</text>
</g>
<!-- y&#45;&gt;SC -->
<g id="edge19" class="edge">
<title>y&#45;&gt;SC</title>
<path fill="none" stroke="black" d="M902.4,-242C891.51,-242 880.2,-242 869.82,-242"/>
<polygon fill="black" stroke="black" points="870.08,-238.5 860.08,-242 870.08,-245.5 870.08,-238.5"/>
</g>
<!-- SC&#45;&gt;y0 -->
<g id="edge17" class="edge">
<title>SC&#45;&gt;y0</title>
<path fill="none" stroke="black" d="M801.56,-259.5C787.98,-268.83 770.38,-280.91 752.33,-293.31"/>
<polygon fill="black" stroke="black" points="750.37,-290.4 744.11,-298.95 754.34,-296.17 750.37,-290.4"/>
</g>
<!-- SC&#45;&gt;yk -->
<g id="edge18" class="edge">
<title>SC&#45;&gt;yk</title>
<path fill="none" stroke="black" d="M791.65,-217.7C780.54,-210.07 767.72,-201.26 754.58,-192.24"/>
<polygon fill="black" stroke="black" points="756.92,-189.6 746.7,-186.83 752.96,-195.37 756.92,-189.6"/>
</g>
</g>
</svg>
