<?xml version="1.0" encoding="UTF-8" standalone="no"?>
<!DOCTYPE svg PUBLIC "-//W3C//DTD SVG 1.1//EN"
 "http://www.w3.org/Graphics/SVG/1.1/DTD/svg11.dtd">
<!-- Generated by graphviz version 9.0.0 (20230911.1827)
 -->
<!-- Title: G Pages: 1 -->
<svg width="757pt" height="291pt"
 viewBox="0.00 0.00 756.65 291.25" xmlns="http://www.w3.org/2000/svg" xmlns:xlink="http://www.w3.org/1999/xlink">
<g id="graph0" class="graph" transform="scale(1 1) rotate(0) translate(4 287.25)">
<title>G</title>
<polygon fill="white" stroke="none" points="-4,4 -4,-287.25 752.65,-287.25 752.65,4 -4,4"/>
<!-- idx -->
<g id="node1" class="node">
<title>idx</title>
<polygon fill="none" stroke="black" points="301.65,-242.25 301.65,-276.25 333.65,-276.25 333.65,-242.25 301.65,-242.25"/>
<text text-anchor="start" x="310.9" y="-252.7" font-family="Times,serif" font-size="14.00">⋱</text>
<polygon fill="none" stroke="black" points="335.65,-242.25 335.65,-276.25 417.65,-276.25 417.65,-242.25 335.65,-242.25"/>
<text text-anchor="start" x="369.53" y="-253.95" font-family="Times,serif" font-size="14.00">…</text>
<polygon fill="none" stroke="black" points="419.65,-242.25 419.65,-276.25 451.65,-276.25 451.65,-242.25 419.65,-242.25"/>
<text text-anchor="start" x="429.28" y="-252.7" font-family="Times,serif" font-size="14.00">⋰</text>
<polygon fill="none" stroke="black" points="301.65,-206.25 301.65,-240.25 333.65,-240.25 333.65,-206.25 301.65,-206.25"/>
<text text-anchor="start" x="310.53" y="-217.95" font-family="Times,serif" font-size="14.00">…</text>
<polygon fill="#d6eaf8" stroke="none" points="335.65,-206.25 335.65,-240.25 417.65,-240.25 417.65,-206.25 335.65,-206.25"/>
<polygon fill="none" stroke="black" points="335.65,-206.25 335.65,-240.25 417.65,-240.25 417.65,-206.25 335.65,-206.25"/>
<text text-anchor="start" x="344.4" y="-217.95" font-family="Times,serif" font-size="14.00">batch,in,out</text>
<polygon fill="none" stroke="black" points="419.65,-206.25 419.65,-240.25 451.65,-240.25 451.65,-206.25 419.65,-206.25"/>
<text text-anchor="start" x="428.53" y="-217.95" font-family="Times,serif" font-size="14.00">…</text>
<polygon fill="none" stroke="black" points="301.65,-170.25 301.65,-204.25 333.65,-204.25 333.65,-170.25 301.65,-170.25"/>
<text text-anchor="start" x="311.28" y="-180.7" font-family="Times,serif" font-size="14.00">⋰</text>
<polygon fill="none" stroke="black" points="335.65,-170.25 335.65,-204.25 417.65,-204.25 417.65,-170.25 335.65,-170.25"/>
<text text-anchor="start" x="369.53" y="-181.95" font-family="Times,serif" font-size="14.00">…</text>
<polygon fill="none" stroke="black" points="419.65,-170.25 419.65,-204.25 451.65,-204.25 451.65,-170.25 419.65,-170.25"/>
<text text-anchor="start" x="428.9" y="-180.7" font-family="Times,serif" font-size="14.00">⋱</text>
<polygon fill="none" stroke="black" points="298.65,-167.25 298.65,-279.25 454.65,-279.25 454.65,-167.25 298.65,-167.25"/>
<text text-anchor="start" x="362.03" y="-148.95" font-family="Times,serif" font-style="italic" font-size="14.00">index</text>
</g>
<!-- x -->
<g id="node2" class="node">
<title>x</title>
<polygon fill="#d6eaf8" stroke="none" points="7.65,-155 7.65,-189 107.65,-189 107.65,-155 7.65,-155"/>
<polygon fill="none" stroke="black" points="7.65,-155 7.65,-189 107.65,-189 107.65,-155 7.65,-155"/>
<text text-anchor="start" x="18.65" y="-167.7" font-family="Times,serif" font-size="14.00">P</text>
<text text-anchor="start" x="26.15" y="-167.7" font-family="Times,serif" baseline-shift="sub" font-size="14.00">X</text>
<text text-anchor="start" x="34.4" y="-167.7" font-family="Times,serif" font-size="14.00">({batch:0})</text>
<polygon fill="#d6eaf8" stroke="none" points="109.65,-155 109.65,-189 142.65,-189 142.65,-155 109.65,-155"/>
<polygon fill="none" stroke="black" points="109.65,-155 109.65,-189 142.65,-189 142.65,-155 109.65,-155"/>
<text text-anchor="start" x="120.53" y="-166.7" font-family="Times,serif" font-size="14.00">...</text>
<polygon fill="#d6eaf8" stroke="none" points="144.65,-155 144.65,-189 177.65,-189 177.65,-155 144.65,-155"/>
<polygon fill="none" stroke="black" points="144.65,-155 144.65,-189 177.65,-189 177.65,-155 144.65,-155"/>
<text text-anchor="start" x="155.53" y="-166.7" font-family="Times,serif" font-size="14.00">...</text>
<polygon fill="#d6eaf8" stroke="none" points="7.65,-119 7.65,-153 107.65,-153 107.65,-119 7.65,-119"/>
<polygon fill="none" stroke="black" points="7.65,-119 7.65,-153 107.65,-153 107.65,-119 7.65,-119"/>
<text text-anchor="start" x="52.03" y="-130.7" font-family="Times,serif" font-size="14.00">...</text>
<polygon fill="#d6eaf8" stroke="none" points="109.65,-119 109.65,-153 142.65,-153 142.65,-119 109.65,-119"/>
<polygon fill="none" stroke="black" points="109.65,-119 109.65,-153 142.65,-153 142.65,-119 109.65,-119"/>
<text text-anchor="start" x="120.53" y="-130.7" font-family="Times,serif" font-size="14.00">...</text>
<polygon fill="#d6eaf8" stroke="none" points="144.65,-119 144.65,-153 177.65,-153 177.65,-119 144.65,-119"/>
<polygon fill="none" stroke="black" points="144.65,-119 144.65,-153 177.65,-153 177.65,-119 144.65,-119"/>
<text text-anchor="start" x="155.53" y="-130.7" font-family="Times,serif" font-size="14.00">...</text>
<polygon fill="none" stroke="black" stroke-width="3" points="9.15,-80.5 9.15,-115.5 106.15,-115.5 106.15,-80.5 9.15,-80.5"/>
<text text-anchor="start" x="18.65" y="-93.7" font-family="Times,serif" font-size="14.00">P</text>
<text text-anchor="start" x="26.15" y="-93.7" font-family="Times,serif" baseline-shift="sub" font-size="14.00">X</text>
<text text-anchor="start" x="34.4" y="-93.7" font-family="Times,serif" font-size="14.00">({batch:k})</text>
<polygon fill="none" stroke="black" stroke-width="3" points="111.15,-80.5 111.15,-115.5 141.15,-115.5 141.15,-80.5 111.15,-80.5"/>
<text text-anchor="start" x="120.53" y="-92.7" font-family="Times,serif" font-size="14.00">...</text>
<polygon fill="none" stroke="black" stroke-width="3" points="146.15,-80.5 146.15,-115.5 176.15,-115.5 176.15,-80.5 146.15,-80.5"/>
<text text-anchor="start" x="155.53" y="-92.7" font-family="Times,serif" font-size="14.00">...</text>
<polygon fill="none" stroke="black" stroke-width="3" points="9.15,-40.5 9.15,-75.5 106.15,-75.5 106.15,-40.5 9.15,-40.5"/>
<text text-anchor="start" x="52.03" y="-52.7" font-family="Times,serif" font-size="14.00">...</text>
<polygon fill="none" stroke="black" stroke-width="3" points="111.15,-40.5 111.15,-75.5 141.15,-75.5 141.15,-40.5 111.15,-40.5"/>
<text text-anchor="start" x="120.53" y="-52.7" font-family="Times,serif" font-size="14.00">...</text>
<polygon fill="none" stroke="black" stroke-width="3" points="146.15,-40.5 146.15,-75.5 176.15,-75.5 176.15,-40.5 146.15,-40.5"/>
<text text-anchor="start" x="155.53" y="-52.7" font-family="Times,serif" font-size="14.00">...</text>
<polygon fill="none" stroke="black" points="7.65,-3 7.65,-37 107.65,-37 107.65,-3 7.65,-3"/>
<text text-anchor="start" x="51.28" y="-13.45" font-family="Times,serif" font-size="14.00">⋰</text>
<polygon fill="none" stroke="black" points="109.65,-3 109.65,-37 142.65,-37 142.65,-3 109.65,-3"/>
<text text-anchor="start" x="119.03" y="-14.7" font-family="Times,serif" font-size="14.00">…</text>
<polygon fill="none" stroke="black" points="144.65,-3 144.65,-37 177.65,-37 177.65,-3 144.65,-3"/>
<text text-anchor="start" x="154.4" y="-13.45" font-family="Times,serif" font-size="14.00">⋱</text>
<polygon fill="none" stroke="black" points="4.65,0 4.65,-192 180.65,-192 180.65,0 4.65,0"/>
</g>
<!-- idx&#45;&gt;x -->
<g id="edge3" class="edge">
<title>idx&#45;&gt;x:a</title>
<path fill="none" stroke="black" stroke-dasharray="1,5" d="M295,-237.3C204.74,-261.41 69.59,-283.15 58.4,-201.36"/>
<polygon fill="none" stroke="black" points="61.9,-201.26 57.75,-191.51 54.91,-201.72 61.9,-201.26"/>
<text text-anchor="start" x="198.65" y="-259.2" font-family="Times,serif" font-size="14.00">P</text>
<text text-anchor="start" x="206.15" y="-259.2" font-family="Times,serif" baseline-shift="sub" font-size="14.00">X</text>
<text text-anchor="start" x="214.4" y="-259.2" font-family="Times,serif" font-size="14.00">({batch:0})</text>
</g>
<!-- idx&#45;&gt;x -->
<g id="edge4" class="edge">
<title>idx&#45;&gt;x:b</title>
<path fill="none" stroke="black" stroke-dasharray="1,5" d="M294.7,-213.33C192.34,-214.15 27.04,-212.25 7.65,-192 1.98,-186.08 -1.84,-131.51 1.84,-108.33"/>
<polygon fill="none" stroke="black" points="4.96,-109.91 6.02,-99.37 -1.38,-106.96 4.96,-109.91"/>
<text text-anchor="start" x="198.65" y="-217.2" font-family="Times,serif" font-size="14.00">P</text>
<text text-anchor="start" x="206.15" y="-217.2" font-family="Times,serif" baseline-shift="sub" font-size="14.00">X</text>
<text text-anchor="start" x="214.4" y="-217.2" font-family="Times,serif" font-size="14.00">({batch:k})</text>
</g>
<!-- y -->
<g id="node3" class="node">
<title>y</title>
<polygon fill="#d6eaf8" stroke="none" points="575.65,-155 575.65,-189 675.65,-189 675.65,-155 575.65,-155"/>
<polygon fill="none" stroke="black" points="575.65,-155 575.65,-189 675.65,-189 675.65,-155 575.65,-155"/>
<text text-anchor="start" x="586.65" y="-167.7" font-family="Times,serif" font-size="14.00">P</text>
<text text-anchor="start" x="594.15" y="-167.7" font-family="Times,serif" baseline-shift="sub" font-size="14.00">Y</text>
<text text-anchor="start" x="602.4" y="-167.7" font-family="Times,serif" font-size="14.00">({batch:0})</text>
<polygon fill="#d6eaf8" stroke="none" points="677.65,-155 677.65,-189 710.65,-189 710.65,-155 677.65,-155"/>
<polygon fill="none" stroke="black" points="677.65,-155 677.65,-189 710.65,-189 710.65,-155 677.65,-155"/>
<text text-anchor="start" x="688.53" y="-166.7" font-family="Times,serif" font-size="14.00">...</text>
<polygon fill="#d6eaf8" stroke="none" points="712.65,-155 712.65,-189 745.65,-189 745.65,-155 712.65,-155"/>
<polygon fill="none" stroke="black" points="712.65,-155 712.65,-189 745.65,-189 745.65,-155 712.65,-155"/>
<text text-anchor="start" x="723.53" y="-166.7" font-family="Times,serif" font-size="14.00">...</text>
<polygon fill="#d6eaf8" stroke="none" points="575.65,-119 575.65,-153 675.65,-153 675.65,-119 575.65,-119"/>
<polygon fill="none" stroke="black" points="575.65,-119 575.65,-153 675.65,-153 675.65,-119 575.65,-119"/>
<text text-anchor="start" x="620.03" y="-130.7" font-family="Times,serif" font-size="14.00">...</text>
<polygon fill="#d6eaf8" stroke="none" points="677.65,-119 677.65,-153 710.65,-153 710.65,-119 677.65,-119"/>
<polygon fill="none" stroke="black" points="677.65,-119 677.65,-153 710.65,-153 710.65,-119 677.65,-119"/>
<text text-anchor="start" x="688.53" y="-130.7" font-family="Times,serif" font-size="14.00">...</text>
<polygon fill="#d6eaf8" stroke="none" points="712.65,-119 712.65,-153 745.65,-153 745.65,-119 712.65,-119"/>
<polygon fill="none" stroke="black" points="712.65,-119 712.65,-153 745.65,-153 745.65,-119 712.65,-119"/>
<text text-anchor="start" x="723.53" y="-130.7" font-family="Times,serif" font-size="14.00">...</text>
<polygon fill="none" stroke="black" stroke-width="3" points="577.15,-80.5 577.15,-115.5 674.15,-115.5 674.15,-80.5 577.15,-80.5"/>
<text text-anchor="start" x="586.65" y="-93.7" font-family="Times,serif" font-size="14.00">P</text>
<text text-anchor="start" x="594.15" y="-93.7" font-family="Times,serif" baseline-shift="sub" font-size="14.00">Y</text>
<text text-anchor="start" x="602.4" y="-93.7" font-family="Times,serif" font-size="14.00">({batch:k})</text>
<polygon fill="none" stroke="black" stroke-width="3" points="679.15,-80.5 679.15,-115.5 709.15,-115.5 709.15,-80.5 679.15,-80.5"/>
<text text-anchor="start" x="688.53" y="-92.7" font-family="Times,serif" font-size="14.00">...</text>
<polygon fill="none" stroke="black" stroke-width="3" points="714.15,-80.5 714.15,-115.5 744.15,-115.5 744.15,-80.5 714.15,-80.5"/>
<text text-anchor="start" x="723.53" y="-92.7" font-family="Times,serif" font-size="14.00">...</text>
<polygon fill="none" stroke="black" stroke-width="3" points="577.15,-40.5 577.15,-75.5 674.15,-75.5 674.15,-40.5 577.15,-40.5"/>
<text text-anchor="start" x="620.03" y="-52.7" font-family="Times,serif" font-size="14.00">...</text>
<polygon fill="none" stroke="black" stroke-width="3" points="679.15,-40.5 679.15,-75.5 709.15,-75.5 709.15,-40.5 679.15,-40.5"/>
<text text-anchor="start" x="688.53" y="-52.7" font-family="Times,serif" font-size="14.00">...</text>
<polygon fill="none" stroke="black" stroke-width="3" points="714.15,-40.5 714.15,-75.5 744.15,-75.5 744.15,-40.5 714.15,-40.5"/>
<text text-anchor="start" x="723.53" y="-52.7" font-family="Times,serif" font-size="14.00">...</text>
<polygon fill="none" stroke="black" points="575.65,-3 575.65,-37 675.65,-37 675.65,-3 575.65,-3"/>
<text text-anchor="start" x="619.28" y="-13.45" font-family="Times,serif" font-size="14.00">⋰</text>
<polygon fill="none" stroke="black" points="677.65,-3 677.65,-37 710.65,-37 710.65,-3 677.65,-3"/>
<text text-anchor="start" x="687.03" y="-14.7" font-family="Times,serif" font-size="14.00">…</text>
<polygon fill="none" stroke="black" points="712.65,-3 712.65,-37 745.65,-37 745.65,-3 712.65,-3"/>
<text text-anchor="start" x="722.4" y="-13.45" font-family="Times,serif" font-size="14.00">⋱</text>
<polygon fill="none" stroke="black" points="572.65,0 572.65,-192 748.65,-192 748.65,0 572.65,0"/>
</g>
<!-- idx&#45;&gt;y -->
<g id="edge5" class="edge">
<title>idx&#45;&gt;y:a</title>
<path fill="none" stroke="black" stroke-dasharray="1,5" d="M458.38,-188.04C490.28,-180.35 527.74,-173.48 563.22,-172.21"/>
<polygon fill="none" stroke="black" points="563.21,-175.71 573.14,-172.03 563.08,-168.71 563.21,-175.71"/>
<text text-anchor="start" x="476.65" y="-187.2" font-family="Times,serif" font-size="14.00">P</text>
<text text-anchor="start" x="484.15" y="-187.2" font-family="Times,serif" baseline-shift="sub" font-size="14.00">Y</text>
<text text-anchor="start" x="492.4" y="-187.2" font-family="Times,serif" font-size="14.00">({batch:0})</text>
</g>
<!-- idx&#45;&gt;y -->
<g id="edge6" class="edge">
<title>idx&#45;&gt;y:b</title>
<path fill="none" stroke="black" stroke-dasharray="1,5" d="M458.53,-163.01C464.65,-159.43 470.74,-155.89 476.65,-152.5 510.91,-132.88 520.39,-129.6 554.65,-110 559.15,-107.43 561.56,-104.43 564.14,-102.07"/>
<polygon fill="none" stroke="black" points="565.18,-105.42 573.24,-98.55 562.65,-98.89 565.18,-105.42"/>
<text text-anchor="start" x="476.65" y="-157.2" font-family="Times,serif" font-size="14.00">P</text>
<text text-anchor="start" x="484.15" y="-157.2" font-family="Times,serif" baseline-shift="sub" font-size="14.00">Y</text>
<text text-anchor="start" x="492.4" y="-157.2" font-family="Times,serif" font-size="14.00">({batch:k})</text>
</g>
<!-- op -->
<g id="node4" class="node">
<title>op</title>
<polygon fill="#e5e8e8" stroke="black" points="394.28,-116.25 341.03,-116.25 341.03,-75.75 394.28,-75.75 394.28,-69.75 412.28,-96 394.28,-122.25 394.28,-116.25"/>
<text text-anchor="middle" x="376.65" y="-90.95" font-family="Times,serif" font-size="14.00">Linear</text>
</g>
<!-- y&#45;&gt;op -->
<g id="edge2" class="edge">
<title>y&#45;&gt;op</title>
<path fill="none" stroke="black" d="M572.74,-96C523.7,-96 464.35,-96 424.09,-96"/>
<polygon fill="black" stroke="black" points="424.27,-92.5 414.27,-96 424.27,-99.5 424.27,-92.5"/>
</g>
<!-- op&#45;&gt;x -->
<g id="edge1" class="edge">
<title>op&#45;&gt;x</title>
<path fill="none" stroke="black" d="M340.79,-96C303.73,-96 243.43,-96 191.67,-96"/>
<polygon fill="black" stroke="black" points="191.94,-92.5 181.94,-96 191.94,-99.5 191.94,-92.5"/>
</g>
</g>
</svg>
