<?xml version="1.0" encoding="UTF-8" standalone="no"?>
<!DOCTYPE svg PUBLIC "-//W3C//DTD SVG 1.1//EN"
 "http://www.w3.org/Graphics/SVG/1.1/DTD/svg11.dtd">
<!-- Generated by graphviz version 9.0.0 (20230911.1827)
 -->
<!-- Title: G Pages: 1 -->
<svg width="555pt" height="257pt"
 viewBox="0.00 0.00 555.00 257.25" xmlns="http://www.w3.org/2000/svg" xmlns:xlink="http://www.w3.org/1999/xlink">
<g id="graph0" class="graph" transform="scale(1 1) rotate(0) translate(4 253.25)">
<title>G</title>
<polygon fill="white" stroke="none" points="-4,4 -4,-253.25 551,-253.25 551,4 -4,4"/>
<!-- idx -->
<g id="node1" class="node">
<title>idx</title>
<polygon fill="none" stroke="black" points="201.5,-208.25 201.5,-242.25 233.5,-242.25 233.5,-208.25 201.5,-208.25"/>
<text text-anchor="start" x="210.75" y="-218.7" font-family="Times,serif" font-size="14.00">⋱</text>
<polygon fill="none" stroke="black" points="235.5,-208.25 235.5,-242.25 317.5,-242.25 317.5,-208.25 235.5,-208.25"/>
<text text-anchor="start" x="269.38" y="-219.95" font-family="Times,serif" font-size="14.00">…</text>
<polygon fill="none" stroke="black" points="319.5,-208.25 319.5,-242.25 351.5,-242.25 351.5,-208.25 319.5,-208.25"/>
<text text-anchor="start" x="329.12" y="-218.7" font-family="Times,serif" font-size="14.00">⋰</text>
<polygon fill="none" stroke="black" points="201.5,-172.25 201.5,-206.25 233.5,-206.25 233.5,-172.25 201.5,-172.25"/>
<text text-anchor="start" x="210.38" y="-183.95" font-family="Times,serif" font-size="14.00">…</text>
<polygon fill="#d6eaf8" stroke="none" points="235.5,-172.25 235.5,-206.25 317.5,-206.25 317.5,-172.25 235.5,-172.25"/>
<polygon fill="none" stroke="black" points="235.5,-172.25 235.5,-206.25 317.5,-206.25 317.5,-172.25 235.5,-172.25"/>
<text text-anchor="start" x="244.25" y="-183.95" font-family="Times,serif" font-size="14.00">batch,in,out</text>
<polygon fill="none" stroke="black" points="319.5,-172.25 319.5,-206.25 351.5,-206.25 351.5,-172.25 319.5,-172.25"/>
<text text-anchor="start" x="328.38" y="-183.95" font-family="Times,serif" font-size="14.00">…</text>
<polygon fill="none" stroke="black" points="201.5,-136.25 201.5,-170.25 233.5,-170.25 233.5,-136.25 201.5,-136.25"/>
<text text-anchor="start" x="211.12" y="-146.7" font-family="Times,serif" font-size="14.00">⋰</text>
<polygon fill="none" stroke="black" points="235.5,-136.25 235.5,-170.25 317.5,-170.25 317.5,-136.25 235.5,-136.25"/>
<text text-anchor="start" x="269.38" y="-147.95" font-family="Times,serif" font-size="14.00">…</text>
<polygon fill="none" stroke="black" points="319.5,-136.25 319.5,-170.25 351.5,-170.25 351.5,-136.25 319.5,-136.25"/>
<text text-anchor="start" x="328.75" y="-146.7" font-family="Times,serif" font-size="14.00">⋱</text>
<polygon fill="none" stroke="black" points="198.5,-133.25 198.5,-245.25 354.5,-245.25 354.5,-133.25 198.5,-133.25"/>
<text text-anchor="start" x="261.88" y="-114.95" font-family="Times,serif" font-style="italic" font-size="14.00">index</text>
</g>
<!-- w -->
<g id="node2" class="node">
<title>w</title>
<polygon fill="none" stroke="black" points="3,-151 3,-189 35,-189 35,-151 3,-151"/>
<text text-anchor="start" x="12.25" y="-163.45" font-family="Times,serif" font-size="14.00">⋱</text>
<polygon fill="#d6eaf8" stroke="none" points="37,-151 37,-189 90,-189 90,-151 37,-151"/>
<polygon fill="none" stroke="black" stroke-width="3" points="38.5,-152.5 38.5,-187.5 88.5,-187.5 88.5,-152.5 38.5,-152.5"/>
<text text-anchor="start" x="47.75" y="-165.7" font-family="Times,serif" font-size="14.00">P</text>
<text text-anchor="start" x="55.25" y="-165.7" font-family="Times,serif" baseline-shift="sub" font-size="14.00">W</text>
<text text-anchor="start" x="66.5" y="-165.7" font-family="Times,serif" font-size="14.00">(i)</text>
<polygon fill="none" stroke="black" points="92,-151 92,-189 124,-189 124,-151 92,-151"/>
<text text-anchor="start" x="101.62" y="-163.45" font-family="Times,serif" font-size="14.00">⋰</text>
<polygon fill="none" stroke="black" points="3,-111 3,-149 35,-149 35,-111 3,-111"/>
<text text-anchor="start" x="11.88" y="-124.95" font-family="Times,serif" font-size="14.00">…</text>
<polygon fill="#d6eaf8" stroke="none" points="37,-111 37,-149 90,-149 90,-111 37,-111"/>
<polygon fill="none" stroke="black" stroke-width="3" points="38.5,-112.5 38.5,-147.5 88.5,-147.5 88.5,-112.5 38.5,-112.5"/>
<text text-anchor="start" x="56.38" y="-124.7" font-family="Times,serif" font-size="14.00">…</text>
<polygon fill="none" stroke="black" points="92,-111 92,-149 124,-149 124,-111 92,-111"/>
<text text-anchor="start" x="100.88" y="-124.95" font-family="Times,serif" font-size="14.00">…</text>
<polygon fill="none" stroke="black" points="3,-71 3,-109 35,-109 35,-71 3,-71"/>
<text text-anchor="start" x="12.62" y="-83.45" font-family="Times,serif" font-size="14.00">⋰</text>
<polygon fill="#d6eaf8" stroke="none" points="37,-71 37,-109 90,-109 90,-71 37,-71"/>
<polygon fill="none" stroke="black" stroke-width="3" points="38.5,-72.5 38.5,-107.5 88.5,-107.5 88.5,-72.5 38.5,-72.5"/>
<text text-anchor="start" x="56.38" y="-84.7" font-family="Times,serif" font-size="14.00">…</text>
<polygon fill="none" stroke="black" points="92,-71 92,-109 124,-109 124,-71 92,-71"/>
<text text-anchor="start" x="101.25" y="-83.45" font-family="Times,serif" font-size="14.00">⋱</text>
<polygon fill="none" stroke="black" points="0,-68 0,-192 127,-192 127,-68 0,-68"/>
</g>
<!-- idx&#45;&gt;w -->
<g id="edge4" class="edge">
<title>idx&#45;&gt;w:a</title>
<path fill="none" stroke="black" stroke-dasharray="1,5" d="M194.75,-211.53C139.4,-230.38 74.3,-242.75 64.71,-201.36"/>
<polygon fill="none" stroke="black" points="68.2,-201.08 63.66,-191.51 61.23,-201.82 68.2,-201.08"/>
<text text-anchor="start" x="145" y="-228.2" font-family="Times,serif" font-size="14.00">P</text>
<text text-anchor="start" x="152.5" y="-228.2" font-family="Times,serif" baseline-shift="sub" font-size="14.00">W</text>
<text text-anchor="start" x="163.75" y="-228.2" font-family="Times,serif" font-size="14.00">(i)</text>
</g>
<!-- b -->
<g id="node3" class="node">
<title>b</title>
<polygon fill="none" stroke="black" points="5.12,-8.75 5.12,-47.25 37.38,-47.25 37.38,-8.75 5.12,-8.75"/>
<text text-anchor="start" x="14.12" y="-22.95" font-family="Times,serif" font-size="14.00">…</text>
<polygon fill="#d6eaf8" stroke="none" points="39.38,-8.75 39.38,-47.25 87.62,-47.25 87.62,-8.75 39.38,-8.75"/>
<polygon fill="none" stroke="black" stroke-width="3" points="40.88,-10.25 40.88,-45.75 86.12,-45.75 86.12,-10.25 40.88,-10.25"/>
<text text-anchor="start" x="50.38" y="-23.95" font-family="Times,serif" font-size="14.00">P</text>
<text text-anchor="start" x="57.88" y="-23.95" font-family="Times,serif" baseline-shift="sub" font-size="14.00">b</text>
<text text-anchor="start" x="63.88" y="-23.95" font-family="Times,serif" font-size="14.00">(i)</text>
<polygon fill="none" stroke="black" points="89.62,-8.75 89.62,-47.25 121.88,-47.25 121.88,-8.75 89.62,-8.75"/>
<text text-anchor="start" x="98.62" y="-22.95" font-family="Times,serif" font-size="14.00">…</text>
<polygon fill="none" stroke="black" points="2.12,-5.75 2.12,-50.25 124.88,-50.25 124.88,-5.75 2.12,-5.75"/>
</g>
<!-- idx&#45;&gt;b -->
<g id="edge5" class="edge">
<title>idx&#45;&gt;b:a</title>
<path fill="none" stroke="black" stroke-dasharray="1,5" d="M201.82,-106.96C179.33,-88.74 153.5,-70.95 127,-59 117.31,-54.63 87.03,-58.58 72.05,-55.05"/>
<polygon fill="none" stroke="black" points="74.61,-52.62 64.67,-48.96 70.16,-58.02 74.61,-52.62"/>
<text text-anchor="start" x="147.62" y="-92.2" font-family="Times,serif" font-size="14.00">P</text>
<text text-anchor="start" x="155.12" y="-92.2" font-family="Times,serif" baseline-shift="sub" font-size="14.00">b</text>
<text text-anchor="start" x="161.12" y="-92.2" font-family="Times,serif" font-size="14.00">(i)</text>
</g>
<!-- y -->
<g id="node5" class="node">
<title>y</title>
<polygon fill="none" stroke="black" points="426,-83 426,-121 458,-121 458,-83 426,-83"/>
<text text-anchor="start" x="435.25" y="-95.45" font-family="Times,serif" font-size="14.00">⋱</text>
<polygon fill="#d6eaf8" stroke="none" points="460,-83 460,-121 510,-121 510,-83 460,-83"/>
<polygon fill="none" stroke="black" stroke-width="3" points="461.5,-84.5 461.5,-119.5 508.5,-119.5 508.5,-84.5 461.5,-84.5"/>
<text text-anchor="start" x="470.75" y="-97.7" font-family="Times,serif" font-size="14.00">P</text>
<text text-anchor="start" x="478.25" y="-97.7" font-family="Times,serif" baseline-shift="sub" font-size="14.00">Y</text>
<text text-anchor="start" x="486.5" y="-97.7" font-family="Times,serif" font-size="14.00">(i)</text>
<polygon fill="none" stroke="black" points="512,-83 512,-121 544,-121 544,-83 512,-83"/>
<text text-anchor="start" x="521.62" y="-95.45" font-family="Times,serif" font-size="14.00">⋰</text>
<polygon fill="none" stroke="black" points="426,-43 426,-81 458,-81 458,-43 426,-43"/>
<text text-anchor="start" x="434.88" y="-56.95" font-family="Times,serif" font-size="14.00">…</text>
<polygon fill="#d6eaf8" stroke="none" points="460,-43 460,-81 510,-81 510,-43 460,-43"/>
<polygon fill="none" stroke="black" stroke-width="3" points="461.5,-44.5 461.5,-79.5 508.5,-79.5 508.5,-44.5 461.5,-44.5"/>
<text text-anchor="start" x="477.88" y="-56.7" font-family="Times,serif" font-size="14.00">…</text>
<polygon fill="none" stroke="black" points="512,-43 512,-81 544,-81 544,-43 512,-43"/>
<text text-anchor="start" x="520.88" y="-56.95" font-family="Times,serif" font-size="14.00">…</text>
<polygon fill="none" stroke="black" points="426,-3 426,-41 458,-41 458,-3 426,-3"/>
<text text-anchor="start" x="435.62" y="-15.45" font-family="Times,serif" font-size="14.00">⋰</text>
<polygon fill="#d6eaf8" stroke="none" points="460,-3 460,-41 510,-41 510,-3 460,-3"/>
<polygon fill="none" stroke="black" stroke-width="3" points="461.5,-4.5 461.5,-39.5 508.5,-39.5 508.5,-4.5 461.5,-4.5"/>
<text text-anchor="start" x="477.88" y="-16.7" font-family="Times,serif" font-size="14.00">…</text>
<polygon fill="none" stroke="black" points="512,-3 512,-41 544,-41 544,-3 512,-3"/>
<text text-anchor="start" x="521.25" y="-15.45" font-family="Times,serif" font-size="14.00">⋱</text>
<polygon fill="none" stroke="black" points="423,0 423,-124 547,-124 547,0 423,0"/>
</g>
<!-- idx&#45;&gt;y -->
<g id="edge6" class="edge">
<title>idx&#45;&gt;y:a</title>
<path fill="none" stroke="black" stroke-dasharray="1,5" d="M358.32,-186.02C412.37,-187.09 475.16,-178.28 483.96,-133.21"/>
<polygon fill="none" stroke="black" points="487.42,-133.79 484.86,-123.51 480.45,-133.14 487.42,-133.79"/>
<text text-anchor="start" x="376.5" y="-189.2" font-family="Times,serif" font-size="14.00">P</text>
<text text-anchor="start" x="384" y="-189.2" font-family="Times,serif" baseline-shift="sub" font-size="14.00">Y</text>
<text text-anchor="start" x="392.25" y="-189.2" font-family="Times,serif" font-size="14.00">(i)</text>
</g>
<!-- op -->
<g id="node4" class="node">
<title>op</title>
<polygon fill="#e5e8e8" stroke="black" points="294.12,-82.25 240.88,-82.25 240.88,-41.75 294.12,-41.75 294.12,-35.75 312.12,-62 294.12,-88.25 294.12,-82.25"/>
<text text-anchor="middle" x="276.5" y="-56.95" font-family="Times,serif" font-size="14.00">Linear</text>
</g>
<!-- op&#45;&gt;w -->
<g id="edge1" class="edge">
<title>op&#45;&gt;w</title>
<path fill="none" stroke="black" d="M240.49,-72.34C214.15,-80.22 177.21,-91.47 145,-102 142.6,-102.78 140.16,-103.59 137.7,-104.41"/>
<polygon fill="black" stroke="black" points="136.63,-101.08 128.26,-107.58 138.86,-107.71 136.63,-101.08"/>
</g>
<!-- op&#45;&gt;b -->
<g id="edge2" class="edge">
<title>op&#45;&gt;b</title>
<path fill="none" stroke="black" d="M240.66,-56.39C212.25,-51.81 171.18,-45.19 135.85,-39.5"/>
<polygon fill="black" stroke="black" points="136.52,-36.06 126.09,-37.92 135.41,-42.97 136.52,-36.06"/>
</g>
<!-- y&#45;&gt;op -->
<g id="edge3" class="edge">
<title>y&#45;&gt;op</title>
<path fill="none" stroke="black" d="M423.16,-62C391.34,-62 353.01,-62 323.66,-62"/>
<polygon fill="black" stroke="black" points="323.99,-58.5 313.99,-62 323.99,-65.5 323.99,-58.5"/>
</g>
</g>
</svg>
