<?xml version="1.0" encoding="UTF-8" standalone="no"?>
<!DOCTYPE svg PUBLIC "-//W3C//DTD SVG 1.1//EN"
 "http://www.w3.org/Graphics/SVG/1.1/DTD/svg11.dtd">
<!-- Generated by graphviz version 9.0.0 (20230911.1827)
 -->
<!-- Title: G Pages: 1 -->
<svg width="574pt" height="434pt"
 viewBox="0.00 0.00 574.25 434.00" xmlns="http://www.w3.org/2000/svg" xmlns:xlink="http://www.w3.org/1999/xlink">
<g id="graph0" class="graph" transform="scale(1 1) rotate(0) translate(4 430)">
<title>G</title>
<polygon fill="white" stroke="none" points="-4,4 -4,-430 570.25,-430 570.25,4 -4,4"/>
<g id="clust1" class="cluster">
<title>cluster_0</title>
<polygon fill="none" stroke="black" points="113.5,-290 113.5,-418 454.25,-418 454.25,-290 113.5,-290"/>
</g>
<g id="clust2" class="cluster">
<title>cluster_1</title>
<polygon fill="none" stroke="black" points="107,-8 107,-136 462.25,-136 462.25,-8 107,-8"/>
</g>
<!-- x -->
<g id="node1" class="node">
<title>x</title>
<polygon fill="#d6eaf8" stroke="none" points="3,-214 3,-248 42,-248 42,-214 3,-214"/>
<polygon fill="none" stroke="black" points="3,-214 3,-248 42,-248 42,-214 3,-214"/>
<text text-anchor="start" x="11.62" y="-226.7" font-family="Times,serif" font-size="14.00">x</text>
<text text-anchor="start" x="18.38" y="-226.7" font-family="Times,serif" baseline-shift="sub" font-size="14.00">i,m</text>
<polygon fill="#d6eaf8" stroke="none" points="44,-214 44,-248 76,-248 76,-214 44,-214"/>
<polygon fill="none" stroke="black" points="44,-214 44,-248 76,-248 76,-214 44,-214"/>
<text text-anchor="start" x="52.88" y="-225.7" font-family="Times,serif" font-size="14.00">…</text>
<polygon fill="#ebdef0" stroke="none" points="3,-178 3,-212 42,-212 42,-178 3,-178"/>
<polygon fill="none" stroke="black" points="3,-178 3,-212 42,-212 42,-178 3,-178"/>
<text text-anchor="start" x="15.38" y="-189.7" font-family="Times,serif" font-size="14.00">…</text>
<polygon fill="#ebdef0" stroke="none" points="44,-178 44,-212 76,-212 76,-178 44,-178"/>
<polygon fill="none" stroke="black" points="44,-178 44,-212 76,-212 76,-178 44,-178"/>
<text text-anchor="start" x="53.25" y="-188.45" font-family="Times,serif" font-size="14.00">⋱</text>
<polygon fill="none" stroke="black" points="0,-175 0,-251 79,-251 79,-175 0,-175"/>
</g>
<!-- y -->
<g id="node2" class="node">
<title>y</title>
<polygon fill="#d6eaf8" stroke="none" points="493.25,-214 493.25,-248 529.25,-248 529.25,-214 493.25,-214"/>
<polygon fill="none" stroke="black" points="493.25,-214 493.25,-248 529.25,-248 529.25,-214 493.25,-214"/>
<text text-anchor="start" x="501.88" y="-226.7" font-family="Times,serif" font-size="14.00">y</text>
<text text-anchor="start" x="508.62" y="-226.7" font-family="Times,serif" baseline-shift="sub" font-size="14.00">i,n</text>
<polygon fill="#d6eaf8" stroke="none" points="531.25,-214 531.25,-248 563.25,-248 563.25,-214 531.25,-214"/>
<polygon fill="none" stroke="black" points="531.25,-214 531.25,-248 563.25,-248 563.25,-214 531.25,-214"/>
<text text-anchor="start" x="540.12" y="-225.7" font-family="Times,serif" font-size="14.00">…</text>
<polygon fill="#ebdef0" stroke="none" points="493.25,-178 493.25,-212 529.25,-212 529.25,-178 493.25,-178"/>
<polygon fill="none" stroke="black" points="493.25,-178 493.25,-212 529.25,-212 529.25,-178 493.25,-178"/>
<text text-anchor="start" x="504.12" y="-189.7" font-family="Times,serif" font-size="14.00">…</text>
<polygon fill="#ebdef0" stroke="none" points="531.25,-178 531.25,-212 563.25,-212 563.25,-178 531.25,-178"/>
<polygon fill="none" stroke="black" points="531.25,-178 531.25,-212 563.25,-212 563.25,-178 531.25,-178"/>
<text text-anchor="start" x="540.5" y="-188.45" font-family="Times,serif" font-size="14.00">⋱</text>
<polygon fill="none" stroke="black" points="490.25,-175 490.25,-251 566.25,-251 566.25,-175 490.25,-175"/>
</g>
<!-- y0 -->
<g id="node7" class="node">
<title>y0</title>
<polygon fill="#d6eaf8" stroke="none" points="367.25,-298 367.25,-410 446.25,-410 446.25,-298 367.25,-298"/>
<polygon fill="none" stroke="black" points="370.25,-373 370.25,-407 409.25,-407 409.25,-373 370.25,-373"/>
<text text-anchor="start" x="378.88" y="-385.7" font-family="Times,serif" font-size="14.00">y</text>
<text text-anchor="start" x="385.62" y="-385.7" font-family="Times,serif" baseline-shift="sub" font-size="14.00">0,n</text>
<polygon fill="none" stroke="black" points="411.25,-373 411.25,-407 443.25,-407 443.25,-373 411.25,-373"/>
<text text-anchor="start" x="420.12" y="-384.7" font-family="Times,serif" font-size="14.00">…</text>
<polygon fill="none" stroke="black" points="370.25,-337 370.25,-371 409.25,-371 409.25,-337 370.25,-337"/>
<text text-anchor="start" x="382.62" y="-348.7" font-family="Times,serif" font-size="14.00">…</text>
<polygon fill="none" stroke="black" points="411.25,-337 411.25,-371 443.25,-371 443.25,-337 411.25,-337"/>
<text text-anchor="start" x="420.12" y="-348.7" font-family="Times,serif" font-size="14.00">…</text>
<polygon fill="none" stroke="black" points="370.25,-301 370.25,-335 409.25,-335 409.25,-301 370.25,-301"/>
<text text-anchor="start" x="378.88" y="-313.7" font-family="Times,serif" font-size="14.00">y</text>
<text text-anchor="start" x="385.62" y="-313.7" font-family="Times,serif" baseline-shift="sub" font-size="14.00">k,n</text>
<polygon fill="none" stroke="black" points="411.25,-301 411.25,-335 443.25,-335 443.25,-301 411.25,-301"/>
<text text-anchor="start" x="420.12" y="-312.7" font-family="Times,serif" font-size="14.00">…</text>
<polygon fill="none" stroke="black" points="367.25,-298 367.25,-410 446.25,-410 446.25,-298 367.25,-298"/>
</g>
<!-- y&#45;&gt;y0 -->
<g id="edge11" class="edge">
<title>y&#45;&gt;y0</title>
<path fill="none" stroke="black" d="M495.23,-250.79C482.39,-265.93 467.36,-283.66 453.42,-300.11"/>
<polygon fill="black" stroke="black" points="451.02,-297.53 447.23,-307.42 456.36,-302.06 451.02,-297.53"/>
</g>
<!-- yk -->
<g id="node9" class="node">
<title>yk</title>
<polygon fill="#ebdef0" stroke="none" points="359.25,-16 359.25,-128 454.25,-128 454.25,-16 359.25,-16"/>
<polygon fill="none" stroke="black" points="362.25,-91 362.25,-125 417.25,-125 417.25,-91 362.25,-91"/>
<text text-anchor="start" x="371" y="-103.7" font-family="Times,serif" font-size="14.00">y</text>
<text text-anchor="start" x="377.75" y="-103.7" font-family="Times,serif" baseline-shift="sub" font-size="14.00">k+1,m</text>
<polygon fill="none" stroke="black" points="419.25,-91 419.25,-125 451.25,-125 451.25,-91 419.25,-91"/>
<text text-anchor="start" x="428.12" y="-102.7" font-family="Times,serif" font-size="14.00">…</text>
<polygon fill="none" stroke="black" points="362.25,-55 362.25,-89 417.25,-89 417.25,-55 362.25,-55"/>
<text text-anchor="start" x="382.62" y="-66.7" font-family="Times,serif" font-size="14.00">…</text>
<polygon fill="none" stroke="black" points="419.25,-55 419.25,-89 451.25,-89 451.25,-55 419.25,-55"/>
<text text-anchor="start" x="428.12" y="-66.7" font-family="Times,serif" font-size="14.00">…</text>
<polygon fill="none" stroke="black" points="362.25,-19 362.25,-53 417.25,-53 417.25,-19 362.25,-19"/>
<text text-anchor="start" x="378.88" y="-31.7" font-family="Times,serif" font-size="14.00">y</text>
<text text-anchor="start" x="385.62" y="-31.7" font-family="Times,serif" baseline-shift="sub" font-size="14.00">i,m</text>
<polygon fill="none" stroke="black" points="419.25,-19 419.25,-53 451.25,-53 451.25,-19 419.25,-19"/>
<text text-anchor="start" x="428.12" y="-30.7" font-family="Times,serif" font-size="14.00">…</text>
<polygon fill="none" stroke="black" points="359.25,-16 359.25,-128 454.25,-128 454.25,-16 359.25,-16"/>
</g>
<!-- y&#45;&gt;yk -->
<g id="edge12" class="edge">
<title>y&#45;&gt;yk</title>
<path fill="none" stroke="black" d="M495.23,-175.21C484.81,-162.92 472.94,-148.92 461.38,-135.28"/>
<polygon fill="black" stroke="black" points="464.36,-133.38 455.22,-128.01 459.02,-137.9 464.36,-133.38"/>
</g>
<!-- w -->
<g id="node3" class="node">
<title>w</title>
<polygon fill="#d5f5e3" stroke="none" points="120,-204 120,-280 205,-280 205,-204 120,-204"/>
<polygon fill="none" stroke="black" points="123,-243 123,-277 168,-277 168,-243 123,-243"/>
<text text-anchor="start" x="131.62" y="-255.7" font-family="Times,serif" font-size="14.00">w</text>
<text text-anchor="start" x="141.38" y="-255.7" font-family="Times,serif" baseline-shift="sub" font-size="14.00">m,n</text>
<polygon fill="none" stroke="black" points="170,-243 170,-277 202,-277 202,-243 170,-243"/>
<text text-anchor="start" x="178.88" y="-254.7" font-family="Times,serif" font-size="14.00">…</text>
<polygon fill="none" stroke="black" points="123,-207 123,-241 168,-241 168,-207 123,-207"/>
<text text-anchor="start" x="138.38" y="-218.7" font-family="Times,serif" font-size="14.00">…</text>
<polygon fill="none" stroke="black" points="170,-207 170,-241 202,-241 202,-207 170,-207"/>
<text text-anchor="start" x="179.25" y="-217.45" font-family="Times,serif" font-size="14.00">⋱</text>
<polygon fill="none" stroke="black" points="120,-204 120,-280 205,-280 205,-204 120,-204"/>
</g>
<!-- b -->
<g id="node4" class="node">
<title>b</title>
<polygon fill="#d5f5e3" stroke="none" points="127,-145.75 127,-186.25 198,-186.25 198,-145.75 127,-145.75"/>
<polygon fill="none" stroke="black" points="130,-148.75 130,-183.25 160.75,-183.25 160.75,-148.75 130,-148.75"/>
<text text-anchor="start" x="139" y="-161.95" font-family="Times,serif" font-size="14.00">b</text>
<text text-anchor="start" x="145.75" y="-161.95" font-family="Times,serif" baseline-shift="sub" font-size="14.00">n</text>
<polygon fill="none" stroke="black" points="162.75,-148.75 162.75,-183.25 195,-183.25 195,-148.75 162.75,-148.75"/>
<text text-anchor="start" x="171.75" y="-160.95" font-family="Times,serif" font-size="14.00">…</text>
<polygon fill="none" stroke="black" points="127,-145.75 127,-186.25 198,-186.25 198,-145.75 127,-145.75"/>
</g>
<!-- x0 -->
<g id="node5" class="node">
<title>x0</title>
<polygon fill="#d6eaf8" stroke="none" points="121.5,-298 121.5,-410 203.5,-410 203.5,-298 121.5,-298"/>
<polygon fill="none" stroke="black" points="124.5,-373 124.5,-407 166.5,-407 166.5,-373 124.5,-373"/>
<text text-anchor="start" x="133.12" y="-385.7" font-family="Times,serif" font-size="14.00">x</text>
<text text-anchor="start" x="139.88" y="-385.7" font-family="Times,serif" baseline-shift="sub" font-size="14.00">0,m</text>
<polygon fill="none" stroke="black" points="168.5,-373 168.5,-407 200.5,-407 200.5,-373 168.5,-373"/>
<text text-anchor="start" x="177.38" y="-384.7" font-family="Times,serif" font-size="14.00">…</text>
<polygon fill="none" stroke="black" points="124.5,-337 124.5,-371 166.5,-371 166.5,-337 124.5,-337"/>
<text text-anchor="start" x="138.38" y="-348.7" font-family="Times,serif" font-size="14.00">…</text>
<polygon fill="none" stroke="black" points="168.5,-337 168.5,-371 200.5,-371 200.5,-337 168.5,-337"/>
<text text-anchor="start" x="177.38" y="-348.7" font-family="Times,serif" font-size="14.00">…</text>
<polygon fill="none" stroke="black" points="124.5,-301 124.5,-335 166.5,-335 166.5,-301 124.5,-301"/>
<text text-anchor="start" x="133.12" y="-313.7" font-family="Times,serif" font-size="14.00">x</text>
<text text-anchor="start" x="139.88" y="-313.7" font-family="Times,serif" baseline-shift="sub" font-size="14.00">k,m</text>
<polygon fill="none" stroke="black" points="168.5,-301 168.5,-335 200.5,-335 200.5,-301 168.5,-301"/>
<text text-anchor="start" x="177.38" y="-312.7" font-family="Times,serif" font-size="14.00">…</text>
<polygon fill="none" stroke="black" points="121.5,-298 121.5,-410 203.5,-410 203.5,-298 121.5,-298"/>
</g>
<!-- x0&#45;&gt;x -->
<g id="edge9" class="edge">
<title>x0&#45;&gt;x</title>
<path fill="none" stroke="black" d="M121.54,-307.44C108.19,-291.87 93.31,-274.54 79.99,-259.01"/>
<polygon fill="black" stroke="black" points="82.92,-257.06 73.75,-251.75 77.61,-261.62 82.92,-257.06"/>
</g>
<!-- op0 -->
<g id="node6" class="node">
<title>op0</title>
<polygon fill="#e5e8e8" stroke="black" points="305.25,-374.25 246,-374.25 246,-333.75 305.25,-333.75 305.25,-327.75 323.25,-354 305.25,-380.25 305.25,-374.25"/>
<text text-anchor="start" x="264" y="-349.95" font-family="Times,serif" font-size="14.00">Linear</text>
<text text-anchor="start" x="299.25" y="-349.95" font-family="Times,serif" baseline-shift="sub" font-size="14.00">0</text>
</g>
<!-- op0&#45;&gt;w -->
<g id="edge5" class="edge">
<title>op0&#45;&gt;w</title>
<path fill="none" stroke="black" d="M255.16,-327.46C242.4,-315.56 226.98,-301.19 212.46,-287.65"/>
<polygon fill="black" stroke="black" points="214.85,-285.09 205.15,-280.83 210.07,-290.21 214.85,-285.09"/>
</g>
<!-- op0&#45;&gt;b -->
<g id="edge7" class="edge">
<title>op0&#45;&gt;b</title>
<path fill="none" stroke="black" d="M276.5,-327.43C266.34,-293.53 244.94,-234.56 210,-195 208.9,-193.75 207.73,-192.54 206.51,-191.36"/>
<polygon fill="black" stroke="black" points="208.92,-188.82 199,-185.1 204.44,-194.19 208.92,-188.82"/>
</g>
<!-- op0&#45;&gt;x0 -->
<g id="edge1" class="edge">
<title>op0&#45;&gt;x0</title>
<path fill="none" stroke="black" d="M245.62,-354C235.83,-354 225.13,-354 214.79,-354"/>
<polygon fill="black" stroke="black" points="214.85,-350.5 204.85,-354 214.85,-357.5 214.85,-350.5"/>
</g>
<!-- y0&#45;&gt;op0 -->
<g id="edge2" class="edge">
<title>y0&#45;&gt;op0</title>
<path fill="none" stroke="black" d="M367.41,-354C357.12,-354 345.86,-354 335.06,-354"/>
<polygon fill="black" stroke="black" points="335.11,-350.5 325.11,-354 335.11,-357.5 335.11,-350.5"/>
</g>
<!-- xk -->
<g id="node8" class="node">
<title>xk</title>
<polygon fill="#ebdef0" stroke="none" points="115,-16 115,-128 210,-128 210,-16 115,-16"/>
<polygon fill="none" stroke="black" points="118,-91 118,-125 173,-125 173,-91 118,-91"/>
<text text-anchor="start" x="126.75" y="-103.7" font-family="Times,serif" font-size="14.00">x</text>
<text text-anchor="start" x="133.5" y="-103.7" font-family="Times,serif" baseline-shift="sub" font-size="14.00">k+1,m</text>
<polygon fill="none" stroke="black" points="175,-91 175,-125 207,-125 207,-91 175,-91"/>
<text text-anchor="start" x="183.88" y="-102.7" font-family="Times,serif" font-size="14.00">…</text>
<polygon fill="none" stroke="black" points="118,-55 118,-89 173,-89 173,-55 118,-55"/>
<text text-anchor="start" x="138.38" y="-66.7" font-family="Times,serif" font-size="14.00">…</text>
<polygon fill="none" stroke="black" points="175,-55 175,-89 207,-89 207,-55 175,-55"/>
<text text-anchor="start" x="183.88" y="-66.7" font-family="Times,serif" font-size="14.00">…</text>
<polygon fill="none" stroke="black" points="118,-19 118,-53 173,-53 173,-19 118,-19"/>
<text text-anchor="start" x="134.62" y="-31.7" font-family="Times,serif" font-size="14.00">x</text>
<text text-anchor="start" x="141.38" y="-31.7" font-family="Times,serif" baseline-shift="sub" font-size="14.00">i,m</text>
<polygon fill="none" stroke="black" points="175,-19 175,-53 207,-53 207,-19 175,-19"/>
<text text-anchor="start" x="183.88" y="-30.7" font-family="Times,serif" font-size="14.00">…</text>
<polygon fill="none" stroke="black" points="115,-16 115,-128 210,-128 210,-16 115,-16"/>
</g>
<!-- xk&#45;&gt;x -->
<g id="edge10" class="edge">
<title>xk&#45;&gt;x</title>
<path fill="none" stroke="black" d="M115.06,-126.11C103.47,-139.62 91.16,-153.97 79.94,-167.04"/>
<polygon fill="black" stroke="black" points="77.59,-164.41 73.73,-174.27 82.9,-168.96 77.59,-164.41"/>
</g>
<!-- opk -->
<g id="node10" class="node">
<title>opk</title>
<polygon fill="#e5e8e8" stroke="black" points="305.25,-92.25 246,-92.25 246,-51.75 305.25,-51.75 305.25,-45.75 323.25,-72 305.25,-98.25 305.25,-92.25"/>
<text text-anchor="start" x="264" y="-67.95" font-family="Times,serif" font-size="14.00">Linear</text>
<text text-anchor="start" x="299.25" y="-67.95" font-family="Times,serif" baseline-shift="sub" font-size="14.00">1</text>
</g>
<!-- yk&#45;&gt;opk -->
<g id="edge4" class="edge">
<title>yk&#45;&gt;opk</title>
<path fill="none" stroke="black" d="M359.31,-72C351.23,-72 342.8,-72 334.66,-72"/>
<polygon fill="black" stroke="black" points="334.91,-68.5 324.91,-72 334.91,-75.5 334.91,-68.5"/>
</g>
<!-- opk&#45;&gt;w -->
<g id="edge6" class="edge">
<title>opk&#45;&gt;w</title>
<path fill="none" stroke="black" d="M270.11,-98.61C256.5,-124.36 234.1,-163.93 210,-195 209.85,-195.19 209.7,-195.39 209.55,-195.58"/>
<polygon fill="black" stroke="black" points="207.03,-193.13 203.33,-203.06 212.41,-197.61 207.03,-193.13"/>
</g>
<!-- opk&#45;&gt;b -->
<g id="edge8" class="edge">
<title>opk&#45;&gt;b</title>
<path fill="none" stroke="black" d="M258.01,-98.47C244.42,-111.77 227.04,-127.63 210,-140 209.03,-140.71 208.03,-141.41 207.02,-142.1"/>
<polygon fill="black" stroke="black" points="205.39,-138.99 198.88,-147.34 209.18,-144.87 205.39,-138.99"/>
</g>
<!-- opk&#45;&gt;xk -->
<g id="edge3" class="edge">
<title>opk&#45;&gt;xk</title>
<path fill="none" stroke="black" d="M245.62,-72C237.77,-72 229.34,-72 220.98,-72"/>
<polygon fill="black" stroke="black" points="221.2,-68.5 211.2,-72 221.2,-75.5 221.2,-68.5"/>
</g>
</g>
</svg>
