<?xml version="1.0" encoding="UTF-8" standalone="no"?>
<!DOCTYPE svg PUBLIC "-//W3C//DTD SVG 1.1//EN"
 "http://www.w3.org/Graphics/SVG/1.1/DTD/svg11.dtd">
<!-- Generated by graphviz version 9.0.0 (20230911.1827)
 -->
<!-- Title: D Pages: 1 -->
<svg width="897pt" height="206pt"
 viewBox="0.00 0.00 897.14 206.00" xmlns="http://www.w3.org/2000/svg" xmlns:xlink="http://www.w3.org/1999/xlink">
<g id="graph0" class="graph" transform="scale(1 1) rotate(0) translate(4 202)">
<title>D</title>
<polygon fill="white" stroke="none" points="-4,4 -4,-202 893.14,-202 893.14,4 -4,4"/>
<!-- X -->
<g id="node1" class="node">
<title>X</title>
<polygon fill="#d0d0ff" stroke="black" points="54,-117 4,-117 0,-113 0,-81 50,-81 54,-85 54,-117"/>
<polyline fill="none" stroke="black" points="50,-113 0,-113"/>
<polyline fill="none" stroke="black" points="50,-113 50,-81"/>
<polyline fill="none" stroke="black" points="50,-113 54,-117"/>
<text text-anchor="middle" x="27" y="-93.95" font-family="Times,serif" font-size="14.00">X</text>
</g>
<!-- X_1 -->
<g id="node2" class="node">
<title>X_1</title>
<polygon fill="#d0d0ff" stroke="black" points="282.69,-198 232.69,-198 228.69,-194 228.69,-162 278.69,-162 282.69,-166 282.69,-198"/>
<polyline fill="none" stroke="black" points="278.69,-194 228.69,-194"/>
<polyline fill="none" stroke="black" points="278.69,-194 278.69,-162"/>
<polyline fill="none" stroke="black" points="278.69,-194 282.69,-198"/>
<text text-anchor="start" x="247.82" y="-175.95" font-family="Times,serif" font-size="14.00">X</text>
<text text-anchor="start" x="257.57" y="-175.95" font-family="Times,serif" baseline-shift="sub" font-size="14.00">1</text>
</g>
<!-- SX1 -->
<g id="node15" class="node">
<title>SX1</title>
<polygon fill="#a0d0d0" stroke="black" points="192.69,-171 111.01,-171 90,-135 171.68,-135 192.69,-171"/>
<text text-anchor="start" x="110.22" y="-147.95" font-family="Times,serif" font-size="14.00">slice[:, 0:k]</text>
</g>
<!-- X_1&#45;&gt;SX1 -->
<g id="edge3" class="edge">
<title>X_1&#45;&gt;SX1</title>
<path fill="none" stroke="black" d="M228.35,-173.67C219.87,-171.63 210.11,-169.29 200.28,-166.92"/>
<polygon fill="black" stroke="black" points="201.22,-163.55 190.68,-164.62 199.59,-170.36 201.22,-163.55"/>
</g>
<!-- X_2 -->
<g id="node3" class="node">
<title>X_2</title>
<polygon fill="#d0d0ff" stroke="black" points="282.69,-36 232.69,-36 228.69,-32 228.69,0 278.69,0 282.69,-4 282.69,-36"/>
<polyline fill="none" stroke="black" points="278.69,-32 228.69,-32"/>
<polyline fill="none" stroke="black" points="278.69,-32 278.69,0"/>
<polyline fill="none" stroke="black" points="278.69,-32 282.69,-36"/>
<text text-anchor="start" x="247.82" y="-13.95" font-family="Times,serif" font-size="14.00">X</text>
<text text-anchor="start" x="257.57" y="-13.95" font-family="Times,serif" baseline-shift="sub" font-size="14.00">2</text>
</g>
<!-- SX2 -->
<g id="node16" class="node">
<title>SX2</title>
<polygon fill="#a0d0d0" stroke="black" points="192.69,-90 111.01,-90 90,-54 171.68,-54 192.69,-90"/>
<text text-anchor="start" x="110.22" y="-66.95" font-family="Times,serif" font-size="14.00">slice[:, k:0]</text>
</g>
<!-- X_2&#45;&gt;SX2 -->
<g id="edge4" class="edge">
<title>X_2&#45;&gt;SX2</title>
<path fill="none" stroke="black" d="M228.35,-30.66C215.07,-37.04 198.66,-44.93 183.74,-52.1"/>
<polygon fill="black" stroke="black" points="182.57,-48.78 175.08,-56.27 185.61,-55.09 182.57,-48.78"/>
</g>
<!-- W -->
<g id="node4" class="node">
<title>W</title>
<polygon fill="#d0d0ff" stroke="black" points="282.69,-144 232.69,-144 228.69,-140 228.69,-108 278.69,-108 282.69,-112 282.69,-144"/>
<polyline fill="none" stroke="black" points="278.69,-140 228.69,-140"/>
<polyline fill="none" stroke="black" points="278.69,-140 278.69,-108"/>
<polyline fill="none" stroke="black" points="278.69,-140 282.69,-144"/>
<text text-anchor="middle" x="255.69" y="-120.95" font-family="Times,serif" font-size="14.00">W</text>
</g>
<!-- b -->
<g id="node5" class="node">
<title>b</title>
<polygon fill="#d0d0ff" stroke="black" points="282.69,-90 232.69,-90 228.69,-86 228.69,-54 278.69,-54 282.69,-58 282.69,-90"/>
<polyline fill="none" stroke="black" points="278.69,-86 228.69,-86"/>
<polyline fill="none" stroke="black" points="278.69,-86 278.69,-54"/>
<polyline fill="none" stroke="black" points="278.69,-86 282.69,-90"/>
<text text-anchor="middle" x="255.69" y="-66.95" font-family="Times,serif" font-size="14.00">b</text>
</g>
<!-- Z_1 -->
<g id="node6" class="node">
<title>Z_1</title>
<polygon fill="#d0d0ff" stroke="black" points="485.94,-152 435.94,-152 431.94,-148 431.94,-116 481.94,-116 485.94,-120 485.94,-152"/>
<polyline fill="none" stroke="black" points="481.94,-148 431.94,-148"/>
<polyline fill="none" stroke="black" points="481.94,-148 481.94,-116"/>
<polyline fill="none" stroke="black" points="481.94,-148 485.94,-152"/>
<text text-anchor="start" x="451.82" y="-129.95" font-family="Times,serif" font-size="14.00">Z</text>
<text text-anchor="start" x="460.07" y="-129.95" font-family="Times,serif" baseline-shift="sub" font-size="14.00">1</text>
</g>
<!-- Linear_1 -->
<g id="node11" class="node">
<title>Linear_1</title>
<polygon fill="#e5e8e8" stroke="black" points="377.94,-154.25 318.69,-154.25 318.69,-113.75 377.94,-113.75 377.94,-107.75 395.94,-134 377.94,-160.25 377.94,-154.25"/>
<text text-anchor="start" x="336.69" y="-129.95" font-family="Times,serif" font-size="14.00">Linear</text>
<text text-anchor="start" x="371.94" y="-129.95" font-family="Times,serif" baseline-shift="sub" font-size="14.00">1</text>
</g>
<!-- Z_1&#45;&gt;Linear_1 -->
<g id="edge8" class="edge">
<title>Z_1&#45;&gt;Linear_1</title>
<path fill="none" stroke="black" d="M431.51,-134C424.05,-134 415.7,-134 407.38,-134"/>
<polygon fill="black" stroke="black" points="407.64,-130.5 397.64,-134 407.64,-137.5 407.64,-130.5"/>
</g>
<!-- Z_2 -->
<g id="node7" class="node">
<title>Z_2</title>
<polygon fill="#d0d0ff" stroke="black" points="485.94,-81 435.94,-81 431.94,-77 431.94,-45 481.94,-45 485.94,-49 485.94,-81"/>
<polyline fill="none" stroke="black" points="481.94,-77 431.94,-77"/>
<polyline fill="none" stroke="black" points="481.94,-77 481.94,-45"/>
<polyline fill="none" stroke="black" points="481.94,-77 485.94,-81"/>
<text text-anchor="start" x="451.82" y="-58.95" font-family="Times,serif" font-size="14.00">Z</text>
<text text-anchor="start" x="460.07" y="-58.95" font-family="Times,serif" baseline-shift="sub" font-size="14.00">2</text>
</g>
<!-- Linear_2 -->
<g id="node12" class="node">
<title>Linear_2</title>
<polygon fill="#e5e8e8" stroke="black" points="377.94,-83.25 318.69,-83.25 318.69,-42.75 377.94,-42.75 377.94,-36.75 395.94,-63 377.94,-89.25 377.94,-83.25"/>
<text text-anchor="start" x="336.69" y="-58.95" font-family="Times,serif" font-size="14.00">Linear</text>
<text text-anchor="start" x="371.94" y="-58.95" font-family="Times,serif" baseline-shift="sub" font-size="14.00">2</text>
</g>
<!-- Z_2&#45;&gt;Linear_2 -->
<g id="edge14" class="edge">
<title>Z_2&#45;&gt;Linear_2</title>
<path fill="none" stroke="black" d="M431.51,-63C424.05,-63 415.7,-63 407.38,-63"/>
<polygon fill="black" stroke="black" points="407.64,-59.5 397.64,-63 407.64,-66.5 407.64,-59.5"/>
</g>
<!-- Y -->
<g id="node8" class="node">
<title>Y</title>
<polygon fill="#d0d0ff" stroke="black" points="889.14,-116 839.14,-116 835.14,-112 835.14,-80 885.14,-80 889.14,-84 889.14,-116"/>
<polyline fill="none" stroke="black" points="885.14,-112 835.14,-112"/>
<polyline fill="none" stroke="black" points="885.14,-112 885.14,-80"/>
<polyline fill="none" stroke="black" points="885.14,-112 889.14,-116"/>
<text text-anchor="middle" x="862.14" y="-92.95" font-family="Times,serif" font-size="14.00">Y</text>
</g>
<!-- SY -->
<g id="node17" class="node">
<title>SY</title>
<polygon fill="#a0d0d0" stroke="black" points="799.14,-131 738.53,-131 722.94,-65 783.55,-65 799.14,-131"/>
<text text-anchor="start" x="743.42" y="-101.2" font-family="Times,serif" font-size="14.00">concat</text>
<text text-anchor="start" x="742.67" y="-84.7" font-family="Times,serif" font-size="14.00">dim=0</text>
</g>
<!-- Y&#45;&gt;SY -->
<g id="edge19" class="edge">
<title>Y&#45;&gt;SY</title>
<path fill="none" stroke="black" d="M834.85,-98C825.08,-98 813.75,-98 802.98,-98"/>
<polygon fill="black" stroke="black" points="803.13,-94.5 793.13,-98 803.13,-101.5 803.13,-94.5"/>
</g>
<!-- Y_1 -->
<g id="node9" class="node">
<title>Y_1</title>
<polygon fill="#d0d0ff" stroke="black" points="686.94,-147 636.94,-147 632.94,-143 632.94,-111 682.94,-111 686.94,-115 686.94,-147"/>
<polyline fill="none" stroke="black" points="682.94,-143 632.94,-143"/>
<polyline fill="none" stroke="black" points="682.94,-143 682.94,-111"/>
<polyline fill="none" stroke="black" points="682.94,-143 686.94,-147"/>
<text text-anchor="start" x="652.07" y="-124.95" font-family="Times,serif" font-size="14.00">Y</text>
<text text-anchor="start" x="661.82" y="-124.95" font-family="Times,serif" baseline-shift="sub" font-size="14.00">1</text>
</g>
<!-- ReLU_1 -->
<g id="node13" class="node">
<title>ReLU_1</title>
<polygon fill="#e5e8e8" stroke="black" points="578.94,-154.25 521.94,-154.25 521.94,-113.75 578.94,-113.75 578.94,-107.75 596.94,-134 578.94,-160.25 578.94,-154.25"/>
<text text-anchor="start" x="539.94" y="-129.95" font-family="Times,serif" font-size="14.00">ReLU</text>
<text text-anchor="start" x="572.94" y="-129.95" font-family="Times,serif" baseline-shift="sub" font-size="14.00">1</text>
</g>
<!-- Y_1&#45;&gt;ReLU_1 -->
<g id="edge10" class="edge">
<title>Y_1&#45;&gt;ReLU_1</title>
<path fill="none" stroke="black" d="M632.55,-130.34C625.19,-130.71 616.95,-131.13 608.75,-131.55"/>
<polygon fill="black" stroke="black" points="608.6,-128.05 598.79,-132.05 608.96,-135.04 608.6,-128.05"/>
</g>
<!-- Y_2 -->
<g id="node10" class="node">
<title>Y_2</title>
<polygon fill="#d0d0ff" stroke="black" points="686.94,-89 636.94,-89 632.94,-85 632.94,-53 682.94,-53 686.94,-57 686.94,-89"/>
<polyline fill="none" stroke="black" points="682.94,-85 632.94,-85"/>
<polyline fill="none" stroke="black" points="682.94,-85 682.94,-53"/>
<polyline fill="none" stroke="black" points="682.94,-85 686.94,-89"/>
<text text-anchor="start" x="652.07" y="-66.95" font-family="Times,serif" font-size="14.00">Y</text>
<text text-anchor="start" x="661.82" y="-66.95" font-family="Times,serif" baseline-shift="sub" font-size="14.00">2</text>
</g>
<!-- ReLU_2 -->
<g id="node14" class="node">
<title>ReLU_2</title>
<polygon fill="#e5e8e8" stroke="black" points="578.94,-83.25 521.94,-83.25 521.94,-42.75 578.94,-42.75 578.94,-36.75 596.94,-63 578.94,-89.25 578.94,-83.25"/>
<text text-anchor="start" x="539.94" y="-58.95" font-family="Times,serif" font-size="14.00">ReLU</text>
<text text-anchor="start" x="572.94" y="-58.95" font-family="Times,serif" baseline-shift="sub" font-size="14.00">2</text>
</g>
<!-- Y_2&#45;&gt;ReLU_2 -->
<g id="edge16" class="edge">
<title>Y_2&#45;&gt;ReLU_2</title>
<path fill="none" stroke="black" d="M632.55,-68.86C625.19,-68.26 616.95,-67.59 608.75,-66.92"/>
<polygon fill="black" stroke="black" points="609.04,-63.44 598.79,-66.11 608.47,-70.41 609.04,-63.44"/>
</g>
<!-- Linear_1&#45;&gt;X_1 -->
<g id="edge5" class="edge">
<title>Linear_1&#45;&gt;X_1</title>
<path fill="none" stroke="black" d="M318.37,-151.52C310.19,-155.3 301.55,-159.29 293.42,-163.04"/>
<polygon fill="black" stroke="black" points="292.08,-159.81 284.47,-167.18 295.01,-166.16 292.08,-159.81"/>
</g>
<!-- Linear_1&#45;&gt;W -->
<g id="edge6" class="edge">
<title>Linear_1&#45;&gt;W</title>
<path fill="none" stroke="black" d="M318.37,-130.95C310.55,-130.33 302.33,-129.66 294.52,-129.04"/>
<polygon fill="black" stroke="black" points="294.85,-125.55 284.6,-128.24 294.29,-132.53 294.85,-125.55"/>
</g>
<!-- Linear_1&#45;&gt;b -->
<g id="edge7" class="edge">
<title>Linear_1&#45;&gt;b</title>
<path fill="none" stroke="black" d="M318.37,-110.38C309.91,-105.12 300.97,-99.55 292.6,-94.34"/>
<polygon fill="black" stroke="black" points="294.72,-91.54 284.38,-89.23 291.02,-97.48 294.72,-91.54"/>
</g>
<!-- Linear_2&#45;&gt;X_2 -->
<g id="edge11" class="edge">
<title>Linear_2&#45;&gt;X_2</title>
<path fill="none" stroke="black" d="M318.37,-45.86C310.19,-42.16 301.55,-38.26 293.42,-34.59"/>
<polygon fill="black" stroke="black" points="295.03,-31.47 284.47,-30.55 292.14,-37.85 295.03,-31.47"/>
</g>
<!-- Linear_2&#45;&gt;W -->
<g id="edge12" class="edge">
<title>Linear_2&#45;&gt;W</title>
<path fill="none" stroke="black" d="M318.37,-87C309.91,-92.35 300.97,-98 292.6,-103.3"/>
<polygon fill="black" stroke="black" points="290.95,-100.19 284.37,-108.5 294.69,-106.11 290.95,-100.19"/>
</g>
<!-- Linear_2&#45;&gt;b -->
<g id="edge13" class="edge">
<title>Linear_2&#45;&gt;b</title>
<path fill="none" stroke="black" d="M318.37,-66.43C310.55,-67.13 302.33,-67.88 294.52,-68.58"/>
<polygon fill="black" stroke="black" points="294.24,-65.09 284.6,-69.48 294.87,-72.06 294.24,-65.09"/>
</g>
<!-- ReLU_1&#45;&gt;Z_1 -->
<g id="edge9" class="edge">
<title>ReLU_1&#45;&gt;Z_1</title>
<path fill="none" stroke="black" d="M521.48,-134C513.73,-134 505.53,-134 497.75,-134"/>
<polygon fill="black" stroke="black" points="497.86,-130.5 487.86,-134 497.86,-137.5 497.86,-130.5"/>
</g>
<!-- ReLU_2&#45;&gt;Z_2 -->
<g id="edge15" class="edge">
<title>ReLU_2&#45;&gt;Z_2</title>
<path fill="none" stroke="black" d="M521.48,-63C513.73,-63 505.53,-63 497.75,-63"/>
<polygon fill="black" stroke="black" points="497.86,-59.5 487.86,-63 497.86,-66.5 497.86,-59.5"/>
</g>
<!-- SX1&#45;&gt;X -->
<g id="edge1" class="edge">
<title>SX1&#45;&gt;X</title>
<path fill="none" stroke="black" d="M102,-134.57C89.8,-128.71 76.36,-122.25 64.32,-116.46"/>
<polygon fill="black" stroke="black" points="66.05,-113.41 55.52,-112.23 63.02,-119.72 66.05,-113.41"/>
</g>
<!-- SX2&#45;&gt;X -->
<g id="edge2" class="edge">
<title>SX2&#45;&gt;X</title>
<path fill="none" stroke="black" d="M105.11,-80.47C92.37,-83.53 77.95,-87 65.05,-90.09"/>
<polygon fill="black" stroke="black" points="64.58,-86.61 55.67,-92.35 66.21,-93.42 64.58,-86.61"/>
</g>
<!-- SY&#45;&gt;Y_1 -->
<g id="edge17" class="edge">
<title>SY&#45;&gt;Y_1</title>
<path fill="none" stroke="black" d="M732.44,-106.64C721.87,-109.94 709.64,-113.77 698.31,-117.31"/>
<polygon fill="black" stroke="black" points="697.32,-113.95 688.82,-120.28 699.41,-120.63 697.32,-113.95"/>
</g>
<!-- SY&#45;&gt;Y_2 -->
<g id="edge18" class="edge">
<title>SY&#45;&gt;Y_2</title>
<path fill="none" stroke="black" d="M728.41,-89.38C718.78,-86.76 708.11,-83.85 698.15,-81.14"/>
<polygon fill="black" stroke="black" points="699.32,-77.83 688.75,-78.58 697.48,-84.58 699.32,-77.83"/>
</g>
</g>
</svg>
