<?xml version="1.0" encoding="UTF-8" standalone="no"?>
<!DOCTYPE svg PUBLIC "-//W3C//DTD SVG 1.1//EN"
 "http://www.w3.org/Graphics/SVG/1.1/DTD/svg11.dtd">
<!-- Generated by graphviz version 9.0.0 (20230911.1827)
 -->
<!-- Title: D Pages: 1 -->
<svg width="891pt" height="206pt"
 viewBox="0.00 0.00 891.14 206.00" xmlns="http://www.w3.org/2000/svg" xmlns:xlink="http://www.w3.org/1999/xlink">
<g id="graph0" class="graph" transform="scale(1 1) rotate(0) translate(4 202)">
<title>D</title>
<polygon fill="white" stroke="none" points="-4,4 -4,-202 887.14,-202 887.14,4 -4,4"/>
<!-- X -->
<g id="node1" class="node">
<title>X</title>
<polygon fill="#d0d0ff" stroke="black" points="54,-117 4,-117 0,-113 0,-81 50,-81 54,-85 54,-117"/>
<polyline fill="none" stroke="black" points="50,-113 0,-113"/>
<polyline fill="none" stroke="black" points="50,-113 50,-81"/>
<polyline fill="none" stroke="black" points="50,-113 54,-117"/>
<text text-anchor="middle" x="27" y="-93.95" font-family="Times,serif" font-size="14.00">X</text>
</g>
<!-- X_1 -->
<g id="node2" class="node">
<title>X_1</title>
<polygon fill="#d0d0ff" stroke="black" points="282.69,-198 232.69,-198 228.69,-194 228.69,-162 278.69,-162 282.69,-166 282.69,-198"/>
<polyline fill="none" stroke="black" points="278.69,-194 228.69,-194"/>
<polyline fill="none" stroke="black" points="278.69,-194 278.69,-162"/>
<polyline fill="none" stroke="black" points="278.69,-194 282.69,-198"/>
<text text-anchor="start" x="247.82" y="-175.95" font-family="Times,serif" font-size="14.00">X</text>
<text text-anchor="start" x="257.57" y="-175.95" font-family="Times,serif" baseline-shift="sub" font-size="14.00">1</text>
</g>
<!-- SX0 -->
<g id="node13" class="node">
<title>SX0</title>
<polygon fill="#a0d0d0" stroke="black" points="192.69,-171 111.01,-171 90,-135 171.68,-135 192.69,-171"/>
<text text-anchor="start" x="110.22" y="-147.95" font-family="Times,serif" font-size="14.00">slice[:, 0:k]</text>
</g>
<!-- X_1&#45;&gt;SX0 -->
<g id="edge3" class="edge">
<title>X_1&#45;&gt;SX0</title>
<path fill="none" stroke="black" d="M228.35,-173.67C219.87,-171.63 210.11,-169.29 200.28,-166.92"/>
<polygon fill="black" stroke="black" points="201.22,-163.55 190.68,-164.62 199.59,-170.36 201.22,-163.55"/>
</g>
<!-- X_2 -->
<g id="node3" class="node">
<title>X_2</title>
<polygon fill="#d0d0ff" stroke="black" points="282.69,-36 232.69,-36 228.69,-32 228.69,0 278.69,0 282.69,-4 282.69,-36"/>
<polyline fill="none" stroke="black" points="278.69,-32 228.69,-32"/>
<polyline fill="none" stroke="black" points="278.69,-32 278.69,0"/>
<polyline fill="none" stroke="black" points="278.69,-32 282.69,-36"/>
<text text-anchor="start" x="247.82" y="-13.95" font-family="Times,serif" font-size="14.00">X</text>
<text text-anchor="start" x="257.57" y="-13.95" font-family="Times,serif" baseline-shift="sub" font-size="14.00">2</text>
</g>
<!-- SX1 -->
<g id="node14" class="node">
<title>SX1</title>
<polygon fill="#a0d0d0" stroke="black" points="192.69,-90 111.01,-90 90,-54 171.68,-54 192.69,-90"/>
<text text-anchor="start" x="110.22" y="-66.95" font-family="Times,serif" font-size="14.00">slice[:, k:0]</text>
</g>
<!-- X_2&#45;&gt;SX1 -->
<g id="edge4" class="edge">
<title>X_2&#45;&gt;SX1</title>
<path fill="none" stroke="black" d="M228.35,-30.66C215.07,-37.04 198.66,-44.93 183.74,-52.1"/>
<polygon fill="black" stroke="black" points="182.57,-48.78 175.08,-56.27 185.61,-55.09 182.57,-48.78"/>
</g>
<!-- W -->
<g id="node4" class="node">
<title>W</title>
<polygon fill="#d0d0ff" stroke="black" points="282.69,-144 232.69,-144 228.69,-140 228.69,-108 278.69,-108 282.69,-112 282.69,-144"/>
<polyline fill="none" stroke="black" points="278.69,-140 228.69,-140"/>
<polyline fill="none" stroke="black" points="278.69,-140 278.69,-108"/>
<polyline fill="none" stroke="black" points="278.69,-140 282.69,-144"/>
<text text-anchor="middle" x="255.69" y="-120.95" font-family="Times,serif" font-size="14.00">W</text>
</g>
<!-- b -->
<g id="node5" class="node">
<title>b</title>
<polygon fill="#d0d0ff" stroke="black" points="282.69,-90 232.69,-90 228.69,-86 228.69,-54 278.69,-54 282.69,-58 282.69,-90"/>
<polyline fill="none" stroke="black" points="278.69,-86 228.69,-86"/>
<polyline fill="none" stroke="black" points="278.69,-86 278.69,-54"/>
<polyline fill="none" stroke="black" points="278.69,-86 282.69,-90"/>
<text text-anchor="middle" x="255.69" y="-66.95" font-family="Times,serif" font-size="14.00">b</text>
</g>
<!-- Z -->
<g id="node6" class="node">
<title>Z</title>
<polygon fill="#d0d0ff" stroke="black" points="688.14,-116 638.14,-116 634.14,-112 634.14,-80 684.14,-80 688.14,-84 688.14,-116"/>
<polyline fill="none" stroke="black" points="684.14,-112 634.14,-112"/>
<polyline fill="none" stroke="black" points="684.14,-112 684.14,-80"/>
<polyline fill="none" stroke="black" points="684.14,-112 688.14,-116"/>
<text text-anchor="middle" x="661.14" y="-92.95" font-family="Times,serif" font-size="14.00">Z</text>
</g>
<!-- SZ -->
<g id="node15" class="node">
<title>SZ</title>
<polygon fill="#a0d0d0" stroke="black" points="598.14,-131 537.53,-131 521.94,-65 582.55,-65 598.14,-131"/>
<text text-anchor="start" x="542.42" y="-101.2" font-family="Times,serif" font-size="14.00">concat</text>
<text text-anchor="start" x="541.67" y="-84.7" font-family="Times,serif" font-size="14.00">dim=0</text>
</g>
<!-- Z&#45;&gt;SZ -->
<g id="edge15" class="edge">
<title>Z&#45;&gt;SZ</title>
<path fill="none" stroke="black" d="M633.85,-98C624.08,-98 612.75,-98 601.98,-98"/>
<polygon fill="black" stroke="black" points="602.13,-94.5 592.13,-98 602.13,-101.5 602.13,-94.5"/>
</g>
<!-- Z_1 -->
<g id="node7" class="node">
<title>Z_1</title>
<polygon fill="#d0d0ff" stroke="black" points="485.94,-147 435.94,-147 431.94,-143 431.94,-111 481.94,-111 485.94,-115 485.94,-147"/>
<polyline fill="none" stroke="black" points="481.94,-143 431.94,-143"/>
<polyline fill="none" stroke="black" points="481.94,-143 481.94,-111"/>
<polyline fill="none" stroke="black" points="481.94,-143 485.94,-147"/>
<text text-anchor="start" x="451.82" y="-124.95" font-family="Times,serif" font-size="14.00">Z</text>
<text text-anchor="start" x="460.07" y="-124.95" font-family="Times,serif" baseline-shift="sub" font-size="14.00">1</text>
</g>
<!-- Linear_1 -->
<g id="node10" class="node">
<title>Linear_1</title>
<polygon fill="#e5e8e8" stroke="black" points="377.94,-154.25 318.69,-154.25 318.69,-113.75 377.94,-113.75 377.94,-107.75 395.94,-134 377.94,-160.25 377.94,-154.25"/>
<text text-anchor="start" x="336.69" y="-129.95" font-family="Times,serif" font-size="14.00">Linear</text>
<text text-anchor="start" x="371.94" y="-129.95" font-family="Times,serif" baseline-shift="sub" font-size="14.00">1</text>
</g>
<!-- Z_1&#45;&gt;Linear_1 -->
<g id="edge8" class="edge">
<title>Z_1&#45;&gt;Linear_1</title>
<path fill="none" stroke="black" d="M431.51,-130.33C424.05,-130.7 415.7,-131.12 407.38,-131.54"/>
<polygon fill="black" stroke="black" points="407.45,-128.03 397.64,-132.03 407.8,-135.02 407.45,-128.03"/>
</g>
<!-- Z_2 -->
<g id="node8" class="node">
<title>Z_2</title>
<polygon fill="#d0d0ff" stroke="black" points="485.94,-89 435.94,-89 431.94,-85 431.94,-53 481.94,-53 485.94,-57 485.94,-89"/>
<polyline fill="none" stroke="black" points="481.94,-85 431.94,-85"/>
<polyline fill="none" stroke="black" points="481.94,-85 481.94,-53"/>
<polyline fill="none" stroke="black" points="481.94,-85 485.94,-89"/>
<text text-anchor="start" x="451.82" y="-66.95" font-family="Times,serif" font-size="14.00">Z</text>
<text text-anchor="start" x="460.07" y="-66.95" font-family="Times,serif" baseline-shift="sub" font-size="14.00">2</text>
</g>
<!-- Linear_2 -->
<g id="node11" class="node">
<title>Linear_2</title>
<polygon fill="#e5e8e8" stroke="black" points="377.94,-83.25 318.69,-83.25 318.69,-42.75 377.94,-42.75 377.94,-36.75 395.94,-63 377.94,-89.25 377.94,-83.25"/>
<text text-anchor="start" x="336.69" y="-58.95" font-family="Times,serif" font-size="14.00">Linear</text>
<text text-anchor="start" x="371.94" y="-58.95" font-family="Times,serif" baseline-shift="sub" font-size="14.00">2</text>
</g>
<!-- Z_2&#45;&gt;Linear_2 -->
<g id="edge12" class="edge">
<title>Z_2&#45;&gt;Linear_2</title>
<path fill="none" stroke="black" d="M431.51,-68.88C424.05,-68.28 415.7,-67.61 407.38,-66.94"/>
<polygon fill="black" stroke="black" points="407.89,-63.47 397.64,-66.16 407.33,-70.45 407.89,-63.47"/>
</g>
<!-- Y -->
<g id="node9" class="node">
<title>Y</title>
<polygon fill="#d0d0ff" stroke="black" points="883.14,-116 833.14,-116 829.14,-112 829.14,-80 879.14,-80 883.14,-84 883.14,-116"/>
<polyline fill="none" stroke="black" points="879.14,-112 829.14,-112"/>
<polyline fill="none" stroke="black" points="879.14,-112 879.14,-80"/>
<polyline fill="none" stroke="black" points="879.14,-112 883.14,-116"/>
<text text-anchor="middle" x="856.14" y="-92.95" font-family="Times,serif" font-size="14.00">Y</text>
</g>
<!-- ReLU -->
<g id="node12" class="node">
<title>ReLU</title>
<polygon fill="#e5e8e8" stroke="black" points="775.14,-118.25 724.14,-118.25 724.14,-77.75 775.14,-77.75 775.14,-71.75 793.14,-98 775.14,-124.25 775.14,-118.25"/>
<text text-anchor="middle" x="758.64" y="-92.95" font-family="Times,serif" font-size="14.00">ReLU</text>
</g>
<!-- Y&#45;&gt;ReLU -->
<g id="edge17" class="edge">
<title>Y&#45;&gt;ReLU</title>
<path fill="none" stroke="black" d="M828.79,-98C821.36,-98 813.06,-98 804.86,-98"/>
<polygon fill="black" stroke="black" points="804.95,-94.5 794.95,-98 804.95,-101.5 804.95,-94.5"/>
</g>
<!-- Linear_1&#45;&gt;X_1 -->
<g id="edge5" class="edge">
<title>Linear_1&#45;&gt;X_1</title>
<path fill="none" stroke="black" d="M318.37,-151.52C310.19,-155.3 301.55,-159.29 293.42,-163.04"/>
<polygon fill="black" stroke="black" points="292.08,-159.81 284.47,-167.18 295.01,-166.16 292.08,-159.81"/>
</g>
<!-- Linear_1&#45;&gt;W -->
<g id="edge6" class="edge">
<title>Linear_1&#45;&gt;W</title>
<path fill="none" stroke="black" d="M318.37,-130.95C310.55,-130.33 302.33,-129.66 294.52,-129.04"/>
<polygon fill="black" stroke="black" points="294.85,-125.55 284.6,-128.24 294.29,-132.53 294.85,-125.55"/>
</g>
<!-- Linear_1&#45;&gt;b -->
<g id="edge7" class="edge">
<title>Linear_1&#45;&gt;b</title>
<path fill="none" stroke="black" d="M318.37,-110.38C309.91,-105.12 300.97,-99.55 292.6,-94.34"/>
<polygon fill="black" stroke="black" points="294.72,-91.54 284.38,-89.23 291.02,-97.48 294.72,-91.54"/>
</g>
<!-- Linear_2&#45;&gt;X_2 -->
<g id="edge9" class="edge">
<title>Linear_2&#45;&gt;X_2</title>
<path fill="none" stroke="black" d="M318.37,-45.86C310.19,-42.16 301.55,-38.26 293.42,-34.59"/>
<polygon fill="black" stroke="black" points="295.03,-31.47 284.47,-30.55 292.14,-37.85 295.03,-31.47"/>
</g>
<!-- Linear_2&#45;&gt;W -->
<g id="edge10" class="edge">
<title>Linear_2&#45;&gt;W</title>
<path fill="none" stroke="black" d="M318.37,-87C309.91,-92.35 300.97,-98 292.6,-103.3"/>
<polygon fill="black" stroke="black" points="290.95,-100.19 284.37,-108.5 294.69,-106.11 290.95,-100.19"/>
</g>
<!-- Linear_2&#45;&gt;b -->
<g id="edge11" class="edge">
<title>Linear_2&#45;&gt;b</title>
<path fill="none" stroke="black" d="M318.37,-66.43C310.55,-67.13 302.33,-67.88 294.52,-68.58"/>
<polygon fill="black" stroke="black" points="294.24,-65.09 284.6,-69.48 294.87,-72.06 294.24,-65.09"/>
</g>
<!-- ReLU&#45;&gt;Z -->
<g id="edge16" class="edge">
<title>ReLU&#45;&gt;Z</title>
<path fill="none" stroke="black" d="M723.7,-98C716.01,-98 707.8,-98 699.96,-98"/>
<polygon fill="black" stroke="black" points="699.98,-94.5 689.98,-98 699.98,-101.5 699.98,-94.5"/>
</g>
<!-- SX0&#45;&gt;X -->
<g id="edge1" class="edge">
<title>SX0&#45;&gt;X</title>
<path fill="none" stroke="black" d="M102,-134.57C89.8,-128.71 76.36,-122.25 64.32,-116.46"/>
<polygon fill="black" stroke="black" points="66.05,-113.41 55.52,-112.23 63.02,-119.72 66.05,-113.41"/>
</g>
<!-- SX1&#45;&gt;X -->
<g id="edge2" class="edge">
<title>SX1&#45;&gt;X</title>
<path fill="none" stroke="black" d="M105.11,-80.47C92.37,-83.53 77.95,-87 65.05,-90.09"/>
<polygon fill="black" stroke="black" points="64.58,-86.61 55.67,-92.35 66.21,-93.42 64.58,-86.61"/>
</g>
<!-- SZ&#45;&gt;Z_1 -->
<g id="edge13" class="edge">
<title>SZ&#45;&gt;Z_1</title>
<path fill="none" stroke="black" d="M531.44,-106.64C520.87,-109.94 508.64,-113.77 497.31,-117.31"/>
<polygon fill="black" stroke="black" points="496.32,-113.95 487.82,-120.28 498.41,-120.63 496.32,-113.95"/>
</g>
<!-- SZ&#45;&gt;Z_2 -->
<g id="edge14" class="edge">
<title>SZ&#45;&gt;Z_2</title>
<path fill="none" stroke="black" d="M527.41,-89.38C517.78,-86.76 507.11,-83.85 497.15,-81.14"/>
<polygon fill="black" stroke="black" points="498.32,-77.83 487.75,-78.58 496.48,-84.58 498.32,-77.83"/>
</g>
</g>
</svg>
