<?xml version="1.0" encoding="UTF-8" standalone="no"?>
<!DOCTYPE svg PUBLIC "-//W3C//DTD SVG 1.1//EN"
 "http://www.w3.org/Graphics/SVG/1.1/DTD/svg11.dtd">
<!-- Generated by graphviz version 9.0.0 (20230911.1827)
 -->
<!-- Title: G Pages: 1 -->
<svg width="556pt" height="253pt"
 viewBox="0.00 0.00 556.00 253.25" xmlns="http://www.w3.org/2000/svg" xmlns:xlink="http://www.w3.org/1999/xlink">
<g id="graph0" class="graph" transform="scale(1 1) rotate(0) translate(4 249.25)">
<title>G</title>
<polygon fill="white" stroke="none" points="-4,4 -4,-249.25 552,-249.25 552,4 -4,4"/>
<!-- idx -->
<g id="node1" class="node">
<title>idx</title>
<polygon fill="none" stroke="black" points="200.5,-204.25 200.5,-238.25 232.5,-238.25 232.5,-204.25 200.5,-204.25"/>
<text text-anchor="start" x="209.75" y="-214.7" font-family="Times,serif" font-size="14.00">⋱</text>
<polygon fill="none" stroke="black" points="234.5,-204.25 234.5,-238.25 316.5,-238.25 316.5,-204.25 234.5,-204.25"/>
<text text-anchor="start" x="268.38" y="-215.95" font-family="Times,serif" font-size="14.00">…</text>
<polygon fill="none" stroke="black" points="318.5,-204.25 318.5,-238.25 350.5,-238.25 350.5,-204.25 318.5,-204.25"/>
<text text-anchor="start" x="328.12" y="-214.7" font-family="Times,serif" font-size="14.00">⋰</text>
<polygon fill="none" stroke="black" points="200.5,-168.25 200.5,-202.25 232.5,-202.25 232.5,-168.25 200.5,-168.25"/>
<text text-anchor="start" x="209.38" y="-179.95" font-family="Times,serif" font-size="14.00">…</text>
<polygon fill="#d6eaf8" stroke="none" points="234.5,-168.25 234.5,-202.25 316.5,-202.25 316.5,-168.25 234.5,-168.25"/>
<polygon fill="none" stroke="black" points="234.5,-168.25 234.5,-202.25 316.5,-202.25 316.5,-168.25 234.5,-168.25"/>
<text text-anchor="start" x="243.25" y="-179.95" font-family="Times,serif" font-size="14.00">batch,in,out</text>
<polygon fill="none" stroke="black" points="318.5,-168.25 318.5,-202.25 350.5,-202.25 350.5,-168.25 318.5,-168.25"/>
<text text-anchor="start" x="327.38" y="-179.95" font-family="Times,serif" font-size="14.00">…</text>
<polygon fill="none" stroke="black" points="200.5,-132.25 200.5,-166.25 232.5,-166.25 232.5,-132.25 200.5,-132.25"/>
<text text-anchor="start" x="210.12" y="-142.7" font-family="Times,serif" font-size="14.00">⋰</text>
<polygon fill="none" stroke="black" points="234.5,-132.25 234.5,-166.25 316.5,-166.25 316.5,-132.25 234.5,-132.25"/>
<text text-anchor="start" x="268.38" y="-143.95" font-family="Times,serif" font-size="14.00">…</text>
<polygon fill="none" stroke="black" points="318.5,-132.25 318.5,-166.25 350.5,-166.25 350.5,-132.25 318.5,-132.25"/>
<text text-anchor="start" x="327.75" y="-142.7" font-family="Times,serif" font-size="14.00">⋱</text>
<polygon fill="none" stroke="black" points="197.5,-129.25 197.5,-241.25 353.5,-241.25 353.5,-129.25 197.5,-129.25"/>
<text text-anchor="start" x="260.88" y="-110.95" font-family="Times,serif" font-style="italic" font-size="14.00">index</text>
</g>
<!-- x -->
<g id="node2" class="node">
<title>x</title>
<polygon fill="#d6eaf8" stroke="none" points="3,-75 3,-113 53,-113 53,-75 3,-75"/>
<polygon fill="none" stroke="black" stroke-width="3" points="4.5,-76.5 4.5,-111.5 51.5,-111.5 51.5,-76.5 4.5,-76.5"/>
<text text-anchor="start" x="13.75" y="-89.7" font-family="Times,serif" font-size="14.00">P</text>
<text text-anchor="start" x="21.25" y="-89.7" font-family="Times,serif" baseline-shift="sub" font-size="14.00">X</text>
<text text-anchor="start" x="29.5" y="-89.7" font-family="Times,serif" font-size="14.00">(i)</text>
<polygon fill="#d6eaf8" stroke="none" stroke-width="3" points="55,-75 55,-113 88,-113 88,-75 55,-75"/>
<polygon fill="none" stroke="black" stroke-width="3" points="56.5,-76.5 56.5,-111.5 86.5,-111.5 86.5,-76.5 56.5,-76.5"/>
<text text-anchor="start" x="65.88" y="-88.7" font-family="Times,serif" font-size="14.00">...</text>
<polygon fill="#d6eaf8" stroke="none" stroke-width="3" points="90,-75 90,-113 123,-113 123,-75 90,-75"/>
<polygon fill="none" stroke="black" stroke-width="3" points="91.5,-76.5 91.5,-111.5 121.5,-111.5 121.5,-76.5 91.5,-76.5"/>
<text text-anchor="start" x="100.88" y="-88.7" font-family="Times,serif" font-size="14.00">...</text>
<polygon fill="none" stroke="black" points="3,-39 3,-73 53,-73 53,-39 3,-39"/>
<text text-anchor="start" x="20.88" y="-50.7" font-family="Times,serif" font-size="14.00">…</text>
<polygon fill="none" stroke="black" points="55,-39 55,-73 88,-73 88,-39 55,-39"/>
<text text-anchor="start" x="64.38" y="-50.7" font-family="Times,serif" font-size="14.00">…</text>
<polygon fill="none" stroke="black" points="90,-39 90,-73 123,-73 123,-39 90,-39"/>
<text text-anchor="start" x="99.38" y="-50.7" font-family="Times,serif" font-size="14.00">…</text>
<polygon fill="none" stroke="black" points="3,-3 3,-37 53,-37 53,-3 3,-3"/>
<text text-anchor="start" x="21.62" y="-13.45" font-family="Times,serif" font-size="14.00">⋰</text>
<polygon fill="none" stroke="black" points="55,-3 55,-37 88,-37 88,-3 55,-3"/>
<text text-anchor="start" x="64.38" y="-14.7" font-family="Times,serif" font-size="14.00">…</text>
<polygon fill="none" stroke="black" points="90,-3 90,-37 123,-37 123,-3 90,-3"/>
<text text-anchor="start" x="99.75" y="-13.45" font-family="Times,serif" font-size="14.00">⋱</text>
<polygon fill="none" stroke="black" points="0,0 0,-116 126,-116 126,0 0,0"/>
</g>
<!-- idx&#45;&gt;x -->
<g id="edge3" class="edge">
<title>idx&#45;&gt;x:a</title>
<path fill="none" stroke="black" stroke-dasharray="1,5" d="M193.79,-184.95C125.97,-189.84 38.57,-184.29 28.88,-125.23"/>
<polygon fill="none" stroke="black" points="32.39,-125.2 28.12,-115.51 25.41,-125.75 32.39,-125.2"/>
<text text-anchor="start" x="144" y="-190.2" font-family="Times,serif" font-size="14.00">P</text>
<text text-anchor="start" x="151.5" y="-190.2" font-family="Times,serif" baseline-shift="sub" font-size="14.00">W</text>
<text text-anchor="start" x="162.75" y="-190.2" font-family="Times,serif" font-size="14.00">(i)</text>
</g>
<!-- y -->
<g id="node3" class="node">
<title>y</title>
<polygon fill="#d6eaf8" stroke="none" points="425,-75 425,-113 475,-113 475,-75 425,-75"/>
<polygon fill="none" stroke="black" stroke-width="3" points="426.5,-76.5 426.5,-111.5 473.5,-111.5 473.5,-76.5 426.5,-76.5"/>
<text text-anchor="start" x="435.75" y="-89.7" font-family="Times,serif" font-size="14.00">P</text>
<text text-anchor="start" x="443.25" y="-89.7" font-family="Times,serif" baseline-shift="sub" font-size="14.00">Y</text>
<text text-anchor="start" x="451.5" y="-89.7" font-family="Times,serif" font-size="14.00">(i)</text>
<polygon fill="#d6eaf8" stroke="none" stroke-width="3" points="477,-75 477,-113 510,-113 510,-75 477,-75"/>
<polygon fill="none" stroke="black" stroke-width="3" points="478.5,-76.5 478.5,-111.5 508.5,-111.5 508.5,-76.5 478.5,-76.5"/>
<text text-anchor="start" x="487.88" y="-88.7" font-family="Times,serif" font-size="14.00">...</text>
<polygon fill="#d6eaf8" stroke="none" stroke-width="3" points="512,-75 512,-113 545,-113 545,-75 512,-75"/>
<polygon fill="none" stroke="black" stroke-width="3" points="513.5,-76.5 513.5,-111.5 543.5,-111.5 543.5,-76.5 513.5,-76.5"/>
<text text-anchor="start" x="522.88" y="-88.7" font-family="Times,serif" font-size="14.00">...</text>
<polygon fill="none" stroke="black" points="425,-39 425,-73 475,-73 475,-39 425,-39"/>
<text text-anchor="start" x="442.88" y="-50.7" font-family="Times,serif" font-size="14.00">…</text>
<polygon fill="none" stroke="black" points="477,-39 477,-73 510,-73 510,-39 477,-39"/>
<text text-anchor="start" x="486.38" y="-50.7" font-family="Times,serif" font-size="14.00">…</text>
<polygon fill="none" stroke="black" points="512,-39 512,-73 545,-73 545,-39 512,-39"/>
<text text-anchor="start" x="521.38" y="-50.7" font-family="Times,serif" font-size="14.00">…</text>
<polygon fill="none" stroke="black" points="425,-3 425,-37 475,-37 475,-3 425,-3"/>
<text text-anchor="start" x="443.62" y="-13.45" font-family="Times,serif" font-size="14.00">⋰</text>
<polygon fill="none" stroke="black" points="477,-3 477,-37 510,-37 510,-3 477,-3"/>
<text text-anchor="start" x="486.38" y="-14.7" font-family="Times,serif" font-size="14.00">…</text>
<polygon fill="none" stroke="black" points="512,-3 512,-37 545,-37 545,-3 512,-3"/>
<text text-anchor="start" x="521.75" y="-13.45" font-family="Times,serif" font-size="14.00">⋱</text>
<polygon fill="none" stroke="black" points="422,0 422,-116 548,-116 548,0 422,0"/>
</g>
<!-- idx&#45;&gt;y -->
<g id="edge4" class="edge">
<title>idx&#45;&gt;y:a</title>
<path fill="none" stroke="black" stroke-dasharray="1,5" d="M357.13,-112.35C374.44,-103.46 393.36,-96.61 412.62,-94.6"/>
<polygon fill="none" stroke="black" points="412.69,-98.1 422.49,-94.08 412.32,-91.11 412.69,-98.1"/>
<text text-anchor="start" x="375.5" y="-107.2" font-family="Times,serif" font-size="14.00">P</text>
<text text-anchor="start" x="383" y="-107.2" font-family="Times,serif" baseline-shift="sub" font-size="14.00">Y</text>
<text text-anchor="start" x="391.25" y="-107.2" font-family="Times,serif" font-size="14.00">(i)</text>
</g>
<!-- op -->
<g id="node4" class="node">
<title>op</title>
<polygon fill="#e5e8e8" stroke="black" points="293.12,-78.25 239.88,-78.25 239.88,-37.75 293.12,-37.75 293.12,-31.75 311.12,-58 293.12,-84.25 293.12,-78.25"/>
<text text-anchor="middle" x="275.5" y="-52.95" font-family="Times,serif" font-size="14.00">Linear</text>
</g>
<!-- y&#45;&gt;op -->
<g id="edge2" class="edge">
<title>y&#45;&gt;op</title>
<path fill="none" stroke="black" d="M422.02,-58C390.08,-58 351.79,-58 322.51,-58"/>
<polygon fill="black" stroke="black" points="322.87,-54.5 312.87,-58 322.87,-61.5 322.87,-54.5"/>
</g>
<!-- op&#45;&gt;x -->
<g id="edge1" class="edge">
<title>op&#45;&gt;x</title>
<path fill="none" stroke="black" d="M239.74,-58C211.82,-58 171.64,-58 136.75,-58"/>
<polygon fill="black" stroke="black" points="137.15,-54.5 127.15,-58 137.15,-61.5 137.15,-54.5"/>
</g>
</g>
</svg>
