<?xml version="1.0" encoding="UTF-8" standalone="no"?>
<!DOCTYPE svg PUBLIC "-//W3C//DTD SVG 1.1//EN"
 "http://www.w3.org/Graphics/SVG/1.1/DTD/svg11.dtd">
<!-- Generated by graphviz version 9.0.0 (20230911.1827)
 -->
<!-- Title: G Pages: 1 -->
<svg width="487pt" height="328pt"
 viewBox="0.00 0.00 487.00 327.50" xmlns="http://www.w3.org/2000/svg" xmlns:xlink="http://www.w3.org/1999/xlink">
<g id="graph0" class="graph" transform="scale(1 1) rotate(0) translate(4 323.5)">
<title>G</title>
<polygon fill="white" stroke="none" points="-4,4 -4,-323.5 483,-323.5 483,4 -4,4"/>
<!-- idx -->
<g id="node1" class="node">
<title>idx</title>
<polygon fill="none" stroke="black" points="197.5,-278.5 197.5,-312.5 229.5,-312.5 229.5,-278.5 197.5,-278.5"/>
<text text-anchor="start" x="206.75" y="-288.95" font-family="Times,serif" font-size="14.00">⋱</text>
<polygon fill="none" stroke="black" points="231.5,-278.5 231.5,-312.5 263.5,-312.5 263.5,-278.5 231.5,-278.5"/>
<text text-anchor="start" x="240.38" y="-290.2" font-family="Times,serif" font-size="14.00">…</text>
<polygon fill="none" stroke="black" points="265.5,-278.5 265.5,-312.5 297.5,-312.5 297.5,-278.5 265.5,-278.5"/>
<text text-anchor="start" x="275.12" y="-288.95" font-family="Times,serif" font-size="14.00">⋰</text>
<polygon fill="none" stroke="black" points="197.5,-242.5 197.5,-276.5 229.5,-276.5 229.5,-242.5 197.5,-242.5"/>
<text text-anchor="start" x="206.38" y="-254.2" font-family="Times,serif" font-size="14.00">…</text>
<polygon fill="#d6eaf8" stroke="none" points="231.5,-242.5 231.5,-276.5 263.5,-276.5 263.5,-242.5 231.5,-242.5"/>
<polygon fill="none" stroke="black" points="231.5,-242.5 231.5,-276.5 263.5,-276.5 263.5,-242.5 231.5,-242.5"/>
<text text-anchor="start" x="240.38" y="-254.2" font-family="Times,serif" font-size="14.00">i,n</text>
<polygon fill="none" stroke="black" points="265.5,-242.5 265.5,-276.5 297.5,-276.5 297.5,-242.5 265.5,-242.5"/>
<text text-anchor="start" x="274.38" y="-254.2" font-family="Times,serif" font-size="14.00">…</text>
<polygon fill="none" stroke="black" points="197.5,-206.5 197.5,-240.5 229.5,-240.5 229.5,-206.5 197.5,-206.5"/>
<text text-anchor="start" x="207.12" y="-216.95" font-family="Times,serif" font-size="14.00">⋰</text>
<polygon fill="none" stroke="black" points="231.5,-206.5 231.5,-240.5 263.5,-240.5 263.5,-206.5 231.5,-206.5"/>
<text text-anchor="start" x="240.38" y="-218.2" font-family="Times,serif" font-size="14.00">…</text>
<polygon fill="none" stroke="black" points="265.5,-206.5 265.5,-240.5 297.5,-240.5 297.5,-206.5 265.5,-206.5"/>
<text text-anchor="start" x="274.75" y="-216.95" font-family="Times,serif" font-size="14.00">⋱</text>
<polygon fill="none" stroke="black" points="194.5,-203.5 194.5,-315.5 300.5,-315.5 300.5,-203.5 194.5,-203.5"/>
<text text-anchor="start" x="232.88" y="-185.2" font-family="Times,serif" font-style="italic" font-size="14.00">index</text>
</g>
<!-- x -->
<g id="node2" class="node">
<title>x</title>
<polygon fill="none" stroke="black" points="23.5,-260.25 23.5,-291.25 65.5,-291.25 65.5,-260.25 23.5,-260.25"/>
<text text-anchor="start" x="37.75" y="-268.95" font-family="Times,serif" font-size="14.00">⋱</text>
<polygon fill="none" stroke="black" points="67.5,-260.25 67.5,-291.25 99.5,-291.25 99.5,-260.25 67.5,-260.25"/>
<text text-anchor="start" x="77.12" y="-268.95" font-family="Times,serif" font-size="14.00">⋰</text>
<polygon fill="#d6eaf8" stroke="none" points="23.5,-224.25 23.5,-258.25 65.5,-258.25 65.5,-224.25 23.5,-224.25"/>
<polygon fill="none" stroke="black" points="23.5,-224.25 23.5,-258.25 65.5,-258.25 65.5,-224.25 23.5,-224.25"/>
<text text-anchor="start" x="32.12" y="-236.95" font-family="Times,serif" font-size="14.00">X</text>
<text text-anchor="start" x="41.88" y="-236.95" font-family="Times,serif" baseline-shift="sub" font-size="14.00">i,m</text>
<polygon fill="#d6eaf8" stroke="none" points="67.5,-224.25 67.5,-258.25 99.5,-258.25 99.5,-224.25 67.5,-224.25"/>
<polygon fill="none" stroke="black" points="67.5,-224.25 67.5,-258.25 99.5,-258.25 99.5,-224.25 67.5,-224.25"/>
<text text-anchor="start" x="76.38" y="-235.95" font-family="Times,serif" font-size="14.00">…</text>
<polygon fill="none" stroke="black" points="23.5,-191.25 23.5,-222.25 65.5,-222.25 65.5,-191.25 23.5,-191.25"/>
<text text-anchor="start" x="38.12" y="-199.95" font-family="Times,serif" font-size="14.00">⋰</text>
<polygon fill="none" stroke="black" points="67.5,-191.25 67.5,-222.25 99.5,-222.25 99.5,-191.25 67.5,-191.25"/>
<text text-anchor="start" x="76.75" y="-199.95" font-family="Times,serif" font-size="14.00">⋱</text>
<polygon fill="none" stroke="black" points="20.5,-188.25 20.5,-294.25 102.5,-294.25 102.5,-188.25 20.5,-188.25"/>
</g>
<!-- idx&#45;&gt;x -->
<g id="edge5" class="edge">
<title>idx&#45;&gt;x</title>
<path fill="none" stroke="black" stroke-dasharray="1,5" d="M190.64,-246.9C174.61,-246.44 157.11,-245.89 141,-245.25 132.18,-244.9 122.8,-244.47 113.72,-244.03"/>
<polygon fill="none" stroke="black" points="114.1,-240.54 103.94,-243.53 113.75,-247.53 114.1,-240.54"/>
<text text-anchor="start" x="142.5" y="-250.45" font-family="Times,serif" font-size="14.00">P</text>
<text text-anchor="start" x="150" y="-250.45" font-family="Times,serif" baseline-shift="sub" font-size="14.00">X</text>
<text text-anchor="start" x="158.25" y="-250.45" font-family="Times,serif" font-size="14.00">(i)</text>
</g>
<!-- w -->
<g id="node3" class="node">
<title>w</title>
<polygon fill="none" stroke="black" points="3,-133.25 3,-167.25 35,-167.25 35,-133.25 3,-133.25"/>
<text text-anchor="start" x="12.25" y="-143.7" font-family="Times,serif" font-size="14.00">⋱</text>
<polygon fill="#d6eaf8" stroke="none" points="37,-133.25 37,-167.25 86,-167.25 86,-133.25 37,-133.25"/>
<polygon fill="none" stroke="black" points="37,-133.25 37,-167.25 86,-167.25 86,-133.25 37,-133.25"/>
<text text-anchor="start" x="54.38" y="-144.95" font-family="Times,serif" font-size="14.00">…</text>
<polygon fill="none" stroke="black" points="88,-133.25 88,-167.25 120,-167.25 120,-133.25 88,-133.25"/>
<text text-anchor="start" x="97.62" y="-143.7" font-family="Times,serif" font-size="14.00">⋰</text>
<polygon fill="none" stroke="black" points="3,-97.25 3,-131.25 35,-131.25 35,-97.25 3,-97.25"/>
<text text-anchor="start" x="11.88" y="-108.95" font-family="Times,serif" font-size="14.00">…</text>
<polygon fill="#d6eaf8" stroke="none" points="37,-97.25 37,-131.25 86,-131.25 86,-97.25 37,-97.25"/>
<polygon fill="none" stroke="black" points="37,-97.25 37,-131.25 86,-131.25 86,-97.25 37,-97.25"/>
<text text-anchor="start" x="45.75" y="-109.95" font-family="Times,serif" font-size="14.00">W</text>
<text text-anchor="start" x="59.25" y="-109.95" font-family="Times,serif" baseline-shift="sub" font-size="14.00">m,n</text>
<polygon fill="none" stroke="black" points="88,-97.25 88,-131.25 120,-131.25 120,-97.25 88,-97.25"/>
<text text-anchor="start" x="96.88" y="-108.95" font-family="Times,serif" font-size="14.00">…</text>
<polygon fill="none" stroke="black" points="3,-61.25 3,-95.25 35,-95.25 35,-61.25 3,-61.25"/>
<text text-anchor="start" x="12.62" y="-71.7" font-family="Times,serif" font-size="14.00">⋰</text>
<polygon fill="#d6eaf8" stroke="none" points="37,-61.25 37,-95.25 86,-95.25 86,-61.25 37,-61.25"/>
<polygon fill="none" stroke="black" points="37,-61.25 37,-95.25 86,-95.25 86,-61.25 37,-61.25"/>
<text text-anchor="start" x="54.38" y="-72.95" font-family="Times,serif" font-size="14.00">…</text>
<polygon fill="none" stroke="black" points="88,-61.25 88,-95.25 120,-95.25 120,-61.25 88,-61.25"/>
<text text-anchor="start" x="97.25" y="-71.7" font-family="Times,serif" font-size="14.00">⋱</text>
<polygon fill="none" stroke="black" points="0,-58.25 0,-170.25 123,-170.25 123,-58.25 0,-58.25"/>
</g>
<!-- idx&#45;&gt;w -->
<g id="edge6" class="edge">
<title>idx&#45;&gt;w</title>
<path fill="none" stroke="black" stroke-dasharray="1,5" d="M190.65,-232.36C173.58,-225.77 155.5,-216.88 141,-205.25 130.04,-196.45 131.81,-190.2 123,-179.25 122.92,-179.16 122.85,-179.06 122.77,-178.97"/>
<polygon fill="none" stroke="black" points="125.52,-176.8 116.45,-171.34 120.14,-181.27 125.52,-176.8"/>
<text text-anchor="start" x="141" y="-227.45" font-family="Times,serif" font-size="14.00">P</text>
<text text-anchor="start" x="148.5" y="-227.45" font-family="Times,serif" baseline-shift="sub" font-size="14.00">W</text>
<text text-anchor="start" x="159.75" y="-227.45" font-family="Times,serif" font-size="14.00">(i)</text>
</g>
<!-- b -->
<g id="node5" class="node">
<title>b</title>
<polygon fill="none" stroke="black" points="11.88,-3 11.88,-37.5 44.12,-37.5 44.12,-3 11.88,-3"/>
<text text-anchor="start" x="20.88" y="-15.2" font-family="Times,serif" font-size="14.00">…</text>
<polygon fill="#d6eaf8" stroke="none" points="46.12,-3 46.12,-37.5 76.88,-37.5 76.88,-3 46.12,-3"/>
<polygon fill="none" stroke="black" points="46.12,-3 46.12,-37.5 76.88,-37.5 76.88,-3 46.12,-3"/>
<text text-anchor="start" x="55.12" y="-16.2" font-family="Times,serif" font-size="14.00">b</text>
<text text-anchor="start" x="61.88" y="-16.2" font-family="Times,serif" baseline-shift="sub" font-size="14.00">n</text>
<polygon fill="none" stroke="black" points="78.88,-3 78.88,-37.5 111.12,-37.5 111.12,-3 78.88,-3"/>
<text text-anchor="start" x="87.88" y="-15.2" font-family="Times,serif" font-size="14.00">…</text>
<polygon fill="none" stroke="black" points="8.88,0 8.88,-40.5 114.12,-40.5 114.12,0 8.88,0"/>
</g>
<!-- idx&#45;&gt;b -->
<g id="edge7" class="edge">
<title>idx&#45;&gt;b</title>
<path fill="none" stroke="black" stroke-dasharray="1,5" d="M200.51,-177.23C181.72,-147.75 159.98,-113.06 141,-81.25 132.64,-67.24 134.91,-60.4 123,-49.25 122.24,-48.54 121.45,-47.84 120.65,-47.15"/>
<polygon fill="none" stroke="black" points="122.8,-44.39 112.68,-41.25 118.64,-50.01 122.8,-44.39"/>
<text text-anchor="start" x="143.62" y="-136.45" font-family="Times,serif" font-size="14.00">P</text>
<text text-anchor="start" x="151.12" y="-136.45" font-family="Times,serif" baseline-shift="sub" font-size="14.00">b</text>
<text text-anchor="start" x="157.12" y="-136.45" font-family="Times,serif" font-size="14.00">(i)</text>
</g>
<!-- y -->
<g id="node6" class="node">
<title>y</title>
<polygon fill="none" stroke="black" points="372,-133.25 372,-167.25 404,-167.25 404,-133.25 372,-133.25"/>
<text text-anchor="start" x="381.25" y="-143.7" font-family="Times,serif" font-size="14.00">⋱</text>
<polygon fill="none" stroke="black" points="406,-133.25 406,-167.25 442,-167.25 442,-133.25 406,-133.25"/>
<text text-anchor="start" x="416.88" y="-144.95" font-family="Times,serif" font-size="14.00">…</text>
<polygon fill="none" stroke="black" points="444,-133.25 444,-167.25 476,-167.25 476,-133.25 444,-133.25"/>
<text text-anchor="start" x="453.62" y="-143.7" font-family="Times,serif" font-size="14.00">⋰</text>
<polygon fill="none" stroke="black" points="372,-97.25 372,-131.25 404,-131.25 404,-97.25 372,-97.25"/>
<text text-anchor="start" x="380.88" y="-108.95" font-family="Times,serif" font-size="14.00">…</text>
<polygon fill="#d6eaf8" stroke="none" points="406,-97.25 406,-131.25 442,-131.25 442,-97.25 406,-97.25"/>
<polygon fill="none" stroke="black" points="406,-97.25 406,-131.25 442,-131.25 442,-97.25 406,-97.25"/>
<text text-anchor="start" x="414.62" y="-109.95" font-family="Times,serif" font-size="14.00">y</text>
<text text-anchor="start" x="421.38" y="-109.95" font-family="Times,serif" baseline-shift="sub" font-size="14.00">i,n</text>
<polygon fill="none" stroke="black" points="444,-97.25 444,-131.25 476,-131.25 476,-97.25 444,-97.25"/>
<text text-anchor="start" x="452.88" y="-108.95" font-family="Times,serif" font-size="14.00">…</text>
<polygon fill="none" stroke="black" points="372,-61.25 372,-95.25 404,-95.25 404,-61.25 372,-61.25"/>
<text text-anchor="start" x="381.62" y="-71.7" font-family="Times,serif" font-size="14.00">⋰</text>
<polygon fill="none" stroke="black" points="406,-61.25 406,-95.25 442,-95.25 442,-61.25 406,-61.25"/>
<text text-anchor="start" x="416.88" y="-72.95" font-family="Times,serif" font-size="14.00">…</text>
<polygon fill="none" stroke="black" points="444,-61.25 444,-95.25 476,-95.25 476,-61.25 444,-61.25"/>
<text text-anchor="start" x="453.25" y="-71.7" font-family="Times,serif" font-size="14.00">⋱</text>
<polygon fill="none" stroke="black" points="369,-58.25 369,-170.25 479,-170.25 479,-58.25 369,-58.25"/>
</g>
<!-- idx&#45;&gt;y -->
<g id="edge8" class="edge">
<title>idx&#45;&gt;y</title>
<path fill="none" stroke="black" stroke-dasharray="1,5" d="M304.21,-205.47C322.01,-191.8 341.84,-176.58 360.11,-162.54"/>
<polygon fill="none" stroke="black" points="362.22,-165.34 368.02,-156.47 357.96,-159.78 362.22,-165.34"/>
<text text-anchor="start" x="322.5" y="-193.45" font-family="Times,serif" font-size="14.00">P</text>
<text text-anchor="start" x="330" y="-193.45" font-family="Times,serif" baseline-shift="sub" font-size="14.00">Y</text>
<text text-anchor="start" x="338.25" y="-193.45" font-family="Times,serif" font-size="14.00">(i)</text>
</g>
<!-- op -->
<g id="node4" class="node">
<title>op</title>
<polygon fill="#e5e8e8" stroke="black" points="265.12,-134.5 211.88,-134.5 211.88,-94 265.12,-94 265.12,-88 283.12,-114.25 265.12,-140.5 265.12,-134.5"/>
<text text-anchor="middle" x="247.5" y="-109.2" font-family="Times,serif" font-size="14.00">Linear</text>
</g>
<!-- op&#45;&gt;x -->
<g id="edge1" class="edge">
<title>op&#45;&gt;x</title>
<path fill="none" stroke="black" d="M211.62,-126.88C190.24,-135.46 162.87,-148.01 141,-163.25 137.08,-165.98 124.33,-178.39 110.22,-192.53"/>
<polygon fill="black" stroke="black" points="107.92,-189.88 103.35,-199.44 112.88,-194.81 107.92,-189.88"/>
</g>
<!-- op&#45;&gt;w -->
<g id="edge3" class="edge">
<title>op&#45;&gt;w</title>
<path fill="none" stroke="black" d="M211.46,-114.25C189.56,-114.25 160.57,-114.25 133.98,-114.25"/>
<polygon fill="black" stroke="black" points="134.28,-110.75 124.28,-114.25 134.28,-117.75 134.28,-110.75"/>
</g>
<!-- op&#45;&gt;b -->
<g id="edge4" class="edge">
<title>op&#45;&gt;b</title>
<path fill="none" stroke="black" d="M211.55,-95.41C186.92,-82.24 153.09,-64.37 123,-49.25 120.5,-47.99 117.93,-46.71 115.33,-45.43"/>
<polygon fill="black" stroke="black" points="117.12,-42.41 106.6,-41.15 114.04,-48.69 117.12,-42.41"/>
</g>
<!-- y&#45;&gt;op -->
<g id="edge2" class="edge">
<title>y&#45;&gt;op</title>
<path fill="none" stroke="black" d="M369.22,-114.25C345.43,-114.25 317.72,-114.25 294.86,-114.25"/>
<polygon fill="black" stroke="black" points="294.9,-110.75 284.9,-114.25 294.9,-117.75 294.9,-110.75"/>
</g>
</g>
</svg>
