<?xml version="1.0" encoding="UTF-8" standalone="no"?>
<!DOCTYPE svg PUBLIC "-//W3C//DTD SVG 1.1//EN"
 "http://www.w3.org/Graphics/SVG/1.1/DTD/svg11.dtd">
<!-- Generated by graphviz version 9.0.0 (20230911.1827)
 -->
<!-- Title: G Pages: 1 -->
<svg width="977pt" height="300pt"
 viewBox="0.00 0.00 976.50 300.08" xmlns="http://www.w3.org/2000/svg" xmlns:xlink="http://www.w3.org/1999/xlink">
<g id="graph0" class="graph" transform="scale(1 1) rotate(0) translate(4 296.08)">
<title>G</title>
<polygon fill="white" stroke="none" points="-4,4 -4,-296.08 972.5,-296.08 972.5,4 -4,4"/>
<!-- idx -->
<g id="node1" class="node">
<title>idx</title>
<polygon fill="none" stroke="black" points="413.75,-214.25 413.75,-248.25 445.75,-248.25 445.75,-214.25 413.75,-214.25"/>
<text text-anchor="start" x="423" y="-224.7" font-family="Times,serif" font-size="14.00">⋱</text>
<polygon fill="none" stroke="black" points="447.75,-214.25 447.75,-248.25 529.75,-248.25 529.75,-214.25 447.75,-214.25"/>
<text text-anchor="start" x="481.62" y="-225.95" font-family="Times,serif" font-size="14.00">…</text>
<polygon fill="none" stroke="black" points="531.75,-214.25 531.75,-248.25 563.75,-248.25 563.75,-214.25 531.75,-214.25"/>
<text text-anchor="start" x="541.38" y="-224.7" font-family="Times,serif" font-size="14.00">⋰</text>
<polygon fill="none" stroke="black" points="413.75,-178.25 413.75,-212.25 445.75,-212.25 445.75,-178.25 413.75,-178.25"/>
<text text-anchor="start" x="422.62" y="-189.95" font-family="Times,serif" font-size="14.00">…</text>
<polygon fill="#d6eaf8" stroke="none" points="447.75,-178.25 447.75,-212.25 529.75,-212.25 529.75,-178.25 447.75,-178.25"/>
<polygon fill="none" stroke="black" points="447.75,-178.25 447.75,-212.25 529.75,-212.25 529.75,-178.25 447.75,-178.25"/>
<text text-anchor="start" x="456.5" y="-189.95" font-family="Times,serif" font-size="14.00">batch,in,out</text>
<polygon fill="none" stroke="black" points="531.75,-178.25 531.75,-212.25 563.75,-212.25 563.75,-178.25 531.75,-178.25"/>
<text text-anchor="start" x="540.62" y="-189.95" font-family="Times,serif" font-size="14.00">…</text>
<polygon fill="none" stroke="black" points="413.75,-142.25 413.75,-176.25 445.75,-176.25 445.75,-142.25 413.75,-142.25"/>
<text text-anchor="start" x="423.38" y="-152.7" font-family="Times,serif" font-size="14.00">⋰</text>
<polygon fill="none" stroke="black" points="447.75,-142.25 447.75,-176.25 529.75,-176.25 529.75,-142.25 447.75,-142.25"/>
<text text-anchor="start" x="481.62" y="-153.95" font-family="Times,serif" font-size="14.00">…</text>
<polygon fill="none" stroke="black" points="531.75,-142.25 531.75,-176.25 563.75,-176.25 563.75,-142.25 531.75,-142.25"/>
<text text-anchor="start" x="541" y="-152.7" font-family="Times,serif" font-size="14.00">⋱</text>
<polygon fill="none" stroke="black" points="410.75,-139.25 410.75,-251.25 566.75,-251.25 566.75,-139.25 410.75,-139.25"/>
<text text-anchor="start" x="474.12" y="-120.95" font-family="Times,serif" font-style="italic" font-size="14.00">index</text>
</g>
<!-- w -->
<g id="node2" class="node">
<title>w</title>
<polygon fill="#d6eaf8" stroke="none" points="3,-172 3,-210 93,-210 93,-172 3,-172"/>
<polygon fill="none" stroke="black" points="3,-172 3,-210 93,-210 93,-172 3,-172"/>
<text text-anchor="start" x="11.62" y="-186.95" font-family="Times,serif" font-size="14.00">P</text>
<text text-anchor="start" x="19.12" y="-186.95" font-family="Times,serif" baseline-shift="sub" font-size="14.00">W</text>
<text text-anchor="start" x="30.38" y="-186.95" font-family="Times,serif" font-size="14.00">({out: 0})</text>
<polygon fill="#d6eaf8" stroke="none" points="95,-172 95,-210 127,-210 127,-172 95,-172"/>
<polygon fill="none" stroke="black" points="95,-172 95,-210 127,-210 127,-172 95,-172"/>
<text text-anchor="start" x="103.88" y="-185.95" font-family="Times,serif" font-size="14.00">…</text>
<polygon fill="none" stroke="black" stroke-width="3" points="130.5,-173.5 130.5,-208.5 221.5,-208.5 221.5,-173.5 130.5,-173.5"/>
<text text-anchor="start" x="139.62" y="-186.7" font-family="Times,serif" font-size="14.00">P</text>
<text text-anchor="start" x="147.12" y="-186.7" font-family="Times,serif" baseline-shift="sub" font-size="14.00">W</text>
<text text-anchor="start" x="158.38" y="-186.7" font-family="Times,serif" font-size="14.00">({out: k})</text>
<polygon fill="none" stroke="black" stroke-width="3" points="226.5,-173.5 226.5,-208.5 259.5,-208.5 259.5,-173.5 226.5,-173.5"/>
<text text-anchor="start" x="235.88" y="-185.7" font-family="Times,serif" font-size="14.00">…</text>
<polygon fill="none" stroke="black" points="263,-172 263,-210 295,-210 295,-172 263,-172"/>
<text text-anchor="start" x="271.88" y="-185.95" font-family="Times,serif" font-size="14.00">…</text>
<polygon fill="#d6eaf8" stroke="none" points="3,-132 3,-170 93,-170 93,-132 3,-132"/>
<polygon fill="none" stroke="black" points="3,-132 3,-170 93,-170 93,-132 3,-132"/>
<text text-anchor="start" x="40.88" y="-145.95" font-family="Times,serif" font-size="14.00">…</text>
<polygon fill="#d6eaf8" stroke="none" points="95,-132 95,-170 127,-170 127,-132 95,-132"/>
<polygon fill="none" stroke="black" points="95,-132 95,-170 127,-170 127,-132 95,-132"/>
<text text-anchor="start" x="103.88" y="-145.95" font-family="Times,serif" font-size="14.00">…</text>
<polygon fill="none" stroke="black" stroke-width="3" points="130.5,-133.5 130.5,-168.5 221.5,-168.5 221.5,-133.5 130.5,-133.5"/>
<text text-anchor="start" x="168.88" y="-145.7" font-family="Times,serif" font-size="14.00">…</text>
<polygon fill="none" stroke="black" stroke-width="3" points="226.5,-133.5 226.5,-168.5 259.5,-168.5 259.5,-133.5 226.5,-133.5"/>
<text text-anchor="start" x="235.88" y="-145.7" font-family="Times,serif" font-size="14.00">…</text>
<polygon fill="none" stroke="black" points="263,-132 263,-170 295,-170 295,-132 263,-132"/>
<text text-anchor="start" x="271.88" y="-145.95" font-family="Times,serif" font-size="14.00">…</text>
<polygon fill="#d6eaf8" stroke="none" points="3,-92 3,-130 93,-130 93,-92 3,-92"/>
<polygon fill="none" stroke="black" points="3,-92 3,-130 93,-130 93,-92 3,-92"/>
<text text-anchor="start" x="40.88" y="-105.95" font-family="Times,serif" font-size="14.00">…</text>
<polygon fill="#d6eaf8" stroke="none" points="95,-92 95,-130 127,-130 127,-92 95,-92"/>
<polygon fill="none" stroke="black" points="95,-92 95,-130 127,-130 127,-92 95,-92"/>
<text text-anchor="start" x="103.88" y="-105.95" font-family="Times,serif" font-size="14.00">…</text>
<polygon fill="none" stroke="black" stroke-width="3" points="130.5,-93.5 130.5,-128.5 221.5,-128.5 221.5,-93.5 130.5,-93.5"/>
<text text-anchor="start" x="168.88" y="-105.7" font-family="Times,serif" font-size="14.00">…</text>
<polygon fill="none" stroke="black" stroke-width="3" points="226.5,-93.5 226.5,-128.5 259.5,-128.5 259.5,-93.5 226.5,-93.5"/>
<text text-anchor="start" x="235.88" y="-105.7" font-family="Times,serif" font-size="14.00">…</text>
<polygon fill="none" stroke="black" points="263,-92 263,-130 295,-130 295,-92 263,-92"/>
<text text-anchor="start" x="271.88" y="-105.95" font-family="Times,serif" font-size="14.00">…</text>
<polygon fill="none" stroke="black" points="0,-89 0,-213 298,-213 298,-89 0,-89"/>
</g>
<!-- idx&#45;&gt;w -->
<g id="edge4" class="edge">
<title>idx&#45;&gt;w:a</title>
<path fill="none" stroke="black" stroke-dasharray="1,5" d="M406.84,-220.97C283.3,-273.19 60.6,-348.9 48.51,-222.17"/>
<polygon fill="none" stroke="black" points="52.02,-222.34 48.07,-212.51 45.03,-222.66 52.02,-222.34"/>
<text text-anchor="start" x="316" y="-258.2" font-family="Times,serif" font-size="14.00">P</text>
<text text-anchor="start" x="323.5" y="-258.2" font-family="Times,serif" baseline-shift="sub" font-size="14.00">W</text>
<text text-anchor="start" x="334.75" y="-258.2" font-family="Times,serif" font-size="14.00">({out: 0})</text>
</g>
<!-- idx&#45;&gt;w -->
<g id="edge5" class="edge">
<title>idx&#45;&gt;w:b</title>
<path fill="none" stroke="black" stroke-dasharray="1,5" d="M407.2,-197.36C373.55,-202.33 333.98,-207.4 298,-210 248.35,-213.59 187.05,-257.12 177.33,-222.3"/>
<polygon fill="none" stroke="black" points="180.82,-222.03 176.18,-212.5 173.87,-222.84 180.82,-222.03"/>
<text text-anchor="start" x="316" y="-212.2" font-family="Times,serif" font-size="14.00">P</text>
<text text-anchor="start" x="323.5" y="-212.2" font-family="Times,serif" baseline-shift="sub" font-size="14.00">W</text>
<text text-anchor="start" x="334.75" y="-212.2" font-family="Times,serif" font-size="14.00">({out: k})</text>
</g>
<!-- y -->
<g id="node3" class="node">
<title>y</title>
<polygon fill="#d6eaf8" stroke="none" points="679.5,-83 679.5,-121 766.5,-121 766.5,-83 679.5,-83"/>
<polygon fill="none" stroke="black" points="679.5,-83 679.5,-121 766.5,-121 766.5,-83 679.5,-83"/>
<text text-anchor="start" x="688.12" y="-97.95" font-family="Times,serif" font-size="14.00">P</text>
<text text-anchor="start" x="695.62" y="-97.95" font-family="Times,serif" baseline-shift="sub" font-size="14.00">Y</text>
<text text-anchor="start" x="703.88" y="-97.95" font-family="Times,serif" font-size="14.00">({out: 0})</text>
<polygon fill="#d6eaf8" stroke="none" points="768.5,-83 768.5,-121 800.5,-121 800.5,-83 768.5,-83"/>
<polygon fill="none" stroke="black" points="768.5,-83 768.5,-121 800.5,-121 800.5,-83 768.5,-83"/>
<text text-anchor="start" x="777.38" y="-96.95" font-family="Times,serif" font-size="14.00">…</text>
<polygon fill="none" stroke="black" stroke-width="3" points="804,-84.5 804,-119.5 892,-119.5 892,-84.5 804,-84.5"/>
<text text-anchor="start" x="813.12" y="-97.7" font-family="Times,serif" font-size="14.00">P</text>
<text text-anchor="start" x="820.62" y="-97.7" font-family="Times,serif" baseline-shift="sub" font-size="14.00">Y</text>
<text text-anchor="start" x="828.88" y="-97.7" font-family="Times,serif" font-size="14.00">({out: k})</text>
<polygon fill="none" stroke="black" stroke-width="3" points="897,-84.5 897,-119.5 930,-119.5 930,-84.5 897,-84.5"/>
<text text-anchor="start" x="906.38" y="-96.7" font-family="Times,serif" font-size="14.00">…</text>
<polygon fill="none" stroke="black" points="933.5,-83 933.5,-121 965.5,-121 965.5,-83 933.5,-83"/>
<text text-anchor="start" x="942.38" y="-96.95" font-family="Times,serif" font-size="14.00">…</text>
<polygon fill="#d6eaf8" stroke="none" points="679.5,-43 679.5,-81 766.5,-81 766.5,-43 679.5,-43"/>
<polygon fill="none" stroke="black" points="679.5,-43 679.5,-81 766.5,-81 766.5,-43 679.5,-43"/>
<text text-anchor="start" x="715.88" y="-56.95" font-family="Times,serif" font-size="14.00">…</text>
<polygon fill="#d6eaf8" stroke="none" points="768.5,-43 768.5,-81 800.5,-81 800.5,-43 768.5,-43"/>
<polygon fill="none" stroke="black" points="768.5,-43 768.5,-81 800.5,-81 800.5,-43 768.5,-43"/>
<text text-anchor="start" x="777.38" y="-56.95" font-family="Times,serif" font-size="14.00">…</text>
<polygon fill="none" stroke="black" stroke-width="3" points="804,-44.5 804,-79.5 892,-79.5 892,-44.5 804,-44.5"/>
<text text-anchor="start" x="840.88" y="-56.7" font-family="Times,serif" font-size="14.00">…</text>
<polygon fill="none" stroke="black" stroke-width="3" points="897,-44.5 897,-79.5 930,-79.5 930,-44.5 897,-44.5"/>
<text text-anchor="start" x="906.38" y="-56.7" font-family="Times,serif" font-size="14.00">…</text>
<polygon fill="none" stroke="black" points="933.5,-43 933.5,-81 965.5,-81 965.5,-43 933.5,-43"/>
<text text-anchor="start" x="942.38" y="-56.95" font-family="Times,serif" font-size="14.00">…</text>
<polygon fill="#d6eaf8" stroke="none" points="679.5,-3 679.5,-41 766.5,-41 766.5,-3 679.5,-3"/>
<polygon fill="none" stroke="black" points="679.5,-3 679.5,-41 766.5,-41 766.5,-3 679.5,-3"/>
<text text-anchor="start" x="715.88" y="-16.95" font-family="Times,serif" font-size="14.00">…</text>
<polygon fill="#d6eaf8" stroke="none" points="768.5,-3 768.5,-41 800.5,-41 800.5,-3 768.5,-3"/>
<polygon fill="none" stroke="black" points="768.5,-3 768.5,-41 800.5,-41 800.5,-3 768.5,-3"/>
<text text-anchor="start" x="777.38" y="-16.95" font-family="Times,serif" font-size="14.00">…</text>
<polygon fill="none" stroke="black" stroke-width="3" points="804,-4.5 804,-39.5 892,-39.5 892,-4.5 804,-4.5"/>
<text text-anchor="start" x="840.88" y="-16.7" font-family="Times,serif" font-size="14.00">…</text>
<polygon fill="none" stroke="black" stroke-width="3" points="897,-4.5 897,-39.5 930,-39.5 930,-4.5 897,-4.5"/>
<text text-anchor="start" x="906.38" y="-16.7" font-family="Times,serif" font-size="14.00">…</text>
<polygon fill="none" stroke="black" points="933.5,-3 933.5,-41 965.5,-41 965.5,-3 933.5,-3"/>
<text text-anchor="start" x="942.38" y="-16.95" font-family="Times,serif" font-size="14.00">…</text>
<polygon fill="none" stroke="black" points="676.5,0 676.5,-124 968.5,-124 968.5,0 676.5,0"/>
</g>
<!-- idx&#45;&gt;y -->
<g id="edge8" class="edge">
<title>idx&#45;&gt;y:a</title>
<path fill="none" stroke="black" stroke-dasharray="1,5" d="M570.43,-175.4C600.51,-168.95 633.41,-157.67 658.5,-138 668.52,-130.15 665.42,-115.81 668.76,-107.8"/>
<polygon fill="none" stroke="black" points="670.4,-110.9 677.2,-102.77 666.82,-104.89 670.4,-110.9"/>
<text text-anchor="start" x="588.75" y="-174.2" font-family="Times,serif" font-size="14.00">P</text>
<text text-anchor="start" x="596.25" y="-174.2" font-family="Times,serif" baseline-shift="sub" font-size="14.00">Y</text>
<text text-anchor="start" x="604.5" y="-174.2" font-family="Times,serif" font-size="14.00">({out: 0})</text>
</g>
<!-- idx&#45;&gt;y -->
<g id="edge9" class="edge">
<title>idx&#45;&gt;y:b</title>
<path fill="none" stroke="black" stroke-dasharray="1,5" d="M570.52,-124.52C576.51,-121.76 582.61,-119.37 588.75,-117.5 618.4,-108.46 627.64,-114.53 658.5,-117.5 666.61,-118.28 668.39,-120.2 676.5,-121 748.41,-128.14 838.07,-190.99 847.66,-133.26"/>
<polygon fill="none" stroke="black" points="851.13,-133.74 848.39,-123.51 844.15,-133.22 851.13,-133.74"/>
<text text-anchor="start" x="588.75" y="-122.2" font-family="Times,serif" font-size="14.00">P</text>
<text text-anchor="start" x="596.25" y="-122.2" font-family="Times,serif" baseline-shift="sub" font-size="14.00">Y</text>
<text text-anchor="start" x="604.5" y="-122.2" font-family="Times,serif" font-size="14.00">({out: b})</text>
</g>
<!-- b -->
<g id="node4" class="node">
<title>b</title>
<polygon fill="#d6eaf8" stroke="none" points="8.62,-29.75 8.62,-68.25 94.12,-68.25 94.12,-29.75 8.62,-29.75"/>
<polygon fill="none" stroke="black" points="8.62,-29.75 8.62,-68.25 94.12,-68.25 94.12,-29.75 8.62,-29.75"/>
<text text-anchor="start" x="17.62" y="-44.95" font-family="Times,serif" font-size="14.00">P</text>
<text text-anchor="start" x="25.12" y="-44.95" font-family="Times,serif" baseline-shift="sub" font-size="14.00">b</text>
<text text-anchor="start" x="31.12" y="-44.95" font-family="Times,serif" font-size="14.00">({out: 0})</text>
<polygon fill="#d6eaf8" stroke="none" points="96.12,-29.75 96.12,-68.25 128.38,-68.25 128.38,-29.75 96.12,-29.75"/>
<polygon fill="none" stroke="black" points="96.12,-29.75 96.12,-68.25 128.38,-68.25 128.38,-29.75 96.12,-29.75"/>
<text text-anchor="start" x="105.12" y="-43.95" font-family="Times,serif" font-size="14.00">…</text>
<polygon fill="none" stroke="black" stroke-width="3" points="131.88,-31.25 131.88,-66.75 218.38,-66.75 218.38,-31.25 131.88,-31.25"/>
<text text-anchor="start" x="141.38" y="-44.95" font-family="Times,serif" font-size="14.00">P</text>
<text text-anchor="start" x="148.88" y="-44.95" font-family="Times,serif" baseline-shift="sub" font-size="14.00">b</text>
<text text-anchor="start" x="154.88" y="-44.95" font-family="Times,serif" font-size="14.00">({out: k})</text>
<polygon fill="none" stroke="black" stroke-width="3" points="223.38,-31.25 223.38,-66.75 253.62,-66.75 253.62,-31.25 223.38,-31.25"/>
<text text-anchor="start" x="232.88" y="-43.95" font-family="Times,serif" font-size="14.00">...</text>
<polygon fill="none" stroke="black" points="257.12,-29.75 257.12,-68.25 289.38,-68.25 289.38,-29.75 257.12,-29.75"/>
<text text-anchor="start" x="266.12" y="-43.95" font-family="Times,serif" font-size="14.00">…</text>
<polygon fill="none" stroke="black" points="5.62,-26.75 5.62,-71.25 292.38,-71.25 292.38,-26.75 5.62,-26.75"/>
</g>
<!-- idx&#45;&gt;b -->
<g id="edge6" class="edge">
<title>idx&#45;&gt;b:a</title>
<path fill="none" stroke="black" stroke-dasharray="1,5" d="M406.88,-173.09C375.18,-165.18 340.58,-151.53 316,-128 299.54,-112.24 316.43,-93.39 298,-80 288.3,-72.95 107.27,-80.3 61.46,-73.13"/>
<polygon fill="none" stroke="black" points="62.99,-69.98 52.41,-69.56 60.42,-76.49 62.99,-69.98"/>
<text text-anchor="start" x="318.62" y="-171.2" font-family="Times,serif" font-size="14.00">P</text>
<text text-anchor="start" x="326.12" y="-171.2" font-family="Times,serif" baseline-shift="sub" font-size="14.00">b</text>
<text text-anchor="start" x="332.12" y="-171.2" font-family="Times,serif" font-size="14.00">({out: 0})</text>
</g>
<!-- idx&#45;&gt;b -->
<g id="edge7" class="edge">
<title>idx&#45;&gt;b:b</title>
<path fill="none" stroke="black" stroke-dasharray="1,5" d="M406.91,-117.92C400.91,-114.16 394.83,-110.64 388.75,-107.5 351.29,-88.19 339.37,-88.03 298,-80 287,-77.87 211.98,-81.03 184.8,-74.8"/>
<polygon fill="none" stroke="black" points="186.69,-71.85 176.3,-69.77 183.13,-77.87 186.69,-71.85"/>
<text text-anchor="start" x="318.62" y="-112.2" font-family="Times,serif" font-size="14.00">P</text>
<text text-anchor="start" x="326.12" y="-112.2" font-family="Times,serif" baseline-shift="sub" font-size="14.00">b</text>
<text text-anchor="start" x="332.12" y="-112.2" font-family="Times,serif" font-size="14.00">({out: k})</text>
</g>
<!-- op -->
<g id="node5" class="node">
<title>op</title>
<polygon fill="#e5e8e8" stroke="black" points="506.38,-82.25 453.12,-82.25 453.12,-41.75 506.38,-41.75 506.38,-35.75 524.38,-62 506.38,-88.25 506.38,-82.25"/>
<text text-anchor="middle" x="488.75" y="-56.95" font-family="Times,serif" font-size="14.00">Linear</text>
</g>
<!-- y&#45;&gt;op -->
<g id="edge3" class="edge">
<title>y&#45;&gt;op</title>
<path fill="none" stroke="black" d="M676.95,-62C626.22,-62 572.78,-62 536.04,-62"/>
<polygon fill="black" stroke="black" points="536.24,-58.5 526.24,-62 536.24,-65.5 536.24,-58.5"/>
</g>
<!-- op&#45;&gt;w -->
<g id="edge1" class="edge">
<title>op&#45;&gt;w</title>
<path fill="none" stroke="black" d="M452.82,-66.03C417.84,-70.5 362.65,-78.74 316,-91 313.53,-91.65 311.05,-92.32 308.55,-93.01"/>
<polygon fill="black" stroke="black" points="307.66,-89.62 299.01,-95.73 309.58,-96.35 307.66,-89.62"/>
</g>
<!-- op&#45;&gt;b -->
<g id="edge2" class="edge">
<title>op&#45;&gt;b</title>
<path fill="none" stroke="black" d="M452.88,-60.66C417.24,-59.29 359.39,-57.06 303.74,-54.92"/>
<polygon fill="black" stroke="black" points="303.92,-51.42 293.79,-54.53 303.65,-58.42 303.92,-51.42"/>
</g>
</g>
</svg>
