<?xml version="1.0" encoding="UTF-8" standalone="no"?>
<!DOCTYPE svg PUBLIC "-//W3C//DTD SVG 1.1//EN"
 "http://www.w3.org/Graphics/SVG/1.1/DTD/svg11.dtd">
<!-- Generated by graphviz version 9.0.0 (20230911.1827)
 -->
<!-- Title: D Pages: 1 -->
<svg width="366pt" height="133pt"
 viewBox="0.00 0.00 365.75 133.00" xmlns="http://www.w3.org/2000/svg" xmlns:xlink="http://www.w3.org/1999/xlink">
<g id="graph0" class="graph" transform="scale(1 1) rotate(0) translate(4 129)">
<title>D</title>
<polygon fill="white" stroke="none" points="-4,4 -4,-129 361.75,-129 361.75,4 -4,4"/>
<!-- X -->
<g id="node1" class="node">
<title>X</title>
<polygon fill="#d0d0ff" stroke="black" points="54,-90 4,-90 0,-86 0,-54 50,-54 54,-58 54,-90"/>
<polyline fill="none" stroke="black" points="50,-86 0,-86"/>
<polyline fill="none" stroke="black" points="50,-86 50,-54"/>
<polyline fill="none" stroke="black" points="50,-86 54,-90"/>
<text text-anchor="middle" x="27" y="-66.95" font-family="Times,serif" font-size="14.00">X</text>
</g>
<!-- W -->
<g id="node2" class="node">
<title>W</title>
<polygon fill="#d0d0ff" stroke="black" points="54,-36 4,-36 0,-32 0,0 50,0 54,-4 54,-36"/>
<polyline fill="none" stroke="black" points="50,-32 0,-32"/>
<polyline fill="none" stroke="black" points="50,-32 50,0"/>
<polyline fill="none" stroke="black" points="50,-32 54,-36"/>
<text text-anchor="middle" x="27" y="-12.95" font-family="Times,serif" font-size="14.00">W</text>
</g>
<!-- b -->
<g id="node3" class="node">
<title>b</title>
<polygon fill="#d0d0ff" stroke="black" points="157.12,-125 107.12,-125 103.12,-121 103.12,-89 153.12,-89 157.12,-93 157.12,-125"/>
<polyline fill="none" stroke="black" points="153.12,-121 103.12,-121"/>
<polyline fill="none" stroke="black" points="153.12,-121 153.12,-89"/>
<polyline fill="none" stroke="black" points="153.12,-121 157.12,-125"/>
<text text-anchor="middle" x="130.12" y="-101.95" font-family="Times,serif" font-size="14.00">b</text>
</g>
<!-- Z -->
<g id="node4" class="node">
<title>Z</title>
<polygon fill="#d0d0ff" stroke="black" points="357.75,-94 307.75,-94 303.75,-90 303.75,-58 353.75,-58 357.75,-62 357.75,-94"/>
<polyline fill="none" stroke="black" points="353.75,-90 303.75,-90"/>
<polyline fill="none" stroke="black" points="353.75,-90 353.75,-58"/>
<polyline fill="none" stroke="black" points="353.75,-90 357.75,-94"/>
<text text-anchor="middle" x="330.75" y="-70.95" font-family="Times,serif" font-size="14.00">Z</text>
</g>
<!-- Sum -->
<g id="node6" class="node">
<title>Sum</title>
<polygon fill="#e5e8e8" stroke="black" points="249.75,-96.25 206.25,-96.25 206.25,-55.75 249.75,-55.75 249.75,-49.75 267.75,-76 249.75,-102.25 249.75,-96.25"/>
<text text-anchor="middle" x="237" y="-70.95" font-family="Times,serif" font-size="14.00">Sum</text>
</g>
<!-- Z&#45;&gt;Sum -->
<g id="edge5" class="edge">
<title>Z&#45;&gt;Sum</title>
<path fill="none" stroke="black" d="M303.7,-76C296.14,-76 287.69,-76 279.43,-76"/>
<polygon fill="black" stroke="black" points="279.51,-72.5 269.51,-76 279.51,-79.5 279.51,-72.5"/>
</g>
<!-- Matmul -->
<g id="node5" class="node">
<title>Matmul</title>
<polygon fill="#e5e8e8" stroke="black" points="152.25,-65.25 90,-65.25 90,-24.75 152.25,-24.75 152.25,-18.75 170.25,-45 152.25,-71.25 152.25,-65.25"/>
<text text-anchor="middle" x="130.12" y="-39.95" font-family="Times,serif" font-size="14.00">Matmul</text>
</g>
<!-- Matmul&#45;&gt;X -->
<g id="edge1" class="edge">
<title>Matmul&#45;&gt;X</title>
<path fill="none" stroke="black" d="M89.74,-55.52C81.67,-57.67 73.21,-59.93 65.22,-62.06"/>
<polygon fill="black" stroke="black" points="64.56,-58.62 55.8,-64.58 66.36,-65.38 64.56,-58.62"/>
</g>
<!-- Matmul&#45;&gt;W -->
<g id="edge2" class="edge">
<title>Matmul&#45;&gt;W</title>
<path fill="none" stroke="black" d="M89.74,-34.48C81.67,-32.33 73.21,-30.07 65.22,-27.94"/>
<polygon fill="black" stroke="black" points="66.36,-24.62 55.8,-25.42 64.56,-31.38 66.36,-24.62"/>
</g>
<!-- Sum&#45;&gt;b -->
<g id="edge4" class="edge">
<title>Sum&#45;&gt;b</title>
<path fill="none" stroke="black" d="M205.95,-84.88C194.27,-88.34 180.77,-92.33 168.47,-95.96"/>
<polygon fill="black" stroke="black" points="167.66,-92.55 159.06,-98.74 169.65,-99.26 167.66,-92.55"/>
</g>
<!-- Sum&#45;&gt;Matmul -->
<g id="edge3" class="edge">
<title>Sum&#45;&gt;Matmul</title>
<path fill="none" stroke="black" d="M205.95,-67.12C198.29,-64.85 189.84,-62.36 181.47,-59.88"/>
<polygon fill="black" stroke="black" points="182.61,-56.57 172.03,-57.09 180.63,-63.28 182.61,-56.57"/>
</g>
</g>
</svg>
