<?xml version="1.0" encoding="UTF-8" standalone="no"?>
<!DOCTYPE svg PUBLIC "-//W3C//DTD SVG 1.1//EN"
 "http://www.w3.org/Graphics/SVG/1.1/DTD/svg11.dtd">
<!-- Generated by graphviz version 9.0.0 (20230911.1827)
 -->
<!-- Title: D Pages: 1 -->
<svg width="368pt" height="125pt"
 viewBox="0.00 0.00 367.73 125.00" xmlns="http://www.w3.org/2000/svg" xmlns:xlink="http://www.w3.org/1999/xlink">
<g id="graph0" class="graph" transform="scale(1 1) rotate(0) translate(4 121)">
<title>D</title>
<polygon fill="white" stroke="none" points="-4,4 -4,-121 363.73,-121 363.73,4 -4,4"/>
<!-- X -->
<g id="node1" class="node">
<title>X</title>
<polygon fill="#d0d0ff" stroke="black" points="54,-90 4,-90 0,-86 0,-54 50,-54 54,-58 54,-90"/>
<polyline fill="none" stroke="black" points="50,-86 0,-86"/>
<polyline fill="none" stroke="black" points="50,-86 50,-54"/>
<polyline fill="none" stroke="black" points="50,-86 54,-90"/>
<text text-anchor="middle" x="27" y="-66.95" font-family="Times,serif" font-size="14.00">X</text>
</g>
<!-- W -->
<g id="node2" class="node">
<title>W</title>
<polygon fill="#d0d0ff" stroke="black" points="54,-36 4,-36 0,-32 0,0 50,0 54,-4 54,-36"/>
<polyline fill="none" stroke="black" points="50,-32 0,-32"/>
<polyline fill="none" stroke="black" points="50,-32 50,0"/>
<polyline fill="none" stroke="black" points="50,-32 54,-36"/>
<text text-anchor="middle" x="27" y="-12.95" font-family="Times,serif" font-size="14.00">W</text>
</g>
<!-- b -->
<g id="node3" class="node">
<title>b</title>
<polygon fill="#d0d0ff" stroke="black" points="158.12,-117 108.12,-117 104.12,-113 104.12,-81 154.12,-81 158.12,-85 158.12,-117"/>
<polyline fill="none" stroke="black" points="154.12,-113 104.12,-113"/>
<polyline fill="none" stroke="black" points="154.12,-113 154.12,-81"/>
<polyline fill="none" stroke="black" points="154.12,-113 158.12,-117"/>
<text text-anchor="middle" x="131.12" y="-93.95" font-family="Times,serif" font-size="14.00">b</text>
</g>
<!-- Z -->
<g id="node4" class="node">
<title>Z</title>
<polygon fill="#d0d0ff" stroke="black" points="359.73,-90 309.73,-90 305.73,-86 305.73,-54 355.73,-54 359.73,-58 359.73,-90"/>
<polyline fill="none" stroke="black" points="355.73,-86 305.73,-86"/>
<polyline fill="none" stroke="black" points="355.73,-86 355.73,-54"/>
<polyline fill="none" stroke="black" points="355.73,-86 359.73,-90"/>
<text text-anchor="middle" x="332.73" y="-66.95" font-family="Times,serif" font-size="14.00">Z</text>
</g>
<!-- Sum -->
<g id="node6" class="node">
<title>Sum</title>
<polygon fill="#e5e8e8" stroke="black" points="251.73,-92.25 208.23,-92.25 208.23,-51.75 251.73,-51.75 251.73,-45.75 269.73,-72 251.73,-98.25 251.73,-92.25"/>
<text text-anchor="middle" x="238.98" y="-66.95" font-family="Times,serif" font-size="14.00">Sum</text>
</g>
<!-- Z&#45;&gt;Sum -->
<g id="edge5" class="edge">
<title>Z&#45;&gt;Sum</title>
<path fill="none" stroke="black" d="M305.68,-72C298.12,-72 289.67,-72 281.41,-72"/>
<polygon fill="black" stroke="black" points="281.49,-68.5 271.49,-72 281.49,-75.5 281.49,-68.5"/>
</g>
<!-- Matmul -->
<g id="node5" class="node">
<title>Matmul</title>
<ellipse fill="none" stroke="black" cx="131.12" cy="-45" rx="41.12" ry="18"/>
<text text-anchor="middle" x="131.12" y="-39.95" font-family="Times,serif" font-size="14.00">Matmul</text>
</g>
<!-- Matmul&#45;&gt;X -->
<g id="edge1" class="edge">
<title>Matmul&#45;&gt;X</title>
<path fill="none" stroke="black" d="M95.26,-54.22C85.62,-56.76 75.13,-59.54 65.36,-62.12"/>
<polygon fill="black" stroke="black" points="64.55,-58.71 55.78,-64.65 66.34,-65.48 64.55,-58.71"/>
</g>
<!-- Matmul&#45;&gt;W -->
<g id="edge2" class="edge">
<title>Matmul&#45;&gt;W</title>
<path fill="none" stroke="black" d="M95.26,-35.78C85.62,-33.24 75.13,-30.46 65.36,-27.88"/>
<polygon fill="black" stroke="black" points="66.34,-24.52 55.78,-25.35 64.55,-31.29 66.34,-24.52"/>
</g>
<!-- Sum&#45;&gt;b -->
<g id="edge4" class="edge">
<title>Sum&#45;&gt;b</title>
<path fill="none" stroke="black" d="M207.93,-79.66C195.95,-82.72 182.03,-86.27 169.41,-89.49"/>
<polygon fill="black" stroke="black" points="168.58,-86.09 159.75,-91.95 170.31,-92.87 168.58,-86.09"/>
</g>
<!-- Sum&#45;&gt;Matmul -->
<g id="edge3" class="edge">
<title>Sum&#45;&gt;Matmul</title>
<path fill="none" stroke="black" d="M207.93,-64.34C198.69,-61.98 188.3,-59.33 178.24,-56.76"/>
<polygon fill="black" stroke="black" points="179.13,-53.38 168.58,-54.3 177.4,-60.16 179.13,-53.38"/>
</g>
</g>
</svg>
