<?xml version="1.0" encoding="UTF-8" standalone="no"?>
<!DOCTYPE svg PUBLIC "-//W3C//DTD SVG 1.1//EN"
 "http://www.w3.org/Graphics/SVG/1.1/DTD/svg11.dtd">
<!-- Generated by graphviz version 9.0.0 (20230911.1827)
 -->
<!-- Title: G Pages: 1 -->
<svg width="483pt" height="285pt"
 viewBox="0.00 0.00 483.00 285.25" xmlns="http://www.w3.org/2000/svg" xmlns:xlink="http://www.w3.org/1999/xlink">
<g id="graph0" class="graph" transform="scale(1 1) rotate(0) translate(4 281.25)">
<title>G</title>
<polygon fill="white" stroke="none" points="-4,4 -4,-281.25 479,-281.25 479,4 -4,4"/>
<!-- idx -->
<g id="node1" class="node">
<title>idx</title>
<polygon fill="none" stroke="black" points="176.5,-152.25 176.5,-270.25 304.5,-270.25 304.5,-152.25 176.5,-152.25"/>
<polygon fill="none" stroke="black" points="182.5,-230.25 182.5,-264.25 264.5,-264.25 264.5,-230.25 182.5,-230.25"/>
<text text-anchor="start" x="216.38" y="-241.95" font-family="Times,serif" font-size="14.00">…</text>
<polygon fill="none" stroke="black" points="266.5,-230.25 266.5,-264.25 298.5,-264.25 298.5,-230.25 266.5,-230.25"/>
<text text-anchor="start" x="275.38" y="-241.95" font-family="Times,serif" font-size="14.00">…</text>
<polygon fill="#d6eaf8" stroke="none" points="182.5,-194.25 182.5,-228.25 264.5,-228.25 264.5,-194.25 182.5,-194.25"/>
<polygon fill="none" stroke="black" points="182.5,-194.25 182.5,-228.25 264.5,-228.25 264.5,-194.25 182.5,-194.25"/>
<text text-anchor="start" x="191.25" y="-205.95" font-family="Times,serif" font-size="14.00">batch,in,out</text>
<polygon fill="none" stroke="black" points="266.5,-194.25 266.5,-228.25 298.5,-228.25 298.5,-194.25 266.5,-194.25"/>
<text text-anchor="start" x="275.38" y="-205.95" font-family="Times,serif" font-size="14.00">…</text>
<polygon fill="none" stroke="black" points="182.5,-158.25 182.5,-192.25 264.5,-192.25 264.5,-158.25 182.5,-158.25"/>
<text text-anchor="start" x="216.38" y="-169.95" font-family="Times,serif" font-size="14.00">…</text>
<polygon fill="none" stroke="black" points="266.5,-158.25 266.5,-192.25 298.5,-192.25 298.5,-158.25 266.5,-158.25"/>
<text text-anchor="start" x="275.38" y="-169.95" font-family="Times,serif" font-size="14.00">…</text>
<polygon fill="none" stroke="black" points="179.5,-155.25 179.5,-267.25 301.5,-267.25 301.5,-155.25 179.5,-155.25"/>
<polygon fill="none" stroke="black" points="173.5,-149.25 173.5,-273.25 307.5,-273.25 307.5,-149.25 173.5,-149.25"/>
<text text-anchor="start" x="225.88" y="-130.95" font-family="Times,serif" font-style="italic" font-size="14.00">index</text>
</g>
<!-- x -->
<g id="node2" class="node">
<title>x</title>
<polygon fill="none" stroke="black" points="3,-196 3,-227 65,-227 65,-196 3,-196"/>
<text text-anchor="start" x="27.25" y="-204.7" font-family="Times,serif" font-size="14.00">⋱</text>
<polygon fill="none" stroke="black" points="67,-196 67,-227 99,-227 99,-196 67,-196"/>
<text text-anchor="start" x="76.62" y="-204.7" font-family="Times,serif" font-size="14.00">⋰</text>
<polygon fill="#d6eaf8" stroke="none" points="3,-160 3,-194 65,-194 65,-160 3,-160"/>
<polygon fill="none" stroke="black" points="3,-160 3,-194 65,-194 65,-160 3,-160"/>
<text text-anchor="start" x="11.88" y="-172.7" font-family="Times,serif" font-size="14.00">x</text>
<text text-anchor="start" x="18.62" y="-172.7" font-family="Times,serif" baseline-shift="sub" font-size="14.00">batch,in</text>
<polygon fill="none" stroke="black" points="67,-160 67,-194 99,-194 99,-160 67,-160"/>
<text text-anchor="start" x="75.88" y="-171.7" font-family="Times,serif" font-size="14.00">…</text>
<polygon fill="none" stroke="black" points="3,-127 3,-158 65,-158 65,-127 3,-127"/>
<text text-anchor="start" x="27.62" y="-135.7" font-family="Times,serif" font-size="14.00">⋰</text>
<polygon fill="none" stroke="black" points="67,-127 67,-158 99,-158 99,-127 67,-127"/>
<text text-anchor="start" x="76.25" y="-135.7" font-family="Times,serif" font-size="14.00">⋱</text>
<polygon fill="none" stroke="black" points="0,-124 0,-230 102,-230 102,-124 0,-124"/>
</g>
<!-- idx&#45;&gt;x -->
<g id="edge4" class="edge">
<title>idx&#45;&gt;x</title>
<path fill="none" stroke="black" stroke-dasharray="1,5" d="M169.68,-191.44C151.15,-189.16 131.27,-186.72 113.23,-184.51"/>
<polygon fill="none" stroke="black" points="113.82,-181.06 103.47,-183.31 112.97,-188.01 113.82,-181.06"/>
<text text-anchor="start" x="121.5" y="-193.2" font-family="Times,serif" font-size="14.00">P</text>
<text text-anchor="start" x="129" y="-193.2" font-family="Times,serif" baseline-shift="sub" font-size="14.00">X</text>
<text text-anchor="start" x="137.25" y="-193.2" font-family="Times,serif" font-size="14.00">(i)</text>
</g>
<!-- w -->
<g id="node3" class="node">
<title>w</title>
<polygon fill="none" stroke="black" points="7,-72 7,-103 61,-103 61,-72 7,-72"/>
<text text-anchor="start" x="27.25" y="-80.7" font-family="Times,serif" font-size="14.00">⋱</text>
<polygon fill="none" stroke="black" points="63,-72 63,-103 95,-103 95,-72 63,-72"/>
<text text-anchor="start" x="72.62" y="-80.7" font-family="Times,serif" font-size="14.00">⋰</text>
<polygon fill="#d6eaf8" stroke="none" points="7,-36 7,-70 61,-70 61,-36 7,-36"/>
<polygon fill="none" stroke="black" points="7,-36 7,-70 61,-70 61,-36 7,-36"/>
<text text-anchor="start" x="15.62" y="-48.7" font-family="Times,serif" font-size="14.00">w</text>
<text text-anchor="start" x="25.38" y="-48.7" font-family="Times,serif" baseline-shift="sub" font-size="14.00">in,out</text>
<polygon fill="none" stroke="black" points="63,-36 63,-70 95,-70 95,-36 63,-36"/>
<text text-anchor="start" x="71.88" y="-47.7" font-family="Times,serif" font-size="14.00">…</text>
<polygon fill="none" stroke="black" points="7,-3 7,-34 61,-34 61,-3 7,-3"/>
<text text-anchor="start" x="27.62" y="-11.7" font-family="Times,serif" font-size="14.00">⋰</text>
<polygon fill="none" stroke="black" points="63,-3 63,-34 95,-34 95,-3 63,-3"/>
<text text-anchor="start" x="72.25" y="-11.7" font-family="Times,serif" font-size="14.00">⋱</text>
<polygon fill="none" stroke="black" points="4,0 4,-106 98,-106 98,0 4,0"/>
</g>
<!-- idx&#45;&gt;w -->
<g id="edge5" class="edge">
<title>idx&#45;&gt;w</title>
<path fill="none" stroke="black" stroke-dasharray="1,5" d="M169.68,-145.26C148.92,-128.98 126.47,-111.38 106.8,-95.97"/>
<polygon fill="none" stroke="black" points="109.2,-93.4 99.17,-89.98 104.88,-98.91 109.2,-93.4"/>
<text text-anchor="start" x="120" y="-134.2" font-family="Times,serif" font-size="14.00">P</text>
<text text-anchor="start" x="127.5" y="-134.2" font-family="Times,serif" baseline-shift="sub" font-size="14.00">W</text>
<text text-anchor="start" x="138.75" y="-134.2" font-family="Times,serif" font-size="14.00">(i)</text>
</g>
<!-- z -->
<g id="node5" class="node">
<title>z</title>
<polygon fill="none" stroke="black" points="378.25,-18.25 378.25,-137.75 472,-137.75 472,-18.25 378.25,-18.25"/>
<polygon fill="none" stroke="black" points="384.25,-97.25 384.25,-131.75 466,-131.75 466,-97.25 384.25,-97.25"/>
<text text-anchor="start" x="418" y="-109.45" font-family="Times,serif" font-size="14.00">…</text>
<polygon fill="#d6eaf8" stroke="none" points="384.25,-60.75 384.25,-95.25 466,-95.25 466,-60.75 384.25,-60.75"/>
<polygon fill="none" stroke="black" points="384.25,-60.75 384.25,-95.25 466,-95.25 466,-60.75 384.25,-60.75"/>
<text text-anchor="start" x="393.25" y="-73.95" font-family="Times,serif" font-size="14.00">Z</text>
<text text-anchor="start" x="401.5" y="-73.95" font-family="Times,serif" baseline-shift="sub" font-size="14.00">batch,in,out</text>
<polygon fill="none" stroke="black" points="384.25,-24.25 384.25,-58.75 466,-58.75 466,-24.25 384.25,-24.25"/>
<text text-anchor="start" x="418" y="-36.45" font-family="Times,serif" font-size="14.00">…</text>
<polygon fill="none" stroke="black" points="381.25,-21.25 381.25,-134.75 469,-134.75 469,-21.25 381.25,-21.25"/>
<polygon fill="none" stroke="black" points="375.25,-15.25 375.25,-140.75 475,-140.75 475,-15.25 375.25,-15.25"/>
</g>
<!-- idx&#45;&gt;z -->
<g id="edge6" class="edge">
<title>idx&#45;&gt;z</title>
<path fill="none" stroke="black" stroke-dasharray="1,5" d="M311.16,-153.46C329.32,-141.33 348.69,-128.39 366.17,-116.72"/>
<polygon fill="none" stroke="black" points="368.03,-119.68 374.41,-111.21 364.15,-113.86 368.03,-119.68"/>
<text text-anchor="start" x="329.5" y="-143.2" font-family="Times,serif" font-size="14.00">P</text>
<text text-anchor="start" x="337" y="-143.2" font-family="Times,serif" baseline-shift="sub" font-size="14.00">Z</text>
<text text-anchor="start" x="344.5" y="-143.2" font-family="Times,serif" font-size="14.00">(i)</text>
</g>
<!-- op -->
<g id="node4" class="node">
<title>op</title>
<polygon fill="#e5e8e8" stroke="black" points="253.25,-98.25 209.75,-98.25 209.75,-57.75 253.25,-57.75 253.25,-51.75 271.25,-78 253.25,-104.25 253.25,-98.25"/>
<text text-anchor="middle" x="240.5" y="-72.95" font-family="Times,serif" font-size="14.00">Prod</text>
</g>
<!-- op&#45;&gt;x -->
<g id="edge1" class="edge">
<title>op&#45;&gt;x</title>
<path fill="none" stroke="black" d="M209.41,-82.04C184.23,-86.39 148.02,-94.96 120,-111 116.61,-112.94 113.27,-115.08 109.99,-117.38"/>
<polygon fill="black" stroke="black" points="108.02,-114.49 102.15,-123.31 112.24,-120.07 108.02,-114.49"/>
</g>
<!-- op&#45;&gt;w -->
<g id="edge2" class="edge">
<title>op&#45;&gt;w</title>
<path fill="none" stroke="black" d="M209.37,-73.98C182.43,-70.39 142.2,-65.03 109.17,-60.62"/>
<polygon fill="black" stroke="black" points="109.69,-57.16 99.31,-59.31 108.76,-64.1 109.69,-57.16"/>
</g>
<!-- z&#45;&gt;op -->
<g id="edge3" class="edge">
<title>z&#45;&gt;op</title>
<path fill="none" stroke="black" d="M375.66,-78C346.72,-78 310.36,-78 282.79,-78"/>
<polygon fill="black" stroke="black" points="283.07,-74.5 273.07,-78 283.07,-81.5 283.07,-74.5"/>
</g>
</g>
</svg>
