<?xml version="1.0" encoding="UTF-8" standalone="no"?>
<!DOCTYPE svg PUBLIC "-//W3C//DTD SVG 1.1//EN"
 "http://www.w3.org/Graphics/SVG/1.1/DTD/svg11.dtd">
<!-- Generated by graphviz version 9.0.0 (20230911.1827)
 -->
<!-- Title: G Pages: 1 -->
<svg width="1197pt" height="413pt"
 viewBox="0.00 0.00 1197.00 413.25" xmlns="http://www.w3.org/2000/svg" xmlns:xlink="http://www.w3.org/1999/xlink">
<g id="graph0" class="graph" transform="scale(1 1) rotate(0) translate(4 409.25)">
<title>G</title>
<polygon fill="white" stroke="none" points="-4,4 -4,-409.25 1193,-409.25 1193,4 -4,4"/>
<!-- idx -->
<g id="node1" class="node">
<title>idx</title>
<polygon fill="none" stroke="black" points="176.5,-262 176.5,-380 304.5,-380 304.5,-262 176.5,-262"/>
<polygon fill="none" stroke="black" points="182.5,-340 182.5,-374 264.5,-374 264.5,-340 182.5,-340"/>
<text text-anchor="start" x="216.38" y="-351.7" font-family="Times,serif" font-size="14.00">…</text>
<polygon fill="none" stroke="black" points="266.5,-340 266.5,-374 298.5,-374 298.5,-340 266.5,-340"/>
<text text-anchor="start" x="275.38" y="-351.7" font-family="Times,serif" font-size="14.00">…</text>
<polygon fill="#d6eaf8" stroke="none" points="182.5,-304 182.5,-338 264.5,-338 264.5,-304 182.5,-304"/>
<polygon fill="none" stroke="black" points="182.5,-304 182.5,-338 264.5,-338 264.5,-304 182.5,-304"/>
<text text-anchor="start" x="191.25" y="-315.7" font-family="Times,serif" font-size="14.00">batch,in,out</text>
<polygon fill="none" stroke="black" points="266.5,-304 266.5,-338 298.5,-338 298.5,-304 266.5,-304"/>
<text text-anchor="start" x="275.38" y="-315.7" font-family="Times,serif" font-size="14.00">…</text>
<polygon fill="none" stroke="black" points="182.5,-268 182.5,-302 264.5,-302 264.5,-268 182.5,-268"/>
<text text-anchor="start" x="216.38" y="-279.7" font-family="Times,serif" font-size="14.00">…</text>
<polygon fill="none" stroke="black" points="266.5,-268 266.5,-302 298.5,-302 298.5,-268 266.5,-268"/>
<text text-anchor="start" x="275.38" y="-279.7" font-family="Times,serif" font-size="14.00">…</text>
<polygon fill="none" stroke="black" points="179.5,-265 179.5,-377 301.5,-377 301.5,-265 179.5,-265"/>
<polygon fill="none" stroke="black" points="173.5,-259 173.5,-383 307.5,-383 307.5,-259 173.5,-259"/>
<text text-anchor="start" x="225.88" y="-240.7" font-family="Times,serif" font-style="italic" font-size="14.00">index</text>
</g>
<!-- x -->
<g id="node2" class="node">
<title>x</title>
<polygon fill="none" stroke="black" points="3,-305.75 3,-336.75 65,-336.75 65,-305.75 3,-305.75"/>
<text text-anchor="start" x="27.25" y="-314.45" font-family="Times,serif" font-size="14.00">⋱</text>
<polygon fill="none" stroke="black" points="67,-305.75 67,-336.75 99,-336.75 99,-305.75 67,-305.75"/>
<text text-anchor="start" x="76.62" y="-314.45" font-family="Times,serif" font-size="14.00">⋰</text>
<polygon fill="#d6eaf8" stroke="none" points="3,-269.75 3,-303.75 65,-303.75 65,-269.75 3,-269.75"/>
<polygon fill="none" stroke="black" points="3,-269.75 3,-303.75 65,-303.75 65,-269.75 3,-269.75"/>
<text text-anchor="start" x="11.88" y="-282.45" font-family="Times,serif" font-size="14.00">x</text>
<text text-anchor="start" x="18.62" y="-282.45" font-family="Times,serif" baseline-shift="sub" font-size="14.00">batch,in</text>
<polygon fill="none" stroke="black" points="67,-269.75 67,-303.75 99,-303.75 99,-269.75 67,-269.75"/>
<text text-anchor="start" x="75.88" y="-281.45" font-family="Times,serif" font-size="14.00">…</text>
<polygon fill="none" stroke="black" points="3,-236.75 3,-267.75 65,-267.75 65,-236.75 3,-236.75"/>
<text text-anchor="start" x="27.62" y="-245.45" font-family="Times,serif" font-size="14.00">⋰</text>
<polygon fill="none" stroke="black" points="67,-236.75 67,-267.75 99,-267.75 99,-236.75 67,-236.75"/>
<text text-anchor="start" x="76.25" y="-245.45" font-family="Times,serif" font-size="14.00">⋱</text>
<polygon fill="none" stroke="black" points="0,-233.75 0,-339.75 102,-339.75 102,-233.75 0,-233.75"/>
</g>
<!-- idx&#45;&gt;x -->
<g id="edge4" class="edge">
<title>idx&#45;&gt;x</title>
<path fill="none" stroke="black" stroke-dasharray="1,5" d="M169.68,-301.19C151.15,-298.91 131.27,-296.47 113.23,-294.26"/>
<polygon fill="none" stroke="black" points="113.82,-290.81 103.47,-293.06 112.97,-297.76 113.82,-290.81"/>
<text text-anchor="start" x="121.5" y="-302.95" font-family="Times,serif" font-size="14.00">P</text>
<text text-anchor="start" x="129" y="-302.95" font-family="Times,serif" baseline-shift="sub" font-size="14.00">X</text>
<text text-anchor="start" x="137.25" y="-302.95" font-family="Times,serif" font-size="14.00">(i)</text>
</g>
<!-- w -->
<g id="node3" class="node">
<title>w</title>
<polygon fill="none" stroke="black" points="7,-181.75 7,-212.75 61,-212.75 61,-181.75 7,-181.75"/>
<text text-anchor="start" x="27.25" y="-190.45" font-family="Times,serif" font-size="14.00">⋱</text>
<polygon fill="none" stroke="black" points="63,-181.75 63,-212.75 95,-212.75 95,-181.75 63,-181.75"/>
<text text-anchor="start" x="72.62" y="-190.45" font-family="Times,serif" font-size="14.00">⋰</text>
<polygon fill="#d6eaf8" stroke="none" points="7,-145.75 7,-179.75 61,-179.75 61,-145.75 7,-145.75"/>
<polygon fill="none" stroke="black" points="7,-145.75 7,-179.75 61,-179.75 61,-145.75 7,-145.75"/>
<text text-anchor="start" x="15.62" y="-158.45" font-family="Times,serif" font-size="14.00">w</text>
<text text-anchor="start" x="25.38" y="-158.45" font-family="Times,serif" baseline-shift="sub" font-size="14.00">in,out</text>
<polygon fill="none" stroke="black" points="63,-145.75 63,-179.75 95,-179.75 95,-145.75 63,-145.75"/>
<text text-anchor="start" x="71.88" y="-157.45" font-family="Times,serif" font-size="14.00">…</text>
<polygon fill="none" stroke="black" points="7,-112.75 7,-143.75 61,-143.75 61,-112.75 7,-112.75"/>
<text text-anchor="start" x="27.62" y="-121.45" font-family="Times,serif" font-size="14.00">⋰</text>
<polygon fill="none" stroke="black" points="63,-112.75 63,-143.75 95,-143.75 95,-112.75 63,-112.75"/>
<text text-anchor="start" x="72.25" y="-121.45" font-family="Times,serif" font-size="14.00">⋱</text>
<polygon fill="none" stroke="black" points="4,-109.75 4,-215.75 98,-215.75 98,-109.75 4,-109.75"/>
</g>
<!-- idx&#45;&gt;w -->
<g id="edge5" class="edge">
<title>idx&#45;&gt;w</title>
<path fill="none" stroke="black" stroke-dasharray="1,5" d="M169.68,-255.01C148.92,-238.73 126.47,-221.13 106.8,-205.72"/>
<polygon fill="none" stroke="black" points="109.2,-203.15 99.17,-199.73 104.88,-208.66 109.2,-203.15"/>
<text text-anchor="start" x="120" y="-243.95" font-family="Times,serif" font-size="14.00">P</text>
<text text-anchor="start" x="127.5" y="-243.95" font-family="Times,serif" baseline-shift="sub" font-size="14.00">W</text>
<text text-anchor="start" x="138.75" y="-243.95" font-family="Times,serif" font-size="14.00">(i)</text>
</g>
<!-- z -->
<g id="node5" class="node">
<title>z</title>
<polygon fill="none" stroke="black" points="378.25,-128 378.25,-247.5 472,-247.5 472,-128 378.25,-128"/>
<polygon fill="none" stroke="black" points="384.25,-207 384.25,-241.5 466,-241.5 466,-207 384.25,-207"/>
<text text-anchor="start" x="418" y="-219.2" font-family="Times,serif" font-size="14.00">…</text>
<polygon fill="#d6eaf8" stroke="none" points="384.25,-170.5 384.25,-205 466,-205 466,-170.5 384.25,-170.5"/>
<polygon fill="none" stroke="black" points="384.25,-170.5 384.25,-205 466,-205 466,-170.5 384.25,-170.5"/>
<text text-anchor="start" x="393.25" y="-183.7" font-family="Times,serif" font-size="14.00">Z</text>
<text text-anchor="start" x="401.5" y="-183.7" font-family="Times,serif" baseline-shift="sub" font-size="14.00">batch,in,out</text>
<polygon fill="none" stroke="black" points="384.25,-134 384.25,-168.5 466,-168.5 466,-134 384.25,-134"/>
<text text-anchor="start" x="418" y="-146.2" font-family="Times,serif" font-size="14.00">…</text>
<polygon fill="none" stroke="black" points="381.25,-131 381.25,-244.5 469,-244.5 469,-131 381.25,-131"/>
<polygon fill="none" stroke="black" points="375.25,-125 375.25,-250.5 475,-250.5 475,-125 375.25,-125"/>
</g>
<!-- idx&#45;&gt;z -->
<g id="edge6" class="edge">
<title>idx&#45;&gt;z</title>
<path fill="none" stroke="black" stroke-dasharray="1,5" d="M311.16,-263.21C329.32,-251.08 348.69,-238.14 366.17,-226.47"/>
<polygon fill="none" stroke="black" points="368.03,-229.43 374.41,-220.96 364.15,-223.61 368.03,-229.43"/>
<text text-anchor="start" x="329.5" y="-252.95" font-family="Times,serif" font-size="14.00">P</text>
<text text-anchor="start" x="337" y="-252.95" font-family="Times,serif" baseline-shift="sub" font-size="14.00">Z</text>
<text text-anchor="start" x="344.5" y="-252.95" font-family="Times,serif" font-size="14.00">(i)</text>
</g>
<!-- Prod -->
<g id="node4" class="node">
<title>Prod</title>
<polygon fill="#e5e8e8" stroke="black" points="253.25,-208 209.75,-208 209.75,-167.5 253.25,-167.5 253.25,-161.5 271.25,-187.75 253.25,-214 253.25,-208"/>
<text text-anchor="middle" x="240.5" y="-182.7" font-family="Times,serif" font-size="14.00">Prod</text>
</g>
<!-- Prod&#45;&gt;x -->
<g id="edge1" class="edge">
<title>Prod&#45;&gt;x</title>
<path fill="none" stroke="black" d="M209.41,-191.79C184.23,-196.14 148.02,-204.71 120,-220.75 116.61,-222.69 113.27,-224.83 109.99,-227.13"/>
<polygon fill="black" stroke="black" points="108.02,-224.24 102.15,-233.06 112.24,-229.82 108.02,-224.24"/>
</g>
<!-- Prod&#45;&gt;w -->
<g id="edge2" class="edge">
<title>Prod&#45;&gt;w</title>
<path fill="none" stroke="black" d="M209.37,-183.73C182.43,-180.14 142.2,-174.78 109.17,-170.37"/>
<polygon fill="black" stroke="black" points="109.69,-166.91 99.31,-169.06 108.76,-173.85 109.69,-166.91"/>
</g>
<!-- z&#45;&gt;Prod -->
<g id="edge3" class="edge">
<title>z&#45;&gt;Prod</title>
<path fill="none" stroke="black" d="M375.66,-187.75C346.72,-187.75 310.36,-187.75 282.79,-187.75"/>
<polygon fill="black" stroke="black" points="283.07,-184.25 273.07,-187.75 283.07,-191.25 283.07,-184.25"/>
</g>
<!-- idx2 -->
<g id="node6" class="node">
<title>idx2</title>
<polygon fill="none" stroke="black" points="550.5,-360.25 550.5,-394.25 618.5,-394.25 618.5,-360.25 550.5,-360.25"/>
<text text-anchor="start" x="577.38" y="-371.95" font-family="Times,serif" font-size="14.00">…</text>
<polygon fill="none" stroke="black" points="620.5,-360.25 620.5,-394.25 652.5,-394.25 652.5,-360.25 620.5,-360.25"/>
<text text-anchor="start" x="629.38" y="-371.95" font-family="Times,serif" font-size="14.00">…</text>
<polygon fill="#d6eaf8" stroke="none" points="550.5,-324.25 550.5,-358.25 618.5,-358.25 618.5,-324.25 550.5,-324.25"/>
<polygon fill="none" stroke="black" points="550.5,-324.25 550.5,-358.25 618.5,-358.25 618.5,-324.25 550.5,-324.25"/>
<text text-anchor="start" x="559.38" y="-335.95" font-family="Times,serif" font-size="14.00">batch,out</text>
<polygon fill="none" stroke="black" points="620.5,-324.25 620.5,-358.25 652.5,-358.25 652.5,-324.25 620.5,-324.25"/>
<text text-anchor="start" x="629.38" y="-335.95" font-family="Times,serif" font-size="14.00">…</text>
<polygon fill="none" stroke="black" points="550.5,-288.25 550.5,-322.25 618.5,-322.25 618.5,-288.25 550.5,-288.25"/>
<text text-anchor="start" x="577.38" y="-299.95" font-family="Times,serif" font-size="14.00">…</text>
<polygon fill="none" stroke="black" points="620.5,-288.25 620.5,-322.25 652.5,-322.25 652.5,-288.25 620.5,-288.25"/>
<text text-anchor="start" x="629.38" y="-299.95" font-family="Times,serif" font-size="14.00">…</text>
<polygon fill="none" stroke="black" points="547.5,-285.25 547.5,-397.25 655.5,-397.25 655.5,-285.25 547.5,-285.25"/>
<text text-anchor="start" x="589.5" y="-265.95" font-family="Times,serif" font-size="14.00">⟪in⟫</text>
<text text-anchor="start" x="586.88" y="-240.45" font-family="Times,serif" font-style="italic" font-size="14.00">index</text>
</g>
<!-- idx2&#45;&gt;z -->
<g id="edge9" class="edge">
<title>idx2&#45;&gt;z</title>
<path fill="none" stroke="black" stroke-dasharray="1,5" d="M539.51,-272.93C521.45,-259.36 501.73,-244.55 483.87,-231.13"/>
<polygon fill="none" stroke="black" points="486.03,-228.38 475.94,-225.17 481.83,-233.98 486.03,-228.38"/>
<text text-anchor="start" x="493" y="-260.95" font-family="Times,serif" font-size="14.00">P</text>
<text text-anchor="start" x="500.5" y="-260.95" font-family="Times,serif" baseline-shift="sub" font-size="14.00">X</text>
<text text-anchor="start" x="508.75" y="-260.95" font-family="Times,serif" font-size="14.00">(i)</text>
</g>
<!-- v -->
<g id="node8" class="node">
<title>v</title>
<polygon fill="none" stroke="black" points="731,-206.75 731,-240.75 799,-240.75 799,-206.75 731,-206.75"/>
<text text-anchor="start" x="757.88" y="-218.45" font-family="Times,serif" font-size="14.00">…</text>
<polygon fill="none" stroke="black" points="801,-206.75 801,-240.75 833,-240.75 833,-206.75 801,-206.75"/>
<text text-anchor="start" x="809.88" y="-218.45" font-family="Times,serif" font-size="14.00">…</text>
<polygon fill="#d6eaf8" stroke="none" points="731,-170.75 731,-204.75 799,-204.75 799,-170.75 731,-170.75"/>
<polygon fill="none" stroke="black" points="731,-170.75 731,-204.75 799,-204.75 799,-170.75 731,-170.75"/>
<text text-anchor="start" x="739.88" y="-183.45" font-family="Times,serif" font-size="14.00">y</text>
<text text-anchor="start" x="746.62" y="-183.45" font-family="Times,serif" baseline-shift="sub" font-size="14.00">batch,out</text>
<polygon fill="none" stroke="black" points="801,-170.75 801,-204.75 833,-204.75 833,-170.75 801,-170.75"/>
<text text-anchor="start" x="809.88" y="-182.45" font-family="Times,serif" font-size="14.00">…</text>
<polygon fill="none" stroke="black" points="731,-134.75 731,-168.75 799,-168.75 799,-134.75 731,-134.75"/>
<text text-anchor="start" x="757.88" y="-146.45" font-family="Times,serif" font-size="14.00">…</text>
<polygon fill="none" stroke="black" points="801,-134.75 801,-168.75 833,-168.75 833,-134.75 801,-134.75"/>
<text text-anchor="start" x="809.88" y="-146.45" font-family="Times,serif" font-size="14.00">…</text>
<polygon fill="none" stroke="black" points="728,-131.75 728,-243.75 836,-243.75 836,-131.75 728,-131.75"/>
</g>
<!-- idx2&#45;&gt;v -->
<g id="edge10" class="edge">
<title>idx2&#45;&gt;v</title>
<path fill="none" stroke="black" stroke-dasharray="1,5" d="M663.19,-274.21C681.39,-260.85 701.36,-246.2 719.61,-232.81"/>
<polygon fill="none" stroke="black" points="721.2,-235.98 727.19,-227.24 717.06,-230.34 721.2,-235.98"/>
<text text-anchor="start" x="681.5" y="-260.95" font-family="Times,serif" font-size="14.00">P</text>
<text text-anchor="start" x="689" y="-260.95" font-family="Times,serif" baseline-shift="sub" font-size="14.00">V</text>
<text text-anchor="start" x="697.25" y="-260.95" font-family="Times,serif" font-size="14.00">(i)</text>
</g>
<!-- SumDim -->
<g id="node7" class="node">
<title>SumDim</title>
<polygon fill="#e5e8e8" stroke="black" points="626.62,-208 558.38,-208 558.38,-161.5 576.38,-161.5 576.38,-167.5 626.62,-167.5 626.62,-161.5 644.62,-187.75 626.62,-214 626.62,-208"/>
<text text-anchor="middle" x="601.5" y="-182.7" font-family="Times,serif" font-size="14.00">SumDim</text>
</g>
<!-- SumDim&#45;&gt;z -->
<g id="edge7" class="edge">
<title>SumDim&#45;&gt;z</title>
<path fill="none" stroke="black" d="M558.29,-187.75C536.63,-187.75 509.88,-187.75 486.12,-187.75"/>
<polygon fill="black" stroke="black" points="486.25,-184.25 476.25,-187.75 486.25,-191.25 486.25,-184.25"/>
</g>
<!-- v&#45;&gt;SumDim -->
<g id="edge8" class="edge">
<title>v&#45;&gt;SumDim</title>
<path fill="none" stroke="black" d="M728.41,-187.75C705.62,-187.75 678.98,-187.75 656.08,-187.75"/>
<polygon fill="black" stroke="black" points="656.35,-184.25 646.35,-187.75 656.35,-191.25 656.35,-184.25"/>
</g>
<!-- idx3 -->
<g id="node9" class="node">
<title>idx3</title>
<polygon fill="none" stroke="black" points="907.5,-231 907.5,-265 975.5,-265 975.5,-231 907.5,-231"/>
<text text-anchor="start" x="934.38" y="-242.7" font-family="Times,serif" font-size="14.00">…</text>
<polygon fill="none" stroke="black" points="977.5,-231 977.5,-265 1009.5,-265 1009.5,-231 977.5,-231"/>
<text text-anchor="start" x="986.38" y="-242.7" font-family="Times,serif" font-size="14.00">…</text>
<polygon fill="#d6eaf8" stroke="none" points="907.5,-195 907.5,-229 975.5,-229 975.5,-195 907.5,-195"/>
<polygon fill="none" stroke="black" points="907.5,-195 907.5,-229 975.5,-229 975.5,-195 907.5,-195"/>
<text text-anchor="start" x="916.38" y="-206.7" font-family="Times,serif" font-size="14.00">batch,out</text>
<polygon fill="none" stroke="black" points="977.5,-195 977.5,-229 1009.5,-229 1009.5,-195 977.5,-195"/>
<text text-anchor="start" x="986.38" y="-206.7" font-family="Times,serif" font-size="14.00">…</text>
<polygon fill="none" stroke="black" points="907.5,-159 907.5,-193 975.5,-193 975.5,-159 907.5,-159"/>
<text text-anchor="start" x="934.38" y="-170.7" font-family="Times,serif" font-size="14.00">…</text>
<polygon fill="none" stroke="black" points="977.5,-159 977.5,-193 1009.5,-193 1009.5,-159 977.5,-159"/>
<text text-anchor="start" x="986.38" y="-170.7" font-family="Times,serif" font-size="14.00">…</text>
<polygon fill="none" stroke="black" points="904.5,-156 904.5,-268 1012.5,-268 1012.5,-156 904.5,-156"/>
<text text-anchor="start" x="943.88" y="-137.7" font-family="Times,serif" font-style="italic" font-size="14.00">index</text>
</g>
<!-- idx3&#45;&gt;v -->
<g id="edge14" class="edge">
<title>idx3&#45;&gt;v</title>
<path fill="none" stroke="black" stroke-dasharray="1,5" d="M900.84,-196.53C883.7,-195.25 864.75,-193.84 847.16,-192.53"/>
<polygon fill="none" stroke="black" points="847.56,-189.05 837.33,-191.8 847.04,-196.03 847.56,-189.05"/>
<text text-anchor="start" x="854" y="-198.95" font-family="Times,serif" font-size="14.00">P</text>
<text text-anchor="start" x="861.5" y="-198.95" font-family="Times,serif" baseline-shift="sub" font-size="14.00">V</text>
<text text-anchor="start" x="869.75" y="-198.95" font-family="Times,serif" font-size="14.00">(i)</text>
</g>
<!-- b -->
<g id="node10" class="node">
<title>b</title>
<polygon fill="#d6eaf8" stroke="none" points="762.12,-76 762.12,-110.5 801.88,-110.5 801.88,-76 762.12,-76"/>
<polygon fill="none" stroke="black" points="762.12,-76 762.12,-110.5 801.88,-110.5 801.88,-76 762.12,-76"/>
<text text-anchor="start" x="771.12" y="-89.2" font-family="Times,serif" font-size="14.00">b</text>
<text text-anchor="start" x="777.88" y="-89.2" font-family="Times,serif" baseline-shift="sub" font-size="14.00">out</text>
<polygon fill="none" stroke="black" points="762.12,-39.5 762.12,-74 801.88,-74 801.88,-39.5 762.12,-39.5"/>
<text text-anchor="start" x="774.88" y="-51.7" font-family="Times,serif" font-size="14.00">…</text>
<polygon fill="none" stroke="black" points="762.12,-3 762.12,-37.5 801.88,-37.5 801.88,-3 762.12,-3"/>
<text text-anchor="start" x="774.88" y="-15.2" font-family="Times,serif" font-size="14.00">…</text>
<polygon fill="none" stroke="black" points="759.12,0 759.12,-113.5 804.88,-113.5 804.88,0 759.12,0"/>
</g>
<!-- idx3&#45;&gt;b -->
<g id="edge15" class="edge">
<title>idx3&#45;&gt;b</title>
<path fill="none" stroke="black" stroke-dasharray="1,5" d="M900.84,-154C871.72,-129.97 837.4,-101.64 813.33,-81.78"/>
<polygon fill="none" stroke="black" points="815.74,-79.23 805.8,-75.57 811.29,-84.63 815.74,-79.23"/>
<text text-anchor="start" x="854.38" y="-140.95" font-family="Times,serif" font-size="14.00">P</text>
<text text-anchor="start" x="861.88" y="-140.95" font-family="Times,serif" baseline-shift="sub" font-size="14.00">B</text>
<text text-anchor="start" x="869.38" y="-140.95" font-family="Times,serif" font-size="14.00">(i)</text>
</g>
<!-- y -->
<g id="node12" class="node">
<title>y</title>
<polygon fill="none" stroke="black" points="1084,-103.75 1084,-137.75 1152,-137.75 1152,-103.75 1084,-103.75"/>
<text text-anchor="start" x="1110.88" y="-115.45" font-family="Times,serif" font-size="14.00">…</text>
<polygon fill="none" stroke="black" points="1154,-103.75 1154,-137.75 1186,-137.75 1186,-103.75 1154,-103.75"/>
<text text-anchor="start" x="1162.88" y="-115.45" font-family="Times,serif" font-size="14.00">…</text>
<polygon fill="#d6eaf8" stroke="none" points="1084,-67.75 1084,-101.75 1152,-101.75 1152,-67.75 1084,-67.75"/>
<polygon fill="none" stroke="black" points="1084,-67.75 1084,-101.75 1152,-101.75 1152,-67.75 1084,-67.75"/>
<text text-anchor="start" x="1092.88" y="-80.45" font-family="Times,serif" font-size="14.00">y</text>
<text text-anchor="start" x="1099.62" y="-80.45" font-family="Times,serif" baseline-shift="sub" font-size="14.00">batch,out</text>
<polygon fill="none" stroke="black" points="1154,-67.75 1154,-101.75 1186,-101.75 1186,-67.75 1154,-67.75"/>
<text text-anchor="start" x="1162.88" y="-79.45" font-family="Times,serif" font-size="14.00">…</text>
<polygon fill="none" stroke="black" points="1084,-31.75 1084,-65.75 1152,-65.75 1152,-31.75 1084,-31.75"/>
<text text-anchor="start" x="1110.88" y="-43.45" font-family="Times,serif" font-size="14.00">…</text>
<polygon fill="none" stroke="black" points="1154,-31.75 1154,-65.75 1186,-65.75 1186,-31.75 1154,-31.75"/>
<text text-anchor="start" x="1162.88" y="-43.45" font-family="Times,serif" font-size="14.00">…</text>
<polygon fill="none" stroke="black" points="1081,-28.75 1081,-140.75 1189,-140.75 1189,-28.75 1081,-28.75"/>
</g>
<!-- idx3&#45;&gt;y -->
<g id="edge16" class="edge">
<title>idx3&#45;&gt;y</title>
<path fill="none" stroke="black" stroke-dasharray="1,5" d="M1016.4,-162.93C1034.14,-151.13 1053.8,-138.07 1071.88,-126.05"/>
<polygon fill="none" stroke="black" points="1073.52,-129.16 1079.91,-120.71 1069.64,-123.33 1073.52,-129.16"/>
<text text-anchor="start" x="1034.5" y="-152.95" font-family="Times,serif" font-size="14.00">P</text>
<text text-anchor="start" x="1042" y="-152.95" font-family="Times,serif" baseline-shift="sub" font-size="14.00">Y</text>
<text text-anchor="start" x="1050.25" y="-152.95" font-family="Times,serif" font-size="14.00">(i)</text>
</g>
<!-- Sum -->
<g id="node11" class="node">
<title>Sum</title>
<polygon fill="#e5e8e8" stroke="black" points="971.25,-105 927.75,-105 927.75,-64.5 971.25,-64.5 971.25,-58.5 989.25,-84.75 971.25,-111 971.25,-105"/>
<text text-anchor="middle" x="958.5" y="-79.7" font-family="Times,serif" font-size="14.00">Sum</text>
</g>
<!-- Sum&#45;&gt;v -->
<g id="edge11" class="edge">
<title>Sum&#45;&gt;v</title>
<path fill="none" stroke="black" d="M927.49,-91.59C906,-97.32 876.93,-106.83 854,-120.75 850.89,-122.64 847.79,-124.69 844.74,-126.85"/>
<polygon fill="black" stroke="black" points="842.82,-123.92 836.93,-132.73 847.03,-129.51 842.82,-123.92"/>
</g>
<!-- Sum&#45;&gt;b -->
<g id="edge12" class="edge">
<title>Sum&#45;&gt;b</title>
<path fill="none" stroke="black" d="M927.5,-79.94C896.35,-74.94 847.75,-67.14 815.65,-61.99"/>
<polygon fill="black" stroke="black" points="816.55,-58.59 806.12,-60.46 815.44,-65.5 816.55,-58.59"/>
</g>
<!-- y&#45;&gt;Sum -->
<g id="edge13" class="edge">
<title>y&#45;&gt;Sum</title>
<path fill="none" stroke="black" d="M1081.17,-84.75C1055.4,-84.75 1024.85,-84.75 1000.81,-84.75"/>
<polygon fill="black" stroke="black" points="1001.09,-81.25 991.09,-84.75 1001.09,-88.25 1001.09,-81.25"/>
</g>
</g>
</svg>
