<?xml version="1.0" encoding="UTF-8" standalone="no"?>
<!DOCTYPE svg PUBLIC "-//W3C//DTD SVG 1.1//EN"
 "http://www.w3.org/Graphics/SVG/1.1/DTD/svg11.dtd">
<!-- Generated by graphviz version 9.0.0 (20230911.1827)
 -->
<!-- Title: D Pages: 1 -->
<svg width="462pt" height="98pt"
 viewBox="0.00 0.00 461.75 98.00" xmlns="http://www.w3.org/2000/svg" xmlns:xlink="http://www.w3.org/1999/xlink">
<g id="graph0" class="graph" transform="scale(1 1) rotate(0) translate(4 94)">
<title>D</title>
<polygon fill="white" stroke="none" points="-4,4 -4,-94 457.75,-94 457.75,4 -4,4"/>
<!-- X -->
<g id="node1" class="node">
<title>X</title>
<polygon fill="#d0d0ff" stroke="black" points="54,-90 4,-90 0,-86 0,-54 50,-54 54,-58 54,-90"/>
<polyline fill="none" stroke="black" points="50,-86 0,-86"/>
<polyline fill="none" stroke="black" points="50,-86 50,-54"/>
<polyline fill="none" stroke="black" points="50,-86 54,-90"/>
<text text-anchor="middle" x="27" y="-66.95" font-family="Times,serif" font-size="14.00">X</text>
</g>
<!-- W -->
<g id="node2" class="node">
<title>W</title>
<polygon fill="#d0d0ff" stroke="black" points="54,-36 4,-36 0,-32 0,0 50,0 54,-4 54,-36"/>
<polyline fill="none" stroke="black" points="50,-32 0,-32"/>
<polyline fill="none" stroke="black" points="50,-32 50,0"/>
<polyline fill="none" stroke="black" points="50,-32 54,-36"/>
<text text-anchor="middle" x="27" y="-12.95" font-family="Times,serif" font-size="14.00">W</text>
</g>
<!-- V -->
<g id="node3" class="node">
<title>V</title>
<polygon fill="#d0d0ff" stroke="black" points="241.5,-63 191.5,-63 187.5,-59 187.5,-27 237.5,-27 241.5,-31 241.5,-63"/>
<polyline fill="none" stroke="black" points="237.5,-59 187.5,-59"/>
<polyline fill="none" stroke="black" points="237.5,-59 237.5,-27"/>
<polyline fill="none" stroke="black" points="237.5,-59 241.5,-63"/>
<text text-anchor="middle" x="214.5" y="-39.95" font-family="Times,serif" font-size="14.00">V</text>
</g>
<!-- Prod -->
<g id="node5" class="node">
<title>Prod</title>
<polygon fill="#e5e8e8" stroke="black" points="133.5,-65.25 90,-65.25 90,-24.75 133.5,-24.75 133.5,-18.75 151.5,-45 133.5,-71.25 133.5,-65.25"/>
<text text-anchor="middle" x="120.75" y="-39.95" font-family="Times,serif" font-size="14.00">Prod</text>
</g>
<!-- V&#45;&gt;Prod -->
<g id="edge3" class="edge">
<title>V&#45;&gt;Prod</title>
<path fill="none" stroke="black" d="M187.45,-45C179.89,-45 171.44,-45 163.18,-45"/>
<polygon fill="black" stroke="black" points="163.26,-41.5 153.26,-45 163.26,-48.5 163.26,-41.5"/>
</g>
<!-- Z -->
<g id="node4" class="node">
<title>Z</title>
<polygon fill="#d0d0ff" stroke="black" points="453.75,-63 403.75,-63 399.75,-59 399.75,-27 449.75,-27 453.75,-31 453.75,-63"/>
<polyline fill="none" stroke="black" points="449.75,-59 399.75,-59"/>
<polyline fill="none" stroke="black" points="449.75,-59 449.75,-27"/>
<polyline fill="none" stroke="black" points="449.75,-59 453.75,-63"/>
<text text-anchor="middle" x="426.75" y="-39.95" font-family="Times,serif" font-size="14.00">Z</text>
</g>
<!-- SumDim -->
<g id="node6" class="node">
<title>SumDim</title>
<polygon fill="#e5e8e8" stroke="black" points="345.75,-65.25 277.5,-65.25 277.5,-18.75 295.5,-18.75 295.5,-24.75 345.75,-24.75 345.75,-18.75 363.75,-45 345.75,-71.25 345.75,-65.25"/>
<text text-anchor="middle" x="320.62" y="-39.95" font-family="Times,serif" font-size="14.00">SumDim</text>
</g>
<!-- Z&#45;&gt;SumDim -->
<g id="edge5" class="edge">
<title>Z&#45;&gt;SumDim</title>
<path fill="none" stroke="black" d="M399.47,-45C392.1,-45 383.81,-45 375.45,-45"/>
<polygon fill="black" stroke="black" points="375.61,-41.5 365.61,-45 375.61,-48.5 375.61,-41.5"/>
</g>
<!-- Prod&#45;&gt;X -->
<g id="edge1" class="edge">
<title>Prod&#45;&gt;X</title>
<path fill="none" stroke="black" d="M89.71,-53.84C81.87,-56.15 73.34,-58.66 65.19,-61.06"/>
<polygon fill="black" stroke="black" points="64.46,-57.62 55.86,-63.8 66.44,-64.34 64.46,-57.62"/>
</g>
<!-- Prod&#45;&gt;W -->
<g id="edge2" class="edge">
<title>Prod&#45;&gt;W</title>
<path fill="none" stroke="black" d="M89.71,-36.16C81.87,-33.85 73.34,-31.34 65.19,-28.94"/>
<polygon fill="black" stroke="black" points="66.44,-25.66 55.86,-26.2 64.46,-32.38 66.44,-25.66"/>
</g>
<!-- SumDim&#45;&gt;V -->
<g id="edge4" class="edge">
<title>SumDim&#45;&gt;V</title>
<path fill="none" stroke="black" d="M277.27,-45C269.35,-45 261.11,-45 253.33,-45"/>
<polygon fill="black" stroke="black" points="253.49,-41.5 243.49,-45 253.49,-48.5 253.49,-41.5"/>
</g>
</g>
</svg>
