<?xml version="1.0" encoding="UTF-8" standalone="no"?>
<!DOCTYPE svg PUBLIC "-//W3C//DTD SVG 1.1//EN"
 "http://www.w3.org/Graphics/SVG/1.1/DTD/svg11.dtd">
<!-- Generated by graphviz version 9.0.0 (20230911.1827)
 -->
<!-- Title: G Pages: 1 -->
<svg width="407pt" height="253pt"
 viewBox="0.00 0.00 406.50 252.75" xmlns="http://www.w3.org/2000/svg" xmlns:xlink="http://www.w3.org/1999/xlink">
<g id="graph0" class="graph" transform="scale(1 1) rotate(0) translate(4 248.75)">
<title>G</title>
<polygon fill="white" stroke="none" points="-4,4 -4,-248.75 402.5,-248.75 402.5,4 -4,4"/>
<!-- idx -->
<g id="node1" class="node">
<title>idx</title>
<polygon fill="none" stroke="black" points="211,-203.25 211,-237.75 258.25,-237.75 258.25,-203.25 211,-203.25"/>
<text text-anchor="start" x="227.5" y="-215.45" font-family="Times,serif" font-size="14.00">…</text>
<polygon fill="#d6eaf8" stroke="none" points="211,-166.75 211,-201.25 258.25,-201.25 258.25,-166.75 211,-166.75"/>
<polygon fill="none" stroke="black" points="211,-166.75 211,-201.25 258.25,-201.25 258.25,-166.75 211,-166.75"/>
<text text-anchor="start" x="220" y="-178.95" font-family="Times,serif" font-size="14.00">batch</text>
<polygon fill="none" stroke="black" points="211,-130.25 211,-164.75 258.25,-164.75 258.25,-130.25 211,-130.25"/>
<text text-anchor="start" x="227.5" y="-142.45" font-family="Times,serif" font-size="14.00">…</text>
<polygon fill="none" stroke="black" points="208,-127.25 208,-240.75 261.25,-240.75 261.25,-127.25 208,-127.25"/>
<text text-anchor="start" x="220" y="-108.95" font-family="Times,serif" font-style="italic" font-size="14.00">index</text>
</g>
<!-- x -->
<g id="node2" class="node">
<title>x</title>
<polygon fill="none" stroke="black" points="3,-75.75 3,-106.75 90,-106.75 90,-75.75 3,-75.75"/>
<text text-anchor="start" x="39.75" y="-84.45" font-family="Times,serif" font-size="14.00">⋱</text>
<polygon fill="none" stroke="black" points="92,-75.75 92,-106.75 124,-106.75 124,-75.75 92,-75.75"/>
<text text-anchor="start" x="101.62" y="-84.45" font-family="Times,serif" font-size="14.00">⋰</text>
<polygon fill="#d6eaf8" stroke="none" points="3,-39.75 3,-73.75 90,-73.75 90,-39.75 3,-39.75"/>
<polygon fill="none" stroke="black" points="3,-39.75 3,-73.75 90,-73.75 90,-39.75 3,-39.75"/>
<text text-anchor="start" x="11.62" y="-52.45" font-family="Times,serif" font-size="14.00">X</text>
<text text-anchor="start" x="21.38" y="-52.45" font-family="Times,serif" baseline-shift="sub" font-size="14.00">batch,reduce</text>
<polygon fill="#d6eaf8" stroke="none" points="92,-39.75 92,-73.75 124,-73.75 124,-39.75 92,-39.75"/>
<polygon fill="none" stroke="black" points="92,-39.75 92,-73.75 124,-73.75 124,-39.75 92,-39.75"/>
<text text-anchor="start" x="100.88" y="-51.45" font-family="Times,serif" font-size="14.00">…</text>
<polygon fill="none" stroke="black" points="3,-6.75 3,-37.75 90,-37.75 90,-6.75 3,-6.75"/>
<text text-anchor="start" x="40.12" y="-15.45" font-family="Times,serif" font-size="14.00">⋰</text>
<polygon fill="none" stroke="black" points="92,-6.75 92,-37.75 124,-37.75 124,-6.75 92,-6.75"/>
<text text-anchor="start" x="101.25" y="-15.45" font-family="Times,serif" font-size="14.00">⋱</text>
<polygon fill="none" stroke="black" points="0,-3.75 0,-109.75 127,-109.75 127,-3.75 0,-3.75"/>
</g>
<!-- idx&#45;&gt;x -->
<g id="edge3" class="edge">
<title>idx&#45;&gt;x</title>
<path fill="none" stroke="black" stroke-dasharray="1,5" d="M204.17,-152.54C185.37,-139.65 160.13,-122.34 136.29,-105.99"/>
<polygon fill="none" stroke="black" points="138.36,-103.16 128.13,-100.39 134.4,-108.94 138.36,-103.16"/>
<text text-anchor="start" x="145" y="-131.95" font-family="Times,serif" font-size="14.00">P</text>
<text text-anchor="start" x="152.5" y="-131.95" font-family="Times,serif" baseline-shift="sub" font-size="14.00">X</text>
<text text-anchor="start" x="160.75" y="-131.95" font-family="Times,serif" font-size="14.00">(i)</text>
</g>
<!-- y -->
<g id="node4" class="node">
<title>y</title>
<polygon fill="none" stroke="black" points="345.25,-76 345.25,-110.5 395.5,-110.5 395.5,-76 345.25,-76"/>
<text text-anchor="start" x="363.25" y="-88.2" font-family="Times,serif" font-size="14.00">…</text>
<polygon fill="#d6eaf8" stroke="none" points="345.25,-39.5 345.25,-74 395.5,-74 395.5,-39.5 345.25,-39.5"/>
<polygon fill="none" stroke="black" points="345.25,-39.5 345.25,-74 395.5,-74 395.5,-39.5 345.25,-39.5"/>
<text text-anchor="start" x="354.25" y="-52.7" font-family="Times,serif" font-size="14.00">y</text>
<text text-anchor="start" x="361" y="-52.7" font-family="Times,serif" baseline-shift="sub" font-size="14.00">batch</text>
<polygon fill="none" stroke="black" points="345.25,-3 345.25,-37.5 395.5,-37.5 395.5,-3 345.25,-3"/>
<text text-anchor="start" x="363.25" y="-15.2" font-family="Times,serif" font-size="14.00">…</text>
<polygon fill="none" stroke="black" points="342.25,0 342.25,-113.5 398.5,-113.5 398.5,0 342.25,0"/>
</g>
<!-- idx&#45;&gt;y -->
<g id="edge4" class="edge">
<title>idx&#45;&gt;y</title>
<path fill="none" stroke="black" stroke-dasharray="1,5" d="M264.97,-147.3C285.23,-129.73 312.28,-106.26 333.77,-87.63"/>
<polygon fill="none" stroke="black" points="335.9,-90.41 341.17,-81.22 331.32,-85.12 335.9,-90.41"/>
<text text-anchor="start" x="295.75" y="-121.95" font-family="Times,serif" font-size="14.00">P</text>
<text text-anchor="start" x="303.25" y="-121.95" font-family="Times,serif" baseline-shift="sub" font-size="14.00">Y</text>
<text text-anchor="start" x="311.5" y="-121.95" font-family="Times,serif" font-size="14.00">(i)</text>
</g>
<!-- op -->
<g id="node3" class="node">
<title>op</title>
<polygon fill="#e5e8e8" stroke="black" points="259.75,-77 191.5,-77 191.5,-36.5 259.75,-36.5 259.75,-30.5 277.75,-56.75 259.75,-83 259.75,-77"/>
<text text-anchor="middle" x="234.62" y="-51.7" font-family="Times,serif" font-size="14.00">SumDim</text>
</g>
<!-- op&#45;&gt;x -->
<g id="edge1" class="edge">
<title>op&#45;&gt;x</title>
<path fill="none" stroke="black" d="M191.38,-56.75C175.34,-56.75 156.55,-56.75 138.42,-56.75"/>
<polygon fill="black" stroke="black" points="138.46,-53.25 128.46,-56.75 138.46,-60.25 138.46,-53.25"/>
</g>
<!-- y&#45;&gt;op -->
<g id="edge2" class="edge">
<title>y&#45;&gt;op</title>
<path fill="none" stroke="black" d="M342.31,-56.75C327.15,-56.75 307.69,-56.75 289.56,-56.75"/>
<polygon fill="black" stroke="black" points="289.7,-53.25 279.7,-56.75 289.7,-60.25 289.7,-53.25"/>
</g>
</g>
</svg>
