<?xml version="1.0" encoding="UTF-8" standalone="no"?>
<!DOCTYPE svg PUBLIC "-//W3C//DTD SVG 1.1//EN"
 "http://www.w3.org/Graphics/SVG/1.1/DTD/svg11.dtd">
<!-- Generated by graphviz version 9.0.0 (20230911.1827)
 -->
<!-- Title: G Pages: 1 -->
<svg width="407pt" height="284pt"
 viewBox="0.00 0.00 406.50 284.00" xmlns="http://www.w3.org/2000/svg" xmlns:xlink="http://www.w3.org/1999/xlink">
<g id="graph0" class="graph" transform="scale(1 1) rotate(0) translate(4 280)">
<title>G</title>
<polygon fill="white" stroke="none" points="-4,4 -4,-280 402.5,-280 402.5,4 -4,4"/>
<!-- idx -->
<g id="node1" class="node">
<title>idx</title>
<polygon fill="none" stroke="black" points="211,-230.5 211,-265 258.25,-265 258.25,-230.5 211,-230.5"/>
<text text-anchor="start" x="227.5" y="-242.7" font-family="Times,serif" font-size="14.00">…</text>
<polygon fill="#d6eaf8" stroke="none" points="211,-194 211,-228.5 258.25,-228.5 258.25,-194 211,-194"/>
<polygon fill="none" stroke="black" points="211,-194 211,-228.5 258.25,-228.5 258.25,-194 211,-194"/>
<text text-anchor="start" x="220" y="-206.2" font-family="Times,serif" font-size="14.00">batch</text>
<polygon fill="none" stroke="black" points="211,-157.5 211,-192 258.25,-192 258.25,-157.5 211,-157.5"/>
<text text-anchor="start" x="227.5" y="-169.7" font-family="Times,serif" font-size="14.00">…</text>
<polygon fill="none" stroke="black" points="208,-154.5 208,-268 261.25,-268 261.25,-154.5 208,-154.5"/>
<text text-anchor="start" x="209.88" y="-135.2" font-family="Times,serif" font-size="14.00">⟪reduce⟫</text>
<text text-anchor="start" x="220" y="-109.7" font-family="Times,serif" font-style="italic" font-size="14.00">index</text>
</g>
<!-- x -->
<g id="node2" class="node">
<title>x</title>
<polygon fill="none" stroke="black" points="3,-75.75 3,-106.75 90,-106.75 90,-75.75 3,-75.75"/>
<text text-anchor="start" x="39.75" y="-84.45" font-family="Times,serif" font-size="14.00">⋱</text>
<polygon fill="none" stroke="black" points="92,-75.75 92,-106.75 124,-106.75 124,-75.75 92,-75.75"/>
<text text-anchor="start" x="101.62" y="-84.45" font-family="Times,serif" font-size="14.00">⋰</text>
<polygon fill="#d6eaf8" stroke="none" points="3,-39.75 3,-73.75 90,-73.75 90,-39.75 3,-39.75"/>
<polygon fill="none" stroke="black" points="3,-39.75 3,-73.75 90,-73.75 90,-39.75 3,-39.75"/>
<text text-anchor="start" x="11.62" y="-52.45" font-family="Times,serif" font-size="14.00">X</text>
<text text-anchor="start" x="21.38" y="-52.45" font-family="Times,serif" baseline-shift="sub" font-size="14.00">batch,reduce</text>
<polygon fill="#d6eaf8" stroke="none" points="92,-39.75 92,-73.75 124,-73.75 124,-39.75 92,-39.75"/>
<polygon fill="none" stroke="black" points="92,-39.75 92,-73.75 124,-73.75 124,-39.75 92,-39.75"/>
<text text-anchor="start" x="100.88" y="-51.45" font-family="Times,serif" font-size="14.00">…</text>
<polygon fill="none" stroke="black" points="3,-6.75 3,-37.75 90,-37.75 90,-6.75 3,-6.75"/>
<text text-anchor="start" x="40.12" y="-15.45" font-family="Times,serif" font-size="14.00">⋰</text>
<polygon fill="none" stroke="black" points="92,-6.75 92,-37.75 124,-37.75 124,-6.75 92,-6.75"/>
<text text-anchor="start" x="101.25" y="-15.45" font-family="Times,serif" font-size="14.00">⋱</text>
<polygon fill="none" stroke="black" points="0,-3.75 0,-109.75 127,-109.75 127,-3.75 0,-3.75"/>
</g>
<!-- idx&#45;&gt;x -->
<g id="edge3" class="edge">
<title>idx&#45;&gt;x</title>
<path fill="none" stroke="black" stroke-dasharray="1,5" d="M200.21,-162.67C181.77,-148.28 158.13,-129.83 135.76,-112.37"/>
<polygon fill="none" stroke="black" points="138.17,-109.81 128.13,-106.41 133.86,-115.32 138.17,-109.81"/>
<text text-anchor="start" x="145" y="-141.95" font-family="Times,serif" font-size="14.00">P</text>
<text text-anchor="start" x="152.5" y="-141.95" font-family="Times,serif" baseline-shift="sub" font-size="14.00">X</text>
<text text-anchor="start" x="160.75" y="-141.95" font-family="Times,serif" font-size="14.00">(i)</text>
</g>
<!-- y -->
<g id="node4" class="node">
<title>y</title>
<polygon fill="none" stroke="black" points="345.25,-76 345.25,-110.5 395.5,-110.5 395.5,-76 345.25,-76"/>
<text text-anchor="start" x="363.25" y="-88.2" font-family="Times,serif" font-size="14.00">…</text>
<polygon fill="#d6eaf8" stroke="none" points="345.25,-39.5 345.25,-74 395.5,-74 395.5,-39.5 345.25,-39.5"/>
<polygon fill="none" stroke="black" points="345.25,-39.5 345.25,-74 395.5,-74 395.5,-39.5 345.25,-39.5"/>
<text text-anchor="start" x="354.25" y="-52.7" font-family="Times,serif" font-size="14.00">y</text>
<text text-anchor="start" x="361" y="-52.7" font-family="Times,serif" baseline-shift="sub" font-size="14.00">batch</text>
<polygon fill="none" stroke="black" points="345.25,-3 345.25,-37.5 395.5,-37.5 395.5,-3 345.25,-3"/>
<text text-anchor="start" x="363.25" y="-15.2" font-family="Times,serif" font-size="14.00">…</text>
<polygon fill="none" stroke="black" points="342.25,0 342.25,-113.5 398.5,-113.5 398.5,0 342.25,0"/>
</g>
<!-- idx&#45;&gt;y -->
<g id="edge4" class="edge">
<title>idx&#45;&gt;y</title>
<path fill="none" stroke="black" stroke-dasharray="1,5" d="M268.81,-156C288.72,-136.35 314.02,-111.39 334.26,-91.41"/>
<polygon fill="none" stroke="black" points="336.57,-94.04 341.23,-84.53 331.66,-89.06 336.57,-94.04"/>
<text text-anchor="start" x="295.75" y="-129.95" font-family="Times,serif" font-size="14.00">P</text>
<text text-anchor="start" x="303.25" y="-129.95" font-family="Times,serif" baseline-shift="sub" font-size="14.00">Y</text>
<text text-anchor="start" x="311.5" y="-129.95" font-family="Times,serif" font-size="14.00">(i)</text>
</g>
<!-- op -->
<g id="node3" class="node">
<title>op</title>
<polygon fill="#e5e8e8" stroke="black" points="259.75,-77 191.5,-77 191.5,-30.5 209.5,-30.5 209.5,-36.5 259.75,-36.5 259.75,-30.5 277.75,-56.75 259.75,-83 259.75,-77"/>
<text text-anchor="middle" x="234.62" y="-51.7" font-family="Times,serif" font-size="14.00">SumDim</text>
</g>
<!-- op&#45;&gt;x -->
<g id="edge1" class="edge">
<title>op&#45;&gt;x</title>
<path fill="none" stroke="black" d="M191.38,-56.75C175.34,-56.75 156.55,-56.75 138.42,-56.75"/>
<polygon fill="black" stroke="black" points="138.46,-53.25 128.46,-56.75 138.46,-60.25 138.46,-53.25"/>
</g>
<!-- y&#45;&gt;op -->
<g id="edge2" class="edge">
<title>y&#45;&gt;op</title>
<path fill="none" stroke="black" d="M342.31,-56.75C327.15,-56.75 307.69,-56.75 289.56,-56.75"/>
<polygon fill="black" stroke="black" points="289.7,-53.25 279.7,-56.75 289.7,-60.25 289.7,-53.25"/>
</g>
</g>
</svg>
