<?xml version="1.0" encoding="UTF-8" standalone="no"?>
<!DOCTYPE svg PUBLIC "-//W3C//DTD SVG 1.1//EN"
 "http://www.w3.org/Graphics/SVG/1.1/DTD/svg11.dtd">
<!-- Generated by graphviz version 9.0.0 (20230911.1827)
 -->
<!-- Title: G Pages: 1 -->
<svg width="830pt" height="259pt"
 viewBox="0.00 0.00 829.50 258.75" xmlns="http://www.w3.org/2000/svg" xmlns:xlink="http://www.w3.org/1999/xlink">
<g id="graph0" class="graph" transform="scale(1 1) rotate(0) translate(4 254.75)">
<title>G</title>
<polygon fill="white" stroke="none" points="-4,4 -4,-254.75 825.5,-254.75 825.5,4 -4,4"/>
<!-- idx -->
<g id="node1" class="node">
<title>idx</title>
<polygon fill="none" stroke="black" points="266.5,-205.25 266.5,-239.75 347.5,-239.75 347.5,-205.25 266.5,-205.25"/>
<text text-anchor="start" x="299.88" y="-217.45" font-family="Times,serif" font-size="14.00">…</text>
<polygon fill="#d6eaf8" stroke="none" points="266.5,-168.75 266.5,-203.25 347.5,-203.25 347.5,-168.75 266.5,-168.75"/>
<polygon fill="none" stroke="black" points="266.5,-168.75 266.5,-203.25 347.5,-203.25 347.5,-168.75 266.5,-168.75"/>
<text text-anchor="start" x="275.5" y="-180.95" font-family="Times,serif" font-size="14.00">batch,block</text>
<polygon fill="none" stroke="black" points="266.5,-132.25 266.5,-166.75 347.5,-166.75 347.5,-132.25 266.5,-132.25"/>
<text text-anchor="start" x="299.88" y="-144.45" font-family="Times,serif" font-size="14.00">…</text>
<polygon fill="none" stroke="black" points="263.5,-129.25 263.5,-242.75 350.5,-242.75 350.5,-129.25 263.5,-129.25"/>
<text text-anchor="start" x="292.38" y="-110.95" font-family="Times,serif" font-style="italic" font-size="14.00">index</text>
</g>
<!-- x -->
<g id="node2" class="node">
<title>x</title>
<polygon fill="none" stroke="black" points="3,-77.75 3,-111.75 90,-111.75 90,-77.75 3,-77.75"/>
<text text-anchor="start" x="39.38" y="-89.45" font-family="Times,serif" font-size="14.00">…</text>
<polygon fill="none" stroke="black" points="92,-77.75 92,-111.75 124,-111.75 124,-77.75 92,-77.75"/>
<text text-anchor="start" x="100.88" y="-89.45" font-family="Times,serif" font-size="14.00">…</text>
<polygon fill="none" stroke="black" points="126,-77.75 126,-111.75 158,-111.75 158,-77.75 126,-77.75"/>
<text text-anchor="start" x="134.88" y="-89.45" font-family="Times,serif" font-size="14.00">…</text>
<polygon fill="none" stroke="black" points="160,-77.75 160,-111.75 192,-111.75 192,-77.75 160,-77.75"/>
<text text-anchor="start" x="168.88" y="-89.45" font-family="Times,serif" font-size="14.00">…</text>
<polygon fill="#d6eaf8" stroke="none" points="3,-41.75 3,-75.75 90,-75.75 90,-41.75 3,-41.75"/>
<polygon fill="none" stroke="black" points="3,-41.75 3,-75.75 90,-75.75 90,-41.75 3,-41.75"/>
<text text-anchor="start" x="11.62" y="-54.45" font-family="Times,serif" font-size="14.00">X</text>
<text text-anchor="start" x="21.38" y="-54.45" font-family="Times,serif" baseline-shift="sub" font-size="14.00">batch,reduce</text>
<polygon fill="#d6eaf8" stroke="none" points="92,-41.75 92,-75.75 124,-75.75 124,-41.75 92,-41.75"/>
<polygon fill="none" stroke="black" points="92,-41.75 92,-75.75 124,-75.75 124,-41.75 92,-41.75"/>
<text text-anchor="start" x="100.88" y="-53.45" font-family="Times,serif" font-size="14.00">…</text>
<polygon fill="none" stroke="black" points="126,-41.75 126,-75.75 158,-75.75 158,-41.75 126,-41.75"/>
<text text-anchor="start" x="134.88" y="-53.45" font-family="Times,serif" font-size="14.00">…</text>
<polygon fill="none" stroke="black" points="160,-41.75 160,-75.75 192,-75.75 192,-41.75 160,-41.75"/>
<text text-anchor="start" x="168.88" y="-53.45" font-family="Times,serif" font-size="14.00">…</text>
<polygon fill="none" stroke="black" points="3,-5.75 3,-39.75 90,-39.75 90,-5.75 3,-5.75"/>
<text text-anchor="start" x="39.38" y="-17.45" font-family="Times,serif" font-size="14.00">…</text>
<polygon fill="none" stroke="black" points="92,-5.75 92,-39.75 124,-39.75 124,-5.75 92,-5.75"/>
<text text-anchor="start" x="100.88" y="-17.45" font-family="Times,serif" font-size="14.00">…</text>
<polygon fill="none" stroke="black" points="126,-5.75 126,-39.75 158,-39.75 158,-5.75 126,-5.75"/>
<text text-anchor="start" x="134.88" y="-17.45" font-family="Times,serif" font-size="14.00">…</text>
<polygon fill="none" stroke="black" points="160,-5.75 160,-39.75 192,-39.75 192,-5.75 160,-5.75"/>
<text text-anchor="start" x="168.88" y="-17.45" font-family="Times,serif" font-size="14.00">…</text>
<polygon fill="none" stroke="black" points="0,-2.75 0,-114.75 195,-114.75 195,-2.75 0,-2.75"/>
</g>
<!-- idx&#45;&gt;x -->
<g id="edge3" class="edge">
<title>idx&#45;&gt;x</title>
<path fill="none" stroke="black" stroke-dasharray="1,5" d="M259.69,-148.86C243.24,-139.67 223.98,-128.9 204.6,-118.06"/>
<polygon fill="none" stroke="black" points="206.54,-115.14 196.11,-113.32 203.13,-121.25 206.54,-115.14"/>
<text text-anchor="start" x="213" y="-140.95" font-family="Times,serif" font-size="14.00">P</text>
<text text-anchor="start" x="220.5" y="-140.95" font-family="Times,serif" baseline-shift="sub" font-size="14.00">X</text>
<text text-anchor="start" x="228.75" y="-140.95" font-family="Times,serif" font-size="14.00">(i)</text>
</g>
<!-- v -->
<g id="node4" class="node">
<title>v</title>
<polygon fill="none" stroke="black" points="422,-79.75 422,-113.75 505,-113.75 505,-79.75 422,-79.75"/>
<text text-anchor="start" x="456.38" y="-91.45" font-family="Times,serif" font-size="14.00">…</text>
<polygon fill="none" stroke="black" points="507,-79.75 507,-113.75 543,-113.75 543,-79.75 507,-79.75"/>
<text text-anchor="start" x="517.88" y="-91.45" font-family="Times,serif" font-size="14.00">…</text>
<polygon fill="#d6eaf8" stroke="none" points="422,-39.75 422,-77.75 505,-77.75 505,-39.75 422,-39.75"/>
<polygon fill="none" stroke="black" stroke-width="3" points="423.5,-41.25 423.5,-76.25 503.5,-76.25 503.5,-41.25 423.5,-41.25"/>
<text text-anchor="start" x="432.75" y="-54.45" font-family="Times,serif" font-size="14.00">v</text>
<text text-anchor="start" x="439.5" y="-54.45" font-family="Times,serif" baseline-shift="sub" font-size="14.00">batch,block</text>
<polygon fill="none" stroke="black" stroke-width="3" points="508.5,-41.25 508.5,-76.25 541.5,-76.25 541.5,-41.25 508.5,-41.25"/>
<text text-anchor="start" x="517.88" y="-53.45" font-family="Times,serif" font-size="14.00">…</text>
<polygon fill="none" stroke="black" points="422,-3.75 422,-37.75 505,-37.75 505,-3.75 422,-3.75"/>
<text text-anchor="start" x="456.38" y="-15.45" font-family="Times,serif" font-size="14.00">…</text>
<polygon fill="none" stroke="black" points="507,-3.75 507,-37.75 543,-37.75 543,-3.75 507,-3.75"/>
<text text-anchor="start" x="517.88" y="-15.45" font-family="Times,serif" font-size="14.00">…</text>
<polygon fill="none" stroke="black" points="419,-0.75 419,-116.75 546,-116.75 546,-0.75 419,-0.75"/>
</g>
<!-- idx&#45;&gt;v -->
<g id="edge4" class="edge">
<title>idx&#45;&gt;v</title>
<path fill="none" stroke="black" stroke-dasharray="1,5" d="M354.47,-143.68C371.51,-132.29 391.22,-119.11 409.96,-106.58"/>
<polygon fill="none" stroke="black" points="411.73,-109.61 418.09,-101.14 407.84,-103.79 411.73,-109.61"/>
<text text-anchor="start" x="372.5" y="-133.95" font-family="Times,serif" font-size="14.00">P</text>
<text text-anchor="start" x="380" y="-133.95" font-family="Times,serif" baseline-shift="sub" font-size="14.00">V</text>
<text text-anchor="start" x="388.25" y="-133.95" font-family="Times,serif" font-size="14.00">(i)</text>
</g>
<!-- op -->
<g id="node3" class="node">
<title>op</title>
<polygon fill="#e5e8e8" stroke="black" points="332.12,-79 263.88,-79 263.88,-38.5 332.12,-38.5 332.12,-32.5 350.12,-58.75 332.12,-85 332.12,-79"/>
<text text-anchor="middle" x="307" y="-53.7" font-family="Times,serif" font-size="14.00">SumDim</text>
</g>
<!-- op&#45;&gt;x -->
<g id="edge1" class="edge">
<title>op&#45;&gt;x</title>
<path fill="none" stroke="black" d="M263.51,-58.75C246.7,-58.75 226.55,-58.75 206.2,-58.75"/>
<polygon fill="black" stroke="black" points="206.41,-55.25 196.41,-58.75 206.41,-62.25 206.41,-55.25"/>
</g>
<!-- v&#45;&gt;op -->
<g id="edge2" class="edge">
<title>v&#45;&gt;op</title>
<path fill="none" stroke="black" d="M419.35,-58.75C400.52,-58.75 380,-58.75 361.76,-58.75"/>
<polygon fill="black" stroke="black" points="361.96,-55.25 351.96,-58.75 361.96,-62.25 361.96,-55.25"/>
</g>
<!-- idx2 -->
<g id="node5" class="node">
<title>idx2</title>
<polygon fill="none" stroke="black" points="628,-209.25 628,-243.75 679.25,-243.75 679.25,-209.25 628,-209.25"/>
<text text-anchor="start" x="646.5" y="-221.45" font-family="Times,serif" font-size="14.00">…</text>
<polygon fill="#d6eaf8" stroke="none" points="628,-168.75 628,-207.25 679.25,-207.25 679.25,-168.75 628,-168.75"/>
<polygon fill="none" stroke="black" stroke-width="3" points="629.5,-170.25 629.5,-205.75 677.75,-205.75 677.75,-170.25 629.5,-170.25"/>
<text text-anchor="start" x="639" y="-182.95" font-family="Times,serif" font-size="14.00">batch</text>
<polygon fill="none" stroke="black" points="628,-132.25 628,-166.75 679.25,-166.75 679.25,-132.25 628,-132.25"/>
<text text-anchor="start" x="646.5" y="-144.45" font-family="Times,serif" font-size="14.00">…</text>
<polygon fill="none" stroke="black" points="625,-129.25 625,-246.75 682.25,-246.75 682.25,-129.25 625,-129.25"/>
<text text-anchor="start" x="639" y="-110.95" font-family="Times,serif" font-style="italic" font-size="14.00">index</text>
</g>
<!-- idx2&#45;&gt;v -->
<g id="edge7" class="edge">
<title>idx2&#45;&gt;v</title>
<path fill="none" stroke="black" stroke-dasharray="1,5" d="M621.21,-154.83C602.66,-141.89 578.36,-124.93 555.35,-108.88"/>
<polygon fill="none" stroke="black" points="557.37,-106.02 547.17,-103.17 553.37,-111.77 557.37,-106.02"/>
<text text-anchor="start" x="564" y="-135.95" font-family="Times,serif" font-size="14.00">P</text>
<text text-anchor="start" x="571.5" y="-135.95" font-family="Times,serif" baseline-shift="sub" font-size="14.00">V</text>
<text text-anchor="start" x="579.75" y="-135.95" font-family="Times,serif" font-size="14.00">(i)</text>
</g>
<!-- y -->
<g id="node7" class="node">
<title>y</title>
<polygon fill="none" stroke="black" points="764.25,-80 764.25,-114.5 818.5,-114.5 818.5,-80 764.25,-80"/>
<text text-anchor="start" x="784.25" y="-92.2" font-family="Times,serif" font-size="14.00">…</text>
<polygon fill="#d6eaf8" stroke="none" points="764.25,-39.5 764.25,-78 818.5,-78 818.5,-39.5 764.25,-39.5"/>
<polygon fill="none" stroke="black" stroke-width="3" points="765.75,-41 765.75,-76.5 817,-76.5 817,-41 765.75,-41"/>
<text text-anchor="start" x="775.25" y="-54.7" font-family="Times,serif" font-size="14.00">y</text>
<text text-anchor="start" x="782" y="-54.7" font-family="Times,serif" baseline-shift="sub" font-size="14.00">batch</text>
<polygon fill="none" stroke="black" points="764.25,-3 764.25,-37.5 818.5,-37.5 818.5,-3 764.25,-3"/>
<text text-anchor="start" x="784.25" y="-15.2" font-family="Times,serif" font-size="14.00">…</text>
<polygon fill="none" stroke="black" points="761.25,0 761.25,-117.5 821.5,-117.5 821.5,0 761.25,0"/>
</g>
<!-- idx2&#45;&gt;y -->
<g id="edge8" class="edge">
<title>idx2&#45;&gt;y</title>
<path fill="none" stroke="black" stroke-dasharray="1,5" d="M686.06,-149.42C705.91,-132.17 731.65,-109.79 752.6,-91.59"/>
<polygon fill="none" stroke="black" points="754.86,-94.26 760.11,-85.06 750.27,-88.98 754.86,-94.26"/>
<text text-anchor="start" x="714.75" y="-124.95" font-family="Times,serif" font-size="14.00">P</text>
<text text-anchor="start" x="722.25" y="-124.95" font-family="Times,serif" baseline-shift="sub" font-size="14.00">Y</text>
<text text-anchor="start" x="730.5" y="-124.95" font-family="Times,serif" font-size="14.00">(i)</text>
</g>
<!-- op2 -->
<g id="node6" class="node">
<title>op2</title>
<polygon fill="#e5e8e8" stroke="black" points="678.75,-79 610.5,-79 610.5,-38.5 678.75,-38.5 678.75,-32.5 696.75,-58.75 678.75,-85 678.75,-79"/>
<text text-anchor="middle" x="653.62" y="-53.7" font-family="Times,serif" font-size="14.00">SumDim</text>
</g>
<!-- op2&#45;&gt;v -->
<g id="edge5" class="edge">
<title>op2&#45;&gt;v</title>
<path fill="none" stroke="black" d="M610.38,-58.75C594.34,-58.75 575.55,-58.75 557.42,-58.75"/>
<polygon fill="black" stroke="black" points="557.46,-55.25 547.46,-58.75 557.46,-62.25 557.46,-55.25"/>
</g>
<!-- y&#45;&gt;op2 -->
<g id="edge6" class="edge">
<title>y&#45;&gt;op2</title>
<path fill="none" stroke="black" d="M761.25,-58.75C745.84,-58.75 726.42,-58.75 708.39,-58.75"/>
<polygon fill="black" stroke="black" points="708.61,-55.25 698.61,-58.75 708.61,-62.25 708.61,-55.25"/>
</g>
</g>
</svg>
