<?xml version="1.0" encoding="UTF-8" standalone="no"?>
<!DOCTYPE svg PUBLIC "-//W3C//DTD SVG 1.1//EN"
 "http://www.w3.org/Graphics/SVG/1.1/DTD/svg11.dtd">
<!-- Generated by graphviz version 9.0.0 (20230911.1827)
 -->
<!-- Title: G Pages: 1 -->
<svg width="758pt" height="185pt"
 viewBox="0.00 0.00 757.75 184.75" xmlns="http://www.w3.org/2000/svg" xmlns:xlink="http://www.w3.org/1999/xlink">
<g id="graph0" class="graph" transform="scale(1 1) rotate(0) translate(4 180.75)">
<title>G</title>
<polygon fill="#e2e2e2" stroke="none" points="-4,4 -4,-180.75 753.75,-180.75 753.75,4 -4,4"/>
<!-- Index -->
<g id="node1" class="node">
<title>Index</title>
<text text-anchor="start" x="17.88" y="-158.2" font-family="Times,serif" font-weight="bold" font-size="14.00">Operation Index Space</text>
<text text-anchor="start" x="9.88" y="-128.7" font-family="Times,serif" font-size="14.00">⋯</text>
<text text-anchor="start" x="39.88" y="-128.7" font-family="Times,serif" font-size="14.00">⋯</text>
<text text-anchor="start" x="77.88" y="-128.7" font-family="Times,serif" font-size="14.00">⋯</text>
<text text-anchor="start" x="115.88" y="-128.7" font-family="Times,serif" font-size="14.00">⋯</text>
<text text-anchor="start" x="145.88" y="-128.7" font-family="Times,serif" font-size="14.00">⋯</text>
<text text-anchor="start" x="9.88" y="-100.7" font-family="Times,serif" font-size="14.00">⋯</text>
<text text-anchor="start" x="32" y="-98.95" font-family="Times,serif" font-size="14.00">(3, 2)</text>
<text text-anchor="start" x="70" y="-98.95" font-family="Times,serif" font-size="14.00">(3, 3)</text>
<text text-anchor="start" x="108" y="-98.95" font-family="Times,serif" font-size="14.00">(3, 4)</text>
<text text-anchor="start" x="145.88" y="-100.7" font-family="Times,serif" font-size="14.00">⋯</text>
<text text-anchor="start" x="9.88" y="-72.7" font-family="Times,serif" font-size="14.00">⋯</text>
<text text-anchor="start" x="32" y="-70.95" font-family="Times,serif" font-size="14.00">(4, 2)</text>
<polygon fill="white" stroke="none" points="68,-64 68,-88 102,-88 102,-64 68,-64"/>
<text text-anchor="start" x="70" y="-70.95" font-family="Times,serif" font-size="14.00">(4, 3)</text>
<text text-anchor="start" x="108" y="-70.95" font-family="Times,serif" font-size="14.00">(4, 4)</text>
<text text-anchor="start" x="145.88" y="-72.7" font-family="Times,serif" font-size="14.00">⋯</text>
<text text-anchor="start" x="9.88" y="-44.7" font-family="Times,serif" font-size="14.00">⋯</text>
<text text-anchor="start" x="32" y="-42.95" font-family="Times,serif" font-size="14.00">(5, 2)</text>
<text text-anchor="start" x="70" y="-42.95" font-family="Times,serif" font-size="14.00">(5, 3)</text>
<text text-anchor="start" x="108" y="-42.95" font-family="Times,serif" font-size="14.00">(5, 4)</text>
<text text-anchor="start" x="145.88" y="-44.7" font-family="Times,serif" font-size="14.00">⋯</text>
<text text-anchor="start" x="9.88" y="-16.7" font-family="Times,serif" font-size="14.00">⋯</text>
<text text-anchor="start" x="39.88" y="-16.7" font-family="Times,serif" font-size="14.00">⋯</text>
<text text-anchor="start" x="77.88" y="-16.7" font-family="Times,serif" font-size="14.00">⋯</text>
<text text-anchor="start" x="115.88" y="-16.7" font-family="Times,serif" font-size="14.00">⋯</text>
<text text-anchor="start" x="145.88" y="-16.7" font-family="Times,serif" font-size="14.00">⋯</text>
</g>
<!-- Tensor -->
<g id="node2" class="node">
<title>Tensor</title>
<text text-anchor="start" x="599.12" y="-141.2" font-family="Times,serif" font-weight="bold" font-size="14.00">Tensor Index Space</text>
<text text-anchor="start" x="567.62" y="-115.7" font-family="Times,serif" font-size="14.00">⋯</text>
<text text-anchor="start" x="593.62" y="-115.7" font-family="Times,serif" font-size="14.00">⋯</text>
<text text-anchor="start" x="629.62" y="-115.7" font-family="Times,serif" font-size="14.00">⋯</text>
<text text-anchor="start" x="667.62" y="-115.7" font-family="Times,serif" font-size="14.00">⋯</text>
<text text-anchor="start" x="703.62" y="-115.7" font-family="Times,serif" font-size="14.00">⋯</text>
<text text-anchor="start" x="729.62" y="-115.7" font-family="Times,serif" font-size="14.00">⋯</text>
<text text-anchor="start" x="567.62" y="-91.7" font-family="Times,serif" font-size="14.00">⋯</text>
<text text-anchor="start" x="585.75" y="-89.95" font-family="Times,serif" font-size="14.00">(2, 5)</text>
<text text-anchor="start" x="621.75" y="-89.95" font-family="Times,serif" font-size="14.00">(2, 6)</text>
<text text-anchor="start" x="659.75" y="-89.95" font-family="Times,serif" font-size="14.00">(2, 7)</text>
<text text-anchor="start" x="695.75" y="-89.95" font-family="Times,serif" font-size="14.00">(2, 8)</text>
<text text-anchor="start" x="729.62" y="-91.7" font-family="Times,serif" font-size="14.00">⋯</text>
<text text-anchor="start" x="567.62" y="-67.7" font-family="Times,serif" font-size="14.00">⋯</text>
<text text-anchor="start" x="585.75" y="-65.95" font-family="Times,serif" font-size="14.00">(3, 5)</text>
<polygon fill="white" stroke="none" points="617.75,-59 617.75,-83 655.75,-83 655.75,-59 617.75,-59"/>
<polyline fill="none" stroke="black" stroke-width="2" points="654.75,-82 618.75,-82 618.75,-60 654.75,-60"/>
<text text-anchor="start" x="621.75" y="-65.7" font-family="Times,serif" font-size="14.00">(3, 6)</text>
<polygon fill="white" stroke="none" stroke-width="2" points="655.75,-59 655.75,-83 693.75,-83 693.75,-59 655.75,-59"/>
<polyline fill="none" stroke="black" stroke-width="2" points="656.75,-60 692.75,-60 692.75,-82 656.75,-82"/>
<text text-anchor="start" x="659.75" y="-65.7" font-family="Times,serif" font-size="14.00">(3, 7)</text>
<text text-anchor="start" x="695.75" y="-65.95" font-family="Times,serif" font-size="14.00">(3, 8)</text>
<text text-anchor="start" x="729.62" y="-67.7" font-family="Times,serif" font-size="14.00">⋯</text>
<text text-anchor="start" x="567.62" y="-43.7" font-family="Times,serif" font-size="14.00">⋯</text>
<text text-anchor="start" x="585.75" y="-41.95" font-family="Times,serif" font-size="14.00">(4, 5)</text>
<text text-anchor="start" x="621.75" y="-41.95" font-family="Times,serif" font-size="14.00">(4, 6)</text>
<text text-anchor="start" x="659.75" y="-41.95" font-family="Times,serif" font-size="14.00">(4, 7)</text>
<text text-anchor="start" x="695.75" y="-41.95" font-family="Times,serif" font-size="14.00">(4, 8)</text>
<text text-anchor="start" x="729.62" y="-43.7" font-family="Times,serif" font-size="14.00">⋯</text>
<text text-anchor="start" x="567.62" y="-19.7" font-family="Times,serif" font-size="14.00">⋯</text>
<text text-anchor="start" x="593.62" y="-19.7" font-family="Times,serif" font-size="14.00">⋯</text>
<text text-anchor="start" x="629.62" y="-19.7" font-family="Times,serif" font-size="14.00">⋯</text>
<text text-anchor="start" x="667.62" y="-19.7" font-family="Times,serif" font-size="14.00">⋯</text>
<text text-anchor="start" x="703.62" y="-19.7" font-family="Times,serif" font-size="14.00">⋯</text>
<text text-anchor="start" x="729.62" y="-19.7" font-family="Times,serif" font-size="14.00">⋯</text>
</g>
<!-- Index&#45;&gt;Tensor -->
<g id="edge1" class="edge">
<title>Index:from&#45;&gt;Tensor:to</title>
<path fill="none" stroke="#e000e0" stroke-width="6" stroke-opacity="0.250980" d="M101.59,-80.66C129.24,-88.08 188.75,-102.25 240,-102.25 240,-102.25 240,-102.25 490.25,-102.25 529.54,-102.25 573.52,-91.3 602.74,-82.42"/>
<polygon fill="#e000e0" fill-opacity="0.250980" stroke="#e000e0" stroke-width="6" stroke-opacity="0.250980" points="604.01,-87.52 611.94,-79.48 600.82,-77.52 604.01,-87.52"/>
<text text-anchor="start" x="316" y="-160.45" font-family="Times,serif" font-weight="bold" font-size="14.00">Index Projection</text>
<polyline fill="none" stroke="black" points="316,-150.25 316,-128.25"/>
<text text-anchor="start" x="324.09" y="-133.95" font-family="Times,serif" font-size="14.00">1</text>
<polyline fill="none" stroke="black" points="361.88,-128.25 361.88,-150.25"/>
<text text-anchor="start" x="347.03" y="-133.95" font-family="Times,serif" font-size="14.00">0</text>
<polyline fill="none" stroke="black" points="389.81,-128.25 389.81,-150.25"/>
<text text-anchor="start" x="370.22" y="-133.95" font-family="Times,serif" font-size="14.00">&#45;1</text>
<polyline fill="none" stroke="black" points="412.75,-128.25 412.75,-150.25"/>
<text text-anchor="start" x="397.91" y="-133.95" font-family="Times,serif" font-size="14.00">1</text>
<polyline fill="none" stroke="black" points="316,-128.25 316,-106.25"/>
<text text-anchor="start" x="324.09" y="-111.95" font-family="Times,serif" font-size="14.00">0</text>
<polyline fill="none" stroke="black" points="361.88,-106.25 361.88,-128.25"/>
<text text-anchor="start" x="347.03" y="-111.95" font-family="Times,serif" font-size="14.00">2</text>
<polyline fill="none" stroke="black" points="389.81,-106.25 389.81,-128.25"/>
<text text-anchor="start" x="372.47" y="-111.95" font-family="Times,serif" font-size="14.00">0</text>
<polyline fill="none" stroke="black" points="412.75,-106.25 412.75,-128.25"/>
<text text-anchor="start" x="397.91" y="-111.95" font-family="Times,serif" font-size="14.00">2</text>
</g>
<!-- P -->
<g id="node3" class="node">
<title>P</title>
<text text-anchor="start" x="211" y="-55.45" font-family="Times,serif" font-weight="bold" font-size="14.00">Projection</text>
<text text-anchor="start" x="226" y="-31.95" font-family="Times,serif" font-size="14.00">(4, 6)</text>
</g>
<!-- Index&#45;&gt;P -->
<g id="edge2" class="edge">
<title>Index:from&#45;&gt;P</title>
<path fill="none" stroke="#e000e0" stroke-width="6" stroke-opacity="0.250980" d="M101.9,-73.36C122.88,-69.55 160.73,-62.66 191.51,-57.07"/>
<polygon fill="#e000e0" fill-opacity="0.250980" stroke="#e000e0" stroke-width="6" stroke-opacity="0.250980" points="192.04,-62.31 200.93,-55.35 190.16,-51.98 192.04,-62.31"/>
</g>
<!-- O -->
<g id="node4" class="node">
<title>O</title>
<text text-anchor="start" x="346.38" y="-49.45" font-family="Times,serif" font-weight="bold" font-size="14.00">Offset</text>
<text text-anchor="start" x="349.38" y="-25.95" font-family="Times,serif" font-size="14.00">(3, 6)</text>
</g>
<!-- P&#45;&gt;O -->
<g id="edge3" class="edge">
<title>P&#45;&gt;O</title>
<path fill="none" stroke="#e000e0" stroke-width="6" stroke-opacity="0.250980" d="M274.85,-46.63C290.81,-45.84 310.06,-44.89 326.52,-44.07"/>
<polygon fill="#e000e0" fill-opacity="0.250980" stroke="#e000e0" stroke-width="6" stroke-opacity="0.250980" points="326.54,-49.33 336.26,-43.59 326.02,-38.84 326.54,-49.33"/>
</g>
<!-- S -->
<g id="node5" class="node">
<title>S</title>
<text text-anchor="start" x="471.62" y="-57.95" font-family="Times,serif" font-weight="bold" font-size="14.00">Shape</text>
<text text-anchor="start" x="457.75" y="-35.95" font-family="Times,serif" font-weight="bold" font-size="14.00">start</text>
<text text-anchor="start" x="490.75" y="-34.95" font-family="Times,serif" font-size="14.00">(3, 6)</text>
<text text-anchor="start" x="460.75" y="-13.95" font-family="Times,serif" font-weight="bold" font-size="14.00">end</text>
<text text-anchor="start" x="490.75" y="-12.95" font-family="Times,serif" font-size="14.00">(3, 8)</text>
</g>
<!-- O&#45;&gt;S -->
<g id="edge4" class="edge">
<title>O&#45;&gt;S</title>
<path fill="none" stroke="#e000e0" stroke-width="6" stroke-opacity="0.250980" d="M386.22,-41.91C400.3,-41.68 419.53,-41.37 437.51,-41.08"/>
<polygon fill="#e000e0" fill-opacity="0.250980" stroke="#e000e0" stroke-width="6" stroke-opacity="0.250980" points="437.44,-46.33 447.35,-40.92 437.27,-35.83 437.44,-46.33"/>
</g>
<!-- S&#45;&gt;Tensor -->
<g id="edge5" class="edge">
<title>S&#45;&gt;Tensor:to</title>
<path fill="none" stroke="#e000e0" stroke-width="6" stroke-opacity="0.250980" d="M524.73,-47.6C548.04,-52.56 578.66,-59.09 601.85,-64.03"/>
<polygon fill="#e000e0" fill-opacity="0.250980" stroke="#e000e0" stroke-width="6" stroke-opacity="0.250980" points="600.69,-69.15 611.56,-66.1 602.88,-58.88 600.69,-69.15"/>
</g>
</g>
</svg>
