<?xml version="1.0" encoding="UTF-8" standalone="no"?>
<!DOCTYPE svg PUBLIC "-//W3C//DTD SVG 1.1//EN"
 "http://www.w3.org/Graphics/SVG/1.1/DTD/svg11.dtd">
<!-- Generated by graphviz version 9.0.0 (20230911.1827)
 -->
<!-- Title: G Pages: 1 -->
<svg width="61pt" height="52pt"
 viewBox="0.00 0.00 61.00 52.00" xmlns="http://www.w3.org/2000/svg" xmlns:xlink="http://www.w3.org/1999/xlink">
<g id="graph0" class="graph" transform="scale(1 1) rotate(0) translate(4 48)">
<title>G</title>
<polygon fill="#e2e2e2" stroke="none" points="-4,4 -4,-48 57,-48 57,4 -4,4"/>
<!-- Simple -->
<g id="node1" class="node">
<title>Simple</title>
<polyline fill="none" stroke="black" points="0,-44 0,-22"/>
<text text-anchor="start" x="2.62" y="-27.7" font-family="Times,serif" font-size="14.00">1</text>
<polyline fill="none" stroke="black" points="24,-22 24,-44"/>
<text text-anchor="start" x="14.62" y="-27.7" font-family="Times,serif" font-size="14.00">0</text>
<polyline fill="none" stroke="black" points="41,-22 41,-44"/>
<text text-anchor="start" x="26.88" y="-27.7" font-family="Times,serif" font-size="14.00">&#45;1</text>
<polyline fill="none" stroke="black" points="53,-22 53,-44"/>
<text text-anchor="start" x="43.62" y="-27.7" font-family="Times,serif" font-size="14.00">1</text>
<polyline fill="none" stroke="black" points="0,-22 0,0"/>
<text text-anchor="start" x="2.62" y="-5.7" font-family="Times,serif" font-size="14.00">0</text>
<polyline fill="none" stroke="black" points="24,0 24,-22"/>
<text text-anchor="start" x="14.62" y="-5.7" font-family="Times,serif" font-size="14.00">2</text>
<polyline fill="none" stroke="black" points="41,0 41,-22"/>
<text text-anchor="start" x="29.12" y="-5.7" font-family="Times,serif" font-size="14.00">0</text>
<polyline fill="none" stroke="black" points="53,0 53,-22"/>
<text text-anchor="start" x="43.62" y="-5.7" font-family="Times,serif" font-size="14.00">2</text>
</g>
</g>
</svg>
