<?xml version="1.0" encoding="UTF-8" standalone="no"?>
<!DOCTYPE svg PUBLIC "-//W3C//DTD SVG 1.1//EN"
 "http://www.w3.org/Graphics/SVG/1.1/DTD/svg11.dtd">
<!-- Generated by graphviz version 9.0.0 (20230911.1827)
 -->
<!-- Title: G Pages: 1 -->
<svg width="829pt" height="442pt"
 viewBox="0.00 0.00 829.00 442.00" xmlns="http://www.w3.org/2000/svg" xmlns:xlink="http://www.w3.org/1999/xlink">
<g id="graph0" class="graph" transform="scale(1 1) rotate(0) translate(4 438)">
<title>G</title>
<polygon fill="#e2e2e2" stroke="none" points="-4,4 -4,-438 825,-438 825,4 -4,4"/>
<g id="clust1" class="cluster">
<title>cluster_0</title>
<path fill="#e2e2e2" stroke="black" stroke-dasharray="5,2" d="M167,-38C167,-38 657,-38 657,-38 663,-38 669,-44 669,-50 669,-50 669,-348 669,-348 669,-354 663,-360 657,-360 657,-360 167,-360 167,-360 161,-360 155,-354 155,-348 155,-348 155,-50 155,-50 155,-44 161,-38 167,-38"/>
</g>
<!-- j -->
<g id="node1" class="node">
<title>j</title>
<text text-anchor="start" x="38.62" y="-417.7" font-family="Times,serif" font-weight="bold" font-size="14.00">J Tensor</text>
<polygon fill="white" stroke="none" points="6.5,-296 6.5,-408 119.5,-408 119.5,-296 6.5,-296"/>
<polygon fill="none" stroke="black" points="9.5,-371 9.5,-405 42.17,-405 42.17,-371 9.5,-371"/>
<text text-anchor="start" x="19.08" y="-381.45" font-family="Times,serif" font-size="14.00">⋱</text>
<polygon fill="none" stroke="black" points="44.17,-371 44.17,-405 81.83,-405 81.83,-371 44.17,-371"/>
<text text-anchor="start" x="55.88" y="-382.7" font-family="Times,serif" font-size="14.00">…</text>
<polygon fill="none" stroke="black" points="83.83,-371 83.83,-405 116.5,-405 116.5,-371 83.83,-371"/>
<text text-anchor="start" x="93.79" y="-381.45" font-family="Times,serif" font-size="14.00">⋰</text>
<polygon fill="#d6eaf8" stroke="none" points="9.5,-335 9.5,-369 42.17,-369 42.17,-335 9.5,-335"/>
<polygon fill="none" stroke="black" points="9.5,-335 9.5,-369 42.17,-369 42.17,-335 9.5,-335"/>
<text text-anchor="start" x="18.71" y="-346.7" font-family="Times,serif" font-size="14.00">…</text>
<polygon fill="#d6eaf8" stroke="none" points="44.17,-335 44.17,-369 81.83,-369 81.83,-335 44.17,-335"/>
<polygon fill="none" stroke="black" points="44.17,-335 44.17,-369 81.83,-369 81.83,-335 44.17,-335"/>
<text text-anchor="start" x="53.25" y="-347.7" font-family="Times,serif" font-size="14.00">J</text>
<text text-anchor="start" x="58.5" y="-347.7" font-family="Times,serif" baseline-shift="sub" font-size="14.00">a,b</text>
<polygon fill="#d6eaf8" stroke="none" points="83.83,-335 83.83,-369 116.5,-369 116.5,-335 83.83,-335"/>
<polygon fill="none" stroke="black" points="83.83,-335 83.83,-369 116.5,-369 116.5,-335 83.83,-335"/>
<text text-anchor="start" x="93.04" y="-346.7" font-family="Times,serif" font-size="14.00">…</text>
<polygon fill="none" stroke="black" points="9.5,-299 9.5,-333 42.17,-333 42.17,-299 9.5,-299"/>
<text text-anchor="start" x="19.46" y="-309.45" font-family="Times,serif" font-size="14.00">⋰</text>
<polygon fill="none" stroke="black" points="44.17,-299 44.17,-333 81.83,-333 81.83,-299 44.17,-299"/>
<text text-anchor="start" x="55.88" y="-310.7" font-family="Times,serif" font-size="14.00">…</text>
<polygon fill="none" stroke="black" points="83.83,-299 83.83,-333 116.5,-333 116.5,-299 83.83,-299"/>
<text text-anchor="start" x="93.42" y="-309.45" font-family="Times,serif" font-size="14.00">⋱</text>
<polygon fill="none" stroke="black" points="6.5,-296 6.5,-408 119.5,-408 119.5,-296 6.5,-296"/>
<text text-anchor="start" x="17.5" y="-277.7" font-family="Times,serif" font-weight="bold" font-size="14.00">start</text>
<text text-anchor="start" x="69.88" y="-276.7" font-family="Times,serif" font-size="14.00">[&#45;10, 0]</text>
<text text-anchor="start" x="20.5" y="-255.7" font-family="Times,serif" font-weight="bold" font-size="14.00">end</text>
<text text-anchor="start" x="75.5" y="-254.7" font-family="Times,serif" font-size="14.00">[0, 5]</text>
<text text-anchor="start" x="14.5" y="-233.7" font-family="Times,serif" font-weight="bold" font-size="14.00">shape</text>
<text text-anchor="start" x="72.12" y="-232.7" font-family="Times,serif" font-size="14.00">[10, 5]</text>
</g>
<!-- k -->
<g id="node2" class="node">
<title>k</title>
<text text-anchor="start" x="36.38" y="-191.7" font-family="Times,serif" font-weight="bold" font-size="14.00">K Tensor</text>
<polygon fill="white" stroke="none" points="4,-70 4,-182 122,-182 122,-70 4,-70"/>
<polygon fill="none" stroke="black" points="7,-145 7,-179 39.67,-179 39.67,-145 7,-145"/>
<text text-anchor="start" x="16.58" y="-155.45" font-family="Times,serif" font-size="14.00">⋱</text>
<polygon fill="#d6eaf8" stroke="none" points="41.67,-145 41.67,-179 84.33,-179 84.33,-145 41.67,-145"/>
<polygon fill="none" stroke="black" points="41.67,-145 41.67,-179 84.33,-179 84.33,-145 41.67,-145"/>
<text text-anchor="start" x="55.88" y="-156.7" font-family="Times,serif" font-size="14.00">…</text>
<polygon fill="none" stroke="black" points="86.33,-145 86.33,-179 119,-179 119,-145 86.33,-145"/>
<text text-anchor="start" x="96.29" y="-155.45" font-family="Times,serif" font-size="14.00">⋰</text>
<polygon fill="none" stroke="black" points="7,-109 7,-143 39.67,-143 39.67,-109 7,-109"/>
<text text-anchor="start" x="16.21" y="-120.7" font-family="Times,serif" font-size="14.00">…</text>
<polygon fill="#d6eaf8" stroke="none" points="41.67,-109 41.67,-143 84.33,-143 84.33,-109 41.67,-109"/>
<polygon fill="none" stroke="black" points="41.67,-109 41.67,-143 84.33,-143 84.33,-109 41.67,-109"/>
<text text-anchor="start" x="51" y="-121.7" font-family="Times,serif" font-size="14.00">K</text>
<text text-anchor="start" x="60.75" y="-121.7" font-family="Times,serif" baseline-shift="sub" font-size="14.00">b,c</text>
<polygon fill="none" stroke="black" points="86.33,-109 86.33,-143 119,-143 119,-109 86.33,-109"/>
<text text-anchor="start" x="95.54" y="-120.7" font-family="Times,serif" font-size="14.00">…</text>
<polygon fill="none" stroke="black" points="7,-73 7,-107 39.67,-107 39.67,-73 7,-73"/>
<text text-anchor="start" x="16.96" y="-83.45" font-family="Times,serif" font-size="14.00">⋰</text>
<polygon fill="#d6eaf8" stroke="none" points="41.67,-73 41.67,-107 84.33,-107 84.33,-73 41.67,-73"/>
<polygon fill="none" stroke="black" points="41.67,-73 41.67,-107 84.33,-107 84.33,-73 41.67,-73"/>
<text text-anchor="start" x="55.88" y="-84.7" font-family="Times,serif" font-size="14.00">…</text>
<polygon fill="none" stroke="black" points="86.33,-73 86.33,-107 119,-107 119,-73 86.33,-73"/>
<text text-anchor="start" x="95.92" y="-83.45" font-family="Times,serif" font-size="14.00">⋱</text>
<polygon fill="none" stroke="black" points="4,-70 4,-182 122,-182 122,-70 4,-70"/>
<text text-anchor="start" x="17.5" y="-51.7" font-family="Times,serif" font-weight="bold" font-size="14.00">start</text>
<text text-anchor="start" x="78" y="-50.7" font-family="Times,serif" font-size="14.00">[0, 0]</text>
<text text-anchor="start" x="20.5" y="-29.7" font-family="Times,serif" font-weight="bold" font-size="14.00">end</text>
<text text-anchor="start" x="74.62" y="-28.7" font-family="Times,serif" font-size="14.00">[5, 12]</text>
<text text-anchor="start" x="14.5" y="-7.7" font-family="Times,serif" font-weight="bold" font-size="14.00">shape</text>
<text text-anchor="start" x="74.62" y="-6.7" font-family="Times,serif" font-size="14.00">[5, 12]</text>
</g>
<!-- l -->
<g id="node3" class="node">
<title>l</title>
<text text-anchor="start" x="734" y="-297.7" font-family="Times,serif" font-weight="bold" font-size="14.00">L Tensor</text>
<polygon fill="white" stroke="none" points="702,-176 702,-288 817,-288 817,-176 702,-176"/>
<polygon fill="none" stroke="black" points="705,-251 705,-285 737.67,-285 737.67,-251 705,-251"/>
<text text-anchor="start" x="714.58" y="-261.45" font-family="Times,serif" font-size="14.00">⋱</text>
<polygon fill="none" stroke="black" points="739.67,-251 739.67,-285 779.33,-285 779.33,-251 739.67,-251"/>
<text text-anchor="start" x="752.38" y="-262.7" font-family="Times,serif" font-size="14.00">…</text>
<polygon fill="none" stroke="black" points="781.33,-251 781.33,-285 814,-285 814,-251 781.33,-251"/>
<text text-anchor="start" x="791.29" y="-261.45" font-family="Times,serif" font-size="14.00">⋰</text>
<polygon fill="none" stroke="black" points="705,-215 705,-249 737.67,-249 737.67,-215 705,-215"/>
<text text-anchor="start" x="714.21" y="-226.7" font-family="Times,serif" font-size="14.00">…</text>
<polygon fill="#d6eaf8" stroke="none" points="739.67,-215 739.67,-249 779.33,-249 779.33,-215 739.67,-215"/>
<polygon fill="none" stroke="black" points="739.67,-215 739.67,-249 779.33,-249 779.33,-215 739.67,-215"/>
<text text-anchor="start" x="748.62" y="-227.7" font-family="Times,serif" font-size="14.00">L</text>
<text text-anchor="start" x="756.88" y="-227.7" font-family="Times,serif" baseline-shift="sub" font-size="14.00">a,c</text>
<polygon fill="none" stroke="black" points="781.33,-215 781.33,-249 814,-249 814,-215 781.33,-215"/>
<text text-anchor="start" x="790.54" y="-226.7" font-family="Times,serif" font-size="14.00">…</text>
<polygon fill="none" stroke="black" points="705,-179 705,-213 737.67,-213 737.67,-179 705,-179"/>
<text text-anchor="start" x="714.96" y="-189.45" font-family="Times,serif" font-size="14.00">⋰</text>
<polygon fill="none" stroke="black" points="739.67,-179 739.67,-213 779.33,-213 779.33,-179 739.67,-179"/>
<text text-anchor="start" x="752.38" y="-190.7" font-family="Times,serif" font-size="14.00">…</text>
<polygon fill="none" stroke="black" points="781.33,-179 781.33,-213 814,-213 814,-179 781.33,-179"/>
<text text-anchor="start" x="790.92" y="-189.45" font-family="Times,serif" font-size="14.00">⋱</text>
<polygon fill="none" stroke="black" points="702,-176 702,-288 817,-288 817,-176 702,-176"/>
<text text-anchor="start" x="713" y="-157.7" font-family="Times,serif" font-weight="bold" font-size="14.00">start</text>
<text text-anchor="start" x="772" y="-156.7" font-family="Times,serif" font-size="14.00">[0, 0]</text>
<text text-anchor="start" x="716" y="-135.7" font-family="Times,serif" font-weight="bold" font-size="14.00">end</text>
<text text-anchor="start" x="765.25" y="-134.7" font-family="Times,serif" font-size="14.00">[10, 12]</text>
<text text-anchor="start" x="710" y="-113.7" font-family="Times,serif" font-weight="bold" font-size="14.00">shape</text>
<text text-anchor="start" x="765.25" y="-112.7" font-family="Times,serif" font-size="14.00">[10, 12]</text>
</g>
<!-- z -->
<g id="node7" class="node">
<title>z</title>
<text text-anchor="start" x="588.25" y="-238.7" font-family="Times,serif" font-weight="bold" font-size="14.00">Z Output</text>
<text text-anchor="start" x="578" y="-216.7" font-family="Times,serif" font-weight="bold" font-size="14.00">start</text>
<text text-anchor="start" x="620.5" y="-215.7" font-family="Times,serif" font-size="14.00">[0, 0]</text>
<text text-anchor="start" x="581" y="-194.7" font-family="Times,serif" font-weight="bold" font-size="14.00">end</text>
<text text-anchor="start" x="613.75" y="-193.7" font-family="Times,serif" font-size="14.00">[10, 12]</text>
<text text-anchor="start" x="575" y="-172.7" font-family="Times,serif" font-weight="bold" font-size="14.00">shape</text>
<text text-anchor="start" x="613.75" y="-171.7" font-family="Times,serif" font-size="14.00">[10, 12]</text>
</g>
<!-- l&#45;&gt;z -->
<g id="edge5" class="edge">
<title>l&#45;&gt;z</title>
<path fill="none" stroke="black" d="M698.08,-210C689.51,-210 680.73,-210 672.26,-210"/>
<polygon fill="black" stroke="black" points="672.47,-206.5 662.47,-210 672.47,-213.5 672.47,-206.5"/>
</g>
<!-- idx -->
<g id="node4" class="node">
<title>idx</title>
<text text-anchor="start" x="368.62" y="-237.7" font-family="Times,serif" font-weight="bold" font-size="14.00">Operation Index</text>
<polygon fill="white" stroke="none" points="362.5,-116 362.5,-228 471.5,-228 471.5,-116 362.5,-116"/>
<polygon fill="none" stroke="black" points="365.5,-191 365.5,-225 398.17,-225 398.17,-191 365.5,-191"/>
<text text-anchor="start" x="375.08" y="-201.45" font-family="Times,serif" font-size="14.00">⋱</text>
<polygon fill="none" stroke="black" points="400.17,-191 400.17,-225 433.83,-225 433.83,-191 400.17,-191"/>
<text text-anchor="start" x="409.88" y="-202.7" font-family="Times,serif" font-size="14.00">…</text>
<polygon fill="none" stroke="black" points="435.83,-191 435.83,-225 468.5,-225 468.5,-191 435.83,-191"/>
<text text-anchor="start" x="445.79" y="-201.45" font-family="Times,serif" font-size="14.00">⋰</text>
<polygon fill="none" stroke="black" points="365.5,-155 365.5,-189 398.17,-189 398.17,-155 365.5,-155"/>
<text text-anchor="start" x="374.71" y="-166.7" font-family="Times,serif" font-size="14.00">…</text>
<polygon fill="#d6eaf8" stroke="none" points="400.17,-155 400.17,-189 433.83,-189 433.83,-155 400.17,-155"/>
<polygon fill="none" stroke="black" points="400.17,-155 400.17,-189 433.83,-189 433.83,-155 400.17,-155"/>
<text text-anchor="start" x="409.12" y="-166.7" font-family="Times,serif" font-size="14.00">a,c</text>
<polygon fill="none" stroke="black" points="435.83,-155 435.83,-189 468.5,-189 468.5,-155 435.83,-155"/>
<text text-anchor="start" x="445.04" y="-166.7" font-family="Times,serif" font-size="14.00">…</text>
<polygon fill="none" stroke="black" points="365.5,-119 365.5,-153 398.17,-153 398.17,-119 365.5,-119"/>
<text text-anchor="start" x="375.46" y="-129.45" font-family="Times,serif" font-size="14.00">⋰</text>
<polygon fill="none" stroke="black" points="400.17,-119 400.17,-153 433.83,-153 433.83,-119 400.17,-119"/>
<text text-anchor="start" x="409.88" y="-130.7" font-family="Times,serif" font-size="14.00">…</text>
<polygon fill="none" stroke="black" points="435.83,-119 435.83,-153 468.5,-153 468.5,-119 435.83,-119"/>
<text text-anchor="start" x="445.42" y="-129.45" font-family="Times,serif" font-size="14.00">⋱</text>
<polygon fill="none" stroke="black" points="362.5,-116 362.5,-228 471.5,-228 471.5,-116 362.5,-116"/>
<text text-anchor="start" x="374" y="-97.7" font-family="Times,serif" font-weight="bold" font-size="14.00">start</text>
<text text-anchor="start" x="430" y="-96.7" font-family="Times,serif" font-size="14.00">[0, 0]</text>
<text text-anchor="start" x="377" y="-75.7" font-family="Times,serif" font-weight="bold" font-size="14.00">end</text>
<text text-anchor="start" x="426.62" y="-74.7" font-family="Times,serif" font-size="14.00">[10, 5]</text>
<text text-anchor="start" x="371" y="-53.7" font-family="Times,serif" font-weight="bold" font-size="14.00">shape</text>
<text text-anchor="start" x="426.62" y="-52.7" font-family="Times,serif" font-size="14.00">[10, 5]</text>
</g>
<!-- x -->
<g id="node5" class="node">
<title>x</title>
<text text-anchor="start" x="184.12" y="-335.7" font-family="Times,serif" font-weight="bold" font-size="14.00">X Input</text>
<text text-anchor="start" x="170" y="-313.7" font-family="Times,serif" font-weight="bold" font-size="14.00">start</text>
<text text-anchor="start" x="205.88" y="-312.7" font-family="Times,serif" font-size="14.00">[&#45;10, 0]</text>
<text text-anchor="start" x="173" y="-291.7" font-family="Times,serif" font-weight="bold" font-size="14.00">end</text>
<text text-anchor="start" x="211.5" y="-290.7" font-family="Times,serif" font-size="14.00">[0, 5]</text>
<text text-anchor="start" x="167" y="-269.7" font-family="Times,serif" font-weight="bold" font-size="14.00">shape</text>
<text text-anchor="start" x="208.12" y="-268.7" font-family="Times,serif" font-size="14.00">[10, 5]</text>
</g>
<!-- idx&#45;&gt;x -->
<g id="edge7" class="edge">
<title>idx&#45;&gt;x</title>
<path fill="none" stroke="black" stroke-dasharray="1,5" d="M358.55,-189.68C351.42,-194.05 344.12,-198.26 337,-202 308.13,-217.15 295.07,-209.92 269,-229.5 259.96,-236.29 251.53,-244.72 243.99,-253.51"/>
<polygon fill="none" stroke="black" points="241.33,-251.24 237.72,-261.2 246.76,-255.66 241.33,-251.24"/>
<text text-anchor="start" x="288.38" y="-287.2" font-family="Times,serif" font-weight="bold" font-size="14.00">P</text>
<text text-anchor="start" x="296.62" y="-287.2" font-family="Times,serif" font-weight="bold" baseline-shift="sub" font-size="14.00">X</text>
<text text-anchor="start" x="304.88" y="-287.2" font-family="Times,serif" font-weight="bold" font-size="14.00">(i)</text>
<polygon fill="white" stroke="none" points="273,-233 273,-277 333,-277 333,-233 273,-233"/>
<polyline fill="none" stroke="black" points="273,-277 273,-255"/>
<text text-anchor="start" x="275.62" y="-260.7" font-family="Times,serif" font-size="14.00">1</text>
<polyline fill="none" stroke="black" points="297,-255 297,-277"/>
<text text-anchor="start" x="287.62" y="-260.7" font-family="Times,serif" font-size="14.00">0</text>
<polyline fill="none" stroke="black" points="321,-255 321,-277"/>
<text text-anchor="start" x="300" y="-260.7" font-family="Times,serif" font-size="14.00">&#45;10</text>
<polyline fill="none" stroke="black" points="333,-255 333,-277"/>
<text text-anchor="start" x="323.62" y="-260.7" font-family="Times,serif" font-size="14.00">1</text>
<polyline fill="none" stroke="black" points="273,-255 273,-233"/>
<text text-anchor="start" x="275.62" y="-238.7" font-family="Times,serif" font-size="14.00">0</text>
<polyline fill="none" stroke="black" points="297,-233 297,-255"/>
<text text-anchor="start" x="287.62" y="-238.7" font-family="Times,serif" font-size="14.00">0</text>
<polyline fill="none" stroke="black" points="321,-233 321,-255"/>
<text text-anchor="start" x="305.62" y="-238.7" font-family="Times,serif" font-size="14.00">0</text>
<polyline fill="none" stroke="black" points="333,-233 333,-255"/>
<text text-anchor="start" x="323.62" y="-238.7" font-family="Times,serif" font-size="14.00">5</text>
</g>
<!-- y -->
<g id="node6" class="node">
<title>y</title>
<text text-anchor="start" x="184.5" y="-154.7" font-family="Times,serif" font-weight="bold" font-size="14.00">Y Input</text>
<text text-anchor="start" x="172.5" y="-132.7" font-family="Times,serif" font-weight="bold" font-size="14.00">start</text>
<text text-anchor="start" x="211.5" y="-131.7" font-family="Times,serif" font-size="14.00">[0, 0]</text>
<text text-anchor="start" x="175.5" y="-110.7" font-family="Times,serif" font-weight="bold" font-size="14.00">end</text>
<text text-anchor="start" x="208.12" y="-109.7" font-family="Times,serif" font-size="14.00">[5, 12]</text>
<text text-anchor="start" x="169.5" y="-88.7" font-family="Times,serif" font-weight="bold" font-size="14.00">shape</text>
<text text-anchor="start" x="208.12" y="-87.7" font-family="Times,serif" font-size="14.00">[5, 12]</text>
</g>
<!-- idx&#45;&gt;y -->
<g id="edge8" class="edge">
<title>idx&#45;&gt;y</title>
<path fill="none" stroke="black" stroke-dasharray="1,5" d="M358.57,-131.73C351.37,-130.01 344.06,-128.53 337,-127.5 311.67,-123.81 283.24,-123.12 259.53,-123.48"/>
<polygon fill="none" stroke="black" points="259.74,-119.97 249.82,-123.7 259.9,-126.97 259.74,-119.97"/>
<text text-anchor="start" x="288.38" y="-185.2" font-family="Times,serif" font-weight="bold" font-size="14.00">P</text>
<text text-anchor="start" x="296.62" y="-185.2" font-family="Times,serif" font-weight="bold" baseline-shift="sub" font-size="14.00">Y</text>
<text text-anchor="start" x="304.88" y="-185.2" font-family="Times,serif" font-weight="bold" font-size="14.00">(i)</text>
<polygon fill="white" stroke="none" points="279,-131 279,-175 327,-175 327,-131 279,-131"/>
<polyline fill="none" stroke="black" points="279,-175 279,-153"/>
<text text-anchor="start" x="281.62" y="-158.7" font-family="Times,serif" font-size="14.00">0</text>
<polyline fill="none" stroke="black" points="303,-153 303,-175"/>
<text text-anchor="start" x="293.62" y="-158.7" font-family="Times,serif" font-size="14.00">0</text>
<polyline fill="none" stroke="black" points="315,-153 315,-175"/>
<text text-anchor="start" x="305.62" y="-158.7" font-family="Times,serif" font-size="14.00">0</text>
<polyline fill="none" stroke="black" points="327,-153 327,-175"/>
<text text-anchor="start" x="317.62" y="-158.7" font-family="Times,serif" font-size="14.00">5</text>
<polyline fill="none" stroke="black" points="279,-153 279,-131"/>
<text text-anchor="start" x="281.62" y="-136.7" font-family="Times,serif" font-size="14.00">0</text>
<polyline fill="none" stroke="black" points="303,-131 303,-153"/>
<text text-anchor="start" x="293.62" y="-136.7" font-family="Times,serif" font-size="14.00">1</text>
<polyline fill="none" stroke="black" points="315,-131 315,-153"/>
<text text-anchor="start" x="305.62" y="-136.7" font-family="Times,serif" font-size="14.00">0</text>
<polyline fill="none" stroke="black" points="327,-131 327,-153"/>
<text text-anchor="start" x="317.62" y="-136.7" font-family="Times,serif" font-size="14.00">1</text>
</g>
<!-- x&#45;&gt;j -->
<g id="edge2" class="edge">
<title>x&#45;&gt;j</title>
<path fill="none" stroke="black" d="M163.01,-313.96C154.03,-315.42 144.35,-316.99 134.67,-318.55"/>
<polygon fill="black" stroke="black" points="134.15,-315.09 124.84,-320.15 135.27,-322 134.15,-315.09"/>
</g>
<!-- y&#45;&gt;k -->
<g id="edge4" class="edge">
<title>y&#45;&gt;k</title>
<path fill="none" stroke="black" d="M165.69,-119.75C156.69,-118.36 146.88,-116.84 137.02,-115.31"/>
<polygon fill="black" stroke="black" points="137.82,-111.9 127.4,-113.82 136.75,-118.81 137.82,-111.9"/>
</g>
<!-- z&#45;&gt;idx -->
<g id="edge9" class="edge">
<title>z&#45;&gt;idx</title>
<path fill="none" stroke="black" stroke-dasharray="1,5" d="M560.31,-193.34C533.9,-185.3 502.21,-175.65 475.44,-167.49"/>
<polygon fill="none" stroke="black" points="559.25,-196.68 569.83,-196.24 561.29,-189.98 559.25,-196.68"/>
<text text-anchor="start" x="510.75" y="-248.2" font-family="Times,serif" font-weight="bold" font-size="14.00">P</text>
<text text-anchor="start" x="519" y="-248.2" font-family="Times,serif" font-weight="bold" baseline-shift="sub" font-size="14.00">Z</text>
<text text-anchor="start" x="526.5" y="-248.2" font-family="Times,serif" font-weight="bold" font-size="14.00">(i)</text>
<polygon fill="white" stroke="none" points="501,-194 501,-238 549,-238 549,-194 501,-194"/>
<polyline fill="none" stroke="black" points="501,-238 501,-216"/>
<text text-anchor="start" x="503.62" y="-221.7" font-family="Times,serif" font-size="14.00">1</text>
<polyline fill="none" stroke="black" points="525,-216 525,-238"/>
<text text-anchor="start" x="515.62" y="-221.7" font-family="Times,serif" font-size="14.00">0</text>
<polyline fill="none" stroke="black" points="537,-216 537,-238"/>
<text text-anchor="start" x="527.62" y="-221.7" font-family="Times,serif" font-size="14.00">0</text>
<polyline fill="none" stroke="black" points="549,-216 549,-238"/>
<text text-anchor="start" x="539.62" y="-221.7" font-family="Times,serif" font-size="14.00">1</text>
<polyline fill="none" stroke="black" points="501,-216 501,-194"/>
<text text-anchor="start" x="503.62" y="-199.7" font-family="Times,serif" font-size="14.00">0</text>
<polyline fill="none" stroke="black" points="525,-194 525,-216"/>
<text text-anchor="start" x="515.62" y="-199.7" font-family="Times,serif" font-size="14.00">1</text>
<polyline fill="none" stroke="black" points="537,-194 537,-216"/>
<text text-anchor="start" x="527.62" y="-199.7" font-family="Times,serif" font-size="14.00">0</text>
<polyline fill="none" stroke="black" points="549,-194 549,-216"/>
<text text-anchor="start" x="539.62" y="-199.7" font-family="Times,serif" font-size="14.00">1</text>
</g>
<!-- op -->
<g id="node8" class="node">
<title>op</title>
<polygon fill="#e587c9" stroke="black" points="461,-346 355,-346 355,-278 461,-278 461,-272 479,-312 461,-352 461,-346"/>
<polygon fill="white" stroke="none" points="373,-290 373,-334 461,-334 461,-290 373,-290"/>
<polygon fill="none" stroke="black" points="373,-312 373,-334 461,-334 461,-312 373,-312"/>
<text text-anchor="start" x="387" y="-318.7" font-family="Times,serif" font-weight="bold" font-size="14.00">Operation</text>
<polygon fill="none" stroke="black" points="373,-290 373,-312 415,-312 415,-290 373,-290"/>
<text text-anchor="start" x="375.62" y="-296.7" font-family="Times,serif" font-weight="bold" font-size="14.00">kernel</text>
<polygon fill="none" stroke="black" points="415,-290 415,-312 461,-312 461,-290 415,-290"/>
<text text-anchor="start" x="417.75" y="-296.7" font-family="Times,serif" font-style="italic" font-size="14.00">matmul</text>
</g>
<!-- z&#45;&gt;op -->
<g id="edge6" class="edge">
<title>z&#45;&gt;op</title>
<path fill="none" stroke="black" d="M572.66,-254.89C566.41,-260.11 559.78,-264.99 553,-269 533.8,-280.36 511.27,-289.07 490.16,-295.58"/>
<polygon fill="black" stroke="black" points="489.34,-292.18 480.73,-298.36 491.32,-298.89 489.34,-292.18"/>
</g>
<!-- op&#45;&gt;x -->
<g id="edge1" class="edge">
<title>op&#45;&gt;x</title>
<path fill="none" stroke="black" d="M354.72,-310.53C325.33,-309.82 290.44,-308.98 262.06,-308.3"/>
<polygon fill="black" stroke="black" points="262.32,-304.8 252.24,-308.06 262.15,-311.8 262.32,-304.8"/>
</g>
<!-- op&#45;&gt;y -->
<g id="edge3" class="edge">
<title>op&#45;&gt;y</title>
<path fill="none" stroke="black" d="M354.74,-310.11C317.55,-308.42 275.94,-305.36 269,-300 266.48,-298.06 243.61,-231.54 226.6,-181.32"/>
<polygon fill="black" stroke="black" points="229.97,-180.35 223.45,-172 223.34,-182.59 229.97,-180.35"/>
</g>
</g>
</svg>
