<?xml version="1.0" encoding="UTF-8" standalone="no"?>
<!DOCTYPE svg PUBLIC "-//W3C//DTD SVG 1.1//EN"
 "http://www.w3.org/Graphics/SVG/1.1/DTD/svg11.dtd">
<!-- Generated by graphviz version 9.0.0 (20230911.1827)
 -->
<!-- Title: G Pages: 1 -->
<svg width="829pt" height="436pt"
 viewBox="0.00 0.00 829.00 436.00" xmlns="http://www.w3.org/2000/svg" xmlns:xlink="http://www.w3.org/1999/xlink">
<g id="graph0" class="graph" transform="scale(1 1) rotate(0) translate(4 432)">
<title>G</title>
<polygon fill="white" stroke="none" points="-4,4 -4,-432 825,-432 825,4 -4,4"/>
<g id="clust1" class="cluster">
<title>cluster_0</title>
<path fill="none" stroke="black" stroke-dasharray="5,2" d="M164,-37C164,-37 654,-37 654,-37 660,-37 666,-43 666,-49 666,-49 666,-347 666,-347 666,-353 660,-359 654,-359 654,-359 164,-359 164,-359 158,-359 152,-353 152,-347 152,-347 152,-49 152,-49 152,-43 158,-37 164,-37"/>
</g>
<!-- j -->
<g id="node1" class="node">
<title>j</title>
<text text-anchor="start" x="37.12" y="-411.7" font-family="Times,serif" font-weight="bold" font-size="14.00">J Tensor</text>
<polygon fill="none" stroke="black" points="24.5,-368 24.5,-399 63,-399 63,-368 24.5,-368"/>
<text text-anchor="start" x="37" y="-376.7" font-family="Times,serif" font-size="14.00">⋱</text>
<polygon fill="none" stroke="black" points="65,-368 65,-399 98.5,-399 98.5,-368 65,-368"/>
<text text-anchor="start" x="75.38" y="-376.7" font-family="Times,serif" font-size="14.00">⋰</text>
<polygon fill="#d6eaf8" stroke="none" points="24.5,-332 24.5,-366 63,-366 63,-332 24.5,-332"/>
<polygon fill="none" stroke="black" points="24.5,-332 24.5,-366 63,-366 63,-332 24.5,-332"/>
<text text-anchor="start" x="34" y="-344.7" font-family="Times,serif" font-size="14.00">J</text>
<text text-anchor="start" x="39.25" y="-344.7" font-family="Times,serif" baseline-shift="sub" font-size="14.00">a,b</text>
<polygon fill="#d6eaf8" stroke="none" points="65,-332 65,-366 98.5,-366 98.5,-332 65,-332"/>
<polygon fill="none" stroke="black" points="65,-332 65,-366 98.5,-366 98.5,-332 65,-332"/>
<text text-anchor="start" x="74.62" y="-343.7" font-family="Times,serif" font-size="14.00">…</text>
<polygon fill="none" stroke="black" points="24.5,-299 24.5,-330 63,-330 63,-299 24.5,-299"/>
<text text-anchor="start" x="37.38" y="-307.7" font-family="Times,serif" font-size="14.00">⋰</text>
<polygon fill="none" stroke="black" points="65,-299 65,-330 98.5,-330 98.5,-299 65,-299"/>
<text text-anchor="start" x="75" y="-307.7" font-family="Times,serif" font-size="14.00">⋱</text>
<polygon fill="none" stroke="black" points="21.5,-296 21.5,-402 101.5,-402 101.5,-296 21.5,-296"/>
<text text-anchor="start" x="24.5" y="-277.7" font-family="Times,serif" font-weight="bold" font-size="14.00">start</text>
<text text-anchor="start" x="60.38" y="-276.7" font-family="Times,serif" font-size="14.00">[&#45;10, 0]</text>
<text text-anchor="start" x="27.5" y="-255.7" font-family="Times,serif" font-weight="bold" font-size="14.00">end</text>
<text text-anchor="start" x="66" y="-254.7" font-family="Times,serif" font-size="14.00">[0, 5]</text>
<text text-anchor="start" x="21.5" y="-233.7" font-family="Times,serif" font-weight="bold" font-size="14.00">shape</text>
<text text-anchor="start" x="62.62" y="-232.7" font-family="Times,serif" font-size="14.00">[10, 5]</text>
</g>
<!-- k -->
<g id="node2" class="node">
<title>k</title>
<text text-anchor="start" x="36" y="-191.7" font-family="Times,serif" font-weight="bold" font-size="14.00">L Tensor</text>
<polygon fill="none" stroke="black" points="7,-145 7,-179 39.67,-179 39.67,-145 7,-145"/>
<text text-anchor="start" x="16.58" y="-155.45" font-family="Times,serif" font-size="14.00">⋱</text>
<polygon fill="none" stroke="black" points="41.67,-145 41.67,-179 81.33,-179 81.33,-145 41.67,-145"/>
<text text-anchor="start" x="54.38" y="-156.7" font-family="Times,serif" font-size="14.00">…</text>
<polygon fill="none" stroke="black" points="83.33,-145 83.33,-179 116,-179 116,-145 83.33,-145"/>
<text text-anchor="start" x="93.29" y="-155.45" font-family="Times,serif" font-size="14.00">⋰</text>
<polygon fill="none" stroke="black" points="7,-109 7,-143 39.67,-143 39.67,-109 7,-109"/>
<text text-anchor="start" x="16.21" y="-120.7" font-family="Times,serif" font-size="14.00">…</text>
<polygon fill="#d6eaf8" stroke="none" points="41.67,-109 41.67,-143 81.33,-143 81.33,-109 41.67,-109"/>
<polygon fill="none" stroke="black" points="41.67,-109 41.67,-143 81.33,-143 81.33,-109 41.67,-109"/>
<text text-anchor="start" x="50.62" y="-121.7" font-family="Times,serif" font-size="14.00">L</text>
<text text-anchor="start" x="58.88" y="-121.7" font-family="Times,serif" baseline-shift="sub" font-size="14.00">a,c</text>
<polygon fill="none" stroke="black" points="83.33,-109 83.33,-143 116,-143 116,-109 83.33,-109"/>
<text text-anchor="start" x="92.54" y="-120.7" font-family="Times,serif" font-size="14.00">…</text>
<polygon fill="none" stroke="black" points="7,-73 7,-107 39.67,-107 39.67,-73 7,-73"/>
<text text-anchor="start" x="16.96" y="-83.45" font-family="Times,serif" font-size="14.00">⋰</text>
<polygon fill="none" stroke="black" points="41.67,-73 41.67,-107 81.33,-107 81.33,-73 41.67,-73"/>
<text text-anchor="start" x="54.38" y="-84.7" font-family="Times,serif" font-size="14.00">…</text>
<polygon fill="none" stroke="black" points="83.33,-73 83.33,-107 116,-107 116,-73 83.33,-73"/>
<text text-anchor="start" x="92.92" y="-83.45" font-family="Times,serif" font-size="14.00">⋱</text>
<polygon fill="none" stroke="black" points="4,-70 4,-182 119,-182 119,-70 4,-70"/>
<text text-anchor="start" x="15" y="-51.7" font-family="Times,serif" font-weight="bold" font-size="14.00">start</text>
<text text-anchor="start" x="74" y="-50.7" font-family="Times,serif" font-size="14.00">[0, 0]</text>
<text text-anchor="start" x="18" y="-29.7" font-family="Times,serif" font-weight="bold" font-size="14.00">end</text>
<text text-anchor="start" x="67.25" y="-28.7" font-family="Times,serif" font-size="14.00">[10, 12]</text>
<text text-anchor="start" x="12" y="-7.7" font-family="Times,serif" font-weight="bold" font-size="14.00">shape</text>
<text text-anchor="start" x="67.25" y="-6.7" font-family="Times,serif" font-size="14.00">[10, 12]</text>
</g>
<!-- l -->
<g id="node3" class="node">
<title>l</title>
<text text-anchor="start" x="731.38" y="-296.7" font-family="Times,serif" font-weight="bold" font-size="14.00">K Tensor</text>
<polygon fill="none" stroke="black" points="702,-250 702,-284 734.67,-284 734.67,-250 702,-250"/>
<text text-anchor="start" x="711.58" y="-260.45" font-family="Times,serif" font-size="14.00">⋱</text>
<polygon fill="#d6eaf8" stroke="none" points="736.67,-250 736.67,-284 779.33,-284 779.33,-250 736.67,-250"/>
<polygon fill="none" stroke="black" points="736.67,-250 736.67,-284 779.33,-284 779.33,-250 736.67,-250"/>
<text text-anchor="start" x="750.88" y="-261.7" font-family="Times,serif" font-size="14.00">…</text>
<polygon fill="none" stroke="black" points="781.33,-250 781.33,-284 814,-284 814,-250 781.33,-250"/>
<text text-anchor="start" x="791.29" y="-260.45" font-family="Times,serif" font-size="14.00">⋰</text>
<polygon fill="none" stroke="black" points="702,-214 702,-248 734.67,-248 734.67,-214 702,-214"/>
<text text-anchor="start" x="711.21" y="-225.7" font-family="Times,serif" font-size="14.00">…</text>
<polygon fill="#d6eaf8" stroke="none" points="736.67,-214 736.67,-248 779.33,-248 779.33,-214 736.67,-214"/>
<polygon fill="none" stroke="black" points="736.67,-214 736.67,-248 779.33,-248 779.33,-214 736.67,-214"/>
<text text-anchor="start" x="746" y="-226.7" font-family="Times,serif" font-size="14.00">K</text>
<text text-anchor="start" x="755.75" y="-226.7" font-family="Times,serif" baseline-shift="sub" font-size="14.00">b,c</text>
<polygon fill="none" stroke="black" points="781.33,-214 781.33,-248 814,-248 814,-214 781.33,-214"/>
<text text-anchor="start" x="790.54" y="-225.7" font-family="Times,serif" font-size="14.00">…</text>
<polygon fill="none" stroke="black" points="702,-178 702,-212 734.67,-212 734.67,-178 702,-178"/>
<text text-anchor="start" x="711.96" y="-188.45" font-family="Times,serif" font-size="14.00">⋰</text>
<polygon fill="#d6eaf8" stroke="none" points="736.67,-178 736.67,-212 779.33,-212 779.33,-178 736.67,-178"/>
<polygon fill="none" stroke="black" points="736.67,-178 736.67,-212 779.33,-212 779.33,-178 736.67,-178"/>
<text text-anchor="start" x="750.88" y="-189.7" font-family="Times,serif" font-size="14.00">…</text>
<polygon fill="none" stroke="black" points="781.33,-178 781.33,-212 814,-212 814,-178 781.33,-178"/>
<text text-anchor="start" x="790.92" y="-188.45" font-family="Times,serif" font-size="14.00">⋱</text>
<polygon fill="none" stroke="black" points="699,-175 699,-287 817,-287 817,-175 699,-175"/>
<text text-anchor="start" x="712.5" y="-156.7" font-family="Times,serif" font-weight="bold" font-size="14.00">start</text>
<text text-anchor="start" x="773" y="-155.7" font-family="Times,serif" font-size="14.00">[0, 0]</text>
<text text-anchor="start" x="715.5" y="-134.7" font-family="Times,serif" font-weight="bold" font-size="14.00">end</text>
<text text-anchor="start" x="769.62" y="-133.7" font-family="Times,serif" font-size="14.00">[5, 12]</text>
<text text-anchor="start" x="709.5" y="-112.7" font-family="Times,serif" font-weight="bold" font-size="14.00">shape</text>
<text text-anchor="start" x="769.62" y="-111.7" font-family="Times,serif" font-size="14.00">[5, 12]</text>
</g>
<!-- z -->
<g id="node7" class="node">
<title>z</title>
<text text-anchor="start" x="585.25" y="-237.7" font-family="Times,serif" font-weight="bold" font-size="14.00">Z Output</text>
<text text-anchor="start" x="575" y="-215.7" font-family="Times,serif" font-weight="bold" font-size="14.00">start</text>
<text text-anchor="start" x="617.5" y="-214.7" font-family="Times,serif" font-size="14.00">[0, 0]</text>
<text text-anchor="start" x="578" y="-193.7" font-family="Times,serif" font-weight="bold" font-size="14.00">end</text>
<text text-anchor="start" x="610.75" y="-192.7" font-family="Times,serif" font-size="14.00">[10, 12]</text>
<text text-anchor="start" x="572" y="-171.7" font-family="Times,serif" font-weight="bold" font-size="14.00">shape</text>
<text text-anchor="start" x="610.75" y="-170.7" font-family="Times,serif" font-size="14.00">[10, 12]</text>
</g>
<!-- l&#45;&gt;z -->
<g id="edge5" class="edge">
<title>l&#45;&gt;z</title>
<path fill="none" stroke="black" d="M695.11,-209C686.5,-209 677.69,-209 669.21,-209"/>
<polygon fill="black" stroke="black" points="669.41,-205.5 659.41,-209 669.41,-212.5 669.41,-205.5"/>
</g>
<!-- idx -->
<g id="node4" class="node">
<title>idx</title>
<text text-anchor="start" x="365.62" y="-236.7" font-family="Times,serif" font-weight="bold" font-size="14.00">Operation Index</text>
<polygon fill="none" stroke="black" points="362.5,-190 362.5,-224 395.17,-224 395.17,-190 362.5,-190"/>
<text text-anchor="start" x="372.08" y="-200.45" font-family="Times,serif" font-size="14.00">⋱</text>
<polygon fill="none" stroke="black" points="397.17,-190 397.17,-224 430.83,-224 430.83,-190 397.17,-190"/>
<text text-anchor="start" x="406.88" y="-201.7" font-family="Times,serif" font-size="14.00">…</text>
<polygon fill="none" stroke="black" points="432.83,-190 432.83,-224 465.5,-224 465.5,-190 432.83,-190"/>
<text text-anchor="start" x="442.79" y="-200.45" font-family="Times,serif" font-size="14.00">⋰</text>
<polygon fill="none" stroke="black" points="362.5,-154 362.5,-188 395.17,-188 395.17,-154 362.5,-154"/>
<text text-anchor="start" x="371.71" y="-165.7" font-family="Times,serif" font-size="14.00">…</text>
<polygon fill="#d6eaf8" stroke="none" points="397.17,-154 397.17,-188 430.83,-188 430.83,-154 397.17,-154"/>
<polygon fill="none" stroke="black" points="397.17,-154 397.17,-188 430.83,-188 430.83,-154 397.17,-154"/>
<text text-anchor="start" x="406.12" y="-165.7" font-family="Times,serif" font-size="14.00">a,c</text>
<polygon fill="none" stroke="black" points="432.83,-154 432.83,-188 465.5,-188 465.5,-154 432.83,-154"/>
<text text-anchor="start" x="442.04" y="-165.7" font-family="Times,serif" font-size="14.00">…</text>
<polygon fill="none" stroke="black" points="362.5,-118 362.5,-152 395.17,-152 395.17,-118 362.5,-118"/>
<text text-anchor="start" x="372.46" y="-128.45" font-family="Times,serif" font-size="14.00">⋰</text>
<polygon fill="none" stroke="black" points="397.17,-118 397.17,-152 430.83,-152 430.83,-118 397.17,-118"/>
<text text-anchor="start" x="406.88" y="-129.7" font-family="Times,serif" font-size="14.00">…</text>
<polygon fill="none" stroke="black" points="432.83,-118 432.83,-152 465.5,-152 465.5,-118 432.83,-118"/>
<text text-anchor="start" x="442.42" y="-128.45" font-family="Times,serif" font-size="14.00">⋱</text>
<polygon fill="none" stroke="black" points="359.5,-115 359.5,-227 468.5,-227 468.5,-115 359.5,-115"/>
<text text-anchor="start" x="371" y="-96.7" font-family="Times,serif" font-weight="bold" font-size="14.00">start</text>
<text text-anchor="start" x="427" y="-95.7" font-family="Times,serif" font-size="14.00">[0, 0]</text>
<text text-anchor="start" x="374" y="-74.7" font-family="Times,serif" font-weight="bold" font-size="14.00">end</text>
<text text-anchor="start" x="423.62" y="-73.7" font-family="Times,serif" font-size="14.00">[10, 5]</text>
<text text-anchor="start" x="368" y="-52.7" font-family="Times,serif" font-weight="bold" font-size="14.00">shape</text>
<text text-anchor="start" x="423.62" y="-51.7" font-family="Times,serif" font-size="14.00">[10, 5]</text>
</g>
<!-- x -->
<g id="node5" class="node">
<title>x</title>
<text text-anchor="start" x="181.12" y="-334.7" font-family="Times,serif" font-weight="bold" font-size="14.00">X Input</text>
<text text-anchor="start" x="167" y="-312.7" font-family="Times,serif" font-weight="bold" font-size="14.00">start</text>
<text text-anchor="start" x="202.88" y="-311.7" font-family="Times,serif" font-size="14.00">[&#45;10, 0]</text>
<text text-anchor="start" x="170" y="-290.7" font-family="Times,serif" font-weight="bold" font-size="14.00">end</text>
<text text-anchor="start" x="208.5" y="-289.7" font-family="Times,serif" font-size="14.00">[0, 5]</text>
<text text-anchor="start" x="164" y="-268.7" font-family="Times,serif" font-weight="bold" font-size="14.00">shape</text>
<text text-anchor="start" x="205.12" y="-267.7" font-family="Times,serif" font-size="14.00">[10, 5]</text>
</g>
<!-- idx&#45;&gt;x -->
<g id="edge7" class="edge">
<title>idx&#45;&gt;x</title>
<path fill="none" stroke="black" stroke-dasharray="1,5" d="M355.55,-188.68C348.42,-193.05 341.12,-197.26 334,-201 305.13,-216.15 292.07,-208.92 266,-228.5 256.96,-235.29 248.53,-243.72 240.99,-252.51"/>
<polygon fill="none" stroke="black" points="238.33,-250.24 234.72,-260.2 243.76,-254.66 238.33,-250.24"/>
<text text-anchor="start" x="285.38" y="-286.2" font-family="Times,serif" font-weight="bold" font-size="14.00">P</text>
<text text-anchor="start" x="293.62" y="-286.2" font-family="Times,serif" font-weight="bold" baseline-shift="sub" font-size="14.00">X</text>
<text text-anchor="start" x="301.88" y="-286.2" font-family="Times,serif" font-weight="bold" font-size="14.00">(i)</text>
<polyline fill="none" stroke="black" points="270,-276 270,-254"/>
<text text-anchor="start" x="272.62" y="-259.7" font-family="Times,serif" font-size="14.00">1</text>
<polyline fill="none" stroke="black" points="294,-254 294,-276"/>
<text text-anchor="start" x="284.62" y="-259.7" font-family="Times,serif" font-size="14.00">0</text>
<polyline fill="none" stroke="black" points="318,-254 318,-276"/>
<text text-anchor="start" x="297" y="-259.7" font-family="Times,serif" font-size="14.00">&#45;10</text>
<polyline fill="none" stroke="black" points="330,-254 330,-276"/>
<text text-anchor="start" x="320.62" y="-259.7" font-family="Times,serif" font-size="14.00">1</text>
<polyline fill="none" stroke="black" points="270,-254 270,-232"/>
<text text-anchor="start" x="272.62" y="-237.7" font-family="Times,serif" font-size="14.00">0</text>
<polyline fill="none" stroke="black" points="294,-232 294,-254"/>
<text text-anchor="start" x="284.62" y="-237.7" font-family="Times,serif" font-size="14.00">0</text>
<polyline fill="none" stroke="black" points="318,-232 318,-254"/>
<text text-anchor="start" x="302.62" y="-237.7" font-family="Times,serif" font-size="14.00">0</text>
<polyline fill="none" stroke="black" points="330,-232 330,-254"/>
<text text-anchor="start" x="320.62" y="-237.7" font-family="Times,serif" font-size="14.00">5</text>
</g>
<!-- y -->
<g id="node6" class="node">
<title>y</title>
<text text-anchor="start" x="181.5" y="-153.7" font-family="Times,serif" font-weight="bold" font-size="14.00">Y Input</text>
<text text-anchor="start" x="169.5" y="-131.7" font-family="Times,serif" font-weight="bold" font-size="14.00">start</text>
<text text-anchor="start" x="208.5" y="-130.7" font-family="Times,serif" font-size="14.00">[0, 0]</text>
<text text-anchor="start" x="172.5" y="-109.7" font-family="Times,serif" font-weight="bold" font-size="14.00">end</text>
<text text-anchor="start" x="205.12" y="-108.7" font-family="Times,serif" font-size="14.00">[5, 12]</text>
<text text-anchor="start" x="166.5" y="-87.7" font-family="Times,serif" font-weight="bold" font-size="14.00">shape</text>
<text text-anchor="start" x="205.12" y="-86.7" font-family="Times,serif" font-size="14.00">[5, 12]</text>
</g>
<!-- idx&#45;&gt;y -->
<g id="edge8" class="edge">
<title>idx&#45;&gt;y</title>
<path fill="none" stroke="black" stroke-dasharray="1,5" d="M355.57,-130.73C348.37,-129.01 341.06,-127.53 334,-126.5 308.67,-122.81 280.24,-122.12 256.53,-122.48"/>
<polygon fill="none" stroke="black" points="256.74,-118.97 246.82,-122.7 256.9,-125.97 256.74,-118.97"/>
<text text-anchor="start" x="285.38" y="-184.2" font-family="Times,serif" font-weight="bold" font-size="14.00">P</text>
<text text-anchor="start" x="293.62" y="-184.2" font-family="Times,serif" font-weight="bold" baseline-shift="sub" font-size="14.00">Y</text>
<text text-anchor="start" x="301.88" y="-184.2" font-family="Times,serif" font-weight="bold" font-size="14.00">(i)</text>
<polyline fill="none" stroke="black" points="276,-174 276,-152"/>
<text text-anchor="start" x="278.62" y="-157.7" font-family="Times,serif" font-size="14.00">0</text>
<polyline fill="none" stroke="black" points="300,-152 300,-174"/>
<text text-anchor="start" x="290.62" y="-157.7" font-family="Times,serif" font-size="14.00">0</text>
<polyline fill="none" stroke="black" points="312,-152 312,-174"/>
<text text-anchor="start" x="302.62" y="-157.7" font-family="Times,serif" font-size="14.00">0</text>
<polyline fill="none" stroke="black" points="324,-152 324,-174"/>
<text text-anchor="start" x="314.62" y="-157.7" font-family="Times,serif" font-size="14.00">5</text>
<polyline fill="none" stroke="black" points="276,-152 276,-130"/>
<text text-anchor="start" x="278.62" y="-135.7" font-family="Times,serif" font-size="14.00">0</text>
<polyline fill="none" stroke="black" points="300,-130 300,-152"/>
<text text-anchor="start" x="290.62" y="-135.7" font-family="Times,serif" font-size="14.00">1</text>
<polyline fill="none" stroke="black" points="312,-130 312,-152"/>
<text text-anchor="start" x="302.62" y="-135.7" font-family="Times,serif" font-size="14.00">0</text>
<polyline fill="none" stroke="black" points="324,-130 324,-152"/>
<text text-anchor="start" x="314.62" y="-135.7" font-family="Times,serif" font-size="14.00">1</text>
</g>
<!-- x&#45;&gt;j -->
<g id="edge2" class="edge">
<title>x&#45;&gt;j</title>
<path fill="none" stroke="black" d="M160.08,-312.41C146.33,-314.47 130.92,-316.77 116.48,-318.93"/>
<polygon fill="black" stroke="black" points="116.02,-315.46 106.65,-320.4 117.06,-322.38 116.02,-315.46"/>
</g>
<!-- y&#45;&gt;k -->
<g id="edge4" class="edge">
<title>y&#45;&gt;k</title>
<path fill="none" stroke="black" d="M162.74,-118.98C153.72,-117.63 143.9,-116.17 134.04,-114.69"/>
<polygon fill="black" stroke="black" points="134.84,-111.27 124.43,-113.26 133.81,-118.2 134.84,-111.27"/>
</g>
<!-- z&#45;&gt;idx -->
<g id="edge9" class="edge">
<title>z&#45;&gt;idx</title>
<path fill="none" stroke="black" stroke-dasharray="1,5" d="M557.31,-192.34C530.9,-184.3 499.21,-174.65 472.44,-166.49"/>
<polygon fill="none" stroke="black" points="556.25,-195.68 566.83,-195.24 558.29,-188.98 556.25,-195.68"/>
<text text-anchor="start" x="507.75" y="-247.2" font-family="Times,serif" font-weight="bold" font-size="14.00">P</text>
<text text-anchor="start" x="516" y="-247.2" font-family="Times,serif" font-weight="bold" baseline-shift="sub" font-size="14.00">Z</text>
<text text-anchor="start" x="523.5" y="-247.2" font-family="Times,serif" font-weight="bold" font-size="14.00">(i)</text>
<polyline fill="none" stroke="black" points="498,-237 498,-215"/>
<text text-anchor="start" x="500.62" y="-220.7" font-family="Times,serif" font-size="14.00">1</text>
<polyline fill="none" stroke="black" points="522,-215 522,-237"/>
<text text-anchor="start" x="512.62" y="-220.7" font-family="Times,serif" font-size="14.00">0</text>
<polyline fill="none" stroke="black" points="534,-215 534,-237"/>
<text text-anchor="start" x="524.62" y="-220.7" font-family="Times,serif" font-size="14.00">0</text>
<polyline fill="none" stroke="black" points="546,-215 546,-237"/>
<text text-anchor="start" x="536.62" y="-220.7" font-family="Times,serif" font-size="14.00">1</text>
<polyline fill="none" stroke="black" points="498,-215 498,-193"/>
<text text-anchor="start" x="500.62" y="-198.7" font-family="Times,serif" font-size="14.00">0</text>
<polyline fill="none" stroke="black" points="522,-193 522,-215"/>
<text text-anchor="start" x="512.62" y="-198.7" font-family="Times,serif" font-size="14.00">1</text>
<polyline fill="none" stroke="black" points="534,-193 534,-215"/>
<text text-anchor="start" x="524.62" y="-198.7" font-family="Times,serif" font-size="14.00">0</text>
<polyline fill="none" stroke="black" points="546,-193 546,-215"/>
<text text-anchor="start" x="536.62" y="-198.7" font-family="Times,serif" font-size="14.00">1</text>
</g>
<!-- op -->
<g id="node8" class="node">
<title>op</title>
<polygon fill="#e5e8e8" stroke="black" points="458,-345 352,-345 352,-277 458,-277 458,-271 476,-311 458,-351 458,-345"/>
<polygon fill="white" stroke="none" points="370,-289 370,-333 458,-333 458,-289 370,-289"/>
<polygon fill="none" stroke="black" points="370,-311 370,-333 458,-333 458,-311 370,-311"/>
<text text-anchor="start" x="384" y="-317.7" font-family="Times,serif" font-weight="bold" font-size="14.00">Operation</text>
<polygon fill="none" stroke="black" points="370,-289 370,-311 412,-311 412,-289 370,-289"/>
<text text-anchor="start" x="372.62" y="-295.7" font-family="Times,serif" font-weight="bold" font-size="14.00">kernel</text>
<polygon fill="none" stroke="black" points="412,-289 412,-311 458,-311 458,-289 412,-289"/>
<text text-anchor="start" x="414.75" y="-295.7" font-family="Times,serif" font-style="italic" font-size="14.00">matmul</text>
</g>
<!-- z&#45;&gt;op -->
<g id="edge6" class="edge">
<title>z&#45;&gt;op</title>
<path fill="none" stroke="black" d="M569.66,-253.89C563.41,-259.11 556.78,-263.99 550,-268 530.8,-279.36 508.27,-288.07 487.16,-294.58"/>
<polygon fill="black" stroke="black" points="486.34,-291.18 477.73,-297.36 488.32,-297.89 486.34,-291.18"/>
</g>
<!-- op&#45;&gt;x -->
<g id="edge1" class="edge">
<title>op&#45;&gt;x</title>
<path fill="none" stroke="black" d="M351.72,-309.53C322.33,-308.82 287.44,-307.98 259.06,-307.3"/>
<polygon fill="black" stroke="black" points="259.32,-303.8 249.24,-307.06 259.15,-310.8 259.32,-303.8"/>
</g>
<!-- op&#45;&gt;y -->
<g id="edge3" class="edge">
<title>op&#45;&gt;y</title>
<path fill="none" stroke="black" d="M351.74,-309.11C314.55,-307.42 272.94,-304.36 266,-299 263.48,-297.06 240.61,-230.54 223.6,-180.32"/>
<polygon fill="black" stroke="black" points="226.97,-179.35 220.45,-171 220.34,-181.59 226.97,-179.35"/>
</g>
</g>
</svg>
