<?xml version="1.0" encoding="UTF-8" standalone="no"?>
<!DOCTYPE svg PUBLIC "-//W3C//DTD SVG 1.1//EN"
 "http://www.w3.org/Graphics/SVG/1.1/DTD/svg11.dtd">
<!-- Generated by graphviz version 9.0.0 (20230911.1827)
 -->
<!-- Title: G Pages: 1 -->
<svg width="829pt" height="436pt"
 viewBox="0.00 0.00 829.00 436.00" xmlns="http://www.w3.org/2000/svg" xmlns:xlink="http://www.w3.org/1999/xlink">
<g id="graph0" class="graph" transform="scale(1 1) rotate(0) translate(4 432)">
<title>G</title>
<polygon fill="white" stroke="none" points="-4,4 -4,-432 825,-432 825,4 -4,4"/>
<g id="clust1" class="cluster">
<title>cluster_0</title>
<path fill="none" stroke="black" stroke-dasharray="5,2" d="M167,-37C167,-37 657,-37 657,-37 663,-37 669,-43 669,-49 669,-49 669,-347 669,-347 669,-353 663,-359 657,-359 657,-359 167,-359 167,-359 161,-359 155,-353 155,-347 155,-347 155,-49 155,-49 155,-43 161,-37 167,-37"/>
</g>
<!-- j -->
<g id="node1" class="node">
<title>j</title>
<text text-anchor="start" x="38.62" y="-411.7" font-family="Times,serif" font-weight="bold" font-size="14.00">J Tensor</text>
<polygon fill="none" stroke="black" points="26,-368 26,-399 64.5,-399 64.5,-368 26,-368"/>
<text text-anchor="start" x="38.5" y="-376.7" font-family="Times,serif" font-size="14.00">⋱</text>
<polygon fill="none" stroke="black" points="66.5,-368 66.5,-399 100,-399 100,-368 66.5,-368"/>
<text text-anchor="start" x="76.88" y="-376.7" font-family="Times,serif" font-size="14.00">⋰</text>
<polygon fill="#d6eaf8" stroke="none" points="26,-332 26,-366 64.5,-366 64.5,-332 26,-332"/>
<polygon fill="none" stroke="black" points="26,-332 26,-366 64.5,-366 64.5,-332 26,-332"/>
<text text-anchor="start" x="35.5" y="-344.7" font-family="Times,serif" font-size="14.00">J</text>
<text text-anchor="start" x="40.75" y="-344.7" font-family="Times,serif" baseline-shift="sub" font-size="14.00">a,b</text>
<polygon fill="#d6eaf8" stroke="none" points="66.5,-332 66.5,-366 100,-366 100,-332 66.5,-332"/>
<polygon fill="none" stroke="black" points="66.5,-332 66.5,-366 100,-366 100,-332 66.5,-332"/>
<text text-anchor="start" x="76.12" y="-343.7" font-family="Times,serif" font-size="14.00">…</text>
<polygon fill="none" stroke="black" points="26,-299 26,-330 64.5,-330 64.5,-299 26,-299"/>
<text text-anchor="start" x="38.88" y="-307.7" font-family="Times,serif" font-size="14.00">⋰</text>
<polygon fill="none" stroke="black" points="66.5,-299 66.5,-330 100,-330 100,-299 66.5,-299"/>
<text text-anchor="start" x="76.5" y="-307.7" font-family="Times,serif" font-size="14.00">⋱</text>
<polygon fill="none" stroke="black" points="23,-296 23,-402 103,-402 103,-296 23,-296"/>
<text text-anchor="start" x="26" y="-277.7" font-family="Times,serif" font-weight="bold" font-size="14.00">start</text>
<text text-anchor="start" x="61.88" y="-276.7" font-family="Times,serif" font-size="14.00">[&#45;10, 0]</text>
<text text-anchor="start" x="29" y="-255.7" font-family="Times,serif" font-weight="bold" font-size="14.00">end</text>
<text text-anchor="start" x="67.5" y="-254.7" font-family="Times,serif" font-size="14.00">[0, 5]</text>
<text text-anchor="start" x="23" y="-233.7" font-family="Times,serif" font-weight="bold" font-size="14.00">shape</text>
<text text-anchor="start" x="64.12" y="-232.7" font-family="Times,serif" font-size="14.00">[10, 5]</text>
</g>
<!-- k -->
<g id="node2" class="node">
<title>k</title>
<text text-anchor="start" x="36.38" y="-191.7" font-family="Times,serif" font-weight="bold" font-size="14.00">K Tensor</text>
<polygon fill="none" stroke="black" points="7,-145 7,-179 39.67,-179 39.67,-145 7,-145"/>
<text text-anchor="start" x="16.58" y="-155.45" font-family="Times,serif" font-size="14.00">⋱</text>
<polygon fill="#d6eaf8" stroke="none" points="41.67,-145 41.67,-179 84.33,-179 84.33,-145 41.67,-145"/>
<polygon fill="none" stroke="black" points="41.67,-145 41.67,-179 84.33,-179 84.33,-145 41.67,-145"/>
<text text-anchor="start" x="55.88" y="-156.7" font-family="Times,serif" font-size="14.00">…</text>
<polygon fill="none" stroke="black" points="86.33,-145 86.33,-179 119,-179 119,-145 86.33,-145"/>
<text text-anchor="start" x="96.29" y="-155.45" font-family="Times,serif" font-size="14.00">⋰</text>
<polygon fill="none" stroke="black" points="7,-109 7,-143 39.67,-143 39.67,-109 7,-109"/>
<text text-anchor="start" x="16.21" y="-120.7" font-family="Times,serif" font-size="14.00">…</text>
<polygon fill="#d6eaf8" stroke="none" points="41.67,-109 41.67,-143 84.33,-143 84.33,-109 41.67,-109"/>
<polygon fill="none" stroke="black" points="41.67,-109 41.67,-143 84.33,-143 84.33,-109 41.67,-109"/>
<text text-anchor="start" x="51" y="-121.7" font-family="Times,serif" font-size="14.00">K</text>
<text text-anchor="start" x="60.75" y="-121.7" font-family="Times,serif" baseline-shift="sub" font-size="14.00">b,c</text>
<polygon fill="none" stroke="black" points="86.33,-109 86.33,-143 119,-143 119,-109 86.33,-109"/>
<text text-anchor="start" x="95.54" y="-120.7" font-family="Times,serif" font-size="14.00">…</text>
<polygon fill="none" stroke="black" points="7,-73 7,-107 39.67,-107 39.67,-73 7,-73"/>
<text text-anchor="start" x="16.96" y="-83.45" font-family="Times,serif" font-size="14.00">⋰</text>
<polygon fill="#d6eaf8" stroke="none" points="41.67,-73 41.67,-107 84.33,-107 84.33,-73 41.67,-73"/>
<polygon fill="none" stroke="black" points="41.67,-73 41.67,-107 84.33,-107 84.33,-73 41.67,-73"/>
<text text-anchor="start" x="55.88" y="-84.7" font-family="Times,serif" font-size="14.00">…</text>
<polygon fill="none" stroke="black" points="86.33,-73 86.33,-107 119,-107 119,-73 86.33,-73"/>
<text text-anchor="start" x="95.92" y="-83.45" font-family="Times,serif" font-size="14.00">⋱</text>
<polygon fill="none" stroke="black" points="4,-70 4,-182 122,-182 122,-70 4,-70"/>
<text text-anchor="start" x="16" y="-51.7" font-family="Times,serif" font-weight="bold" font-size="14.00">start</text>
<text text-anchor="start" x="76.5" y="-50.7" font-family="Times,serif" font-size="14.00">[0, 0]</text>
<text text-anchor="start" x="19" y="-29.7" font-family="Times,serif" font-weight="bold" font-size="14.00">end</text>
<text text-anchor="start" x="69.75" y="-28.7" font-family="Times,serif" font-size="14.00">[10, 12]</text>
<text text-anchor="start" x="13" y="-7.7" font-family="Times,serif" font-weight="bold" font-size="14.00">shape</text>
<text text-anchor="start" x="69.75" y="-6.7" font-family="Times,serif" font-size="14.00">[10, 12]</text>
</g>
<!-- l -->
<g id="node3" class="node">
<title>l</title>
<text text-anchor="start" x="734" y="-296.7" font-family="Times,serif" font-weight="bold" font-size="14.00">L Tensor</text>
<polygon fill="none" stroke="black" points="705,-250 705,-284 737.67,-284 737.67,-250 705,-250"/>
<text text-anchor="start" x="714.58" y="-260.45" font-family="Times,serif" font-size="14.00">⋱</text>
<polygon fill="none" stroke="black" points="739.67,-250 739.67,-284 779.33,-284 779.33,-250 739.67,-250"/>
<text text-anchor="start" x="752.38" y="-261.7" font-family="Times,serif" font-size="14.00">…</text>
<polygon fill="none" stroke="black" points="781.33,-250 781.33,-284 814,-284 814,-250 781.33,-250"/>
<text text-anchor="start" x="791.29" y="-260.45" font-family="Times,serif" font-size="14.00">⋰</text>
<polygon fill="none" stroke="black" points="705,-214 705,-248 737.67,-248 737.67,-214 705,-214"/>
<text text-anchor="start" x="714.21" y="-225.7" font-family="Times,serif" font-size="14.00">…</text>
<polygon fill="#d6eaf8" stroke="none" points="739.67,-214 739.67,-248 779.33,-248 779.33,-214 739.67,-214"/>
<polygon fill="none" stroke="black" points="739.67,-214 739.67,-248 779.33,-248 779.33,-214 739.67,-214"/>
<text text-anchor="start" x="748.62" y="-226.7" font-family="Times,serif" font-size="14.00">L</text>
<text text-anchor="start" x="756.88" y="-226.7" font-family="Times,serif" baseline-shift="sub" font-size="14.00">a,c</text>
<polygon fill="none" stroke="black" points="781.33,-214 781.33,-248 814,-248 814,-214 781.33,-214"/>
<text text-anchor="start" x="790.54" y="-225.7" font-family="Times,serif" font-size="14.00">…</text>
<polygon fill="none" stroke="black" points="705,-178 705,-212 737.67,-212 737.67,-178 705,-178"/>
<text text-anchor="start" x="714.96" y="-188.45" font-family="Times,serif" font-size="14.00">⋰</text>
<polygon fill="none" stroke="black" points="739.67,-178 739.67,-212 779.33,-212 779.33,-178 739.67,-178"/>
<text text-anchor="start" x="752.38" y="-189.7" font-family="Times,serif" font-size="14.00">…</text>
<polygon fill="none" stroke="black" points="781.33,-178 781.33,-212 814,-212 814,-178 781.33,-178"/>
<text text-anchor="start" x="790.92" y="-188.45" font-family="Times,serif" font-size="14.00">⋱</text>
<polygon fill="none" stroke="black" points="702,-175 702,-287 817,-287 817,-175 702,-175"/>
<text text-anchor="start" x="715" y="-156.7" font-family="Times,serif" font-weight="bold" font-size="14.00">start</text>
<text text-anchor="start" x="774" y="-155.7" font-family="Times,serif" font-size="14.00">[0, 0]</text>
<text text-anchor="start" x="718" y="-134.7" font-family="Times,serif" font-weight="bold" font-size="14.00">end</text>
<text text-anchor="start" x="770.62" y="-133.7" font-family="Times,serif" font-size="14.00">[5, 12]</text>
<text text-anchor="start" x="712" y="-112.7" font-family="Times,serif" font-weight="bold" font-size="14.00">shape</text>
<text text-anchor="start" x="770.62" y="-111.7" font-family="Times,serif" font-size="14.00">[5, 12]</text>
</g>
<!-- z -->
<g id="node7" class="node">
<title>z</title>
<text text-anchor="start" x="588.25" y="-237.7" font-family="Times,serif" font-weight="bold" font-size="14.00">Z Output</text>
<text text-anchor="start" x="578" y="-215.7" font-family="Times,serif" font-weight="bold" font-size="14.00">start</text>
<text text-anchor="start" x="620.5" y="-214.7" font-family="Times,serif" font-size="14.00">[0, 0]</text>
<text text-anchor="start" x="581" y="-193.7" font-family="Times,serif" font-weight="bold" font-size="14.00">end</text>
<text text-anchor="start" x="613.75" y="-192.7" font-family="Times,serif" font-size="14.00">[10, 12]</text>
<text text-anchor="start" x="575" y="-171.7" font-family="Times,serif" font-weight="bold" font-size="14.00">shape</text>
<text text-anchor="start" x="613.75" y="-170.7" font-family="Times,serif" font-size="14.00">[10, 12]</text>
</g>
<!-- l&#45;&gt;z -->
<g id="edge5" class="edge">
<title>l&#45;&gt;z</title>
<path fill="none" stroke="black" d="M698.08,-209C689.51,-209 680.73,-209 672.26,-209"/>
<polygon fill="black" stroke="black" points="672.47,-205.5 662.47,-209 672.47,-212.5 672.47,-205.5"/>
</g>
<!-- idx -->
<g id="node4" class="node">
<title>idx</title>
<text text-anchor="start" x="368.62" y="-236.7" font-family="Times,serif" font-weight="bold" font-size="14.00">Operation Index</text>
<polygon fill="none" stroke="black" points="365.5,-190 365.5,-224 398.17,-224 398.17,-190 365.5,-190"/>
<text text-anchor="start" x="375.08" y="-200.45" font-family="Times,serif" font-size="14.00">⋱</text>
<polygon fill="none" stroke="black" points="400.17,-190 400.17,-224 433.83,-224 433.83,-190 400.17,-190"/>
<text text-anchor="start" x="409.88" y="-201.7" font-family="Times,serif" font-size="14.00">…</text>
<polygon fill="none" stroke="black" points="435.83,-190 435.83,-224 468.5,-224 468.5,-190 435.83,-190"/>
<text text-anchor="start" x="445.79" y="-200.45" font-family="Times,serif" font-size="14.00">⋰</text>
<polygon fill="none" stroke="black" points="365.5,-154 365.5,-188 398.17,-188 398.17,-154 365.5,-154"/>
<text text-anchor="start" x="374.71" y="-165.7" font-family="Times,serif" font-size="14.00">…</text>
<polygon fill="#d6eaf8" stroke="none" points="400.17,-154 400.17,-188 433.83,-188 433.83,-154 400.17,-154"/>
<polygon fill="none" stroke="black" points="400.17,-154 400.17,-188 433.83,-188 433.83,-154 400.17,-154"/>
<text text-anchor="start" x="409.12" y="-165.7" font-family="Times,serif" font-size="14.00">a,c</text>
<polygon fill="none" stroke="black" points="435.83,-154 435.83,-188 468.5,-188 468.5,-154 435.83,-154"/>
<text text-anchor="start" x="445.04" y="-165.7" font-family="Times,serif" font-size="14.00">…</text>
<polygon fill="none" stroke="black" points="365.5,-118 365.5,-152 398.17,-152 398.17,-118 365.5,-118"/>
<text text-anchor="start" x="375.46" y="-128.45" font-family="Times,serif" font-size="14.00">⋰</text>
<polygon fill="none" stroke="black" points="400.17,-118 400.17,-152 433.83,-152 433.83,-118 400.17,-118"/>
<text text-anchor="start" x="409.88" y="-129.7" font-family="Times,serif" font-size="14.00">…</text>
<polygon fill="none" stroke="black" points="435.83,-118 435.83,-152 468.5,-152 468.5,-118 435.83,-118"/>
<text text-anchor="start" x="445.42" y="-128.45" font-family="Times,serif" font-size="14.00">⋱</text>
<polygon fill="none" stroke="black" points="362.5,-115 362.5,-227 471.5,-227 471.5,-115 362.5,-115"/>
<text text-anchor="start" x="374" y="-96.7" font-family="Times,serif" font-weight="bold" font-size="14.00">start</text>
<text text-anchor="start" x="430" y="-95.7" font-family="Times,serif" font-size="14.00">[0, 0]</text>
<text text-anchor="start" x="377" y="-74.7" font-family="Times,serif" font-weight="bold" font-size="14.00">end</text>
<text text-anchor="start" x="426.62" y="-73.7" font-family="Times,serif" font-size="14.00">[10, 5]</text>
<text text-anchor="start" x="371" y="-52.7" font-family="Times,serif" font-weight="bold" font-size="14.00">shape</text>
<text text-anchor="start" x="426.62" y="-51.7" font-family="Times,serif" font-size="14.00">[10, 5]</text>
</g>
<!-- x -->
<g id="node5" class="node">
<title>x</title>
<text text-anchor="start" x="184.12" y="-334.7" font-family="Times,serif" font-weight="bold" font-size="14.00">X Input</text>
<text text-anchor="start" x="170" y="-312.7" font-family="Times,serif" font-weight="bold" font-size="14.00">start</text>
<text text-anchor="start" x="205.88" y="-311.7" font-family="Times,serif" font-size="14.00">[&#45;10, 0]</text>
<text text-anchor="start" x="173" y="-290.7" font-family="Times,serif" font-weight="bold" font-size="14.00">end</text>
<text text-anchor="start" x="211.5" y="-289.7" font-family="Times,serif" font-size="14.00">[0, 5]</text>
<text text-anchor="start" x="167" y="-268.7" font-family="Times,serif" font-weight="bold" font-size="14.00">shape</text>
<text text-anchor="start" x="208.12" y="-267.7" font-family="Times,serif" font-size="14.00">[10, 5]</text>
</g>
<!-- idx&#45;&gt;x -->
<g id="edge7" class="edge">
<title>idx&#45;&gt;x</title>
<path fill="none" stroke="black" stroke-dasharray="1,5" d="M358.55,-188.68C351.42,-193.05 344.12,-197.26 337,-201 308.13,-216.15 295.07,-208.92 269,-228.5 259.96,-235.29 251.53,-243.72 243.99,-252.51"/>
<polygon fill="none" stroke="black" points="241.33,-250.24 237.72,-260.2 246.76,-254.66 241.33,-250.24"/>
<text text-anchor="start" x="288.38" y="-286.2" font-family="Times,serif" font-weight="bold" font-size="14.00">P</text>
<text text-anchor="start" x="296.62" y="-286.2" font-family="Times,serif" font-weight="bold" baseline-shift="sub" font-size="14.00">X</text>
<text text-anchor="start" x="304.88" y="-286.2" font-family="Times,serif" font-weight="bold" font-size="14.00">(i)</text>
<polyline fill="none" stroke="black" points="273,-276 273,-254"/>
<text text-anchor="start" x="275.62" y="-259.7" font-family="Times,serif" font-size="14.00">1</text>
<polyline fill="none" stroke="black" points="297,-254 297,-276"/>
<text text-anchor="start" x="287.62" y="-259.7" font-family="Times,serif" font-size="14.00">0</text>
<polyline fill="none" stroke="black" points="321,-254 321,-276"/>
<text text-anchor="start" x="300" y="-259.7" font-family="Times,serif" font-size="14.00">&#45;10</text>
<polyline fill="none" stroke="black" points="333,-254 333,-276"/>
<text text-anchor="start" x="323.62" y="-259.7" font-family="Times,serif" font-size="14.00">1</text>
<polyline fill="none" stroke="black" points="273,-254 273,-232"/>
<text text-anchor="start" x="275.62" y="-237.7" font-family="Times,serif" font-size="14.00">0</text>
<polyline fill="none" stroke="black" points="297,-232 297,-254"/>
<text text-anchor="start" x="287.62" y="-237.7" font-family="Times,serif" font-size="14.00">0</text>
<polyline fill="none" stroke="black" points="321,-232 321,-254"/>
<text text-anchor="start" x="305.62" y="-237.7" font-family="Times,serif" font-size="14.00">0</text>
<polyline fill="none" stroke="black" points="333,-232 333,-254"/>
<text text-anchor="start" x="323.62" y="-237.7" font-family="Times,serif" font-size="14.00">5</text>
</g>
<!-- y -->
<g id="node6" class="node">
<title>y</title>
<text text-anchor="start" x="184.5" y="-153.7" font-family="Times,serif" font-weight="bold" font-size="14.00">Y Input</text>
<text text-anchor="start" x="172.5" y="-131.7" font-family="Times,serif" font-weight="bold" font-size="14.00">start</text>
<text text-anchor="start" x="211.5" y="-130.7" font-family="Times,serif" font-size="14.00">[0, 0]</text>
<text text-anchor="start" x="175.5" y="-109.7" font-family="Times,serif" font-weight="bold" font-size="14.00">end</text>
<text text-anchor="start" x="208.12" y="-108.7" font-family="Times,serif" font-size="14.00">[5, 12]</text>
<text text-anchor="start" x="169.5" y="-87.7" font-family="Times,serif" font-weight="bold" font-size="14.00">shape</text>
<text text-anchor="start" x="208.12" y="-86.7" font-family="Times,serif" font-size="14.00">[5, 12]</text>
</g>
<!-- idx&#45;&gt;y -->
<g id="edge8" class="edge">
<title>idx&#45;&gt;y</title>
<path fill="none" stroke="black" stroke-dasharray="1,5" d="M358.57,-130.73C351.37,-129.01 344.06,-127.53 337,-126.5 311.67,-122.81 283.24,-122.12 259.53,-122.48"/>
<polygon fill="none" stroke="black" points="259.74,-118.97 249.82,-122.7 259.9,-125.97 259.74,-118.97"/>
<text text-anchor="start" x="288.38" y="-184.2" font-family="Times,serif" font-weight="bold" font-size="14.00">P</text>
<text text-anchor="start" x="296.62" y="-184.2" font-family="Times,serif" font-weight="bold" baseline-shift="sub" font-size="14.00">Y</text>
<text text-anchor="start" x="304.88" y="-184.2" font-family="Times,serif" font-weight="bold" font-size="14.00">(i)</text>
<polyline fill="none" stroke="black" points="279,-174 279,-152"/>
<text text-anchor="start" x="281.62" y="-157.7" font-family="Times,serif" font-size="14.00">0</text>
<polyline fill="none" stroke="black" points="303,-152 303,-174"/>
<text text-anchor="start" x="293.62" y="-157.7" font-family="Times,serif" font-size="14.00">0</text>
<polyline fill="none" stroke="black" points="315,-152 315,-174"/>
<text text-anchor="start" x="305.62" y="-157.7" font-family="Times,serif" font-size="14.00">0</text>
<polyline fill="none" stroke="black" points="327,-152 327,-174"/>
<text text-anchor="start" x="317.62" y="-157.7" font-family="Times,serif" font-size="14.00">5</text>
<polyline fill="none" stroke="black" points="279,-152 279,-130"/>
<text text-anchor="start" x="281.62" y="-135.7" font-family="Times,serif" font-size="14.00">0</text>
<polyline fill="none" stroke="black" points="303,-130 303,-152"/>
<text text-anchor="start" x="293.62" y="-135.7" font-family="Times,serif" font-size="14.00">1</text>
<polyline fill="none" stroke="black" points="315,-130 315,-152"/>
<text text-anchor="start" x="305.62" y="-135.7" font-family="Times,serif" font-size="14.00">0</text>
<polyline fill="none" stroke="black" points="327,-130 327,-152"/>
<text text-anchor="start" x="317.62" y="-135.7" font-family="Times,serif" font-size="14.00">1</text>
</g>
<!-- x&#45;&gt;j -->
<g id="edge2" class="edge">
<title>x&#45;&gt;j</title>
<path fill="none" stroke="black" d="M163.01,-312.36C148.83,-314.45 132.87,-316.81 117.98,-319.02"/>
<polygon fill="black" stroke="black" points="117.72,-315.52 108.34,-320.44 118.75,-322.44 117.72,-315.52"/>
</g>
<!-- y&#45;&gt;k -->
<g id="edge4" class="edge">
<title>y&#45;&gt;k</title>
<path fill="none" stroke="black" d="M165.69,-119.04C156.69,-117.71 146.88,-116.26 137.02,-114.8"/>
<polygon fill="black" stroke="black" points="137.81,-111.38 127.4,-113.38 136.78,-118.3 137.81,-111.38"/>
</g>
<!-- z&#45;&gt;idx -->
<g id="edge9" class="edge">
<title>z&#45;&gt;idx</title>
<path fill="none" stroke="black" stroke-dasharray="1,5" d="M560.31,-192.34C533.9,-184.3 502.21,-174.65 475.44,-166.49"/>
<polygon fill="none" stroke="black" points="559.25,-195.68 569.83,-195.24 561.29,-188.98 559.25,-195.68"/>
<text text-anchor="start" x="510.75" y="-247.2" font-family="Times,serif" font-weight="bold" font-size="14.00">P</text>
<text text-anchor="start" x="519" y="-247.2" font-family="Times,serif" font-weight="bold" baseline-shift="sub" font-size="14.00">Z</text>
<text text-anchor="start" x="526.5" y="-247.2" font-family="Times,serif" font-weight="bold" font-size="14.00">(i)</text>
<polyline fill="none" stroke="black" points="501,-237 501,-215"/>
<text text-anchor="start" x="503.62" y="-220.7" font-family="Times,serif" font-size="14.00">1</text>
<polyline fill="none" stroke="black" points="525,-215 525,-237"/>
<text text-anchor="start" x="515.62" y="-220.7" font-family="Times,serif" font-size="14.00">0</text>
<polyline fill="none" stroke="black" points="537,-215 537,-237"/>
<text text-anchor="start" x="527.62" y="-220.7" font-family="Times,serif" font-size="14.00">0</text>
<polyline fill="none" stroke="black" points="549,-215 549,-237"/>
<text text-anchor="start" x="539.62" y="-220.7" font-family="Times,serif" font-size="14.00">1</text>
<polyline fill="none" stroke="black" points="501,-215 501,-193"/>
<text text-anchor="start" x="503.62" y="-198.7" font-family="Times,serif" font-size="14.00">0</text>
<polyline fill="none" stroke="black" points="525,-193 525,-215"/>
<text text-anchor="start" x="515.62" y="-198.7" font-family="Times,serif" font-size="14.00">1</text>
<polyline fill="none" stroke="black" points="537,-193 537,-215"/>
<text text-anchor="start" x="527.62" y="-198.7" font-family="Times,serif" font-size="14.00">0</text>
<polyline fill="none" stroke="black" points="549,-193 549,-215"/>
<text text-anchor="start" x="539.62" y="-198.7" font-family="Times,serif" font-size="14.00">1</text>
</g>
<!-- op -->
<g id="node8" class="node">
<title>op</title>
<polygon fill="#e5e8e8" stroke="black" points="461,-345 355,-345 355,-277 461,-277 461,-271 479,-311 461,-351 461,-345"/>
<polygon fill="white" stroke="none" points="373,-289 373,-333 461,-333 461,-289 373,-289"/>
<polygon fill="none" stroke="black" points="373,-311 373,-333 461,-333 461,-311 373,-311"/>
<text text-anchor="start" x="387" y="-317.7" font-family="Times,serif" font-weight="bold" font-size="14.00">Operation</text>
<polygon fill="none" stroke="black" points="373,-289 373,-311 415,-311 415,-289 373,-289"/>
<text text-anchor="start" x="375.62" y="-295.7" font-family="Times,serif" font-weight="bold" font-size="14.00">kernel</text>
<polygon fill="none" stroke="black" points="415,-289 415,-311 461,-311 461,-289 415,-289"/>
<text text-anchor="start" x="417.75" y="-295.7" font-family="Times,serif" font-style="italic" font-size="14.00">matmul</text>
</g>
<!-- z&#45;&gt;op -->
<g id="edge6" class="edge">
<title>z&#45;&gt;op</title>
<path fill="none" stroke="black" d="M572.66,-253.89C566.41,-259.11 559.78,-263.99 553,-268 533.8,-279.36 511.27,-288.07 490.16,-294.58"/>
<polygon fill="black" stroke="black" points="489.34,-291.18 480.73,-297.36 491.32,-297.89 489.34,-291.18"/>
</g>
<!-- op&#45;&gt;x -->
<g id="edge1" class="edge">
<title>op&#45;&gt;x</title>
<path fill="none" stroke="black" d="M354.72,-309.53C325.33,-308.82 290.44,-307.98 262.06,-307.3"/>
<polygon fill="black" stroke="black" points="262.32,-303.8 252.24,-307.06 262.15,-310.8 262.32,-303.8"/>
</g>
<!-- op&#45;&gt;y -->
<g id="edge3" class="edge">
<title>op&#45;&gt;y</title>
<path fill="none" stroke="black" d="M354.74,-309.11C317.55,-307.42 275.94,-304.36 269,-299 266.48,-297.06 243.61,-230.54 226.6,-180.32"/>
<polygon fill="black" stroke="black" points="229.97,-179.35 223.45,-171 223.34,-181.59 229.97,-179.35"/>
</g>
</g>
</svg>
