<?xml version="1.0" encoding="UTF-8" standalone="no"?>
<!DOCTYPE svg PUBLIC "-//W3C//DTD SVG 1.1//EN"
 "http://www.w3.org/Graphics/SVG/1.1/DTD/svg11.dtd">
<!-- Generated by graphviz version 9.0.0 (20230911.1827)
 -->
<!-- Title: G Pages: 1 -->
<svg width="829pt" height="436pt"
 viewBox="0.00 0.00 829.00 436.00" xmlns="http://www.w3.org/2000/svg" xmlns:xlink="http://www.w3.org/1999/xlink">
<g id="graph0" class="graph" transform="scale(1 1) rotate(0) translate(4 432)">
<title>G</title>
<polygon fill="white" stroke="none" points="-4,4 -4,-432 825,-432 825,4 -4,4"/>
<g id="clust1" class="cluster">
<title>cluster_0</title>
<path fill="none" stroke="black" stroke-dasharray="5,2" d="M166,-37C166,-37 656,-37 656,-37 662,-37 668,-43 668,-49 668,-49 668,-347 668,-347 668,-353 662,-359 656,-359 656,-359 166,-359 166,-359 160,-359 154,-353 154,-347 154,-347 154,-49 154,-49 154,-43 160,-37 166,-37"/>
</g>
<!-- j -->
<g id="node1" class="node">
<title>j</title>
<text text-anchor="start" x="38.12" y="-411.7" font-family="Times,serif" font-weight="bold" font-size="14.00">J Tensor</text>
<polygon fill="none" stroke="black" points="25.5,-368 25.5,-399 64,-399 64,-368 25.5,-368"/>
<text text-anchor="start" x="38" y="-376.7" font-family="Times,serif" font-size="14.00">⋱</text>
<polygon fill="none" stroke="black" points="66,-368 66,-399 99.5,-399 99.5,-368 66,-368"/>
<text text-anchor="start" x="76.38" y="-376.7" font-family="Times,serif" font-size="14.00">⋰</text>
<polygon fill="#d6eaf8" stroke="none" points="25.5,-332 25.5,-366 64,-366 64,-332 25.5,-332"/>
<polygon fill="none" stroke="black" points="25.5,-332 25.5,-366 64,-366 64,-332 25.5,-332"/>
<text text-anchor="start" x="35" y="-344.7" font-family="Times,serif" font-size="14.00">J</text>
<text text-anchor="start" x="40.25" y="-344.7" font-family="Times,serif" baseline-shift="sub" font-size="14.00">a,b</text>
<polygon fill="#d6eaf8" stroke="none" points="66,-332 66,-366 99.5,-366 99.5,-332 66,-332"/>
<polygon fill="none" stroke="black" points="66,-332 66,-366 99.5,-366 99.5,-332 66,-332"/>
<text text-anchor="start" x="75.62" y="-343.7" font-family="Times,serif" font-size="14.00">…</text>
<polygon fill="none" stroke="black" points="25.5,-299 25.5,-330 64,-330 64,-299 25.5,-299"/>
<text text-anchor="start" x="38.38" y="-307.7" font-family="Times,serif" font-size="14.00">⋰</text>
<polygon fill="none" stroke="black" points="66,-299 66,-330 99.5,-330 99.5,-299 66,-299"/>
<text text-anchor="start" x="76" y="-307.7" font-family="Times,serif" font-size="14.00">⋱</text>
<polygon fill="none" stroke="black" points="22.5,-296 22.5,-402 102.5,-402 102.5,-296 22.5,-296"/>
<text text-anchor="start" x="25.5" y="-277.7" font-family="Times,serif" font-weight="bold" font-size="14.00">start</text>
<text text-anchor="start" x="61.38" y="-276.7" font-family="Times,serif" font-size="14.00">[&#45;10, 0]</text>
<text text-anchor="start" x="28.5" y="-255.7" font-family="Times,serif" font-weight="bold" font-size="14.00">end</text>
<text text-anchor="start" x="67" y="-254.7" font-family="Times,serif" font-size="14.00">[0, 5]</text>
<text text-anchor="start" x="22.5" y="-233.7" font-family="Times,serif" font-weight="bold" font-size="14.00">shape</text>
<text text-anchor="start" x="63.62" y="-232.7" font-family="Times,serif" font-size="14.00">[10, 5]</text>
</g>
<!-- k -->
<g id="node2" class="node">
<title>k</title>
<text text-anchor="start" x="35.88" y="-191.7" font-family="Times,serif" font-weight="bold" font-size="14.00">K Tensor</text>
<polygon fill="none" stroke="black" points="7,-145 7,-179 39.67,-179 39.67,-145 7,-145"/>
<text text-anchor="start" x="16.58" y="-155.45" font-family="Times,serif" font-size="14.00">⋱</text>
<polygon fill="#d6eaf8" stroke="none" points="41.67,-145 41.67,-179 83.33,-179 83.33,-145 41.67,-145"/>
<polygon fill="none" stroke="black" points="41.67,-145 41.67,-179 83.33,-179 83.33,-145 41.67,-145"/>
<text text-anchor="start" x="55.38" y="-156.7" font-family="Times,serif" font-size="14.00">…</text>
<polygon fill="none" stroke="black" points="85.33,-145 85.33,-179 118,-179 118,-145 85.33,-145"/>
<text text-anchor="start" x="95.29" y="-155.45" font-family="Times,serif" font-size="14.00">⋰</text>
<polygon fill="none" stroke="black" points="7,-109 7,-143 39.67,-143 39.67,-109 7,-109"/>
<text text-anchor="start" x="16.21" y="-120.7" font-family="Times,serif" font-size="14.00">…</text>
<polygon fill="#d6eaf8" stroke="none" points="41.67,-109 41.67,-143 83.33,-143 83.33,-109 41.67,-109"/>
<polygon fill="none" stroke="black" points="41.67,-109 41.67,-143 83.33,-143 83.33,-109 41.67,-109"/>
<text text-anchor="start" x="50.88" y="-121.7" font-family="Times,serif" font-size="14.00">K</text>
<text text-anchor="start" x="60.62" y="-121.7" font-family="Times,serif" baseline-shift="sub" font-size="14.00">a,c</text>
<polygon fill="none" stroke="black" points="85.33,-109 85.33,-143 118,-143 118,-109 85.33,-109"/>
<text text-anchor="start" x="94.54" y="-120.7" font-family="Times,serif" font-size="14.00">…</text>
<polygon fill="none" stroke="black" points="7,-73 7,-107 39.67,-107 39.67,-73 7,-73"/>
<text text-anchor="start" x="16.96" y="-83.45" font-family="Times,serif" font-size="14.00">⋰</text>
<polygon fill="#d6eaf8" stroke="none" points="41.67,-73 41.67,-107 83.33,-107 83.33,-73 41.67,-73"/>
<polygon fill="none" stroke="black" points="41.67,-73 41.67,-107 83.33,-107 83.33,-73 41.67,-73"/>
<text text-anchor="start" x="55.38" y="-84.7" font-family="Times,serif" font-size="14.00">…</text>
<polygon fill="none" stroke="black" points="85.33,-73 85.33,-107 118,-107 118,-73 85.33,-73"/>
<text text-anchor="start" x="94.92" y="-83.45" font-family="Times,serif" font-size="14.00">⋱</text>
<polygon fill="none" stroke="black" points="4,-70 4,-182 121,-182 121,-70 4,-70"/>
<text text-anchor="start" x="15.5" y="-51.7" font-family="Times,serif" font-weight="bold" font-size="14.00">start</text>
<text text-anchor="start" x="75.5" y="-50.7" font-family="Times,serif" font-size="14.00">[0, 0]</text>
<text text-anchor="start" x="18.5" y="-29.7" font-family="Times,serif" font-weight="bold" font-size="14.00">end</text>
<text text-anchor="start" x="68.75" y="-28.7" font-family="Times,serif" font-size="14.00">[10, 12]</text>
<text text-anchor="start" x="12.5" y="-7.7" font-family="Times,serif" font-weight="bold" font-size="14.00">shape</text>
<text text-anchor="start" x="68.75" y="-6.7" font-family="Times,serif" font-size="14.00">[10, 12]</text>
</g>
<!-- l -->
<g id="node3" class="node">
<title>l</title>
<text text-anchor="start" x="733.5" y="-296.7" font-family="Times,serif" font-weight="bold" font-size="14.00">L Tensor</text>
<polygon fill="none" stroke="black" points="704,-250 704,-284 736.67,-284 736.67,-250 704,-250"/>
<text text-anchor="start" x="713.58" y="-260.45" font-family="Times,serif" font-size="14.00">⋱</text>
<polygon fill="none" stroke="black" points="738.67,-250 738.67,-284 779.33,-284 779.33,-250 738.67,-250"/>
<text text-anchor="start" x="751.88" y="-261.7" font-family="Times,serif" font-size="14.00">…</text>
<polygon fill="none" stroke="black" points="781.33,-250 781.33,-284 814,-284 814,-250 781.33,-250"/>
<text text-anchor="start" x="791.29" y="-260.45" font-family="Times,serif" font-size="14.00">⋰</text>
<polygon fill="none" stroke="black" points="704,-214 704,-248 736.67,-248 736.67,-214 704,-214"/>
<text text-anchor="start" x="713.21" y="-225.7" font-family="Times,serif" font-size="14.00">…</text>
<polygon fill="#d6eaf8" stroke="none" points="738.67,-214 738.67,-248 779.33,-248 779.33,-214 738.67,-214"/>
<polygon fill="none" stroke="black" points="738.67,-214 738.67,-248 779.33,-248 779.33,-214 738.67,-214"/>
<text text-anchor="start" x="747.75" y="-226.7" font-family="Times,serif" font-size="14.00">L</text>
<text text-anchor="start" x="756" y="-226.7" font-family="Times,serif" baseline-shift="sub" font-size="14.00">b,c</text>
<polygon fill="none" stroke="black" points="781.33,-214 781.33,-248 814,-248 814,-214 781.33,-214"/>
<text text-anchor="start" x="790.54" y="-225.7" font-family="Times,serif" font-size="14.00">…</text>
<polygon fill="none" stroke="black" points="704,-178 704,-212 736.67,-212 736.67,-178 704,-178"/>
<text text-anchor="start" x="713.96" y="-188.45" font-family="Times,serif" font-size="14.00">⋰</text>
<polygon fill="none" stroke="black" points="738.67,-178 738.67,-212 779.33,-212 779.33,-178 738.67,-178"/>
<text text-anchor="start" x="751.88" y="-189.7" font-family="Times,serif" font-size="14.00">…</text>
<polygon fill="none" stroke="black" points="781.33,-178 781.33,-212 814,-212 814,-178 781.33,-178"/>
<text text-anchor="start" x="790.92" y="-188.45" font-family="Times,serif" font-size="14.00">⋱</text>
<polygon fill="none" stroke="black" points="701,-175 701,-287 817,-287 817,-175 701,-175"/>
<text text-anchor="start" x="714" y="-156.7" font-family="Times,serif" font-weight="bold" font-size="14.00">start</text>
<text text-anchor="start" x="773.5" y="-155.7" font-family="Times,serif" font-size="14.00">[0, 0]</text>
<text text-anchor="start" x="717" y="-134.7" font-family="Times,serif" font-weight="bold" font-size="14.00">end</text>
<text text-anchor="start" x="770.12" y="-133.7" font-family="Times,serif" font-size="14.00">[5, 12]</text>
<text text-anchor="start" x="711" y="-112.7" font-family="Times,serif" font-weight="bold" font-size="14.00">shape</text>
<text text-anchor="start" x="770.12" y="-111.7" font-family="Times,serif" font-size="14.00">[5, 12]</text>
</g>
<!-- z -->
<g id="node7" class="node">
<title>z</title>
<text text-anchor="start" x="587.25" y="-237.7" font-family="Times,serif" font-weight="bold" font-size="14.00">Z Output</text>
<text text-anchor="start" x="577" y="-215.7" font-family="Times,serif" font-weight="bold" font-size="14.00">start</text>
<text text-anchor="start" x="619.5" y="-214.7" font-family="Times,serif" font-size="14.00">[0, 0]</text>
<text text-anchor="start" x="580" y="-193.7" font-family="Times,serif" font-weight="bold" font-size="14.00">end</text>
<text text-anchor="start" x="612.75" y="-192.7" font-family="Times,serif" font-size="14.00">[10, 12]</text>
<text text-anchor="start" x="574" y="-171.7" font-family="Times,serif" font-weight="bold" font-size="14.00">shape</text>
<text text-anchor="start" x="612.75" y="-170.7" font-family="Times,serif" font-size="14.00">[10, 12]</text>
</g>
<!-- l&#45;&gt;z -->
<g id="edge5" class="edge">
<title>l&#45;&gt;z</title>
<path fill="none" stroke="black" d="M697.37,-209C688.66,-209 679.74,-209 671.15,-209"/>
<polygon fill="black" stroke="black" points="671.2,-205.5 661.2,-209 671.2,-212.5 671.2,-205.5"/>
</g>
<!-- idx -->
<g id="node4" class="node">
<title>idx</title>
<text text-anchor="start" x="367.62" y="-236.7" font-family="Times,serif" font-weight="bold" font-size="14.00">Operation Index</text>
<polygon fill="none" stroke="black" points="364.5,-190 364.5,-224 397.17,-224 397.17,-190 364.5,-190"/>
<text text-anchor="start" x="374.08" y="-200.45" font-family="Times,serif" font-size="14.00">⋱</text>
<polygon fill="none" stroke="black" points="399.17,-190 399.17,-224 432.83,-224 432.83,-190 399.17,-190"/>
<text text-anchor="start" x="408.88" y="-201.7" font-family="Times,serif" font-size="14.00">…</text>
<polygon fill="none" stroke="black" points="434.83,-190 434.83,-224 467.5,-224 467.5,-190 434.83,-190"/>
<text text-anchor="start" x="444.79" y="-200.45" font-family="Times,serif" font-size="14.00">⋰</text>
<polygon fill="none" stroke="black" points="364.5,-154 364.5,-188 397.17,-188 397.17,-154 364.5,-154"/>
<text text-anchor="start" x="373.71" y="-165.7" font-family="Times,serif" font-size="14.00">…</text>
<polygon fill="#d6eaf8" stroke="none" points="399.17,-154 399.17,-188 432.83,-188 432.83,-154 399.17,-154"/>
<polygon fill="none" stroke="black" points="399.17,-154 399.17,-188 432.83,-188 432.83,-154 399.17,-154"/>
<text text-anchor="start" x="408.12" y="-165.7" font-family="Times,serif" font-size="14.00">a,c</text>
<polygon fill="none" stroke="black" points="434.83,-154 434.83,-188 467.5,-188 467.5,-154 434.83,-154"/>
<text text-anchor="start" x="444.04" y="-165.7" font-family="Times,serif" font-size="14.00">…</text>
<polygon fill="none" stroke="black" points="364.5,-118 364.5,-152 397.17,-152 397.17,-118 364.5,-118"/>
<text text-anchor="start" x="374.46" y="-128.45" font-family="Times,serif" font-size="14.00">⋰</text>
<polygon fill="none" stroke="black" points="399.17,-118 399.17,-152 432.83,-152 432.83,-118 399.17,-118"/>
<text text-anchor="start" x="408.88" y="-129.7" font-family="Times,serif" font-size="14.00">…</text>
<polygon fill="none" stroke="black" points="434.83,-118 434.83,-152 467.5,-152 467.5,-118 434.83,-118"/>
<text text-anchor="start" x="444.42" y="-128.45" font-family="Times,serif" font-size="14.00">⋱</text>
<polygon fill="none" stroke="black" points="361.5,-115 361.5,-227 470.5,-227 470.5,-115 361.5,-115"/>
<text text-anchor="start" x="373" y="-96.7" font-family="Times,serif" font-weight="bold" font-size="14.00">start</text>
<text text-anchor="start" x="429" y="-95.7" font-family="Times,serif" font-size="14.00">[0, 0]</text>
<text text-anchor="start" x="376" y="-74.7" font-family="Times,serif" font-weight="bold" font-size="14.00">end</text>
<text text-anchor="start" x="425.62" y="-73.7" font-family="Times,serif" font-size="14.00">[10, 5]</text>
<text text-anchor="start" x="370" y="-52.7" font-family="Times,serif" font-weight="bold" font-size="14.00">shape</text>
<text text-anchor="start" x="425.62" y="-51.7" font-family="Times,serif" font-size="14.00">[10, 5]</text>
</g>
<!-- x -->
<g id="node5" class="node">
<title>x</title>
<text text-anchor="start" x="183.12" y="-334.7" font-family="Times,serif" font-weight="bold" font-size="14.00">X Input</text>
<text text-anchor="start" x="169" y="-312.7" font-family="Times,serif" font-weight="bold" font-size="14.00">start</text>
<text text-anchor="start" x="204.88" y="-311.7" font-family="Times,serif" font-size="14.00">[&#45;10, 0]</text>
<text text-anchor="start" x="172" y="-290.7" font-family="Times,serif" font-weight="bold" font-size="14.00">end</text>
<text text-anchor="start" x="210.5" y="-289.7" font-family="Times,serif" font-size="14.00">[0, 5]</text>
<text text-anchor="start" x="166" y="-268.7" font-family="Times,serif" font-weight="bold" font-size="14.00">shape</text>
<text text-anchor="start" x="207.12" y="-267.7" font-family="Times,serif" font-size="14.00">[10, 5]</text>
</g>
<!-- idx&#45;&gt;x -->
<g id="edge7" class="edge">
<title>idx&#45;&gt;x</title>
<path fill="none" stroke="black" stroke-dasharray="1,5" d="M357.55,-188.68C350.42,-193.05 343.12,-197.26 336,-201 307.13,-216.15 294.07,-208.92 268,-228.5 258.96,-235.29 250.53,-243.72 242.99,-252.51"/>
<polygon fill="none" stroke="black" points="240.33,-250.24 236.72,-260.2 245.76,-254.66 240.33,-250.24"/>
<text text-anchor="start" x="287.38" y="-286.2" font-family="Times,serif" font-weight="bold" font-size="14.00">P</text>
<text text-anchor="start" x="295.62" y="-286.2" font-family="Times,serif" font-weight="bold" baseline-shift="sub" font-size="14.00">X</text>
<text text-anchor="start" x="303.88" y="-286.2" font-family="Times,serif" font-weight="bold" font-size="14.00">(i)</text>
<polyline fill="none" stroke="black" points="272,-276 272,-254"/>
<text text-anchor="start" x="274.62" y="-259.7" font-family="Times,serif" font-size="14.00">1</text>
<polyline fill="none" stroke="black" points="296,-254 296,-276"/>
<text text-anchor="start" x="286.62" y="-259.7" font-family="Times,serif" font-size="14.00">0</text>
<polyline fill="none" stroke="black" points="320,-254 320,-276"/>
<text text-anchor="start" x="299" y="-259.7" font-family="Times,serif" font-size="14.00">&#45;10</text>
<polyline fill="none" stroke="black" points="332,-254 332,-276"/>
<text text-anchor="start" x="322.62" y="-259.7" font-family="Times,serif" font-size="14.00">1</text>
<polyline fill="none" stroke="black" points="272,-254 272,-232"/>
<text text-anchor="start" x="274.62" y="-237.7" font-family="Times,serif" font-size="14.00">0</text>
<polyline fill="none" stroke="black" points="296,-232 296,-254"/>
<text text-anchor="start" x="286.62" y="-237.7" font-family="Times,serif" font-size="14.00">0</text>
<polyline fill="none" stroke="black" points="320,-232 320,-254"/>
<text text-anchor="start" x="304.62" y="-237.7" font-family="Times,serif" font-size="14.00">0</text>
<polyline fill="none" stroke="black" points="332,-232 332,-254"/>
<text text-anchor="start" x="322.62" y="-237.7" font-family="Times,serif" font-size="14.00">5</text>
</g>
<!-- y -->
<g id="node6" class="node">
<title>y</title>
<text text-anchor="start" x="183.5" y="-153.7" font-family="Times,serif" font-weight="bold" font-size="14.00">Y Input</text>
<text text-anchor="start" x="171.5" y="-131.7" font-family="Times,serif" font-weight="bold" font-size="14.00">start</text>
<text text-anchor="start" x="210.5" y="-130.7" font-family="Times,serif" font-size="14.00">[0, 0]</text>
<text text-anchor="start" x="174.5" y="-109.7" font-family="Times,serif" font-weight="bold" font-size="14.00">end</text>
<text text-anchor="start" x="207.12" y="-108.7" font-family="Times,serif" font-size="14.00">[5, 12]</text>
<text text-anchor="start" x="168.5" y="-87.7" font-family="Times,serif" font-weight="bold" font-size="14.00">shape</text>
<text text-anchor="start" x="207.12" y="-86.7" font-family="Times,serif" font-size="14.00">[5, 12]</text>
</g>
<!-- idx&#45;&gt;y -->
<g id="edge8" class="edge">
<title>idx&#45;&gt;y</title>
<path fill="none" stroke="black" stroke-dasharray="1,5" d="M357.57,-130.73C350.37,-129.01 343.06,-127.53 336,-126.5 310.67,-122.81 282.24,-122.12 258.53,-122.48"/>
<polygon fill="none" stroke="black" points="258.74,-118.97 248.82,-122.7 258.9,-125.97 258.74,-118.97"/>
<text text-anchor="start" x="287.38" y="-184.2" font-family="Times,serif" font-weight="bold" font-size="14.00">P</text>
<text text-anchor="start" x="295.62" y="-184.2" font-family="Times,serif" font-weight="bold" baseline-shift="sub" font-size="14.00">Y</text>
<text text-anchor="start" x="303.88" y="-184.2" font-family="Times,serif" font-weight="bold" font-size="14.00">(i)</text>
<polyline fill="none" stroke="black" points="278,-174 278,-152"/>
<text text-anchor="start" x="280.62" y="-157.7" font-family="Times,serif" font-size="14.00">0</text>
<polyline fill="none" stroke="black" points="302,-152 302,-174"/>
<text text-anchor="start" x="292.62" y="-157.7" font-family="Times,serif" font-size="14.00">0</text>
<polyline fill="none" stroke="black" points="314,-152 314,-174"/>
<text text-anchor="start" x="304.62" y="-157.7" font-family="Times,serif" font-size="14.00">0</text>
<polyline fill="none" stroke="black" points="326,-152 326,-174"/>
<text text-anchor="start" x="316.62" y="-157.7" font-family="Times,serif" font-size="14.00">5</text>
<polyline fill="none" stroke="black" points="278,-152 278,-130"/>
<text text-anchor="start" x="280.62" y="-135.7" font-family="Times,serif" font-size="14.00">0</text>
<polyline fill="none" stroke="black" points="302,-130 302,-152"/>
<text text-anchor="start" x="292.62" y="-135.7" font-family="Times,serif" font-size="14.00">1</text>
<polyline fill="none" stroke="black" points="314,-130 314,-152"/>
<text text-anchor="start" x="304.62" y="-135.7" font-family="Times,serif" font-size="14.00">0</text>
<polyline fill="none" stroke="black" points="326,-130 326,-152"/>
<text text-anchor="start" x="316.62" y="-135.7" font-family="Times,serif" font-size="14.00">1</text>
</g>
<!-- x&#45;&gt;j -->
<g id="edge2" class="edge">
<title>x&#45;&gt;j</title>
<path fill="none" stroke="black" d="M162.16,-312.36C148.03,-314.45 132.13,-316.81 117.29,-319.02"/>
<polygon fill="black" stroke="black" points="117.07,-315.51 107.69,-320.44 118.1,-322.44 117.07,-315.51"/>
</g>
<!-- y&#45;&gt;k -->
<g id="edge4" class="edge">
<title>y&#45;&gt;k</title>
<path fill="none" stroke="black" d="M164.83,-119.04C155.81,-117.7 145.96,-116.24 136.07,-114.77"/>
<polygon fill="black" stroke="black" points="136.82,-111.34 126.42,-113.34 135.8,-118.27 136.82,-111.34"/>
</g>
<!-- z&#45;&gt;idx -->
<g id="edge9" class="edge">
<title>z&#45;&gt;idx</title>
<path fill="none" stroke="black" stroke-dasharray="1,5" d="M559.31,-192.34C532.9,-184.3 501.21,-174.65 474.44,-166.49"/>
<polygon fill="none" stroke="black" points="558.25,-195.68 568.83,-195.24 560.29,-188.98 558.25,-195.68"/>
<text text-anchor="start" x="509.75" y="-247.2" font-family="Times,serif" font-weight="bold" font-size="14.00">P</text>
<text text-anchor="start" x="518" y="-247.2" font-family="Times,serif" font-weight="bold" baseline-shift="sub" font-size="14.00">Z</text>
<text text-anchor="start" x="525.5" y="-247.2" font-family="Times,serif" font-weight="bold" font-size="14.00">(i)</text>
<polyline fill="none" stroke="black" points="500,-237 500,-215"/>
<text text-anchor="start" x="502.62" y="-220.7" font-family="Times,serif" font-size="14.00">1</text>
<polyline fill="none" stroke="black" points="524,-215 524,-237"/>
<text text-anchor="start" x="514.62" y="-220.7" font-family="Times,serif" font-size="14.00">0</text>
<polyline fill="none" stroke="black" points="536,-215 536,-237"/>
<text text-anchor="start" x="526.62" y="-220.7" font-family="Times,serif" font-size="14.00">0</text>
<polyline fill="none" stroke="black" points="548,-215 548,-237"/>
<text text-anchor="start" x="538.62" y="-220.7" font-family="Times,serif" font-size="14.00">1</text>
<polyline fill="none" stroke="black" points="500,-215 500,-193"/>
<text text-anchor="start" x="502.62" y="-198.7" font-family="Times,serif" font-size="14.00">0</text>
<polyline fill="none" stroke="black" points="524,-193 524,-215"/>
<text text-anchor="start" x="514.62" y="-198.7" font-family="Times,serif" font-size="14.00">1</text>
<polyline fill="none" stroke="black" points="536,-193 536,-215"/>
<text text-anchor="start" x="526.62" y="-198.7" font-family="Times,serif" font-size="14.00">0</text>
<polyline fill="none" stroke="black" points="548,-193 548,-215"/>
<text text-anchor="start" x="538.62" y="-198.7" font-family="Times,serif" font-size="14.00">1</text>
</g>
<!-- op -->
<g id="node8" class="node">
<title>op</title>
<polygon fill="#e5e8e8" stroke="black" points="460,-345 354,-345 354,-277 460,-277 460,-271 478,-311 460,-351 460,-345"/>
<polygon fill="white" stroke="none" points="372,-289 372,-333 460,-333 460,-289 372,-289"/>
<polygon fill="none" stroke="black" points="372,-311 372,-333 460,-333 460,-311 372,-311"/>
<text text-anchor="start" x="386" y="-317.7" font-family="Times,serif" font-weight="bold" font-size="14.00">Operation</text>
<polygon fill="none" stroke="black" points="372,-289 372,-311 414,-311 414,-289 372,-289"/>
<text text-anchor="start" x="374.62" y="-295.7" font-family="Times,serif" font-weight="bold" font-size="14.00">kernel</text>
<polygon fill="none" stroke="black" points="414,-289 414,-311 460,-311 460,-289 414,-289"/>
<text text-anchor="start" x="416.75" y="-295.7" font-family="Times,serif" font-style="italic" font-size="14.00">matmul</text>
</g>
<!-- z&#45;&gt;op -->
<g id="edge6" class="edge">
<title>z&#45;&gt;op</title>
<path fill="none" stroke="black" d="M571.66,-253.89C565.41,-259.11 558.78,-263.99 552,-268 532.8,-279.36 510.27,-288.07 489.16,-294.58"/>
<polygon fill="black" stroke="black" points="488.34,-291.18 479.73,-297.36 490.32,-297.89 488.34,-291.18"/>
</g>
<!-- op&#45;&gt;x -->
<g id="edge1" class="edge">
<title>op&#45;&gt;x</title>
<path fill="none" stroke="black" d="M353.72,-309.53C324.33,-308.82 289.44,-307.98 261.06,-307.3"/>
<polygon fill="black" stroke="black" points="261.32,-303.8 251.24,-307.06 261.15,-310.8 261.32,-303.8"/>
</g>
<!-- op&#45;&gt;y -->
<g id="edge3" class="edge">
<title>op&#45;&gt;y</title>
<path fill="none" stroke="black" d="M353.74,-309.11C316.55,-307.42 274.94,-304.36 268,-299 265.48,-297.06 242.61,-230.54 225.6,-180.32"/>
<polygon fill="black" stroke="black" points="228.97,-179.35 222.45,-171 222.34,-181.59 228.97,-179.35"/>
</g>
</g>
</svg>
