<?xml version="1.0" encoding="UTF-8" standalone="no"?>
<!DOCTYPE svg PUBLIC "-//W3C//DTD SVG 1.1//EN"
 "http://www.w3.org/Graphics/SVG/1.1/DTD/svg11.dtd">
<!-- Generated by graphviz version 9.0.0 (20230911.1827)
 -->
<!-- Title: G Pages: 1 -->
<svg width="396pt" height="250pt"
 viewBox="0.00 0.00 396.00 250.00" xmlns="http://www.w3.org/2000/svg" xmlns:xlink="http://www.w3.org/1999/xlink">
<g id="graph0" class="graph" transform="scale(1 1) rotate(0) translate(4 246)">
<title>G</title>
<polygon fill="white" stroke="none" points="-4,4 -4,-246 392,-246 392,4 -4,4"/>
<!-- A -->
<g id="node1" class="node">
<title>A</title>
<polygon fill="none" stroke="black" points="21.5,-204 21.5,-235 63.5,-235 63.5,-204 21.5,-204"/>
<text text-anchor="start" x="35.75" y="-212.7" font-family="Times,serif" font-size="14.00">⋱</text>
<polygon fill="none" stroke="black" points="65.5,-204 65.5,-235 97.5,-235 97.5,-204 65.5,-204"/>
<text text-anchor="start" x="75.12" y="-212.7" font-family="Times,serif" font-size="14.00">⋰</text>
<polygon fill="#d6eaf8" stroke="none" points="21.5,-168 21.5,-202 63.5,-202 63.5,-168 21.5,-168"/>
<polygon fill="none" stroke="black" points="21.5,-168 21.5,-202 63.5,-202 63.5,-168 21.5,-168"/>
<text text-anchor="start" x="30.12" y="-180.7" font-family="Times,serif" font-size="14.00">A</text>
<text text-anchor="start" x="39.88" y="-180.7" font-family="Times,serif" baseline-shift="sub" font-size="14.00">i,m</text>
<polygon fill="#d6eaf8" stroke="none" points="65.5,-168 65.5,-202 97.5,-202 97.5,-168 65.5,-168"/>
<polygon fill="none" stroke="black" points="65.5,-168 65.5,-202 97.5,-202 97.5,-168 65.5,-168"/>
<text text-anchor="start" x="74.38" y="-179.7" font-family="Times,serif" font-size="14.00">…</text>
<polygon fill="none" stroke="black" points="21.5,-135 21.5,-166 63.5,-166 63.5,-135 21.5,-135"/>
<text text-anchor="start" x="36.12" y="-143.7" font-family="Times,serif" font-size="14.00">⋰</text>
<polygon fill="none" stroke="black" points="65.5,-135 65.5,-166 97.5,-166 97.5,-135 65.5,-135"/>
<text text-anchor="start" x="74.75" y="-143.7" font-family="Times,serif" font-size="14.00">⋱</text>
<polygon fill="none" stroke="black" points="18.5,-132 18.5,-238 100.5,-238 100.5,-132 18.5,-132"/>
</g>
<!-- B -->
<g id="node2" class="node">
<title>B</title>
<polygon fill="none" stroke="black" points="3,-77 3,-111 35,-111 35,-77 3,-77"/>
<text text-anchor="start" x="12.25" y="-87.45" font-family="Times,serif" font-size="14.00">⋱</text>
<polygon fill="#d6eaf8" stroke="none" points="37,-77 37,-111 82,-111 82,-77 37,-77"/>
<polygon fill="none" stroke="black" points="37,-77 37,-111 82,-111 82,-77 37,-77"/>
<text text-anchor="start" x="52.38" y="-88.7" font-family="Times,serif" font-size="14.00">…</text>
<polygon fill="none" stroke="black" points="84,-77 84,-111 116,-111 116,-77 84,-77"/>
<text text-anchor="start" x="93.62" y="-87.45" font-family="Times,serif" font-size="14.00">⋰</text>
<polygon fill="none" stroke="black" points="3,-41 3,-75 35,-75 35,-41 3,-41"/>
<text text-anchor="start" x="11.88" y="-52.7" font-family="Times,serif" font-size="14.00">…</text>
<polygon fill="#d6eaf8" stroke="none" points="37,-41 37,-75 82,-75 82,-41 37,-41"/>
<polygon fill="none" stroke="black" points="37,-41 37,-75 82,-75 82,-41 37,-41"/>
<text text-anchor="start" x="46" y="-53.7" font-family="Times,serif" font-size="14.00">B</text>
<text text-anchor="start" x="55" y="-53.7" font-family="Times,serif" baseline-shift="sub" font-size="14.00">m,n</text>
<polygon fill="none" stroke="black" points="84,-41 84,-75 116,-75 116,-41 84,-41"/>
<text text-anchor="start" x="92.88" y="-52.7" font-family="Times,serif" font-size="14.00">…</text>
<polygon fill="none" stroke="black" points="3,-5 3,-39 35,-39 35,-5 3,-5"/>
<text text-anchor="start" x="12.62" y="-15.45" font-family="Times,serif" font-size="14.00">⋰</text>
<polygon fill="#d6eaf8" stroke="none" points="37,-5 37,-39 82,-39 82,-5 37,-5"/>
<polygon fill="none" stroke="black" points="37,-5 37,-39 82,-39 82,-5 37,-5"/>
<text text-anchor="start" x="52.38" y="-16.7" font-family="Times,serif" font-size="14.00">…</text>
<polygon fill="none" stroke="black" points="84,-5 84,-39 116,-39 116,-5 84,-5"/>
<text text-anchor="start" x="93.25" y="-15.45" font-family="Times,serif" font-size="14.00">⋱</text>
<polygon fill="none" stroke="black" points="0,-2 0,-114 119,-114 119,-2 0,-2"/>
</g>
<!-- op -->
<g id="node3" class="node">
<title>op</title>
<polygon fill="#e5e8e8" stroke="black" points="221,-141.25 155,-141.25 155,-100.75 221,-100.75 221,-94.75 239,-121 221,-147.25 221,-141.25"/>
<text text-anchor="middle" x="197" y="-115.95" font-family="Times,serif" font-size="14.00">Operator</text>
</g>
<!-- op&#45;&gt;A -->
<g id="edge1" class="edge">
<title>op&#45;&gt;A</title>
<path fill="none" stroke="black" d="M154.61,-140.55C140.71,-147.12 125.05,-154.51 110.55,-161.36"/>
<polygon fill="black" stroke="black" points="109.16,-158.15 101.61,-165.58 112.15,-164.48 109.16,-158.15"/>
</g>
<!-- op&#45;&gt;B -->
<g id="edge2" class="edge">
<title>op&#45;&gt;B</title>
<path fill="none" stroke="black" d="M154.61,-101.76C146.44,-97.96 137.67,-93.88 128.88,-89.79"/>
<polygon fill="black" stroke="black" points="130.51,-86.69 119.97,-85.65 127.56,-93.04 130.51,-86.69"/>
</g>
<!-- X -->
<g id="node4" class="node">
<title>X</title>
<polygon fill="none" stroke="black" points="278,-205 278,-239 310,-239 310,-205 278,-205"/>
<text text-anchor="start" x="287.25" y="-215.45" font-family="Times,serif" font-size="14.00">⋱</text>
<polygon fill="none" stroke="black" points="312,-205 312,-239 351,-239 351,-205 312,-205"/>
<text text-anchor="start" x="324.38" y="-216.7" font-family="Times,serif" font-size="14.00">…</text>
<polygon fill="none" stroke="black" points="353,-205 353,-239 385,-239 385,-205 353,-205"/>
<text text-anchor="start" x="362.62" y="-215.45" font-family="Times,serif" font-size="14.00">⋰</text>
<polygon fill="none" stroke="black" points="278,-169 278,-203 310,-203 310,-169 278,-169"/>
<text text-anchor="start" x="286.88" y="-180.7" font-family="Times,serif" font-size="14.00">…</text>
<polygon fill="#d6eaf8" stroke="none" points="312,-169 312,-203 351,-203 351,-169 312,-169"/>
<polygon fill="none" stroke="black" points="312,-169 312,-203 351,-203 351,-169 312,-169"/>
<text text-anchor="start" x="320.62" y="-181.7" font-family="Times,serif" font-size="14.00">X</text>
<text text-anchor="start" x="330.38" y="-181.7" font-family="Times,serif" baseline-shift="sub" font-size="14.00">i,n</text>
<polygon fill="none" stroke="black" points="353,-169 353,-203 385,-203 385,-169 353,-169"/>
<text text-anchor="start" x="361.88" y="-180.7" font-family="Times,serif" font-size="14.00">…</text>
<polygon fill="none" stroke="black" points="278,-133 278,-167 310,-167 310,-133 278,-133"/>
<text text-anchor="start" x="287.62" y="-143.45" font-family="Times,serif" font-size="14.00">⋰</text>
<polygon fill="none" stroke="black" points="312,-133 312,-167 351,-167 351,-133 312,-133"/>
<text text-anchor="start" x="324.38" y="-144.7" font-family="Times,serif" font-size="14.00">…</text>
<polygon fill="none" stroke="black" points="353,-133 353,-167 385,-167 385,-133 353,-133"/>
<text text-anchor="start" x="362.25" y="-143.45" font-family="Times,serif" font-size="14.00">⋱</text>
<polygon fill="none" stroke="black" points="275,-130 275,-242 388,-242 388,-130 275,-130"/>
</g>
<!-- X&#45;&gt;op -->
<g id="edge3" class="edge">
<title>X&#45;&gt;op</title>
<path fill="none" stroke="black" d="M275.08,-158.81C266.7,-154.7 258.08,-150.48 249.79,-146.41"/>
<polygon fill="black" stroke="black" points="251.37,-143.28 240.85,-142.02 248.29,-149.57 251.37,-143.28"/>
</g>
<!-- Y -->
<g id="node5" class="node">
<title>Y</title>
<polygon fill="none" stroke="black" points="278,-75 278,-109 310,-109 310,-75 278,-75"/>
<text text-anchor="start" x="287.25" y="-85.45" font-family="Times,serif" font-size="14.00">⋱</text>
<polygon fill="none" stroke="black" points="312,-75 312,-109 351,-109 351,-75 312,-75"/>
<text text-anchor="start" x="324.38" y="-86.7" font-family="Times,serif" font-size="14.00">…</text>
<polygon fill="none" stroke="black" points="353,-75 353,-109 385,-109 385,-75 353,-75"/>
<text text-anchor="start" x="362.62" y="-85.45" font-family="Times,serif" font-size="14.00">⋰</text>
<polygon fill="none" stroke="black" points="278,-39 278,-73 310,-73 310,-39 278,-39"/>
<text text-anchor="start" x="286.88" y="-50.7" font-family="Times,serif" font-size="14.00">…</text>
<polygon fill="#d6eaf8" stroke="none" points="312,-39 312,-73 351,-73 351,-39 312,-39"/>
<polygon fill="none" stroke="black" points="312,-39 312,-73 351,-73 351,-39 312,-39"/>
<text text-anchor="start" x="320.62" y="-51.7" font-family="Times,serif" font-size="14.00">Y</text>
<text text-anchor="start" x="330.38" y="-51.7" font-family="Times,serif" baseline-shift="sub" font-size="14.00">i,n</text>
<polygon fill="none" stroke="black" points="353,-39 353,-73 385,-73 385,-39 353,-39"/>
<text text-anchor="start" x="361.88" y="-50.7" font-family="Times,serif" font-size="14.00">…</text>
<polygon fill="none" stroke="black" points="278,-3 278,-37 310,-37 310,-3 278,-3"/>
<text text-anchor="start" x="287.62" y="-13.45" font-family="Times,serif" font-size="14.00">⋰</text>
<polygon fill="none" stroke="black" points="312,-3 312,-37 351,-37 351,-3 312,-3"/>
<text text-anchor="start" x="324.38" y="-14.7" font-family="Times,serif" font-size="14.00">…</text>
<polygon fill="none" stroke="black" points="353,-3 353,-37 385,-37 385,-3 353,-3"/>
<text text-anchor="start" x="362.25" y="-13.45" font-family="Times,serif" font-size="14.00">⋱</text>
<polygon fill="none" stroke="black" points="275,0 275,-112 388,-112 388,0 275,0"/>
</g>
<!-- Y&#45;&gt;op -->
<g id="edge4" class="edge">
<title>Y&#45;&gt;op</title>
<path fill="none" stroke="black" d="M275.08,-83.19C266.7,-87.3 258.08,-91.52 249.79,-95.59"/>
<polygon fill="black" stroke="black" points="248.29,-92.43 240.85,-99.98 251.37,-98.72 248.29,-92.43"/>
</g>
</g>
</svg>
