<?xml version="1.0" encoding="UTF-8" standalone="no"?>
<!DOCTYPE svg PUBLIC "-//W3C//DTD SVG 1.1//EN"
 "http://www.w3.org/Graphics/SVG/1.1/DTD/svg11.dtd">
<!-- Generated by graphviz version 9.0.0 (20230911.1827)
 -->
<!-- Title: G Pages: 1 -->
<svg width="768pt" height="271pt"
 viewBox="0.00 0.00 768.14 271.00" xmlns="http://www.w3.org/2000/svg" xmlns:xlink="http://www.w3.org/1999/xlink">
<g id="graph0" class="graph" transform="scale(1 1) rotate(0) translate(4 267)">
<title>G</title>
<polygon fill="white" stroke="none" points="-4,4 -4,-267 764.14,-267 764.14,4 -4,4"/>
<!-- A1 -->
<g id="node1" class="node">
<title>A1</title>
<polygon fill="#d0d0ff" stroke="black" points="300.98,-237 250.98,-237 246.98,-233 246.98,-201 296.98,-201 300.98,-205 300.98,-237"/>
<polyline fill="none" stroke="black" points="296.98,-233 246.98,-233"/>
<polyline fill="none" stroke="black" points="296.98,-233 296.98,-201"/>
<polyline fill="none" stroke="black" points="296.98,-233 300.98,-237"/>
<text text-anchor="middle" x="273.98" y="-213.95" font-family="Times,serif" font-size="14.00">A1</text>
</g>
<!-- SA1 -->
<g id="node15" class="node">
<title>SA1</title>
<polygon fill="#a0d0d0" stroke="black" points="210.98,-237 166.46,-237 155,-201 199.53,-201 210.98,-237"/>
<text text-anchor="start" x="170.62" y="-213.95" font-family="Times,serif" font-size="14.00">slice</text>
</g>
<!-- A1&#45;&gt;SA1 -->
<g id="edge3" class="edge">
<title>A1&#45;&gt;SA1</title>
<path fill="none" stroke="black" d="M246.77,-219C237.43,-219 226.8,-219 216.98,-219"/>
<polygon fill="black" stroke="black" points="217.05,-215.5 207.05,-219 217.05,-222.5 217.05,-215.5"/>
</g>
<!-- A2 -->
<g id="node2" class="node">
<title>A2</title>
<polygon fill="#d0d0ff" stroke="black" points="300.98,-129 250.98,-129 246.98,-125 246.98,-93 296.98,-93 300.98,-97 300.98,-129"/>
<polyline fill="none" stroke="black" points="296.98,-125 246.98,-125"/>
<polyline fill="none" stroke="black" points="296.98,-125 296.98,-93"/>
<polyline fill="none" stroke="black" points="296.98,-125 300.98,-129"/>
<text text-anchor="middle" x="273.98" y="-105.95" font-family="Times,serif" font-size="14.00">A2</text>
</g>
<!-- SA2 -->
<g id="node16" class="node">
<title>SA2</title>
<polygon fill="#a0d0d0" stroke="black" points="210.98,-129 166.46,-129 155,-93 199.53,-93 210.98,-129"/>
<text text-anchor="start" x="170.62" y="-105.95" font-family="Times,serif" font-size="14.00">slice</text>
</g>
<!-- A2&#45;&gt;SA2 -->
<g id="edge4" class="edge">
<title>A2&#45;&gt;SA2</title>
<path fill="none" stroke="black" d="M246.77,-111C237.43,-111 226.8,-111 216.98,-111"/>
<polygon fill="black" stroke="black" points="217.05,-107.5 207.05,-111 217.05,-114.5 217.05,-107.5"/>
</g>
<!-- B1 -->
<g id="node3" class="node">
<title>B1</title>
<polygon fill="#d0d0ff" stroke="black" points="300.98,-183 250.98,-183 246.98,-179 246.98,-147 296.98,-147 300.98,-151 300.98,-183"/>
<polyline fill="none" stroke="black" points="296.98,-179 246.98,-179"/>
<polyline fill="none" stroke="black" points="296.98,-179 296.98,-147"/>
<polyline fill="none" stroke="black" points="296.98,-179 300.98,-183"/>
<text text-anchor="middle" x="273.98" y="-159.95" font-family="Times,serif" font-size="14.00">B1</text>
</g>
<!-- SB1 -->
<g id="node17" class="node">
<title>SB1</title>
<polygon fill="#a0d0d0" stroke="black" points="210.98,-183 166.46,-183 155,-147 199.53,-147 210.98,-183"/>
<text text-anchor="start" x="170.62" y="-159.95" font-family="Times,serif" font-size="14.00">slice</text>
</g>
<!-- B1&#45;&gt;SB1 -->
<g id="edge7" class="edge">
<title>B1&#45;&gt;SB1</title>
<path fill="none" stroke="black" d="M246.77,-165C237.43,-165 226.8,-165 216.98,-165"/>
<polygon fill="black" stroke="black" points="217.05,-161.5 207.05,-165 217.05,-168.5 217.05,-161.5"/>
</g>
<!-- B2 -->
<g id="node4" class="node">
<title>B2</title>
<polygon fill="#d0d0ff" stroke="black" points="300.98,-75 250.98,-75 246.98,-71 246.98,-39 296.98,-39 300.98,-43 300.98,-75"/>
<polyline fill="none" stroke="black" points="296.98,-71 246.98,-71"/>
<polyline fill="none" stroke="black" points="296.98,-71 296.98,-39"/>
<polyline fill="none" stroke="black" points="296.98,-71 300.98,-75"/>
<text text-anchor="middle" x="273.98" y="-51.95" font-family="Times,serif" font-size="14.00">B2</text>
</g>
<!-- SB2 -->
<g id="node18" class="node">
<title>SB2</title>
<polygon fill="#a0d0d0" stroke="black" points="210.98,-75 166.46,-75 155,-39 199.53,-39 210.98,-75"/>
<text text-anchor="start" x="170.62" y="-51.95" font-family="Times,serif" font-size="14.00">slice</text>
</g>
<!-- B2&#45;&gt;SB2 -->
<g id="edge8" class="edge">
<title>B2&#45;&gt;SB2</title>
<path fill="none" stroke="black" d="M246.77,-57C237.43,-57 226.8,-57 216.98,-57"/>
<polygon fill="black" stroke="black" points="217.05,-53.5 207.05,-57 217.05,-60.5 217.05,-53.5"/>
</g>
<!-- X1 -->
<g id="node5" class="node">
<title>X1</title>
<polygon fill="#d0d0ff" stroke="black" points="516.98,-228 466.98,-228 462.98,-224 462.98,-192 512.98,-192 516.98,-196 516.98,-228"/>
<polyline fill="none" stroke="black" points="512.98,-224 462.98,-224"/>
<polyline fill="none" stroke="black" points="512.98,-224 512.98,-192"/>
<polyline fill="none" stroke="black" points="512.98,-224 516.98,-228"/>
<text text-anchor="middle" x="489.98" y="-204.95" font-family="Times,serif" font-size="14.00">X1</text>
</g>
<!-- op1 -->
<g id="node11" class="node">
<title>op1</title>
<polygon fill="#e5e8e8" stroke="black" points="408.98,-202.25 336.98,-202.25 336.98,-161.75 408.98,-161.75 408.98,-155.75 426.98,-182 408.98,-208.25 408.98,-202.25"/>
<text text-anchor="start" x="354.98" y="-177.95" font-family="Times,serif" font-size="14.00">Operator</text>
<text text-anchor="start" x="402.98" y="-177.95" font-family="Times,serif" baseline-shift="sub" font-size="14.00">1</text>
</g>
<!-- X1&#45;&gt;op1 -->
<g id="edge11" class="edge">
<title>X1&#45;&gt;op1</title>
<path fill="none" stroke="black" d="M462.51,-203.01C455.09,-201.05 446.74,-198.84 438.31,-196.61"/>
<polygon fill="black" stroke="black" points="439.27,-193.25 428.71,-194.08 437.49,-200.02 439.27,-193.25"/>
</g>
<!-- X2 -->
<g id="node6" class="node">
<title>X2</title>
<polygon fill="#d0d0ff" stroke="black" points="516.98,-174 466.98,-174 462.98,-170 462.98,-138 512.98,-138 516.98,-142 516.98,-174"/>
<polyline fill="none" stroke="black" points="512.98,-170 462.98,-170"/>
<polyline fill="none" stroke="black" points="512.98,-170 512.98,-138"/>
<polyline fill="none" stroke="black" points="512.98,-170 516.98,-174"/>
<text text-anchor="middle" x="489.98" y="-150.95" font-family="Times,serif" font-size="14.00">X2</text>
</g>
<!-- op2 -->
<g id="node12" class="node">
<title>op2</title>
<polygon fill="#e5e8e8" stroke="black" points="408.98,-113.25 336.98,-113.25 336.98,-72.75 408.98,-72.75 408.98,-66.75 426.98,-93 408.98,-119.25 408.98,-113.25"/>
<text text-anchor="start" x="354.98" y="-88.95" font-family="Times,serif" font-size="14.00">Operator</text>
<text text-anchor="start" x="402.98" y="-88.95" font-family="Times,serif" baseline-shift="sub" font-size="14.00">2</text>
</g>
<!-- X2&#45;&gt;op2 -->
<g id="edge15" class="edge">
<title>X2&#45;&gt;op2</title>
<path fill="none" stroke="black" d="M462.51,-140.26C454.67,-135.61 445.8,-130.33 436.88,-125.03"/>
<polygon fill="black" stroke="black" points="438.93,-122.18 428.55,-120.08 435.36,-128.2 438.93,-122.18"/>
</g>
<!-- Y1 -->
<g id="node7" class="node">
<title>Y1</title>
<polygon fill="#d0d0ff" stroke="black" points="516.98,-120 466.98,-120 462.98,-116 462.98,-84 512.98,-84 516.98,-88 516.98,-120"/>
<polyline fill="none" stroke="black" points="512.98,-116 462.98,-116"/>
<polyline fill="none" stroke="black" points="512.98,-116 512.98,-84"/>
<polyline fill="none" stroke="black" points="512.98,-116 516.98,-120"/>
<text text-anchor="middle" x="489.98" y="-96.95" font-family="Times,serif" font-size="14.00">Y1</text>
</g>
<!-- Y1&#45;&gt;op1 -->
<g id="edge12" class="edge">
<title>Y1&#45;&gt;op1</title>
<path fill="none" stroke="black" d="M464.67,-120.35C453.55,-128.74 440.03,-138.95 427.21,-148.63"/>
<polygon fill="black" stroke="black" points="425.12,-145.81 419.25,-154.63 429.34,-151.4 425.12,-145.81"/>
</g>
<!-- Y2 -->
<g id="node8" class="node">
<title>Y2</title>
<polygon fill="#d0d0ff" stroke="black" points="516.98,-66 466.98,-66 462.98,-62 462.98,-30 512.98,-30 516.98,-34 516.98,-66"/>
<polyline fill="none" stroke="black" points="512.98,-62 462.98,-62"/>
<polyline fill="none" stroke="black" points="512.98,-62 512.98,-30"/>
<polyline fill="none" stroke="black" points="512.98,-62 516.98,-66"/>
<text text-anchor="middle" x="489.98" y="-42.95" font-family="Times,serif" font-size="14.00">Y2</text>
</g>
<!-- Y2&#45;&gt;op2 -->
<g id="edge16" class="edge">
<title>Y2&#45;&gt;op2</title>
<path fill="none" stroke="black" d="M462.51,-59.24C454.92,-62.46 446.36,-66.09 437.74,-69.76"/>
<polygon fill="black" stroke="black" points="436.48,-66.49 428.64,-73.62 439.21,-72.93 436.48,-66.49"/>
</g>
<!-- A -->
<g id="node9" class="node">
<title>A</title>
<polygon fill="none" stroke="black" points="21.5,-229 21.5,-260 63.5,-260 63.5,-229 21.5,-229"/>
<text text-anchor="start" x="35.75" y="-237.7" font-family="Times,serif" font-size="14.00">⋱</text>
<polygon fill="none" stroke="black" points="65.5,-229 65.5,-260 97.5,-260 97.5,-229 65.5,-229"/>
<text text-anchor="start" x="75.12" y="-237.7" font-family="Times,serif" font-size="14.00">⋰</text>
<polygon fill="#d6eaf8" stroke="none" points="21.5,-193 21.5,-227 63.5,-227 63.5,-193 21.5,-193"/>
<polygon fill="none" stroke="black" points="21.5,-193 21.5,-227 63.5,-227 63.5,-193 21.5,-193"/>
<text text-anchor="start" x="30.12" y="-205.7" font-family="Times,serif" font-size="14.00">A</text>
<text text-anchor="start" x="39.88" y="-205.7" font-family="Times,serif" baseline-shift="sub" font-size="14.00">i,m</text>
<polygon fill="#d6eaf8" stroke="none" points="65.5,-193 65.5,-227 97.5,-227 97.5,-193 65.5,-193"/>
<polygon fill="none" stroke="black" points="65.5,-193 65.5,-227 97.5,-227 97.5,-193 65.5,-193"/>
<text text-anchor="start" x="74.38" y="-204.7" font-family="Times,serif" font-size="14.00">…</text>
<polygon fill="none" stroke="black" points="21.5,-160 21.5,-191 63.5,-191 63.5,-160 21.5,-160"/>
<text text-anchor="start" x="36.12" y="-168.7" font-family="Times,serif" font-size="14.00">⋰</text>
<polygon fill="none" stroke="black" points="65.5,-160 65.5,-191 97.5,-191 97.5,-160 65.5,-160"/>
<text text-anchor="start" x="74.75" y="-168.7" font-family="Times,serif" font-size="14.00">⋱</text>
<polygon fill="none" stroke="black" points="18.5,-157 18.5,-263 100.5,-263 100.5,-157 18.5,-157"/>
</g>
<!-- B -->
<g id="node10" class="node">
<title>B</title>
<polygon fill="none" stroke="black" points="3,-93 3,-127 35,-127 35,-93 3,-93"/>
<text text-anchor="start" x="12.25" y="-103.45" font-family="Times,serif" font-size="14.00">⋱</text>
<polygon fill="#d6eaf8" stroke="none" points="37,-93 37,-127 82,-127 82,-93 37,-93"/>
<polygon fill="none" stroke="black" points="37,-93 37,-127 82,-127 82,-93 37,-93"/>
<text text-anchor="start" x="52.38" y="-104.7" font-family="Times,serif" font-size="14.00">…</text>
<polygon fill="none" stroke="black" points="84,-93 84,-127 116,-127 116,-93 84,-93"/>
<text text-anchor="start" x="93.62" y="-103.45" font-family="Times,serif" font-size="14.00">⋰</text>
<polygon fill="none" stroke="black" points="3,-57 3,-91 35,-91 35,-57 3,-57"/>
<text text-anchor="start" x="11.88" y="-68.7" font-family="Times,serif" font-size="14.00">…</text>
<polygon fill="#d6eaf8" stroke="none" points="37,-57 37,-91 82,-91 82,-57 37,-57"/>
<polygon fill="none" stroke="black" points="37,-57 37,-91 82,-91 82,-57 37,-57"/>
<text text-anchor="start" x="46" y="-69.7" font-family="Times,serif" font-size="14.00">B</text>
<text text-anchor="start" x="55" y="-69.7" font-family="Times,serif" baseline-shift="sub" font-size="14.00">m,n</text>
<polygon fill="none" stroke="black" points="84,-57 84,-91 116,-91 116,-57 84,-57"/>
<text text-anchor="start" x="92.88" y="-68.7" font-family="Times,serif" font-size="14.00">…</text>
<polygon fill="none" stroke="black" points="3,-21 3,-55 35,-55 35,-21 3,-21"/>
<text text-anchor="start" x="12.62" y="-31.45" font-family="Times,serif" font-size="14.00">⋰</text>
<polygon fill="#d6eaf8" stroke="none" points="37,-21 37,-55 82,-55 82,-21 37,-21"/>
<polygon fill="none" stroke="black" points="37,-21 37,-55 82,-55 82,-21 37,-21"/>
<text text-anchor="start" x="52.38" y="-32.7" font-family="Times,serif" font-size="14.00">…</text>
<polygon fill="none" stroke="black" points="84,-21 84,-55 116,-55 116,-21 84,-21"/>
<text text-anchor="start" x="93.25" y="-31.45" font-family="Times,serif" font-size="14.00">⋱</text>
<polygon fill="none" stroke="black" points="0,-18 0,-130 119,-130 119,-18 0,-18"/>
</g>
<!-- op1&#45;&gt;A1 -->
<g id="edge9" class="edge">
<title>op1&#45;&gt;A1</title>
<path fill="none" stroke="black" d="M336.65,-197.48C328.47,-200.33 320.01,-203.28 312.08,-206.05"/>
<polygon fill="black" stroke="black" points="311.01,-202.72 302.73,-209.32 313.32,-209.33 311.01,-202.72"/>
</g>
<!-- op1&#45;&gt;B1 -->
<g id="edge10" class="edge">
<title>op1&#45;&gt;B1</title>
<path fill="none" stroke="black" d="M336.65,-174.89C328.66,-173.61 320.4,-172.28 312.63,-171.04"/>
<polygon fill="black" stroke="black" points="313.22,-167.59 302.79,-169.46 312.11,-174.5 313.22,-167.59"/>
</g>
<!-- op2&#45;&gt;A2 -->
<g id="edge13" class="edge">
<title>op2&#45;&gt;A2</title>
<path fill="none" stroke="black" d="M336.65,-100.53C328.66,-101.89 320.4,-103.29 312.63,-104.61"/>
<polygon fill="black" stroke="black" points="312.06,-101.15 302.79,-106.28 313.23,-108.05 312.06,-101.15"/>
</g>
<!-- op2&#45;&gt;B2 -->
<g id="edge14" class="edge">
<title>op2&#45;&gt;B2</title>
<path fill="none" stroke="black" d="M336.65,-77.94C328.47,-75.17 320.01,-72.29 312.08,-69.6"/>
<polygon fill="black" stroke="black" points="313.33,-66.32 302.73,-66.42 311.07,-72.95 313.33,-66.32"/>
</g>
<!-- X -->
<g id="node13" class="node">
<title>X</title>
<polygon fill="none" stroke="black" points="650.14,-221 650.14,-255 682.14,-255 682.14,-221 650.14,-221"/>
<text text-anchor="start" x="659.39" y="-231.45" font-family="Times,serif" font-size="14.00">⋱</text>
<polygon fill="none" stroke="black" points="684.14,-221 684.14,-255 723.14,-255 723.14,-221 684.14,-221"/>
<text text-anchor="start" x="696.51" y="-232.7" font-family="Times,serif" font-size="14.00">…</text>
<polygon fill="none" stroke="black" points="725.14,-221 725.14,-255 757.14,-255 757.14,-221 725.14,-221"/>
<text text-anchor="start" x="734.76" y="-231.45" font-family="Times,serif" font-size="14.00">⋰</text>
<polygon fill="none" stroke="black" points="650.14,-185 650.14,-219 682.14,-219 682.14,-185 650.14,-185"/>
<text text-anchor="start" x="659.01" y="-196.7" font-family="Times,serif" font-size="14.00">…</text>
<polygon fill="#d6eaf8" stroke="none" points="684.14,-185 684.14,-219 723.14,-219 723.14,-185 684.14,-185"/>
<polygon fill="none" stroke="black" points="684.14,-185 684.14,-219 723.14,-219 723.14,-185 684.14,-185"/>
<text text-anchor="start" x="692.76" y="-197.7" font-family="Times,serif" font-size="14.00">X</text>
<text text-anchor="start" x="702.51" y="-197.7" font-family="Times,serif" baseline-shift="sub" font-size="14.00">i,n</text>
<polygon fill="none" stroke="black" points="725.14,-185 725.14,-219 757.14,-219 757.14,-185 725.14,-185"/>
<text text-anchor="start" x="734.01" y="-196.7" font-family="Times,serif" font-size="14.00">…</text>
<polygon fill="none" stroke="black" points="650.14,-149 650.14,-183 682.14,-183 682.14,-149 650.14,-149"/>
<text text-anchor="start" x="659.76" y="-159.45" font-family="Times,serif" font-size="14.00">⋰</text>
<polygon fill="none" stroke="black" points="684.14,-149 684.14,-183 723.14,-183 723.14,-149 684.14,-149"/>
<text text-anchor="start" x="696.51" y="-160.7" font-family="Times,serif" font-size="14.00">…</text>
<polygon fill="none" stroke="black" points="725.14,-149 725.14,-183 757.14,-183 757.14,-149 725.14,-149"/>
<text text-anchor="start" x="734.39" y="-159.45" font-family="Times,serif" font-size="14.00">⋱</text>
<polygon fill="none" stroke="black" points="647.14,-146 647.14,-258 760.14,-258 760.14,-146 647.14,-146"/>
</g>
<!-- SX -->
<g id="node19" class="node">
<title>SX</title>
<polygon fill="#a0d0d0" stroke="black" points="611.14,-220 564.88,-220 552.98,-184 599.24,-184 611.14,-220"/>
<text text-anchor="start" x="564.44" y="-196.95" font-family="Times,serif" font-size="14.00">concat</text>
</g>
<!-- X&#45;&gt;SX -->
<g id="edge21" class="edge">
<title>X&#45;&gt;SX</title>
<path fill="none" stroke="black" d="M647.4,-202C636.99,-202 626.39,-202 616.88,-202"/>
<polygon fill="black" stroke="black" points="617.02,-198.5 607.02,-202 617.02,-205.5 617.02,-198.5"/>
</g>
<!-- Y -->
<g id="node14" class="node">
<title>Y</title>
<polygon fill="none" stroke="black" points="650.14,-75 650.14,-109 682.14,-109 682.14,-75 650.14,-75"/>
<text text-anchor="start" x="659.39" y="-85.45" font-family="Times,serif" font-size="14.00">⋱</text>
<polygon fill="none" stroke="black" points="684.14,-75 684.14,-109 723.14,-109 723.14,-75 684.14,-75"/>
<text text-anchor="start" x="696.51" y="-86.7" font-family="Times,serif" font-size="14.00">…</text>
<polygon fill="none" stroke="black" points="725.14,-75 725.14,-109 757.14,-109 757.14,-75 725.14,-75"/>
<text text-anchor="start" x="734.76" y="-85.45" font-family="Times,serif" font-size="14.00">⋰</text>
<polygon fill="none" stroke="black" points="650.14,-39 650.14,-73 682.14,-73 682.14,-39 650.14,-39"/>
<text text-anchor="start" x="659.01" y="-50.7" font-family="Times,serif" font-size="14.00">…</text>
<polygon fill="#d6eaf8" stroke="none" points="684.14,-39 684.14,-73 723.14,-73 723.14,-39 684.14,-39"/>
<polygon fill="none" stroke="black" points="684.14,-39 684.14,-73 723.14,-73 723.14,-39 684.14,-39"/>
<text text-anchor="start" x="692.76" y="-51.7" font-family="Times,serif" font-size="14.00">Y</text>
<text text-anchor="start" x="702.51" y="-51.7" font-family="Times,serif" baseline-shift="sub" font-size="14.00">i,n</text>
<polygon fill="none" stroke="black" points="725.14,-39 725.14,-73 757.14,-73 757.14,-39 725.14,-39"/>
<text text-anchor="start" x="734.01" y="-50.7" font-family="Times,serif" font-size="14.00">…</text>
<polygon fill="none" stroke="black" points="650.14,-3 650.14,-37 682.14,-37 682.14,-3 650.14,-3"/>
<text text-anchor="start" x="659.76" y="-13.45" font-family="Times,serif" font-size="14.00">⋰</text>
<polygon fill="none" stroke="black" points="684.14,-3 684.14,-37 723.14,-37 723.14,-3 684.14,-3"/>
<text text-anchor="start" x="696.51" y="-14.7" font-family="Times,serif" font-size="14.00">…</text>
<polygon fill="none" stroke="black" points="725.14,-3 725.14,-37 757.14,-37 757.14,-3 725.14,-3"/>
<text text-anchor="start" x="734.39" y="-13.45" font-family="Times,serif" font-size="14.00">⋱</text>
<polygon fill="none" stroke="black" points="647.14,0 647.14,-112 760.14,-112 760.14,0 647.14,0"/>
</g>
<!-- SY -->
<g id="node20" class="node">
<title>SY</title>
<polygon fill="#a0d0d0" stroke="black" points="611.14,-74 564.88,-74 552.98,-38 599.24,-38 611.14,-74"/>
<text text-anchor="start" x="564.44" y="-50.95" font-family="Times,serif" font-size="14.00">concat</text>
</g>
<!-- Y&#45;&gt;SY -->
<g id="edge22" class="edge">
<title>Y&#45;&gt;SY</title>
<path fill="none" stroke="black" d="M647.4,-56C636.99,-56 626.39,-56 616.88,-56"/>
<polygon fill="black" stroke="black" points="617.02,-52.5 607.02,-56 617.02,-59.5 617.02,-52.5"/>
</g>
<!-- SA1&#45;&gt;A -->
<g id="edge1" class="edge">
<title>SA1&#45;&gt;A</title>
<path fill="none" stroke="black" d="M159.71,-217.35C146.24,-216.35 128.48,-215.04 111.72,-213.79"/>
<polygon fill="black" stroke="black" points="112.08,-210.31 101.85,-213.06 111.56,-217.29 112.08,-210.31"/>
</g>
<!-- SA2&#45;&gt;A -->
<g id="edge2" class="edge">
<title>SA2&#45;&gt;A</title>
<path fill="none" stroke="black" d="M164.84,-124.97C150.38,-136.76 128.95,-154.23 109.26,-170.27"/>
<polygon fill="black" stroke="black" points="107.08,-167.53 101.54,-176.56 111.51,-172.95 107.08,-167.53"/>
</g>
<!-- SB1&#45;&gt;B -->
<g id="edge5" class="edge">
<title>SB1&#45;&gt;B</title>
<path fill="none" stroke="black" d="M157.41,-146.58C148.69,-140.05 138.4,-132.35 127.85,-124.44"/>
<polygon fill="black" stroke="black" points="130.26,-121.88 120.16,-118.69 126.06,-127.48 130.26,-121.88"/>
</g>
<!-- SB2&#45;&gt;B -->
<g id="edge6" class="edge">
<title>SB2&#45;&gt;B</title>
<path fill="none" stroke="black" d="M161.38,-59.88C152.55,-61.12 141.66,-62.64 130.35,-64.23"/>
<polygon fill="black" stroke="black" points="129.86,-60.76 120.45,-65.61 130.83,-67.69 129.86,-60.76"/>
</g>
<!-- SX&#45;&gt;X1 -->
<g id="edge17" class="edge">
<title>SX&#45;&gt;X1</title>
<path fill="none" stroke="black" d="M559.26,-203.94C550.1,-204.75 539.18,-205.72 528.79,-206.64"/>
<polygon fill="black" stroke="black" points="528.56,-203.15 518.91,-207.52 529.18,-210.12 528.56,-203.15"/>
</g>
<!-- SX&#45;&gt;X2 -->
<g id="edge18" class="edge">
<title>SX&#45;&gt;X2</title>
<path fill="none" stroke="black" d="M554.03,-188.2C545.69,-183.94 536.36,-179.17 527.49,-174.64"/>
<polygon fill="black" stroke="black" points="529.22,-171.59 518.72,-170.16 526.03,-177.83 529.22,-171.59"/>
</g>
<!-- SY&#45;&gt;Y1 -->
<g id="edge19" class="edge">
<title>SY&#45;&gt;Y1</title>
<path fill="none" stroke="black" d="M561.96,-65.76C551.89,-70.9 539.2,-77.37 527.35,-83.43"/>
<polygon fill="black" stroke="black" points="525.9,-80.24 518.58,-87.91 529.08,-86.47 525.9,-80.24"/>
</g>
<!-- SY&#45;&gt;Y2 -->
<g id="edge20" class="edge">
<title>SY&#45;&gt;Y2</title>
<path fill="none" stroke="black" d="M557.86,-53.94C548.95,-53.15 538.52,-52.22 528.59,-51.34"/>
<polygon fill="black" stroke="black" points="529.06,-47.87 518.79,-50.47 528.44,-54.84 529.06,-47.87"/>
</g>
</g>
</svg>
